<svg width="101" height="100" viewBox="0 0 101 100" fill="none" xmlns="http://www.w3.org/2000/svg">
<circle cx="50.8362" cy="50" r="50" fill="#595880"/>
<path d="M50.5677 67.5636C49.795 67.5636 49.0966 67.3778 48.4725 67.0063C47.8484 66.6348 47.358 66.137 47.0014 65.5129C46.0206 65.5129 45.181 65.1637 44.4826 64.4653C43.7842 63.7669 43.435 62.9273 43.435 61.9466V55.6163C41.6815 54.4572 40.2773 52.9266 39.2222 51.0246C38.1672 49.1225 37.6396 47.057 37.6396 44.828C37.6396 41.2319 38.8953 38.1782 41.4066 35.6669C43.9179 33.1556 46.9716 31.8999 50.5677 31.8999C54.1638 31.8999 57.2175 33.1556 59.7288 35.6669C62.2402 38.1782 63.4958 41.2319 63.4958 44.828C63.4958 47.1164 62.9683 49.1968 61.9132 51.0691C60.8582 52.9415 59.4539 54.4572 57.7005 55.6163V61.9466C57.7005 62.9273 57.3513 63.7669 56.6529 64.4653C55.9544 65.1637 55.1149 65.5129 54.1341 65.5129C53.7775 66.137 53.2871 66.6348 52.663 67.0063C52.0389 67.3778 51.3404 67.5636 50.5677 67.5636ZM47.0014 61.9466H54.1341V60.3417H47.0014V61.9466ZM47.0014 58.5585H54.1341V56.8645H47.0014V58.5585ZM46.6447 53.2981H49.2303V48.4835L45.3073 44.5605L47.1797 42.6882L50.5677 46.0762L53.9558 42.6882L55.8281 44.5605L51.9051 48.4835V53.2981H54.4907C56.0956 52.5254 57.4033 51.3886 58.4137 49.8878C59.4242 48.3869 59.9295 46.7003 59.9295 44.828C59.9295 42.2127 59.023 39.9985 57.2101 38.1856C55.3972 36.3727 53.1831 35.4663 50.5677 35.4663C47.9524 35.4663 45.7383 36.3727 43.9254 38.1856C42.1125 39.9985 41.206 42.2127 41.206 44.828C41.206 46.7003 41.7113 48.3869 42.7217 49.8878C43.7322 51.3886 45.0399 52.5254 46.6447 53.2981Z" fill="#CBCBE7"/>
<path d="M84.5105 47.5826L94.4495 48.5437L94.3126 49.9596L93.2661 49.9144C93.5945 50.189 93.8501 50.5407 94.0328 50.9693C94.2248 51.3989 94.294 51.8913 94.2403 52.4465C94.174 53.1313 93.9553 53.7033 93.5839 54.1625C93.2219 54.6225 92.7549 54.9603 92.1829 55.1759C91.6202 55.3924 91.0011 55.4679 90.3255 55.4026C89.65 55.3373 89.0476 55.1436 88.5183 54.8215C87.9982 54.5004 87.6004 54.0743 87.3248 53.5432C87.0576 53.0223 86.9567 52.4241 87.022 51.7485C87.0775 51.1748 87.241 50.6909 87.5126 50.2968C87.7926 49.9129 88.1141 49.631 88.4771 49.4513L84.3682 49.054L84.5105 47.5826ZM88.3425 51.568C88.3013 51.9937 88.3673 52.3737 88.5405 52.708C88.7137 53.0423 88.9676 53.3144 89.3022 53.5243C89.6369 53.7341 90.0263 53.8605 90.4705 53.9034C90.9332 53.9482 91.3447 53.8946 91.705 53.7426C92.0737 53.6008 92.3704 53.3819 92.5952 53.0861C92.8199 52.7902 92.9524 52.4341 92.9927 52.0176C93.0321 51.6105 92.9652 51.2397 92.792 50.9054C92.6281 50.5719 92.3793 50.2957 92.0455 50.0766C91.7201 49.8677 91.3261 49.7408 90.8633 49.6961C90.4377 49.6549 90.0358 49.7048 89.6579 49.8457C89.2893 49.9875 88.9879 50.2059 88.7539 50.5009C88.5199 50.7958 88.3828 51.1515 88.3425 51.568Z" fill="#CBCBE7"/>
<path d="M85.9779 57.3748C86.106 56.9473 86.2991 56.5782 86.5573 56.2673C86.8244 55.9591 87.1413 55.7435 87.5082 55.6205C87.875 55.4975 88.2722 55.5 88.6997 55.6281C89.2074 55.7803 89.5752 56.0264 89.8033 56.3665C90.0376 56.7182 90.162 57.1291 90.1764 57.5993C90.197 58.0811 90.1299 58.5802 89.9751 59.0968L89.4707 60.78C89.8537 60.8948 90.1796 60.9245 90.4485 60.8692C90.7263 60.8166 90.9507 60.6994 91.1217 60.5177C91.3015 60.3387 91.4341 60.1066 91.5195 59.8216C91.6316 59.4476 91.6413 59.0914 91.5486 58.753C91.4621 58.4262 91.2425 58.1711 90.8898 57.9878L91.3181 56.5584C91.7857 56.747 92.1474 57.0301 92.4031 57.4076C92.6561 57.794 92.8063 58.2321 92.8536 58.7219C92.901 59.2117 92.8512 59.7015 92.7045 60.1913C92.5123 60.8325 92.2333 61.3264 91.8674 61.6729C91.5077 62.031 91.0879 62.2498 90.6079 62.3292C90.1253 62.4175 89.6168 62.3816 89.0824 62.2215L87.0518 61.613C86.7909 61.5445 86.5834 61.5405 86.4294 61.6011C86.2816 61.6733 86.1587 61.8403 86.0608 62.1022L84.8452 61.7379C84.9519 61.3816 85.0854 61.0819 85.2456 60.8388C85.4032 60.6045 85.5875 60.4268 85.7985 60.3056C86.0184 60.1871 86.2722 60.1176 86.5598 60.097C86.2676 59.7765 86.0582 59.374 85.9316 58.8896C85.805 58.4052 85.8204 57.9003 85.9779 57.3748ZM87.0401 58.0571C86.9306 58.4222 86.9236 58.7696 87.019 59.099C87.1233 59.4312 87.2997 59.717 87.5482 59.9564C87.8057 60.1986 88.1081 60.3717 88.4554 60.4758L88.4821 60.4838L88.9545 58.9074C89.0319 58.6491 89.0741 58.3949 89.0812 58.1446C89.0856 57.9033 89.0334 57.6887 88.9247 57.5008C88.8222 57.3245 88.6419 57.1977 88.3836 57.1203C88.0452 57.0189 87.7598 57.0644 87.5274 57.2568C87.3039 57.4519 87.1415 57.7187 87.0401 58.0571Z" fill="#CBCBE7"/>
<path d="M82.855 65.2856C83.1673 64.683 83.5795 64.2212 84.0915 63.9001C84.6035 63.5791 85.1673 63.4106 85.783 63.3946C86.4069 63.3829 87.0367 63.5418 87.6723 63.8712C88.2996 64.1964 88.7904 64.6132 89.1448 65.1215C89.4992 65.6298 89.6928 66.1857 89.7255 66.7891C89.7583 67.3926 89.6143 68.0038 89.2934 68.6229C88.9126 69.3575 88.4018 69.8782 87.7611 70.1849C87.1244 70.5041 86.427 70.5667 85.6688 70.3727L86.3876 68.986C86.7316 69.07 87.069 69.025 87.4001 68.8511C87.7269 68.6853 87.9887 68.4126 88.1855 68.0329C88.3866 67.645 88.4544 67.2717 88.3889 66.9131C88.3317 66.5588 88.1764 66.2322 87.9229 65.9333C87.6734 65.6469 87.3588 65.4053 86.9791 65.2084C86.5829 65.0031 86.1896 64.883 85.7992 64.8482C85.4128 64.8259 85.0584 64.8935 84.7359 65.051C84.4174 65.221 84.164 65.4876 83.9758 65.8508C83.7832 66.2222 83.7052 66.585 83.7416 66.939C83.7863 67.2972 83.9543 67.6095 84.2456 67.8757L83.5268 69.2624C83.1407 68.9366 82.8551 68.5582 82.6701 68.1272C82.4851 67.6962 82.4045 67.2355 82.4283 66.7452C82.4603 66.2591 82.6026 65.7726 82.855 65.2856Z" fill="#CBCBE7"/>
<path d="M81.288 68.4777L89.0332 74.4201L88.1334 75.5929L83.5637 72.0869L84.3142 75.897L83.1767 77.3797L82.4245 72.9531L77.5528 73.3461L78.7073 71.8413L82.9773 71.637L80.3881 69.6505L81.288 68.4777Z" fill="#CBCBE7"/>
<path d="M72.6338 77.4989C73.0556 77.1629 73.4989 76.9286 73.9638 76.796C74.4345 76.6706 74.889 76.6592 75.3273 76.7618C75.7656 76.8643 76.1507 77.0866 76.4825 77.4285L75.3153 78.3582C75.0559 78.137 74.7504 78.0296 74.399 78.0362C74.0476 78.0427 73.7083 78.1763 73.3811 78.437C73.0902 78.6687 72.9031 78.9188 72.8198 79.1872C72.7422 79.4629 72.7875 79.7063 72.9555 79.9171C73.1003 80.0989 73.2751 80.1915 73.4798 80.1948C73.6772 80.204 73.8937 80.1623 74.1291 80.0699C74.3572 79.9832 74.5978 79.8748 74.8507 79.7447C75.2489 79.5582 75.6435 79.4044 76.0343 79.2832C76.4179 79.1678 76.7817 79.1396 77.1257 79.1983C77.4697 79.2571 77.7778 79.4574 78.0501 79.7992C78.3165 80.1337 78.4581 80.4905 78.4747 80.8695C78.4899 81.2616 78.3933 81.6476 78.1848 82.0276C77.9764 82.4076 77.6758 82.754 77.2832 83.0668C76.6941 83.536 76.0845 83.778 75.4543 83.7927C74.8299 83.8146 74.2699 83.5593 73.7745 83.0269L74.8871 82.1405C75.1189 82.3719 75.3844 82.4813 75.6836 82.4689C75.9754 82.4622 76.2668 82.3431 76.5577 82.1113C76.8268 81.897 77.0015 81.6687 77.0818 81.4264C77.168 81.1913 77.1271 80.9683 76.9591 80.7575C76.8432 80.612 76.6866 80.5347 76.4891 80.5256C76.2974 80.5238 76.0846 80.5625 75.8507 80.6419C75.6153 80.7343 75.3755 80.8362 75.1313 80.9475C74.6967 81.1629 74.2876 81.3284 73.9041 81.4437C73.5205 81.5591 73.1575 81.5808 72.8149 81.509C72.4724 81.4371 72.1498 81.2186 71.8471 80.8536C71.5806 80.519 71.4405 80.1492 71.4269 79.7441C71.4117 79.352 71.5091 78.9594 71.719 78.5664C71.9216 78.1791 72.2265 77.8233 72.6338 77.4989Z" fill="#CBCBE7"/>
<path d="M70.5079 79.7127L73.4845 85.9568L72.2005 86.5689L71.7786 85.7812C71.7252 86.1877 71.5729 86.5488 71.3216 86.8642C71.0659 87.1921 70.7408 87.4501 70.3464 87.6381C69.868 87.8662 69.392 87.9695 68.9183 87.9481C68.4402 87.9391 67.9963 87.7748 67.5864 87.4552C67.5522 87.9453 67.3963 88.3853 67.1187 88.7751C66.845 89.1734 66.4858 89.4785 66.041 89.6905C65.5543 89.9226 65.074 90.0279 64.6003 90.0065C64.1307 89.9935 63.6949 89.8356 63.293 89.5328C62.8828 89.234 62.5316 88.7783 62.2396 88.1656L60.4872 84.4897L61.8091 83.8596L63.4774 87.3592C63.7455 87.9215 64.0732 88.2957 64.4606 88.4818C64.848 88.6679 65.2809 88.647 65.7593 88.4189C66.2376 88.1909 66.5395 87.841 66.6648 87.3693C66.7901 86.8975 66.7107 86.3637 66.4267 85.7679L64.8304 82.4193L66.1522 81.7891L67.8205 85.2888C68.0886 85.8511 68.4205 86.2233 68.8163 86.4054C69.2121 86.5875 69.6408 86.5686 70.1024 86.3485C70.5388 86.1405 70.8363 85.803 70.9948 85.336C71.1489 84.8815 71.0739 84.3353 70.7698 83.6975L69.1735 80.3488L70.5079 79.7127Z" fill="#CBCBE7"/>
<path d="M57.8061 84.6151C58.2435 84.5265 58.6601 84.5227 59.056 84.6037C59.4537 84.6939 59.7933 84.8717 60.0748 85.1372C60.3563 85.4027 60.5413 85.7541 60.6299 86.1915C60.7352 86.7109 60.6916 87.1514 60.4993 87.5129C60.2997 87.8853 59.9959 88.1888 59.5881 88.4232C59.173 88.6686 58.7012 88.8448 58.1727 88.9519L56.4505 89.3009C56.5299 89.6928 56.6574 89.9942 56.8329 90.2053C57.0104 90.4254 57.2195 90.568 57.4604 90.6331C57.703 90.7072 57.9702 90.7147 58.2618 90.6557C58.6445 90.5781 58.9632 90.4187 59.2178 90.1773C59.4652 89.947 59.5866 89.633 59.5819 89.2355L61.0444 88.9392C61.0986 89.4405 61.0195 89.8929 60.8072 90.2964C60.5858 90.7017 60.2703 91.0408 59.8607 91.3135C59.4512 91.5862 58.9958 91.7733 58.4946 91.8749C57.8385 92.0078 57.2714 91.9947 56.7933 91.8355C56.3079 91.6872 55.917 91.4201 55.6207 91.0343C55.3152 90.6504 55.1071 90.185 54.9963 89.6383L54.5753 87.5607C54.5126 87.2983 54.4182 87.1135 54.2922 87.0062C54.1588 86.9099 53.9536 86.8804 53.6765 86.9175L53.4245 85.6737C53.789 85.5999 54.1162 85.5762 54.4062 85.6029C54.6871 85.6313 54.9307 85.71 55.1371 85.839C55.3453 85.977 55.5263 86.168 55.6801 86.4119C55.8249 86.0031 56.081 85.6287 56.4485 85.2886C56.8159 84.9485 57.2685 84.724 57.8061 84.6151ZM57.7054 85.8735C57.3318 85.9492 57.0222 86.1068 56.7766 86.3463C56.5329 86.5948 56.3641 86.8852 56.2701 87.2173C56.178 87.5585 56.168 87.9068 56.24 88.2621L56.2455 88.2895L57.8584 87.9627C58.1226 87.9091 58.3667 87.8264 58.5907 87.7146C58.8056 87.6047 58.9702 87.4575 59.0846 87.273C59.1918 87.0996 59.2186 86.8807 59.165 86.6164C59.0949 86.2702 58.9201 86.04 58.6409 85.9258C58.3635 85.8207 58.0516 85.8033 57.7054 85.8735Z" fill="#CBCBE7"/>
<path d="M52.4605 85.6455L52.754 92.5565L51.3328 92.6169L51.2413 91.4483C51.0269 91.8761 50.7248 92.2147 50.3353 92.4639C49.9368 92.7227 49.4636 92.8638 48.9155 92.8871L48.8498 91.3405L49.2539 91.3233C49.9134 91.2953 50.3984 91.1025 50.7089 90.745C51.0198 90.3968 51.1605 89.8744 51.1309 89.1777L50.9835 85.7083L52.4605 85.6455Z" fill="#CBCBE7"/>
<path d="M45.1095 85.5451C45.795 85.6034 46.3089 85.8151 46.6511 86.1801C46.9933 86.5451 47.1321 87.1074 47.0675 87.8671L46.7684 91.3827L47.8106 91.4714L47.7054 92.7081L46.6632 92.6195L46.5214 94.287L45.0485 94.1617L45.1903 92.4942L43.4394 92.3453L43.5446 91.1085L45.2955 91.2575L45.5945 87.7418C45.6244 87.3898 45.5658 87.1469 45.4185 87.013C45.2713 86.8792 45.0309 86.7981 44.6974 86.7697L43.9193 86.7036L44.0256 85.4529L45.1095 85.5451Z" fill="#CBCBE7"/>
<path d="M41.5428 87.9526L40.3183 94.7059L38.7614 94.3842L40.3136 87.6986L41.5428 87.9526ZM41.5104 84.8699C41.7836 84.9263 41.9924 85.0644 42.1369 85.2841C42.2795 85.513 42.3235 85.7594 42.2689 86.0235C42.2144 86.2875 42.0772 86.4918 41.8575 86.6362C41.6359 86.7898 41.3885 86.8384 41.1154 86.782C40.8422 86.7255 40.6344 86.5829 40.4918 86.354C40.3473 86.1343 40.3023 85.8924 40.3569 85.6284C40.4114 85.3643 40.5495 85.1555 40.7711 85.002C40.9909 84.8575 41.2373 84.8135 41.5104 84.8699Z" fill="#CBCBE7"/>
<path d="M18.5105 52.8828L8.57147 51.9217L8.70838 50.5058L9.75485 50.5509C9.42645 50.2763 9.17089 49.9247 8.98817 49.496C8.79619 49.0665 8.72704 48.5741 8.78073 48.0188C8.84695 47.334 9.06573 46.762 9.43705 46.3029C9.79912 45.8428 10.2661 45.505 10.8381 45.2894C11.4008 45.073 12.0199 44.9974 12.6955 45.0627C13.371 45.128 13.9734 45.3217 14.5027 45.6438C15.0228 45.965 15.4206 46.3911 15.6962 46.9221C15.9634 47.443 16.0643 48.0412 15.999 48.7168C15.9435 49.2906 15.78 49.7745 15.5083 50.1685C15.2284 50.5525 14.9069 50.8343 14.5439 51.014L18.6528 51.4113L18.5105 52.8828ZM14.6785 48.8974C14.7197 48.4717 14.6537 48.0916 14.4805 47.7573C14.3073 47.423 14.0534 47.1509 13.7188 46.9411C13.3841 46.7312 12.9947 46.6048 12.5505 46.5619C12.0878 46.5171 11.6763 46.5708 11.316 46.7227C10.9473 46.8646 10.6506 47.0834 10.4258 47.3792C10.2011 47.6751 10.0686 48.0312 10.0283 48.4477C9.98891 48.8549 10.0558 49.2256 10.229 49.56C10.3929 49.8934 10.6417 50.1696 10.9755 50.3887C11.3009 50.5977 11.6949 50.7245 12.1577 50.7693C12.5833 50.8104 12.9851 50.7605 13.3631 50.6196C13.7317 50.4778 14.0331 50.2594 14.2671 49.9644C14.5011 49.6695 14.6382 49.3138 14.6785 48.8974Z" fill="#CBCBE7"/>
<path d="M17.0432 43.0905C16.9151 43.518 16.722 43.8872 16.4638 44.198C16.1967 44.5062 15.8798 44.7218 15.5129 44.8448C15.1461 44.9679 14.7489 44.9653 14.3214 44.8372C13.8138 44.6851 13.4459 44.439 13.2178 44.0988C12.9835 43.7472 12.8591 43.3362 12.8448 42.866C12.8241 42.3843 12.8912 41.8851 13.046 41.3685L13.5504 39.6853C13.1675 39.5705 12.8415 39.5408 12.5726 39.5961C12.2948 39.6487 12.0704 39.7659 11.8995 39.9476C11.7196 40.1267 11.587 40.3587 11.5016 40.6437C11.3895 41.0177 11.3798 41.374 11.4726 41.7123C11.559 42.0391 11.7786 42.2942 12.1313 42.4775L11.703 43.907C11.2354 43.7183 10.8738 43.4352 10.6181 43.0577C10.365 42.6713 10.2148 42.2332 10.1675 41.7434C10.1202 41.2537 10.1699 40.7639 10.3167 40.274C10.5088 39.6328 10.7878 39.1389 11.1537 38.7924C11.5134 38.4343 11.9332 38.2155 12.4132 38.1361C12.8958 38.0478 13.4043 38.0837 13.9387 38.2439L15.9693 38.8524C16.2302 38.9209 16.4377 38.9248 16.5918 38.8642C16.7396 38.792 16.8624 38.625 16.9603 38.3632L18.176 38.7275C18.0692 39.0837 17.9357 39.3834 17.7755 39.6266C17.6179 39.8608 17.4337 40.0385 17.2226 40.1597C17.0027 40.2782 16.7489 40.3478 16.4613 40.3683C16.7535 40.6888 16.9629 41.0913 17.0895 41.5757C17.2161 42.0601 17.2007 42.565 17.0432 43.0905ZM15.981 42.4082C16.0905 42.0431 16.0975 41.6958 16.0021 41.3663C15.8978 41.0342 15.7214 40.7484 15.4729 40.5089C15.2154 40.2667 14.913 40.0936 14.5657 39.9895L14.539 39.9815L14.0666 41.5579C13.9892 41.8162 13.947 42.0704 13.9399 42.3207C13.9356 42.562 13.9877 42.7766 14.0964 42.9645C14.1989 43.1408 14.3793 43.2676 14.6375 43.345C14.976 43.4464 15.2614 43.4009 15.4937 43.2085C15.7172 43.0134 15.8796 42.7467 15.981 42.4082Z" fill="#CBCBE7"/>
<path d="M20.166 35.1798C19.8537 35.7823 19.4415 36.2441 18.9295 36.5652C18.4175 36.8862 17.8537 37.0547 17.238 37.0707C16.6141 37.0824 15.9843 36.9235 15.3487 36.5941C14.7214 36.2689 14.2306 35.8522 13.8762 35.3438C13.5218 34.8355 13.3282 34.2796 13.2954 33.6762C13.2627 33.0728 13.4067 32.4615 13.7276 31.8424C14.1084 31.1078 14.6192 30.5871 15.2599 30.2804C15.8966 29.9612 16.594 29.8986 17.3522 30.0926L16.6333 31.4793C16.2894 31.3953 15.9519 31.4403 15.6209 31.6143C15.2941 31.78 15.0323 32.0527 14.8355 32.4324C14.6344 32.8204 14.5666 33.1936 14.6321 33.5522C14.6893 33.9065 14.8446 34.2331 15.0981 34.5321C15.3476 34.8185 15.6622 35.0601 16.0419 35.2569C16.4381 35.4623 16.8314 35.5823 17.2218 35.6171C17.6082 35.6394 17.9626 35.5718 18.2851 35.4143C18.6036 35.2443 18.857 34.9777 19.0452 34.6145C19.2378 34.2431 19.3158 33.8804 19.2794 33.5264C19.2347 33.1681 19.0667 32.8559 18.7753 32.5896L19.4942 31.2029C19.8803 31.5287 20.1659 31.9071 20.3509 32.3381C20.5359 32.7691 20.6165 33.2298 20.5927 33.7202C20.5607 34.2062 20.4184 34.6928 20.166 35.1798Z" fill="#CBCBE7"/>
<path d="M21.733 31.9877L13.9878 26.0453L14.8876 24.8724L19.4573 28.3784L18.7068 24.5683L19.8443 23.0857L20.5965 27.5122L25.4682 27.1192L24.3137 28.624L20.0437 28.8284L22.6329 30.8148L21.733 31.9877Z" fill="#CBCBE7"/>
<path d="M30.3871 22.9664C29.9653 23.3024 29.522 23.5367 29.057 23.6694C28.5863 23.7947 28.1318 23.8061 27.6935 23.7036C27.2553 23.601 26.8702 23.3788 26.5384 23.0369L27.7056 22.1071C27.965 22.3283 28.2704 22.4357 28.6218 22.4292C28.9732 22.4226 29.3126 22.289 29.6398 22.0283C29.9307 21.7966 30.1178 21.5466 30.2011 21.2781C30.2786 21.0024 30.2334 20.7591 30.0654 20.5482C29.9206 20.3664 29.7458 20.2738 29.5411 20.2705C29.3436 20.2614 29.1272 20.303 28.8918 20.3955C28.6636 20.4821 28.4231 20.5905 28.1702 20.7207C27.772 20.9072 27.3774 21.061 26.9866 21.1821C26.603 21.2975 26.2392 21.3258 25.8952 21.267C25.5512 21.2082 25.2431 21.0079 24.9708 20.6661C24.7043 20.3316 24.5628 19.9748 24.5461 19.5958C24.531 19.2038 24.6276 18.8177 24.836 18.4377C25.0445 18.0577 25.345 17.7113 25.7377 17.3985C26.3268 16.9293 26.9364 16.6873 27.5666 16.6727C28.191 16.6507 28.7509 16.906 29.2464 17.4385L28.1338 18.3248C27.9019 18.0934 27.6365 17.984 27.3373 17.9964C27.0454 18.0031 26.7541 18.1223 26.4632 18.354C26.1941 18.5683 26.0194 18.7967 25.939 19.039C25.8529 19.274 25.8938 19.497 26.0618 19.7079C26.1777 19.8533 26.3343 19.9306 26.5318 19.9397C26.7234 19.9416 26.9362 19.9028 27.1702 19.8234C27.4056 19.731 27.6454 19.6291 27.8895 19.5178C28.3241 19.3024 28.7332 19.137 29.1168 19.0216C29.5004 18.9062 29.8634 18.8845 30.2059 18.9564C30.5485 19.0282 30.8711 19.2467 31.1738 19.6118C31.4403 19.9463 31.5803 20.3161 31.594 20.7212C31.6092 21.1133 31.5118 21.5059 31.3019 21.8989C31.0993 22.2862 30.7943 22.642 30.3871 22.9664Z" fill="#CBCBE7"/>
<path d="M32.513 20.7526L29.5364 14.5086L30.8204 13.8965L31.2423 14.6841C31.2957 14.2776 31.448 13.9166 31.6993 13.6011C31.955 13.2732 32.28 13.0152 32.6745 12.8272C33.1529 12.5992 33.6289 12.4958 34.1026 12.5172C34.5807 12.5262 35.0246 12.6905 35.4345 13.0101C35.4686 12.52 35.6245 12.0801 35.9022 11.6902C36.1758 11.292 36.5351 10.9868 36.9799 10.7748C37.4666 10.5427 37.9468 10.4374 38.4205 10.4588C38.8902 10.4718 39.326 10.6297 39.7278 10.9325C40.1381 11.2313 40.4892 11.6871 40.7813 12.2997L42.5336 15.9756L41.2118 16.6058L39.5435 13.1061C39.2754 12.5438 38.9477 12.1696 38.5603 11.9835C38.1729 11.7974 37.74 11.8183 37.2616 12.0464C36.7832 12.2744 36.4814 12.6243 36.3561 13.0961C36.2308 13.5678 36.3101 14.1016 36.5942 14.6975L38.1905 18.0461L36.8687 18.6762L35.2004 15.1765C34.9323 14.6142 34.6004 14.242 34.2046 14.0599C33.8088 13.8778 33.3801 13.8968 32.9185 14.1168C32.4821 14.3249 32.1846 14.6623 32.0261 15.1293C31.872 15.5838 31.947 16.13 32.2511 16.7679L33.8474 20.1165L32.513 20.7526Z" fill="#CBCBE7"/>
<path d="M45.2149 15.8502C44.7775 15.9389 44.3609 15.9427 43.965 15.8616C43.5673 15.7715 43.2277 15.5936 42.9462 15.3281C42.6647 15.0626 42.4797 14.7112 42.3911 14.2738C42.2858 13.7544 42.3294 13.314 42.5217 12.9525C42.7213 12.58 43.0251 12.2765 43.4329 12.0421C43.848 11.7967 44.3198 11.6205 44.8483 11.5134L46.5705 11.1644C46.4911 10.7726 46.3636 10.4711 46.1881 10.2601C46.0106 10.0399 45.8015 9.89729 45.5606 9.83226C45.318 9.75811 45.0508 9.75059 44.7592 9.80967C44.3765 9.88723 44.0578 10.0467 43.8032 10.288C43.5558 10.5184 43.4344 10.8323 43.4391 11.2298L41.9766 11.5261C41.9224 11.0249 42.0015 10.5725 42.2138 10.169C42.4352 9.76361 42.7507 9.42457 43.1603 9.15185C43.5698 8.87913 44.0252 8.69199 44.5264 8.59043C45.1825 8.45748 45.7496 8.47063 46.2277 8.62987C46.7131 8.77816 47.104 9.0452 47.4003 9.431C47.7058 9.81496 47.9139 10.2803 48.0247 10.827L48.4457 12.9046C48.5084 13.167 48.6028 13.3518 48.7288 13.4591C48.8622 13.5554 49.0674 13.585 49.3444 13.5478L49.5965 14.7916C49.232 14.8655 48.9048 14.8891 48.6148 14.8625C48.3339 14.834 48.0903 14.7553 47.8839 14.6264C47.6757 14.4883 47.4947 14.2973 47.3409 14.0534C47.1961 14.4622 46.94 14.8366 46.5725 15.1767C46.2051 15.5168 45.7525 15.7413 45.2149 15.8502ZM45.3156 14.5919C45.6892 14.5162 45.9988 14.3586 46.2444 14.1191C46.4881 13.8705 46.6569 13.5801 46.7509 13.248C46.843 12.9068 46.853 12.5586 46.781 12.2032L46.7755 12.1758L45.1626 12.5027C44.8984 12.5562 44.6543 12.6389 44.4303 12.7507C44.2154 12.8606 44.0508 13.0078 43.9364 13.1923C43.8292 13.3658 43.8024 13.5847 43.856 13.8489C43.9261 14.1952 44.1008 14.4254 44.3801 14.5395C44.6575 14.6446 44.9694 14.662 45.3156 14.5919Z" fill="#CBCBE7"/>
<path d="M50.5605 14.8198L50.2669 7.90879L51.6882 7.84842L51.7797 9.01705C51.9941 8.58919 52.2962 8.25066 52.6857 8.00147C53.0842 7.74259 53.5574 7.60151 54.1055 7.57824L54.1712 9.12485L53.7671 9.14201C53.1076 9.17003 52.6226 9.36279 52.3121 9.72029C52.0011 10.0685 51.8605 10.5909 51.8901 11.2876L52.0375 14.7571L50.5605 14.8198Z" fill="#CBCBE7"/>
<path d="M57.9112 14.9202C57.2257 14.8619 56.7119 14.6503 56.3697 14.2852C56.0275 13.9202 55.8887 13.3579 55.9533 12.5982L56.2523 9.08259L55.2101 8.99395L55.3153 7.75722L56.3575 7.84586L56.4993 6.17836L57.9723 6.30364L57.8305 7.97114L59.5813 8.12006L59.4762 9.35679L57.7253 9.20787L57.4263 12.7235C57.3963 13.0756 57.455 13.3185 57.6022 13.4523C57.7495 13.5861 57.9898 13.6672 58.3233 13.6956L59.1015 13.7618L58.9951 15.0124L57.9112 14.9202Z" fill="#CBCBE7"/>
<path d="M61.4782 12.5128L62.7027 5.7594L64.2596 6.0811L62.7074 12.7667L61.4782 12.5128ZM61.5105 15.5954C61.2374 15.539 61.0286 15.4009 60.8841 15.1812C60.7415 14.9524 60.6975 14.7059 60.7521 14.4419C60.8066 14.1778 60.9438 13.9736 61.1635 13.8291C61.3851 13.6755 61.6325 13.6269 61.9056 13.6834C62.1788 13.7398 62.3866 13.8825 62.5292 14.1113C62.6737 14.331 62.7187 14.5729 62.6641 14.8369C62.6096 15.101 62.4715 15.3098 62.2499 15.4634C62.0301 15.6079 61.7837 15.6519 61.5105 15.5954Z" fill="#CBCBE7"/>
</svg>
