<svg width="116" height="115" viewBox="0 0 116 115" fill="none" xmlns="http://www.w3.org/2000/svg">
<ellipse cx="58.3362" cy="57.3528" rx="57.5" ry="57.3499" fill="#ACBE6F"/>
<path d="M41.3855 54.0222C41.3855 51.2114 42.0141 48.6326 43.2713 46.2856C44.5285 43.9386 46.2165 41.9922 48.3354 40.4463L50.3271 43.1446C48.632 44.3813 47.283 45.9413 46.2801 47.8245C45.2771 49.7077 44.7757 51.7736 44.7757 54.0222H41.3855ZM71.8971 54.0222C71.8971 51.7736 71.3956 49.7077 70.3927 47.8245C69.3897 45.9413 68.0407 44.3813 66.3457 43.1446L68.3374 40.4463C70.4562 41.9922 72.1443 43.9386 73.4015 46.2856C74.6586 48.6326 75.2872 51.2114 75.2872 54.0222H71.8971ZM44.7757 69.2002V65.8273H48.1658V54.0222C48.1658 51.6893 48.8721 49.6163 50.2847 47.8034C51.6973 45.9905 53.5336 44.8029 55.7937 44.2408V43.0603C55.7937 42.3576 56.0409 41.7603 56.5353 41.2684C57.0297 40.7766 57.6301 40.5306 58.3364 40.5306C59.0427 40.5306 59.643 40.7766 60.1374 41.2684C60.6318 41.7603 60.879 42.3576 60.879 43.0603V44.2408C63.1391 44.8029 64.9755 45.9905 66.388 47.8034C67.8006 49.6163 68.5069 51.6893 68.5069 54.0222V65.8273H71.8971V69.2002H44.7757ZM58.3364 74.2595C57.4041 74.2595 56.606 73.9293 55.9421 73.2687C55.2781 72.6082 54.9462 71.8142 54.9462 70.8866H61.7265C61.7265 71.8142 61.3946 72.6082 60.7307 73.2687C60.0668 73.9293 59.2687 74.2595 58.3364 74.2595ZM51.556 65.8273H65.1167V54.0222C65.1167 52.1671 64.4528 50.579 63.125 49.258C61.7972 47.9369 60.201 47.2764 58.3364 47.2764C56.4718 47.2764 54.8756 47.9369 53.5477 49.258C52.2199 50.579 51.556 52.1671 51.556 54.0222V65.8273Z" fill="#FFFDF2"/>
<path d="M100.096 61.2648C100.151 60.6984 100.312 60.1934 100.58 59.7496C100.856 59.3169 101.226 58.985 101.687 58.7539L100.54 58.582L100.69 57.0346L111.31 58.0588L111.154 59.6669L106.906 59.2572C107.275 59.5582 107.559 59.9429 107.759 60.4114C107.968 60.8807 108.044 61.4189 107.985 62.0257C107.913 62.764 107.68 63.3846 107.284 63.8874C106.887 64.4004 106.376 64.7748 105.751 65.0105C105.126 65.2463 104.444 65.3285 103.706 65.2573C102.967 65.1861 102.309 64.9746 101.73 64.6228C101.162 64.2719 100.727 63.8063 100.426 63.2261C100.134 62.6569 100.024 62.0031 100.096 61.2648ZM101.539 61.0671C101.494 61.5324 101.561 61.9472 101.74 62.3115C101.929 62.6768 102.207 62.9741 102.572 63.2034C102.948 63.4336 103.379 63.5721 103.864 63.6189C104.37 63.6677 104.82 63.609 105.214 63.4428C105.617 63.2877 105.941 63.0485 106.187 62.7251C106.433 62.4017 106.577 62.0124 106.622 61.5573C106.665 61.1123 106.592 60.7071 106.403 60.3418C106.224 59.9775 105.952 59.6756 105.587 59.4363C105.231 59.208 104.801 59.0695 104.295 59.0207C103.809 58.9739 103.365 59.028 102.962 59.1831C102.558 59.3483 102.228 59.5921 101.973 59.9146C101.727 60.2379 101.582 60.6221 101.539 61.0671Z" fill="#FFFDF2"/>
<path d="M98.5859 68.846C98.7967 68.1348 99.1437 67.5538 99.627 67.103C100.11 66.6523 100.686 66.3558 101.353 66.2135C102.018 66.081 102.72 66.1239 103.461 66.3423C104.231 66.5693 104.854 66.9171 105.33 67.3857C105.805 67.8544 106.119 68.4075 106.269 69.045C106.426 69.6951 106.398 70.3807 106.184 71.1016C105.976 71.8031 105.638 72.3709 105.17 72.805C104.712 73.242 104.177 73.5291 103.564 73.6663C102.948 73.8131 102.304 73.7874 101.632 73.5892C101.495 73.549 101.38 73.5096 101.285 73.4712C101.188 73.4424 101.073 73.3982 100.943 73.3385L102.593 67.7707C102.175 67.6792 101.779 67.6738 101.405 67.7543C101.041 67.8378 100.722 68.0032 100.447 68.2506C100.182 68.5009 99.9923 68.8209 99.8768 69.2106C99.7527 69.6296 99.7399 70.0124 99.8385 70.3593C99.9439 70.7188 100.15 71.0233 100.458 71.2729L99.9816 72.8804C99.5806 72.6244 99.2445 72.2923 98.9733 71.884C98.6993 71.4854 98.5215 71.0304 98.4399 70.5191C98.3583 70.0077 98.4069 69.45 98.5859 68.846ZM103.685 68.1085L102.494 72.1273C103.065 72.2744 103.568 72.2054 104.002 71.9203C104.446 71.638 104.749 71.2241 104.91 70.6785C105.055 70.1914 105.035 69.7036 104.851 69.2151C104.667 68.7266 104.279 68.3577 103.685 68.1085Z" fill="#FFFDF2"/>
<path d="M95.9759 76.2617L102.418 80.2183L101.601 81.5412L100.637 80.9848C100.858 81.419 100.947 81.8848 100.903 82.3822C100.853 82.8882 100.695 83.3574 100.428 83.7897C99.9632 84.5419 99.3487 85.0052 98.5842 85.1796C97.8284 85.3593 96.9829 85.162 96.0478 84.5876L92.2684 82.2663L93.1172 80.8916L96.7278 83.1092C97.3079 83.4655 97.8339 83.6097 98.3057 83.5418C98.7862 83.4792 99.1866 83.1885 99.5069 82.6697C99.8219 82.1596 99.898 81.6399 99.7352 81.1106C99.581 80.5867 99.1965 80.1359 98.5818 79.7583L95.1271 77.6364L95.9759 76.2617Z" fill="#FFFDF2"/>
<path d="M89.1799 85.5156C89.6749 84.9769 90.238 84.5968 90.8693 84.3753C91.5011 84.1682 92.1552 84.1396 92.8315 84.2897C93.5009 84.4472 94.1356 84.8002 94.7356 85.3486C95.3356 85.897 95.7363 86.4973 95.9376 87.1493C96.132 87.8088 96.1461 88.4617 95.9798 89.1082C95.8142 89.7691 95.4839 90.3689 94.989 90.9076C94.494 91.4463 93.9309 91.8264 93.2996 92.0479C92.6684 92.2694 92.0149 92.3123 91.3393 92.1765C90.6636 92.0408 90.0221 91.6953 89.4145 91.14C88.8445 90.6191 88.4551 90.0291 88.2463 89.3703C88.0307 88.7189 87.9981 88.0559 88.1487 87.3814C88.3068 86.7137 88.6506 86.0918 89.1799 85.5156ZM90.2047 86.4729C89.9022 86.8021 89.7166 87.1693 89.6478 87.5745C89.5722 87.9872 89.6082 88.3987 89.7557 88.8088C89.9107 89.2258 90.172 89.6023 90.5395 89.9382C90.9145 90.2809 91.3095 90.5043 91.7245 90.6083C92.1402 90.7266 92.5399 90.7272 92.9236 90.6099C93.3149 90.4994 93.6652 90.2758 93.9745 89.9391C94.2976 89.5875 94.4936 89.209 94.5623 88.8038C94.6242 88.406 94.5745 88.0096 94.4132 87.6144C94.2525 87.2336 93.9922 86.8786 93.6322 86.5496C93.2197 86.1725 92.8022 85.9286 92.3797 85.8177C91.9503 85.7144 91.5475 85.7247 91.1712 85.8489C90.795 85.9731 90.4728 86.181 90.2047 86.4729Z" fill="#FFFDF2"/>
<path d="M83.346 91.0902C83.9382 90.6268 84.5074 90.4135 85.0536 90.4505C85.5999 90.4875 86.1306 90.8334 86.6458 91.4882L89.0303 94.5188L89.9305 93.8142L90.7693 94.8803L89.8691 95.5848L91.0001 97.0223L89.7278 98.0181L88.5969 96.5806L87.0846 97.7643L86.2458 96.6982L87.7581 95.5146L85.3736 92.484C85.1348 92.1805 84.9066 92.0301 84.6889 92.0328C84.4712 92.0354 84.2183 92.1495 83.9302 92.375L83.2581 92.9011L82.4099 91.823L83.346 91.0902Z" fill="#FFFDF2"/>
<path d="M84.9756 100.738C85.2256 100.582 85.4951 100.534 85.7841 100.593C86.0699 100.666 86.2939 100.831 86.4559 101.09C86.6126 101.339 86.6587 101.604 86.5944 101.884C86.5214 102.169 86.3599 102.389 86.11 102.545C85.8514 102.707 85.5819 102.755 85.3015 102.691C85.0125 102.632 84.7896 102.477 84.633 102.228C84.4709 101.97 84.4237 101.694 84.4912 101.4C84.5556 101.12 84.717 100.9 84.9756 100.738ZM80.937 92.7839L84.9559 99.1871L83.5855 100.043L79.5666 93.6396L80.937 92.7839Z" fill="#FFFDF2"/>
<path d="M77.9004 94.6067L80.6997 100.143L81.5983 99.6906L82.2105 100.901L81.3118 101.353L81.6694 102.06C82.0408 102.795 82.1207 103.415 81.909 103.919C81.7019 104.433 81.267 104.856 80.6043 105.19L79.978 105.505L79.359 104.28L79.7539 104.082C80.0807 103.917 80.2777 103.733 80.3451 103.529C80.4171 103.333 80.3751 103.081 80.2192 102.773L79.8685 102.079L78.4252 102.805L77.813 101.595L79.2564 100.869L76.4571 95.3327L77.9004 94.6067Z" fill="#FFFDF2"/>
<path d="M76.4143 105.061C76.6887 104.954 76.9625 104.956 77.2356 105.067C77.5029 105.191 77.6924 105.396 77.804 105.679C77.9119 105.953 77.9085 106.222 77.7936 106.485C77.6693 106.752 77.47 106.939 77.1956 107.047C76.9117 107.158 76.6379 107.156 76.3743 107.041C76.1012 106.93 75.9107 106.737 75.8028 106.463C75.6912 106.179 75.6957 105.899 75.8162 105.623C75.9311 105.359 76.1304 105.172 76.4143 105.061ZM73.9131 96.4977L76.681 103.533L75.1765 104.122L72.4086 97.0866L73.9131 96.4977Z" fill="#FFFDF2"/>
<path d="M67.6651 98.3532C68.3854 98.1759 69.0621 98.1821 69.6951 98.3717C70.3282 98.5612 70.8746 98.9082 71.3342 99.4125C71.784 99.9192 72.1017 100.547 72.2871 101.297C72.4798 102.076 72.494 102.79 72.3296 103.437C72.1652 104.084 71.8458 104.634 71.3713 105.085C70.8894 105.549 70.2834 105.871 69.5532 106.051C68.8428 106.225 68.1821 106.221 67.5713 106.036C66.9628 105.861 66.4447 105.544 66.017 105.084C65.5794 104.627 65.2764 104.058 65.1081 103.377C65.0739 103.239 65.0496 103.12 65.035 103.019C65.0106 102.92 64.9912 102.799 64.9768 102.656L70.6158 101.269C70.4837 100.862 70.2886 100.517 70.0305 100.236C69.7748 99.9636 69.4709 99.7715 69.1186 99.6593C68.7689 99.557 68.3966 99.5545 68.0019 99.6516C67.5777 99.7559 67.2407 99.9383 66.991 100.199C66.734 100.471 66.5753 100.803 66.5152 101.195L64.8871 101.595C64.9056 101.12 65.0226 100.662 65.2383 100.222C65.444 99.7838 65.747 99.4006 66.1472 99.0719C66.5474 98.7433 67.0534 98.5037 67.6651 98.3532ZM70.8754 102.382L66.8053 103.383C66.9665 103.951 67.2798 104.35 67.7451 104.581C68.2129 104.821 68.723 104.874 69.2756 104.738C69.7689 104.616 70.1801 104.353 70.509 103.948C70.8379 103.542 70.96 103.02 70.8754 102.382Z" fill="#FFFDF2"/>
<path d="M60.011 99.5267C60.7619 99.4862 61.4209 99.6287 61.988 99.9543C62.5456 100.291 62.9877 100.75 63.3144 101.333C63.631 101.916 63.8094 102.578 63.8495 103.319C63.8891 104.049 63.7828 104.717 63.5306 105.32C63.2688 105.935 62.8784 106.429 62.3593 106.803C61.8307 107.188 61.1909 107.4 60.4401 107.441C59.8821 107.471 59.3684 107.382 58.8992 107.173C58.4305 106.974 58.0428 106.675 57.7361 106.274L57.9655 110.505L56.337 110.593L55.7594 99.9392L57.3271 99.8546L57.4515 101.023C57.6735 100.614 58.006 100.271 58.4488 99.9925C58.8917 99.7143 59.4124 99.559 60.011 99.5267ZM59.7682 100.959C59.2913 100.985 58.8864 101.119 58.5535 101.361C58.2206 101.602 57.9733 101.921 57.8116 102.317C57.6499 102.712 57.5819 103.148 57.6078 103.625C57.6375 104.173 57.7691 104.629 58.0025 104.993C58.2258 105.357 58.5205 105.631 58.8866 105.815C59.2426 105.999 59.6337 106.08 60.0598 106.057C60.4961 106.033 60.881 105.906 61.2144 105.674C61.5478 105.443 61.8058 105.134 61.9884 104.747C62.1608 104.361 62.233 103.91 62.205 103.392C62.1775 102.885 62.0518 102.444 61.828 102.069C61.6041 101.695 61.3139 101.41 60.9574 101.216C60.6009 101.021 60.2045 100.936 59.7682 100.959Z" fill="#FFFDF2"/>
<path d="M19.7685 53.7347C19.7136 54.3011 19.5523 54.8061 19.2847 55.2499C19.0079 55.6826 18.6389 56.0145 18.1775 56.2456L19.3246 56.4175L19.1746 57.9649L8.55462 56.9407L8.71052 55.3326L12.9585 55.7423C12.5896 55.4413 12.3053 55.0566 12.1057 54.5882C11.896 54.1188 11.8205 53.5807 11.8794 52.9738C11.9509 52.2355 12.1846 51.6149 12.5805 51.1121C12.9773 50.5991 13.4883 50.2247 14.1135 49.989C14.7387 49.7532 15.4205 49.671 16.1588 49.7422C16.8971 49.8134 17.5555 50.0249 18.1339 50.3767C18.7022 50.7276 19.1369 51.1932 19.438 51.7735C19.7299 52.3426 19.8401 52.9964 19.7685 53.7347ZM18.3252 53.9324C18.3703 53.4671 18.3033 53.0524 18.1242 52.688C17.9351 52.3227 17.6576 52.0254 17.2919 51.7962C16.9161 51.566 16.4854 51.4274 15.9999 51.3806C15.4942 51.3318 15.0445 51.3905 14.6506 51.5567C14.2476 51.7118 13.9233 51.9511 13.6776 52.2744C13.4318 52.5978 13.2869 52.9871 13.2428 53.4422C13.1996 53.8872 13.2726 54.2924 13.4618 54.6577C13.6409 55.0221 13.9128 55.3239 14.2775 55.5632C14.6331 55.7915 15.0637 55.93 15.5695 55.9788C16.0549 56.0256 16.4992 55.9715 16.9021 55.8164C17.3061 55.6512 17.636 55.4074 17.8919 55.085C18.1376 54.7616 18.282 54.3774 18.3252 53.9324Z" fill="#FFFDF2"/>
<path d="M21.2785 46.1535C21.0677 46.8647 20.7207 47.4457 20.2374 47.8965C19.7541 48.3472 19.1787 48.6437 18.5113 48.786C17.8467 48.9185 17.1441 48.8756 16.4034 48.6572C15.6334 48.4302 15.0105 48.0824 14.5347 47.6138C14.0589 47.1451 13.7459 46.592 13.5956 45.9545C13.4386 45.3044 13.4668 44.6189 13.6805 43.8979C13.8883 43.1965 14.2262 42.6286 14.6939 42.1945C15.152 41.7575 15.6875 41.4704 16.3004 41.3333C16.9162 41.1864 17.5603 41.2121 18.2329 41.4103C18.3693 41.4505 18.4848 41.4899 18.5794 41.5284C18.6769 41.5571 18.7909 41.6013 18.9216 41.661L17.2717 47.2288C17.6898 47.3203 18.0856 47.3257 18.4592 47.2452C18.823 47.1617 19.1423 46.9963 19.417 46.7489C19.6819 46.4986 19.8721 46.1786 19.9876 45.7889C20.1117 45.37 20.1245 44.9871 20.0259 44.6402C19.9205 44.2807 19.714 43.9762 19.4064 43.7266L19.8828 42.1191C20.2838 42.3751 20.6199 42.7072 20.891 43.1155C21.1651 43.5141 21.3429 43.9691 21.4245 44.4804C21.5061 44.9918 21.4574 45.5495 21.2785 46.1535ZM16.1796 46.891L17.3704 42.8722C16.7994 42.7251 16.2967 42.7941 15.8625 43.0792C15.4185 43.3615 15.1157 43.7754 14.954 44.321C14.8097 44.8081 14.8294 45.2959 15.0132 45.7844C15.197 46.2729 15.5858 46.6418 16.1796 46.891Z" fill="#FFFDF2"/>
<path d="M23.8887 38.7378L17.4469 34.7812L18.2637 33.4583L19.2278 34.0147C19.0062 33.5806 18.9177 33.1147 18.9621 32.6173C19.0118 32.1113 19.1701 31.6421 19.437 31.2098C19.9015 30.4576 20.5159 29.9943 21.2804 29.8199C22.0362 29.6402 22.8817 29.8375 23.8168 30.4119L27.5962 32.7332L26.7474 34.1079L23.1368 31.8903C22.5567 31.534 22.0307 31.3898 21.5589 31.4577C21.0784 31.5203 20.678 31.811 20.3577 32.3298C20.0427 32.8399 19.9667 33.3596 20.1295 33.8889C20.2836 34.4129 20.6681 34.8636 21.2828 35.2412L24.7375 37.3631L23.8887 38.7378Z" fill="#FFFDF2"/>
<path d="M30.6845 29.4844C30.1895 30.0231 29.6264 30.4032 28.9951 30.6247C28.3632 30.8318 27.7092 30.8604 27.0329 30.7103C26.3635 30.5528 25.7288 30.1998 25.1288 29.6514C24.5288 29.103 24.1281 28.5027 23.9268 27.8507C23.7324 27.1912 23.7183 26.5383 23.8846 25.8918C24.0502 25.2309 24.3804 24.6311 24.8754 24.0924C25.3704 23.5537 25.9335 23.1736 26.5648 22.9521C27.196 22.7306 27.8495 22.6877 28.5251 22.8235C29.2007 22.9592 29.8423 23.3047 30.4498 23.86C31.0199 24.381 31.4093 24.9709 31.6181 25.6297C31.8337 26.2811 31.8662 26.9441 31.7156 27.6186C31.5575 28.2863 31.2138 28.9082 30.6845 29.4844ZM29.6597 28.5271C29.9622 28.1979 30.1478 27.8307 30.2166 27.4255C30.2922 27.0128 30.2562 26.6013 30.1087 26.1912C29.9537 25.7742 29.6924 25.3977 29.3249 25.0618C28.9499 24.7191 28.5549 24.4957 28.1398 24.3917C27.7242 24.2734 27.3245 24.2728 26.9408 24.3901C26.5495 24.5006 26.1992 24.7242 25.8899 25.0609C25.5667 25.4125 25.3708 25.791 25.3021 26.1962C25.2402 26.594 25.2899 26.9904 25.4512 27.3856C25.6118 27.7664 25.8722 28.1214 26.2322 28.4504C26.6447 28.8275 27.0622 29.0714 27.4847 29.1823C27.9141 29.2857 28.3169 29.2753 28.6932 29.1511C29.0694 29.0269 29.3916 28.819 29.6597 28.5271Z" fill="#FFFDF2"/>
<path d="M36.5186 23.9098C35.9265 24.3732 35.3573 24.5865 34.811 24.5495C34.2647 24.5125 33.734 24.1666 33.2188 23.5118L30.8343 20.4812L29.9341 21.1858L29.0953 20.1197L29.9955 19.4152L28.8645 17.9777L30.1368 16.9819L31.2678 18.4194L32.7801 17.2357L33.6189 18.3018L32.1066 19.4854L34.491 22.516C34.7298 22.8195 34.958 22.9699 35.1757 22.9672C35.3935 22.9646 35.6463 22.8505 35.9344 22.625L36.6065 22.0989L37.4548 23.177L36.5186 23.9098Z" fill="#FFFDF2"/>
<path d="M34.8891 14.2614C34.6392 14.4175 34.3697 14.466 34.0806 14.4069C33.7948 14.3337 33.5709 14.1681 33.4088 13.9099C33.2522 13.6603 33.206 13.3956 33.2704 13.1159C33.3434 12.8307 33.5048 12.6101 33.7548 12.4541C34.0133 12.2926 34.2828 12.2442 34.5633 12.3087C34.8523 12.3678 35.0751 12.5221 35.2318 12.7717C35.3938 13.0299 35.4411 13.3059 35.3735 13.5996C35.3092 13.8794 35.1477 14.1 34.8891 14.2614ZM38.9277 22.2156L34.9088 15.8124L36.2793 14.9567L40.2982 21.3599L38.9277 22.2156Z" fill="#FFFDF2"/>
<path d="M41.9641 20.3933L39.1648 14.8574L38.2662 15.3094L37.654 14.0989L38.5527 13.6468L38.1951 12.9395C37.8237 12.205 37.7438 11.5855 37.9555 11.0809C38.1626 10.5672 38.5975 10.1438 39.2602 9.81042L39.8865 9.49536L40.5055 10.7195L40.1106 10.9181C39.7838 11.0825 39.5868 11.267 39.5194 11.4715C39.4474 11.6669 39.4894 11.9188 39.6453 12.2271L39.996 12.9208L41.4393 12.1948L42.0515 13.4053L40.6082 14.1314L43.4074 19.6673L41.9641 20.3933Z" fill="#FFFDF2"/>
<path d="M43.4502 9.93844C43.1758 10.0458 42.9021 10.0439 42.6289 9.93254C42.3616 9.80804 42.1721 9.60396 42.0605 9.32029C41.9526 9.04608 41.956 8.77738 42.0709 8.5142C42.1952 8.24731 42.3945 8.06016 42.6689 7.95276C42.9528 7.84165 43.2266 7.84362 43.4902 7.95866C43.7633 8.07 43.9538 8.26277 44.0617 8.53699C44.1733 8.82065 44.1688 9.10066 44.0483 9.377C43.9334 9.64019 43.7341 9.82733 43.4502 9.93844ZM45.9514 18.5018L43.1835 11.4668L44.688 10.878L47.4559 17.9129L45.9514 18.5018Z" fill="#FFFDF2"/>
<path d="M52.1994 16.6464C51.4791 16.8236 50.8024 16.8174 50.1694 16.6278C49.5363 16.4383 48.9899 16.0913 48.5303 15.5871C48.0805 15.0803 47.7628 14.4521 47.5774 13.7025C47.3847 12.9232 47.3705 12.2099 47.5349 11.5625C47.6993 10.9152 48.0187 10.3657 48.4932 9.91411C48.9751 9.45022 49.5811 9.12846 50.3113 8.94881C51.0217 8.77403 51.6824 8.77891 52.2932 8.96347C52.9017 9.13816 53.4198 9.45542 53.8475 9.91525C54.2851 10.3726 54.5881 10.9417 54.7564 11.6223C54.7906 11.7604 54.8149 11.8799 54.8295 11.981C54.8539 12.0797 54.8733 12.2004 54.8877 12.3434L49.2487 13.7308C49.3808 14.1378 49.5759 14.4822 49.834 14.764C50.0897 15.036 50.3936 15.228 50.7459 15.3402C51.0956 15.4425 51.4679 15.4451 51.8626 15.348C52.2868 15.2436 52.6238 15.0613 52.8735 14.801C53.1305 14.5285 53.2892 14.1964 53.3493 13.8049L54.9774 13.4044C54.9589 13.8798 54.8419 14.3376 54.6262 14.7779C54.4205 15.2157 54.1175 15.5989 53.7173 15.9276C53.3171 16.2563 52.8111 16.4958 52.1994 16.6464ZM48.9891 12.6174L53.0592 11.616C52.898 11.0488 52.5847 10.6497 52.1194 10.4189C51.6516 10.1782 51.1415 10.1258 50.5889 10.2618C50.0956 10.3832 49.6844 10.6465 49.3555 11.0518C49.0266 11.4571 48.9045 11.979 48.9891 12.6174Z" fill="#FFFDF2"/>
<path d="M59.8535 15.4728C59.1026 15.5133 58.4436 15.3708 57.8765 15.0452C57.3189 14.7089 56.8768 14.2494 56.5501 13.6667C56.2335 13.0834 56.0551 12.4214 56.015 11.6807C55.9754 10.9502 56.0817 10.283 56.3339 9.67917C56.5957 9.06467 56.9861 8.57043 57.5052 8.19646C58.0338 7.81179 58.6736 7.5992 59.4244 7.55871C59.9824 7.52861 60.4961 7.61793 60.9653 7.82667C61.434 8.02527 61.8217 8.3249 62.1284 8.72558L61.899 4.49457L63.5275 4.40675L64.1051 15.0604L62.5374 15.1449L62.413 13.9763C62.191 14.3851 61.8585 14.7287 61.4157 15.007C60.9728 15.2852 60.4521 15.4405 59.8535 15.4728ZM60.0963 14.0402C60.5732 14.0145 60.9781 13.8807 61.311 13.6389C61.6439 13.397 61.8912 13.0784 62.0529 12.683C62.2146 12.2876 62.2826 11.8515 62.2567 11.3746C62.227 10.8267 62.0954 10.3708 61.862 10.0068C61.6387 9.64238 61.344 9.36826 60.9779 9.18449C60.6219 9.00017 60.2308 8.9195 59.8047 8.94248C59.3684 8.96601 58.9835 9.09362 58.6501 9.32529C58.3167 9.55697 58.0587 9.86599 57.8761 10.2523C57.7037 10.6382 57.6315 11.0898 57.6595 11.6073C57.687 12.1146 57.8127 12.5555 58.0365 12.9301C58.2604 13.3048 58.5506 13.5893 58.9071 13.7838C59.2636 13.9782 59.66 14.0637 60.0963 14.0402Z" fill="#FFFDF2"/>
</svg>
