<svg width="61" height="60" viewBox="0 0 61 60" fill="none" xmlns="http://www.w3.org/2000/svg">
<g clip-path="url(#clip0_173_1079)">
<circle cx="30.7486" cy="29.9232" r="29.9124" fill="#ACBE6F"/>
<path d="M21.9304 28.1859C21.9304 26.7198 22.2574 25.3748 22.9114 24.1506C23.5654 22.9265 24.4436 21.9113 25.5458 21.105L26.582 22.5124C25.7002 23.1574 24.9984 23.9711 24.4766 24.9533C23.9549 25.9355 23.694 27.013 23.694 28.1859H21.9304ZM37.803 28.1859C37.803 27.013 37.5422 25.9355 37.0204 24.9533C36.4987 23.9711 35.7969 23.1574 34.9151 22.5124L35.9512 21.105C37.0535 21.9113 37.9316 22.9265 38.5856 24.1506C39.2396 25.3748 39.5666 26.7198 39.5666 28.1859H37.803ZM23.694 36.1024V34.3431H25.4577V28.1859C25.4577 26.9691 25.8251 25.8879 26.5599 24.9423C27.2948 23.9967 28.2501 23.3773 29.4258 23.0841V22.4684C29.4258 22.1019 29.5544 21.7903 29.8116 21.5338C30.0688 21.2772 30.3811 21.149 30.7485 21.149C31.116 21.149 31.4283 21.2772 31.6855 21.5338C31.9426 21.7903 32.0712 22.1019 32.0712 22.4684V23.0841C33.247 23.3773 34.2023 23.9967 34.9371 24.9423C35.672 25.8879 36.0394 26.9691 36.0394 28.1859V34.3431H37.803V36.1024H23.694ZM30.7485 38.7412C30.2635 38.7412 29.8483 38.5689 29.503 38.2244C29.1576 37.8799 28.9849 37.4658 28.9849 36.982H32.5122C32.5122 37.4658 32.3395 37.8799 31.9941 38.2244C31.6487 38.5689 31.2335 38.7412 30.7485 38.7412ZM27.2213 34.3431H34.2758V28.1859C34.2758 27.2183 33.9304 26.39 33.2396 25.701C32.5489 25.0119 31.7185 24.6674 30.7485 24.6674C29.7785 24.6674 28.9482 25.0119 28.2574 25.701C27.5667 26.39 27.2213 27.2183 27.2213 28.1859V34.3431Z" fill="#FFFDF2"/>
<path d="M52.237 32.2424C52.2688 31.9138 52.3623 31.6208 52.5174 31.3634C52.6779 31.1124 52.892 30.9199 53.1596 30.7859L52.4941 30.686L52.5809 29.7883L58.7416 30.384L58.6514 31.3169L56.1871 31.0786C56.4012 31.2533 56.5662 31.4766 56.682 31.7483C56.8037 32.0207 56.8476 32.3329 56.8135 32.6849C56.7721 33.1132 56.6366 33.4732 56.4071 33.7649C56.1769 34.0624 55.8806 34.2796 55.5179 34.4162C55.1553 34.5529 54.7598 34.6005 54.3315 34.5591C53.9032 34.5177 53.5213 34.3949 53.1857 34.1907C52.856 33.9871 52.6037 33.7169 52.429 33.3802C52.2596 33.05 52.1956 32.6707 52.237 32.2424ZM53.0742 32.1279C53.0481 32.3978 53.087 32.6384 53.191 32.8498C53.3008 33.0618 53.4617 33.2343 53.6739 33.3674C53.892 33.501 54.1418 33.5814 54.4234 33.6086C54.7168 33.637 54.9777 33.603 55.2061 33.5066C55.4399 33.4167 55.628 33.278 55.7705 33.0904C55.913 32.9028 55.997 32.677 56.0226 32.413C56.0475 32.1548 56.0051 31.9198 55.8953 31.7078C55.7914 31.4964 55.6336 31.3212 55.422 31.1823C55.2157 31.0499 54.9659 30.9694 54.6725 30.9411C54.3909 30.9138 54.1332 30.9452 53.8994 31.0351C53.6651 31.1309 53.4738 31.2723 53.3254 31.4593C53.1829 31.6469 53.0992 31.8697 53.0742 32.1279Z" fill="#FFFDF2"/>
<path d="M51.417 36.1053C51.5389 35.6927 51.74 35.3556 52.0201 35.0942C52.3002 34.8327 52.6337 34.6609 53.0207 34.5785C53.406 34.5019 53.8135 34.527 54.2431 34.654C54.6897 34.786 55.0511 34.9881 55.3271 35.2602C55.6032 35.5324 55.7849 35.8534 55.8723 36.2235C55.9636 36.6008 55.9474 36.9987 55.8238 37.417C55.7035 37.824 55.5078 38.1534 55.2367 38.4052C54.9712 38.6587 54.6608 38.8251 54.3054 38.9045C53.9483 38.9895 53.5748 38.9743 53.1847 38.8591C53.1056 38.8357 53.0386 38.8128 52.9837 38.7904C52.9272 38.7737 52.861 38.748 52.7852 38.7133L53.7401 35.4827C53.4976 35.4294 53.2681 35.4262 53.0515 35.4728C52.8405 35.5211 52.6554 35.617 52.4962 35.7605C52.3427 35.9056 52.2325 36.0913 52.1657 36.3174C52.0938 36.5605 52.0865 36.7827 52.1438 36.984C52.2051 37.1927 52.3249 37.3695 52.5034 37.5144L52.2277 38.4471C51.9951 38.2985 51.8 38.1056 51.6427 37.8685C51.4836 37.6371 51.3804 37.373 51.3329 37.0762C51.2853 36.7795 51.3134 36.4558 51.417 36.1053ZM54.3735 35.6791L53.6843 38.011C54.0156 38.0965 54.307 38.0567 54.5587 37.8913C54.8161 37.7277 54.9915 37.4876 55.0851 37.171C55.1686 36.8884 55.157 36.6053 55.0503 36.3217C54.9436 36.0381 54.718 35.8239 54.3735 35.6791Z" fill="#FFFDF2"/>
<path d="M50.1398 39.7288L53.8742 42.0285L53.4013 42.7965L52.8424 42.4731C52.9709 42.7253 53.0224 42.9958 52.9968 43.2847C52.9681 43.5785 52.8765 43.851 52.722 44.1019C52.4531 44.5386 52.0971 44.8075 51.6541 44.9085C51.2162 45.0126 50.7262 44.8978 50.1841 44.564L47.9932 43.2147L48.4846 42.4167L50.5777 43.7056C50.914 43.9127 51.2188 43.9966 51.4922 43.9573C51.7707 43.9211 52.0026 43.7524 52.1881 43.4512C52.3705 43.1551 52.4144 42.8533 52.3199 42.5459C52.2304 42.2416 52.0074 41.9797 51.6511 41.7602L49.6484 40.5269L50.1398 39.7288Z" fill="#FFFDF2"/>
<path d="M46.4694 44.6727C46.7562 44.3598 47.0824 44.1391 47.4481 44.0104C47.8142 43.8902 48.1931 43.8736 48.5849 43.9608C48.9728 44.0524 49.3405 44.2575 49.6882 44.5761C50.0359 44.8947 50.268 45.2434 50.3847 45.6221C50.4974 46.0052 50.5056 46.3845 50.4093 46.76C50.3134 47.1439 50.1221 47.4923 49.8354 47.8052C49.5486 48.1181 49.2224 48.3388 48.8567 48.4674C48.491 48.596 48.1124 48.6209 47.7209 48.542C47.3295 48.4631 46.9577 48.2624 46.6057 47.9398C46.2754 47.6371 46.0498 47.2944 45.9288 46.9117C45.8038 46.5333 45.7849 46.1482 45.8721 45.7564C45.9637 45.3686 46.1628 45.0073 46.4694 44.6727ZM47.0632 45.2288C46.888 45.42 46.7805 45.6333 46.7407 45.8687C46.6969 46.1084 46.7177 46.3474 46.8032 46.5857C46.8931 46.8279 47.0445 47.0466 47.2574 47.2418C47.4747 47.4409 47.7036 47.5707 47.944 47.6311C48.1848 47.6999 48.4164 47.7002 48.6387 47.6321C48.8654 47.5679 49.0684 47.4381 49.2476 47.2425C49.4347 47.0383 49.5482 46.8185 49.588 46.5831C49.6238 46.352 49.595 46.1218 49.5016 45.8922C49.4085 45.671 49.2576 45.4648 49.049 45.2736C48.81 45.0546 48.5681 44.9128 48.3233 44.8484C48.0745 44.7883 47.8411 44.7944 47.6231 44.8664C47.4052 44.9385 47.2185 45.0593 47.0632 45.2288Z" fill="#FFFDF2"/>
<path d="M43.4651 47.5163C43.8083 47.247 44.1381 47.123 44.4546 47.1444C44.7711 47.1658 45.0786 47.3666 45.377 47.7469L46.758 49.5067L47.2797 49.0973L47.7655 49.7164L47.2439 50.1258L47.8989 50.9605L47.1616 51.5391L46.5065 50.7044L45.6301 51.3922L45.1443 50.7731L46.0207 50.0853L44.6397 48.3255C44.5014 48.1493 44.3692 48.0619 44.243 48.0635C44.1169 48.0651 43.9703 48.1314 43.8034 48.2624L43.4139 48.5681L42.9226 47.9421L43.4651 47.5163Z" fill="#FFFDF2"/>
<path d="M44.6977 52.8976C44.8426 52.8069 44.9988 52.7787 45.1663 52.8129C45.3319 52.8553 45.4616 52.9515 45.5555 53.1013C45.6462 53.2462 45.6728 53.3999 45.6355 53.5624C45.5931 53.728 45.4995 53.8562 45.3546 53.9469C45.2047 54.0407 45.0485 54.069 44.886 54.0316C44.7185 53.9973 44.5894 53.9078 44.4987 53.7629C44.4049 53.613 44.3776 53.4527 44.4168 53.2821C44.4542 53.1196 44.5478 52.9915 44.6977 52.8976ZM42.3597 48.2796L44.6868 51.9969L43.8923 52.4943L41.5653 48.7769L42.3597 48.2796Z" fill="#FFFDF2"/>
<path d="M40.7823 49.2236L42.4029 52.4368L42.9239 52.1741L43.2783 52.8767L42.7572 53.1395L42.9643 53.55C43.1793 53.9763 43.2253 54.336 43.1024 54.6291C42.9822 54.9274 42.73 55.1734 42.3458 55.3672L41.9826 55.5503L41.6243 54.8398L41.8532 54.7243C42.0427 54.6288 42.157 54.5216 42.1961 54.4029C42.2379 54.2894 42.2137 54.1431 42.1234 53.9642L41.9204 53.5615L41.0835 53.9836L40.7291 53.281L41.566 52.8589L39.9455 49.6457L40.7823 49.2236Z" fill="#FFFDF2"/>
<path d="M40.1788 55.1645C40.3379 55.1021 40.4966 55.1031 40.6549 55.1676C40.8099 55.2398 40.9197 55.3582 40.9843 55.5228C41.0467 55.682 41.0446 55.8379 40.978 55.9907C40.9058 56.1457 40.7901 56.2544 40.631 56.3169C40.4664 56.3815 40.3077 56.3804 40.1549 56.3137C39.9966 56.2492 39.8862 56.1374 39.8237 55.9783C39.7591 55.8136 39.7618 55.6511 39.8319 55.4906C39.8985 55.3378 40.0142 55.2291 40.1788 55.1645ZM38.7319 50.1947L40.334 54.2772L39.4615 54.6196L37.8594 50.5371L38.7319 50.1947Z" fill="#FFFDF2"/>
<path d="M35.3025 51.1878C35.7203 51.0847 36.1128 51.0881 36.4799 51.1979C36.8469 51.3077 37.1637 51.5088 37.4301 51.8013C37.6908 52.0952 37.8749 52.4597 37.9821 52.8946C38.0937 53.3468 38.1017 53.7607 38.0061 54.1364C37.9106 54.5121 37.7252 54.831 37.4499 55.0932C37.1702 55.3626 36.8187 55.5495 36.3951 55.6539C35.9831 55.7556 35.5999 55.753 35.2457 55.6461C34.8929 55.5449 34.5925 55.3609 34.3446 55.0942C34.0909 54.829 33.9154 54.4989 33.818 54.104C33.7982 54.0238 33.7841 53.9545 33.7757 53.8958C33.7616 53.8386 33.7504 53.7685 33.7421 53.6856L37.0129 52.8787C36.9364 52.6426 36.8234 52.4428 36.6738 52.2793C36.5256 52.1216 36.3494 52.0103 36.1451 51.9453C35.9423 51.886 35.7264 51.8846 35.4975 51.9411C35.2514 52.0018 35.0559 52.1077 34.911 52.2588C34.7619 52.417 34.6697 52.6098 34.6347 52.837L33.6904 53.0699C33.7013 52.794 33.7693 52.5283 33.8945 52.2728C34.0139 52.0187 34.1898 51.7962 34.422 51.6053C34.6542 51.4145 34.9477 51.2753 35.3025 51.1878ZM37.1631 53.5247L34.8023 54.1071C34.8956 54.4362 35.0772 54.6676 35.347 54.8014C35.6182 54.941 35.914 54.9712 36.2345 54.8921C36.5207 54.8216 36.7592 54.6686 36.9501 54.4333C37.141 54.198 37.212 53.8951 37.1631 53.5247Z" fill="#FFFDF2"/>
<path d="M31.3572 51.7465C31.7928 51.7229 32.1751 51.8055 32.5041 51.9944C32.8275 52.1894 33.084 52.4559 33.2734 52.794C33.457 53.1324 33.5604 53.5164 33.5837 53.9461C33.6066 54.3699 33.5449 54.7569 33.3985 55.1072C33.2466 55.4637 33.0201 55.7505 32.7189 55.9675C32.4122 56.1907 32.0411 56.3141 31.6055 56.3376C31.2818 56.3551 30.9838 56.3034 30.7116 56.1823C30.4397 56.0671 30.2149 55.8933 30.037 55.6609L30.1697 58.1154L29.225 58.1665L28.8908 51.9861L29.8002 51.9369L29.8723 52.6149C30.0011 52.3777 30.194 52.1783 30.4509 52.0168C30.7079 51.8554 31.01 51.7652 31.3572 51.7465ZM31.2162 52.5776C30.9396 52.5926 30.7047 52.6702 30.5116 52.8105C30.3184 52.9508 30.175 53.1357 30.0811 53.3651C29.9872 53.5945 29.9478 53.8475 29.9628 54.1242C29.9799 54.442 30.0562 54.7065 30.1916 54.9176C30.3211 55.129 30.492 55.288 30.7044 55.3946C30.9109 55.5015 31.1378 55.5483 31.385 55.5349C31.6381 55.5212 31.8614 55.4471 32.0548 55.3127C32.2483 55.1783 32.3979 54.999 32.5039 54.7748C32.604 54.551 32.6459 54.289 32.6296 53.9888C32.6137 53.6945 32.5409 53.4387 32.411 53.2214C32.2812 53.0041 32.1129 52.839 31.9061 52.7263C31.6993 52.6135 31.4693 52.5639 31.2162 52.5776Z" fill="#FFFDF2"/>
<path d="M10.9206 27.7571C10.8888 28.0857 10.7953 28.3787 10.6402 28.6361C10.4797 28.8871 10.2656 29.0796 9.99801 29.2136L10.6635 29.3135L10.5767 30.2112L4.41597 29.6155L4.50618 28.6826L6.97047 28.9209C6.75639 28.7462 6.59143 28.523 6.47557 28.2512C6.35386 27.9788 6.31002 27.6666 6.34406 27.3146C6.38548 26.8863 6.52096 26.5263 6.75052 26.2346C6.98065 25.9371 7.27703 25.72 7.63965 25.5833C8.00228 25.4466 8.39775 25.399 8.82607 25.4404C9.25438 25.4818 9.63633 25.6046 9.97192 25.8088C10.3016 26.0124 10.5539 26.2826 10.7286 26.6193C10.898 26.9495 10.962 27.3288 10.9206 27.7571ZM10.0834 27.8716C10.1095 27.6017 10.0705 27.3611 9.96663 27.1497C9.85683 26.9377 9.69585 26.7652 9.48367 26.6321C9.26562 26.4985 9.01579 26.4181 8.73415 26.3909C8.44079 26.3625 8.17988 26.3965 7.95145 26.4929C7.71771 26.5828 7.52959 26.7215 7.38708 26.9091C7.24458 27.0967 7.16056 27.3225 7.13503 27.5865C7.11006 27.8447 7.15248 28.0797 7.26227 28.2917C7.36619 28.5031 7.52396 28.6783 7.73557 28.8172C7.94188 28.9497 8.19172 29.0301 8.48509 29.0584C8.76672 29.0857 9.02441 29.0543 9.25814 28.9644C9.49245 28.8686 9.68379 28.7272 9.83216 28.5402C9.97467 28.3526 10.0584 28.1298 10.0834 27.8716Z" fill="#FFFDF2"/>
<path d="M11.741 23.8942C11.619 24.3069 11.418 24.6439 11.1379 24.9053C10.8578 25.1668 10.5242 25.3386 10.1372 25.421C9.75192 25.4976 9.34445 25.4725 8.91482 25.3455C8.46824 25.2135 8.1069 25.0114 7.83082 24.7393C7.55474 24.4672 7.37304 24.1461 7.2857 23.776C7.19439 23.3987 7.21055 23.0008 7.33418 22.5825C7.45447 22.1755 7.65018 21.8461 7.92129 21.5943C8.18675 21.3408 8.49718 21.1744 8.85256 21.0951C9.20961 21.01 9.58317 21.0252 9.97322 21.1404C10.0524 21.1638 10.1194 21.1867 10.1742 21.2091C10.2308 21.2258 10.2969 21.2515 10.3727 21.2862L9.41789 24.5169C9.66033 24.5701 9.88986 24.5734 10.1065 24.5267C10.3174 24.4785 10.5025 24.3826 10.6617 24.2391C10.8153 24.0939 10.9255 23.9082 10.9923 23.6821C11.0641 23.439 11.0714 23.2168 11.0141 23.0155C10.9529 22.8069 10.833 22.6301 10.6546 22.4851L10.9302 21.5524C11.1629 21.701 11.3579 21.8939 11.5153 22.131C11.6743 22.3624 11.7776 22.6265 11.8251 22.9233C11.8726 23.2201 11.8446 23.5437 11.741 23.8942ZM8.78444 24.3204L9.47362 21.9886C9.1424 21.903 8.85094 21.9428 8.59924 22.1082C8.34188 22.2718 8.16642 22.5119 8.07286 22.8285C7.98932 23.1112 8.00092 23.3943 8.10766 23.6778C8.2144 23.9614 8.44 24.1756 8.78444 24.3204Z" fill="#FFFDF2"/>
<path d="M13.0181 20.2707L9.28376 17.971L9.75668 17.203L10.3156 17.5264C10.187 17.2742 10.1356 17.0037 10.1612 16.7148C10.1898 16.421 10.2814 16.1486 10.436 15.8976C10.7049 15.4609 11.0609 15.1921 11.5038 15.091C11.9418 14.9869 12.4318 15.1017 12.9739 15.4356L15.1648 16.7848L14.6733 17.5828L12.5803 16.2939C12.244 16.0868 11.9391 16.0029 11.6657 16.0422C11.3873 16.0784 11.1553 16.2471 10.9699 16.5483C10.7875 16.8444 10.7436 17.1462 10.8381 17.4536C10.9276 17.7579 11.1505 18.0198 11.5069 18.2393L13.5096 19.4726L13.0181 20.2707Z" fill="#FFFDF2"/>
<path d="M16.6885 15.3273C16.4018 15.6402 16.0756 15.8609 15.7098 15.9896C15.3438 16.1098 14.9648 16.1264 14.573 16.0392C14.1852 15.9476 13.8174 15.7425 13.4698 15.4239C13.1221 15.1053 12.8899 14.7566 12.7733 14.3779C12.6606 13.9948 12.6524 13.6155 12.7486 13.24C12.8445 12.8561 13.0359 12.5077 13.3226 12.1948C13.6093 11.8819 13.9356 11.6612 14.3013 11.5326C14.667 11.404 15.0456 11.3791 15.437 11.458C15.8285 11.5369 16.2002 11.7376 16.5522 12.0602C16.8825 12.3629 17.1082 12.7056 17.2292 13.0883C17.3542 13.4667 17.373 13.8518 17.2858 14.2436C17.1943 14.6314 16.9952 14.9927 16.6885 15.3273ZM16.0948 14.7712C16.27 14.58 16.3775 14.3667 16.4173 14.1313C16.4611 13.8916 16.4402 13.6526 16.3547 13.4143C16.2649 13.1721 16.1135 12.9534 15.9005 12.7582C15.6832 12.5591 15.4544 12.4293 15.2139 12.3689C14.9731 12.3001 14.7415 12.2998 14.5192 12.3679C14.2926 12.4321 14.0896 12.5619 13.9104 12.7575C13.7232 12.9617 13.6097 13.1815 13.5699 13.4169C13.5341 13.648 13.5629 13.8782 13.6564 14.1078C13.7495 14.329 13.9003 14.5352 14.109 14.7264C14.348 14.9454 14.5899 15.0872 14.8347 15.1516C15.0835 15.2117 15.3168 15.2056 15.5348 15.1336C15.7528 15.0615 15.9394 14.9407 16.0948 14.7712Z" fill="#FFFDF2"/>
<path d="M19.6926 12.4837C19.3494 12.753 19.0196 12.877 18.7031 12.8556C18.3866 12.8342 18.0791 12.6334 17.7807 12.2531L16.3997 10.4933L15.878 10.9027L15.3922 10.2836L15.9139 9.87423L15.2588 9.03952L15.9961 8.4609L16.6512 9.29561L17.5276 8.60781L18.0135 9.22689L17.137 9.91468L18.5181 11.6745C18.6563 11.8507 18.7886 11.9381 18.9147 11.9365C19.0408 11.9349 19.1874 11.8686 19.3543 11.7376L19.7439 11.4319L20.2351 12.0579L19.6926 12.4837Z" fill="#FFFDF2"/>
<path d="M18.4599 7.10236C18.315 7.19307 18.1588 7.2213 17.9913 7.18705C17.8257 7.14468 17.696 7.04855 17.6021 6.89866C17.5114 6.75376 17.4848 6.60007 17.5221 6.43758C17.5645 6.27197 17.6581 6.14381 17.803 6.05311C17.9529 5.95927 18.1091 5.93104 18.2716 5.96842C18.4391 6.00266 18.5682 6.09223 18.6589 6.23713C18.7527 6.38702 18.78 6.54727 18.7408 6.71788C18.7034 6.88037 18.6098 7.00853 18.4599 7.10236ZM20.7979 11.7204L18.4708 8.00306L19.2653 7.50574L21.5923 11.2231L20.7979 11.7204Z" fill="#FFFDF2"/>
<path d="M22.3754 10.7759L20.7549 7.56266L20.2338 7.82545L19.8794 7.12281L20.4005 6.86002L20.1935 6.44949C19.9784 6.02317 19.9324 5.66349 20.0553 5.37044C20.1755 5.07213 20.4277 4.82609 20.8119 4.63232L21.1751 4.44917L21.5335 5.1597L21.3045 5.27517C21.115 5.37073 21.0007 5.47789 20.9616 5.59666C20.9198 5.71016 20.944 5.85638 21.0343 6.03533L21.2374 6.43797L22.0742 6.01592L22.4286 6.71856L21.5917 7.14061L23.2122 10.3538L22.3754 10.7759Z" fill="#FFFDF2"/>
<path d="M22.9788 4.83547C22.8197 4.89792 22.6609 4.89688 22.5026 4.83236C22.3477 4.76019 22.2379 4.6418 22.1733 4.47718C22.1108 4.31805 22.113 4.16208 22.1796 4.00926C22.2518 3.8543 22.3675 3.74559 22.5266 3.68314C22.6912 3.61854 22.8499 3.61958 23.0027 3.68626C23.161 3.75078 23.2714 3.86261 23.3339 4.02174C23.3985 4.18636 23.3958 4.3489 23.3257 4.50935C23.2591 4.66216 23.1434 4.77087 22.9788 4.83547ZM24.4257 9.80531L22.8236 5.72276L23.696 5.38037L25.2982 9.46292L24.4257 9.80531Z" fill="#FFFDF2"/>
<path d="M27.8552 8.81173C27.4374 8.91479 27.0449 8.91142 26.6779 8.80162C26.3108 8.69181 25.994 8.49067 25.7276 8.19818C25.4669 7.90428 25.2829 7.53985 25.1756 7.10489C25.064 6.65276 25.056 6.23884 25.1516 5.86314C25.2471 5.48743 25.4325 5.16847 25.7079 4.90627C25.9875 4.63694 26.3391 4.45004 26.7626 4.34556C27.1746 4.24392 27.5578 4.24654 27.912 4.35345C28.2648 4.45463 28.5652 4.63857 28.8131 4.90527C29.0668 5.17055 29.2423 5.50064 29.3397 5.89554C29.3595 5.97566 29.3736 6.04505 29.382 6.10369C29.3961 6.16092 29.4073 6.23101 29.4156 6.31396L26.1448 7.12079C26.2213 7.35693 26.3343 7.55672 26.4839 7.72017C26.6321 7.8779 26.8084 7.98925 27.0126 8.05423C27.2154 8.11348 27.4313 8.11487 27.6602 8.0584C27.9063 7.99769 28.1018 7.89179 28.2467 7.7407C28.3959 7.58247 28.488 7.38975 28.523 7.16254L29.4673 6.9296C29.4564 7.20549 29.3884 7.4712 29.2632 7.72672C29.1438 7.98083 28.9679 8.20331 28.7357 8.39416C28.5035 8.58501 28.21 8.7242 27.8552 8.81173ZM25.9946 6.47482L28.3554 5.89246C28.2621 5.56334 28.0805 5.33188 27.8107 5.19807C27.5395 5.05855 27.2437 5.02831 26.9232 5.10737C26.637 5.17796 26.3985 5.33091 26.2076 5.56621C26.0167 5.80151 25.9457 6.10438 25.9946 6.47482Z" fill="#FFFDF2"/>
<path d="M31.8006 8.25354C31.365 8.27709 30.9827 8.19445 30.6538 8.00563C30.3303 7.8106 30.0739 7.54406 29.8844 7.20601C29.7008 6.86764 29.5974 6.48361 29.5742 6.05393C29.5513 5.63013 29.613 5.24307 29.7593 4.89277C29.9112 4.53626 30.1378 4.2495 30.4389 4.03251C30.7456 3.80931 31.1168 3.68593 31.5523 3.66238C31.8761 3.64487 32.174 3.69665 32.4462 3.81771C32.7181 3.93288 32.943 4.10667 33.1208 4.33909L32.9881 1.88459L33.9328 1.8335L34.267 8.01391L33.3576 8.06308L33.2856 7.38515C33.1567 7.62235 32.9638 7.82168 32.7069 7.98316C32.45 8.14463 32.1479 8.23476 31.8006 8.25354ZM31.9416 7.4224C32.2183 7.40744 32.4531 7.3298 32.6463 7.18949C32.8394 7.04917 32.9829 6.86431 33.0767 6.63491C33.1706 6.40551 33.21 6.15249 33.1951 5.87584C33.1779 5.55799 33.1016 5.29352 32.9662 5.08241C32.8367 4.87099 32.6658 4.71199 32.4534 4.60541C32.2469 4.49851 32.0201 4.45174 31.7728 4.46511C31.5197 4.4788 31.2965 4.55286 31.103 4.68728C30.9096 4.82171 30.7599 5.00101 30.6539 5.22516C30.5539 5.44899 30.512 5.711 30.5282 6.01119C30.5441 6.3055 30.617 6.5613 30.7468 6.77861C30.8766 6.99592 31.0449 7.16096 31.2517 7.27375C31.4586 7.38654 31.6885 7.43609 31.9416 7.4224Z" fill="#FFFDF2"/>
</g>
<defs>
<clipPath id="clip0_173_1079">
<rect width="59.8248" height="59.9997" fill="white" transform="translate(0.836182)"/>
</clipPath>
</defs>
</svg>
