<svg width="187" height="65" viewBox="0 0 187 65" fill="none" xmlns="http://www.w3.org/2000/svg">
<path d="M175.879 40.7069L175.879 40.7069L175.876 40.711C174.216 42.5455 172.01 43.4723 169.214 43.4723C166.665 43.4723 164.733 42.8035 163.36 41.5174C162.001 40.1994 161.281 38.1441 161.281 35.2629V16.1499C161.281 15.4453 160.71 14.874 160.005 14.874H154.591C153.887 14.874 153.315 15.4453 153.315 16.1499V35.8155C153.315 38.7733 153.902 41.3558 155.094 43.5481C156.282 45.7337 157.926 47.4274 160.024 48.6193C162.121 49.8108 164.497 50.4018 167.142 50.4018C169.339 50.4018 171.191 50.1218 172.683 49.5441C174.15 48.9764 175.334 48.2574 176.215 47.3759C176.991 46.6004 177.6 45.7984 178.035 44.9688C178.091 44.8621 178.191 44.8064 178.283 44.8064C178.419 44.8064 178.529 44.9166 178.529 45.0524V54.881C178.529 55.5133 178.381 55.9082 178.16 56.1451C177.944 56.3764 177.591 56.5281 177.02 56.5281L151.977 56.5281C151.272 56.5281 150.701 57.0993 150.701 57.8039V62.3198C150.701 63.0244 151.272 63.5957 151.977 63.5957L179.161 63.5957C181.366 63.5957 183.144 62.9461 184.438 61.6032C185.774 60.2662 186.425 58.4936 186.425 56.3317V16.1499C186.425 15.4453 185.854 14.874 185.149 14.874H179.736C179.031 14.874 178.46 15.4453 178.46 16.1499V32.5688C178.46 36.1883 177.578 38.8779 175.879 40.7069Z" fill="#F17032" stroke="#F17032" stroke-width="0.850575"/>
<path d="M115.469 42.5118L115.469 42.5119L115.473 42.5196C116.982 45.1589 118.968 47.1957 121.433 48.6177C123.893 50.0372 126.569 50.747 129.451 50.747C132.806 50.747 135.437 50.1431 137.288 48.8782C138.98 47.7496 140.29 46.4893 141.201 45.0916C141.263 44.9956 141.362 44.9444 141.457 44.9444C141.611 44.9444 141.736 45.0694 141.736 45.2235V48.504C141.736 49.2087 142.307 49.7799 143.012 49.7799H148.288C148.992 49.7799 149.564 49.2087 149.564 48.504V1.85057C149.564 1.14593 148.992 0.574713 148.288 0.574713H142.874C142.169 0.574713 141.598 1.14594 141.598 1.85057V19.2328C141.598 19.3815 141.477 19.5021 141.329 19.5021C141.235 19.5021 141.134 19.4495 141.071 19.3484C140.553 18.5149 139.856 17.7271 138.989 16.9832C137.973 16.0658 136.681 15.3282 135.125 14.762C133.588 14.1864 131.693 13.9068 129.451 13.9068C126.524 13.9068 123.825 14.6159 121.364 16.036C118.896 17.4599 116.931 19.5229 115.469 22.211C114.001 24.9105 113.276 28.115 113.276 31.8088V32.845C113.276 36.5838 114.001 39.8116 115.469 42.5118ZM138.756 40.8302L138.756 40.8301L138.752 40.8336C136.86 42.7256 134.44 43.6794 131.454 43.6794C128.518 43.6794 126.095 42.7273 124.155 40.8318C122.278 38.9542 121.311 36.2449 121.311 32.6377V32.016C121.311 28.4566 122.277 25.7695 124.155 23.891C126.095 21.9955 128.518 21.0434 131.454 21.0434C134.488 21.0434 136.931 21.9985 138.821 23.8892C140.7 25.7679 141.667 28.4555 141.667 32.016V32.6377C141.667 36.2434 140.677 38.952 138.756 40.8302Z" fill="#F17032" stroke="#F17032" stroke-width="0.850575"/>
<path d="M76.7421 42.5118L76.742 42.5119L76.7465 42.5196C78.2546 45.1589 80.2409 47.1957 82.7057 48.6177C85.1662 50.0372 87.8416 50.747 90.7241 50.747C94.0795 50.747 96.7104 50.1431 98.5606 48.8782C100.253 47.7496 101.563 46.4893 102.474 45.0916C102.536 44.9956 102.635 44.9444 102.73 44.9444C102.884 44.9444 103.009 45.0694 103.009 45.2235V48.504C103.009 49.2087 103.58 49.7799 104.285 49.7799H109.561C110.265 49.7799 110.837 49.2087 110.837 48.504V1.85057C110.837 1.14594 110.265 0.574713 109.561 0.574713H104.147C103.442 0.574713 102.871 1.14594 102.871 1.85057V19.2328C102.871 19.3815 102.75 19.5021 102.602 19.5021C102.508 19.5021 102.407 19.4495 102.344 19.3484C101.826 18.5149 101.129 17.7271 100.262 16.9832C99.2463 16.0658 97.954 15.3282 96.3976 14.762C94.8615 14.1864 92.9655 13.9068 90.7241 13.9068C87.7968 13.9068 85.0982 14.6159 82.6367 16.036C80.1686 17.4599 78.204 19.5229 76.7421 22.211C75.274 24.9105 74.549 28.115 74.549 31.8088V32.845C74.549 36.5838 75.2736 39.8116 76.7421 42.5118ZM100.029 40.8302L100.029 40.8301L100.025 40.8336C98.1332 42.7256 95.7126 43.6794 92.7273 43.6794C89.791 43.6794 87.3681 42.7273 85.4277 40.8318C83.5512 38.9542 82.5837 36.2449 82.5837 32.6377V32.016C82.5837 28.4566 83.5502 25.7695 85.4277 23.891C87.3681 21.9955 89.791 21.0434 92.7273 21.0434C95.7607 21.0434 98.2036 21.9985 100.094 23.8892C101.973 25.7679 102.94 28.4555 102.94 32.016V32.6377C102.94 36.2434 101.951 38.952 100.029 40.8302Z" fill="#F17032" stroke="#F17032" stroke-width="0.850575"/>
<path d="M61.5169 40.7106L61.5165 40.711C59.8567 42.5455 57.6511 43.4723 54.855 43.4723C52.3063 43.4723 50.3738 42.8034 49.0005 41.5174C47.6416 40.1993 46.9219 38.144 46.9219 35.2629V16.1499C46.9219 15.4453 46.3506 14.874 45.646 14.874H40.2321C39.5275 14.874 38.9562 15.4453 38.9562 16.1499V35.7464C38.9562 38.7491 39.5429 41.3549 40.7348 43.5481C41.9226 45.7337 43.567 47.4274 45.6648 48.6193C47.7617 49.8108 50.1381 50.4018 52.7827 50.4018C56.0479 50.4018 58.5926 49.7973 60.3539 48.5252L60.354 48.5253L60.3601 48.5207C61.8973 47.3678 63.0323 46.1394 63.7398 44.8291C63.7968 44.7235 63.8963 44.6683 63.9889 44.6683C64.1269 44.6683 64.2388 44.7802 64.2388 44.9182V48.5042C64.2388 49.2088 64.81 49.7801 65.5147 49.7801H70.7904C71.495 49.7801 72.0662 49.2088 72.0662 48.5042V16.1499C72.0662 15.4453 71.495 14.874 70.7904 14.874H65.3765C64.6719 14.874 64.1006 15.4453 64.1006 16.1499V32.4997C64.1006 36.1185 63.2189 38.834 61.5169 40.7106Z" fill="#F17032" stroke="#F17032" stroke-width="0.850575"/>
<path d="M12.7794 48.8767L12.7794 48.8767L12.7837 48.8795C14.6777 50.1422 17.3294 50.747 20.6872 50.747C23.6139 50.747 26.2903 50.0381 28.7071 48.6169C31.1721 47.1944 33.1358 45.1566 34.5979 42.516C36.1141 39.8148 36.8623 36.5854 36.8623 32.845V31.8088C36.8623 28.115 36.1374 24.9105 34.6692 22.211C33.2073 19.5229 31.2427 17.4599 28.7746 16.036C26.3131 14.6159 23.6145 13.9068 20.6872 13.9068C18.4441 13.9068 16.5265 14.1868 14.9466 14.7613C13.3886 15.3279 12.1148 16.0673 11.142 16.9901C10.3129 17.7369 9.62344 18.525 9.0775 19.3555C9.01467 19.4511 8.91603 19.5021 8.82073 19.5021C8.66586 19.5021 8.54032 19.3765 8.54032 19.2217V1.85057C8.54032 1.14594 7.9691 0.574713 7.26446 0.574713H1.85057C1.14594 0.574713 0.574713 1.14593 0.574713 1.85057V48.504C0.574713 49.2087 1.14593 49.7799 1.85057 49.7799H7.1263C7.83094 49.7799 8.40216 49.2087 8.40216 48.504V45.2235C8.40216 45.0694 8.52709 44.9444 8.6812 44.9444C8.77659 44.9444 8.87492 44.9956 8.93695 45.0912C9.84329 46.4872 11.129 47.7474 12.7794 48.8767ZM25.9162 40.8302L25.9162 40.8301L25.9127 40.8336C24.0208 42.7256 21.6002 43.6794 18.6149 43.6794C15.6785 43.6794 13.2557 42.7273 11.3153 40.8318C9.43875 38.9542 8.47124 36.2449 8.47124 32.6377V32.016C8.47124 28.4566 9.43779 25.7695 11.3153 23.891C13.2557 21.9955 15.6785 21.0434 18.6149 21.0434C21.6482 21.0434 24.0911 21.9985 25.9818 23.8892C27.8605 25.7679 28.8276 28.4555 28.8276 32.016V32.6377C28.8276 36.2434 27.8381 38.952 25.9162 40.8302Z" fill="#F17032" stroke="#F17032" stroke-width="0.850575"/>
</svg>
