<svg width="198" height="199" viewBox="0 0 198 199" fill="none" xmlns="http://www.w3.org/2000/svg">
<g filter="url(#filter0_d_160_740)">
<path d="M148.836 96C148.836 123.614 126.45 146 98.8362 146C71.2219 146 48.8362 123.614 48.8362 96C48.8362 68.3858 71.2219 46 98.8362 46C126.45 46 148.836 68.3858 148.836 96Z" fill="#FCE2A9"/>
<path d="M67.9905 88.7086C67.9345 89.266 67.7871 89.7657 67.5485 90.2077C67.3003 90.6487 66.9791 90.9949 66.5849 91.2465C66.1907 91.4981 65.7461 91.6233 65.2512 91.622L65.4063 90.0796C65.7591 90.0471 66.0604 89.8978 66.3105 89.6317C66.5605 89.3657 66.7073 89.0164 66.7508 88.5839C66.7895 88.1995 66.7392 87.8789 66.6 87.6223C66.4511 87.3646 66.2374 87.2218 65.9587 87.1937C65.7184 87.1696 65.5228 87.2324 65.3718 87.3822C65.2218 87.5225 65.0958 87.7137 64.9938 87.9558C64.8927 88.1883 64.7989 88.4458 64.7122 88.7283C64.562 89.1598 64.3903 89.5648 64.1969 89.9433C64.0044 90.3123 63.7616 90.6034 63.4683 90.8166C63.1751 91.0298 62.8026 91.1136 62.3509 91.0682C61.9088 91.0237 61.5408 90.8702 61.2469 90.6077C60.9443 90.3346 60.7273 89.9827 60.5959 89.552C60.4645 89.1214 60.4248 88.6466 60.477 88.1276C60.5553 87.3492 60.8176 86.7203 61.2638 86.241C61.7004 85.7607 62.2964 85.5294 63.0519 85.5471L62.904 87.0175C62.5637 87.0221 62.2898 87.1402 62.082 87.3717C61.8753 87.5936 61.7525 87.8967 61.7139 88.2811C61.6781 88.6367 61.7212 88.9323 61.8431 89.1678C61.9554 89.4024 62.1509 89.5337 62.4296 89.5617C62.6218 89.5811 62.7929 89.5206 62.943 89.3804C63.0834 89.2392 63.2089 89.0528 63.3196 88.8212C63.4216 88.5791 63.5197 88.3269 63.6141 88.0646C63.7691 87.5851 63.9428 87.1608 64.1352 86.7919C64.3277 86.4229 64.5748 86.1372 64.8767 85.9345C65.1786 85.7319 65.5751 85.6505 66.0662 85.6902C66.5083 85.7346 66.885 85.8987 67.1962 86.1824C67.4988 86.4555 67.7201 86.8127 67.8602 87.2539C68.0012 87.6855 68.0447 88.1704 67.9905 88.7086Z" fill="#EF7133"/>
<path d="M69.0437 83.417C68.8956 83.8563 68.6821 84.2328 68.4031 84.5465C68.1149 84.8571 67.7782 85.0697 67.393 85.1845C67.0077 85.2993 66.5954 85.2826 66.1561 85.1345C65.6344 84.9587 65.2611 84.6901 65.0363 84.329C64.8054 83.9555 64.6908 83.5245 64.6925 83.0358C64.6881 82.5348 64.7753 82.0189 64.9543 81.4881L65.5374 79.7582C65.1438 79.6255 64.8065 79.5831 64.5253 79.6311C64.235 79.6759 63.9979 79.7896 63.814 79.9723C63.6209 80.1518 63.4751 80.3881 63.3763 80.681C63.2468 81.0654 63.2241 81.4349 63.3085 81.7895C63.3867 82.1318 63.6057 82.4044 63.9654 82.6072L63.4703 84.0763C62.9914 83.8639 62.6259 83.5572 62.3738 83.1562C62.1247 82.7461 61.9842 82.2859 61.9523 81.7757C61.9205 81.2655 61.9894 80.7587 62.1591 80.2553C62.3812 79.5963 62.6883 79.0934 63.0805 78.7465C63.4665 78.3874 63.9102 78.1751 64.4113 78.1096C64.9155 78.0349 65.4422 78.0902 65.9914 78.2753L68.0782 78.9787C68.3468 79.059 68.5621 79.0705 68.7241 79.013C68.8801 78.9433 69.0136 78.7742 69.1245 78.5058L70.3738 78.9269C70.2504 79.293 70.1012 79.5995 69.9263 79.8463C69.7544 80.084 69.5568 80.262 69.3335 80.3804C69.1009 80.4956 68.835 80.5589 68.5356 80.5701C68.8277 80.9132 69.0309 81.3384 69.1452 81.8458C69.2596 82.3533 69.2258 82.877 69.0437 83.417ZM67.965 82.6711C68.0915 82.2959 68.111 81.9355 68.0236 81.5901C67.927 81.2415 67.754 80.9386 67.5044 80.6811C67.2456 80.4207 66.9378 80.2302 66.5808 80.1099L66.5534 80.1007L66.0073 81.7207C65.9178 81.9861 65.865 82.2486 65.8488 82.5082C65.8358 82.7586 65.8823 82.9833 65.9886 83.1822C66.0887 83.3688 66.2715 83.5069 66.537 83.5964C66.8848 83.7136 67.1827 83.6764 67.4308 83.4849C67.6697 83.2902 67.8477 83.0189 67.965 82.6711Z" fill="#EF7133"/>
<path d="M70.8564 78.4438L65.725 75.5386L65.2539 76.3707L64.1318 75.7354L64.6029 74.9033L63.9473 74.5321C63.2664 74.1467 62.8765 73.6983 62.7774 73.1872C62.6699 72.6713 62.7899 72.1065 63.1373 71.4929L63.4656 70.9129L64.6003 71.5554L64.3933 71.921C64.222 72.2236 64.1637 72.4736 64.2184 72.6711C64.2647 72.8638 64.4307 73.041 64.7165 73.2028L65.3595 73.5669L66.1161 72.2304L67.2382 72.8657L66.4816 74.2021L71.613 77.1073L70.8564 78.4438Z" fill="#EF7133"/>
<path d="M74.8359 72.8781C74.3787 73.4149 73.8535 73.7858 73.2601 73.991C72.6667 74.1961 72.0529 74.2316 71.4187 74.0975C70.7907 73.9559 70.1972 73.6472 69.6383 73.1713C69.0574 72.6765 68.6508 72.1336 68.4184 71.5424C68.186 70.9512 68.1275 70.3495 68.2429 69.7373C68.3572 69.1115 68.646 68.5265 69.1095 67.9823C69.5604 67.4529 70.0725 67.0898 70.646 66.8931C71.2122 66.6901 71.7877 66.6474 72.3727 66.765C72.9639 66.8752 73.5132 67.1464 74.0206 67.5785C74.1236 67.6662 74.2087 67.745 74.276 67.815C74.3495 67.8776 74.4315 67.9601 74.5219 68.0625L70.9429 72.2651C71.2706 72.506 71.6121 72.6636 71.9675 72.7379C72.3155 72.806 72.6565 72.7855 72.9903 72.6765C73.3168 72.5613 73.6053 72.3566 73.8558 72.0624C74.1251 71.7462 74.2838 71.4183 74.332 71.0787C74.379 70.7255 74.3172 70.3811 74.1464 70.0453L75.1797 68.832C75.4292 69.2094 75.5929 69.6279 75.6708 70.0876C75.7551 70.5399 75.734 71.0041 75.6077 71.4801C75.4814 71.9562 75.2241 72.4221 74.8359 72.8781ZM70.125 71.5495L72.7083 68.5161C72.2693 68.1676 71.8063 68.0334 71.3194 68.1136C70.8251 68.1874 70.4027 68.4303 70.052 68.8421C69.7388 69.2097 69.5679 69.6414 69.5391 70.137C69.5103 70.6327 69.7056 71.1035 70.125 71.5495Z" fill="#EF7133"/>
<path d="M82.1828 66.5042C81.5756 66.8813 81.0162 67.024 80.5045 66.9324C79.9929 66.8408 79.5281 66.4585 79.1104 65.7856L77.1768 62.6716L76.2537 63.2447L75.5735 62.1493L76.4966 61.5761L75.5795 60.099L76.8843 59.2889L77.8013 60.766L79.3522 59.803L80.0324 60.8985L78.4815 61.8615L80.4151 64.9755C80.6087 65.2874 80.8084 65.4533 81.0141 65.4734C81.2198 65.4934 81.4704 65.4117 81.7658 65.2283L82.4551 64.8003L83.1429 65.9081L82.1828 66.5042Z" fill="#EF7133"/>
<path d="M84.1189 65.4031L81.4188 58.7435L82.7883 58.1882L83.2859 59.2997C83.3463 58.8062 83.5237 58.3695 83.8178 57.9897C84.1173 57.5973 84.5311 57.294 85.0592 57.0799L85.6635 58.5702L85.2741 58.7281C84.6386 58.9858 84.2313 59.3437 84.0523 59.8019C83.8697 60.2512 83.9145 60.8115 84.1866 61.4828L85.5422 64.8261L84.1189 65.4031Z" fill="#EF7133"/>
<path d="M90.9686 63.2993C90.5122 63.381 90.0794 63.375 89.6702 63.2814C89.2593 63.1783 88.9108 62.9855 88.6248 62.703C88.3388 62.4206 88.1549 62.0512 88.0733 61.5948C87.9764 61.0528 88.0321 60.5964 88.2405 60.2255C88.4567 59.8434 88.7794 59.5355 89.2085 59.3017C89.6455 59.0567 90.1397 58.8849 90.6912 58.7863L92.4882 58.4649C92.4151 58.056 92.2898 57.7399 92.1125 57.5165C91.9335 57.2836 91.7197 57.1305 91.4711 57.0572C91.2208 56.9744 90.9435 56.9603 90.6392 57.0147C90.2399 57.0861 89.9051 57.2441 89.6349 57.4887C89.3724 57.7221 89.2389 58.0452 89.2343 58.4582L87.7083 58.7311C87.664 58.2092 87.7569 57.7412 87.987 57.3272C88.2266 56.9115 88.5624 56.5669 88.9942 56.2934C89.4261 56.0199 89.9035 55.8364 90.4265 55.7428C91.111 55.6204 91.6997 55.6475 92.1925 55.8243C92.6931 55.9899 93.0927 56.2766 93.3913 56.6843C93.6995 57.0904 93.9045 57.5786 94.0066 58.1491L94.3943 60.3169C94.4532 60.591 94.5468 60.7852 94.6752 60.8996C94.8114 61.0028 95.0238 61.0384 95.3124 61.0064L95.5446 62.3042C95.1643 62.3722 94.8238 62.389 94.5233 62.3544C94.2323 62.3182 93.9811 62.2306 93.7698 62.0918C93.5569 61.9435 93.3734 61.7408 93.2195 61.4838C93.0594 61.9049 92.7844 62.2877 92.3947 62.6321C92.0049 62.9766 91.5296 63.199 90.9686 63.2993ZM91.1032 61.9948C91.493 61.925 91.8183 61.7687 92.079 61.5259C92.3381 61.2735 92.5204 60.9759 92.6259 60.6333C92.7297 60.2811 92.7484 59.9196 92.6821 59.5488L92.677 59.5202L90.9941 59.8213C90.7183 59.8706 90.4628 59.9506 90.2275 60.0614C90.0017 60.1705 89.8272 60.3194 89.704 60.5083C89.5886 60.6859 89.5556 60.9126 89.6049 61.1883C89.6695 61.5496 89.8455 61.7929 90.1328 61.9181C90.4184 62.0339 90.7419 62.0594 91.1032 61.9948Z" fill="#EF7133"/>
<path d="M97.8426 62.5076L95.6384 55.1508L97.2572 55.2634L98.8517 61.1545L101.261 55.5418L102.851 55.6524L99.6493 62.6333L97.8426 62.5076Z" fill="#EF7133"/>
<path d="M105.991 64.1144C105.32 63.8992 104.775 63.5574 104.357 63.0888C103.939 62.6202 103.67 62.0675 103.55 61.4305C103.438 60.7964 103.495 60.1298 103.719 59.4308C103.951 58.7041 104.296 58.1197 104.752 57.6775C105.208 57.2354 105.741 56.9497 106.35 56.8203C106.972 56.6848 107.623 56.726 108.304 56.9441C108.966 57.1563 109.498 57.4891 109.901 57.9426C110.306 58.3869 110.567 58.9016 110.684 59.4867C110.81 60.0747 110.771 60.6861 110.568 61.3208C110.527 61.4496 110.487 61.5585 110.448 61.6475C110.418 61.7395 110.374 61.8469 110.314 61.9698L105.057 60.2856C104.961 60.6808 104.947 61.0567 105.016 61.4133C105.087 61.7607 105.237 62.0674 105.466 62.3336C105.698 62.5905 105.998 62.7779 106.366 62.8958C106.762 63.0225 107.126 63.0427 107.458 62.9563C107.802 62.8637 108.096 62.6739 108.34 62.387L109.858 62.8732C109.605 63.2488 109.282 63.5611 108.888 63.8101C108.503 64.062 108.066 64.2214 107.579 64.2882C107.091 64.355 106.561 64.2971 105.991 64.1144ZM105.403 59.2553L109.197 60.4709C109.35 59.9315 109.295 59.4525 109.034 59.0341C108.775 58.6064 108.388 58.31 107.873 58.145C107.413 57.9977 106.949 58.0061 106.481 58.1705C106.012 58.3348 105.653 58.6964 105.403 59.2553Z" fill="#EF7133"/>
<path d="M109.807 65.4572L114.508 56.4705L115.869 57.1823L111.168 66.169L109.807 65.4572Z" fill="#EF7133"/>
<path d="M114.503 68.5527C114.053 68.2182 113.7 67.8351 113.444 67.4033C113.193 66.9638 113.061 66.5103 113.048 66.0428C113.034 65.5754 113.155 65.1297 113.411 64.7057L114.654 65.6313C114.501 65.9506 114.474 66.2858 114.574 66.6371C114.674 66.9883 114.898 67.2937 115.247 67.5532C115.557 67.7838 115.857 67.9054 116.149 67.9179C116.447 67.9226 116.679 67.8126 116.846 67.5879C116.99 67.3942 117.037 67.1941 116.986 66.9876C116.943 66.7868 116.844 66.5805 116.688 66.3685C116.541 66.1624 116.368 65.9496 116.17 65.7301C115.877 65.3795 115.618 65.0241 115.393 64.6637C115.175 64.309 115.05 63.9511 115.018 63.59C114.985 63.2289 115.105 62.8662 115.376 62.502C115.641 62.1456 115.962 61.9088 116.338 61.7915C116.728 61.6722 117.141 61.6669 117.578 61.7754C118.015 61.8839 118.443 62.0939 118.862 62.4053C119.489 62.8724 119.894 63.4205 120.076 64.0496C120.264 64.671 120.156 65.3011 119.752 65.9401L118.567 65.0577C118.738 64.7635 118.777 64.4678 118.685 64.1706C118.601 63.8792 118.404 63.6182 118.094 63.3875C117.808 63.1741 117.532 63.0592 117.267 63.0428C117.008 63.0186 116.795 63.1189 116.628 63.3436C116.513 63.4986 116.477 63.6764 116.52 63.8772C116.569 64.0702 116.664 64.2736 116.806 64.4875C116.961 64.6995 117.127 64.9133 117.304 65.129C117.636 65.5083 117.91 65.8753 118.128 66.23C118.346 66.5846 118.464 66.9435 118.482 67.3066C118.501 67.6697 118.367 68.0518 118.081 68.4527C117.816 68.8091 117.481 69.0479 117.078 69.1692C116.688 69.2884 116.268 69.2948 115.818 69.1883C115.375 69.0875 114.937 68.8756 114.503 68.5527Z" fill="#EF7133"/>
<path d="M119.686 68.8044L124.733 63.7678L125.871 64.965L120.584 69.7496L119.686 68.8044ZM117.887 71.4539C117.687 71.2439 117.591 71.0023 117.598 70.7292C117.612 70.4494 117.72 70.2131 117.923 70.0201C118.126 69.8272 118.364 69.7341 118.638 69.7411C118.918 69.7414 119.158 69.8466 119.357 70.0566C119.557 70.2666 119.65 70.5115 119.636 70.7913C119.629 71.0644 119.524 71.2974 119.321 71.4904C119.118 71.6834 118.876 71.7797 118.596 71.7794C118.323 71.7725 118.086 71.664 117.887 71.4539Z" fill="#EF7133"/>
<path d="M130.757 103.975C130.813 103.418 130.961 102.918 131.199 102.476C131.448 102.035 131.769 101.689 132.163 101.438C132.557 101.186 133.002 101.061 133.497 101.062L133.341 102.605C132.989 102.637 132.687 102.786 132.437 103.052C132.187 103.318 132.041 103.668 131.997 104.1C131.958 104.485 132.009 104.805 132.148 105.062C132.297 105.319 132.51 105.462 132.789 105.49C133.029 105.515 133.225 105.452 133.376 105.302C133.526 105.162 133.652 104.97 133.754 104.728C133.855 104.496 133.949 104.238 134.036 103.956C134.186 103.524 134.358 103.119 134.551 102.741C134.743 102.372 134.986 102.081 135.279 101.868C135.573 101.654 135.945 101.57 136.397 101.616C136.839 101.66 137.207 101.814 137.501 102.076C137.804 102.35 138.021 102.701 138.152 103.132C138.283 103.563 138.323 104.038 138.271 104.556C138.192 105.335 137.93 105.964 137.484 106.443C137.047 106.923 136.451 107.155 135.696 107.137L135.844 105.667C136.184 105.662 136.458 105.544 136.666 105.312C136.873 105.091 136.995 104.787 137.034 104.403C137.07 104.047 137.027 103.752 136.905 103.516C136.792 103.282 136.597 103.15 136.318 103.122C136.126 103.103 135.955 103.163 135.805 103.304C135.664 103.445 135.539 103.631 135.428 103.863C135.326 104.105 135.228 104.357 135.134 104.62C134.979 105.099 134.805 105.523 134.613 105.892C134.42 106.261 134.173 106.547 133.871 106.75C133.569 106.952 133.173 107.034 132.682 106.994C132.239 106.949 131.863 106.785 131.552 106.502C131.249 106.229 131.028 105.871 130.888 105.43C130.747 104.999 130.703 104.514 130.757 103.975Z" fill="#EF7133"/>
<path d="M129.705 109.267C129.853 108.827 130.066 108.451 130.345 108.137C130.633 107.827 130.97 107.614 131.355 107.499C131.741 107.384 132.153 107.401 132.592 107.549C133.114 107.725 133.487 107.993 133.712 108.355C133.943 108.728 134.057 109.159 134.056 109.648C134.06 110.149 133.973 110.665 133.794 111.196L133.211 112.925C133.604 113.058 133.942 113.1 134.223 113.053C134.513 113.008 134.75 112.894 134.934 112.711C135.127 112.532 135.273 112.296 135.372 112.003C135.502 111.618 135.524 111.249 135.44 110.894C135.362 110.552 135.143 110.279 134.783 110.076L135.278 108.607C135.757 108.82 136.122 109.126 136.375 109.527C136.624 109.937 136.764 110.398 136.796 110.908C136.828 111.418 136.759 111.925 136.589 112.428C136.367 113.087 136.06 113.59 135.668 113.937C135.282 114.296 134.838 114.509 134.337 114.574C133.833 114.649 133.306 114.593 132.757 114.408L130.67 113.705C130.402 113.625 130.186 113.613 130.024 113.671C129.868 113.74 129.735 113.909 129.624 114.178L128.374 113.757C128.498 113.391 128.647 113.084 128.822 112.837C128.994 112.6 129.191 112.422 129.415 112.303C129.647 112.188 129.913 112.125 130.213 112.114C129.921 111.77 129.717 111.345 129.603 110.838C129.489 110.33 129.523 109.807 129.705 109.267ZM130.783 110.012C130.657 110.388 130.637 110.748 130.725 111.094C130.821 111.442 130.994 111.745 131.244 112.002C131.503 112.263 131.811 112.453 132.167 112.574L132.195 112.583L132.741 110.963C132.831 110.697 132.883 110.435 132.899 110.175C132.913 109.925 132.866 109.7 132.76 109.501C132.66 109.315 132.477 109.177 132.211 109.087C131.864 108.97 131.566 109.007 131.318 109.199C131.079 109.393 130.901 109.665 130.783 110.012Z" fill="#EF7133"/>
<path d="M127.892 114.24L133.023 117.146L133.494 116.313L134.617 116.949L134.145 117.781L134.801 118.152C135.482 118.537 135.872 118.986 135.971 119.497C136.078 120.013 135.958 120.578 135.611 121.191L135.283 121.771L134.148 121.129L134.355 120.763C134.526 120.46 134.585 120.21 134.53 120.013C134.484 119.82 134.318 119.643 134.032 119.481L133.389 119.117L132.632 120.454L131.51 119.818L132.267 118.482L127.135 115.577L127.892 114.24Z" fill="#EF7133"/>
<path d="M123.912 119.806C124.369 119.269 124.895 118.898 125.488 118.693C126.081 118.488 126.695 118.452 127.329 118.587C127.957 118.728 128.551 119.037 129.11 119.513C129.691 120.008 130.097 120.551 130.33 121.142C130.562 121.733 130.621 122.335 130.505 122.947C130.391 123.573 130.102 124.158 129.639 124.702C129.188 125.231 128.676 125.594 128.102 125.791C127.536 125.994 126.96 126.037 126.375 125.919C125.784 125.809 125.235 125.538 124.727 125.106C124.624 125.018 124.539 124.939 124.472 124.869C124.399 124.806 124.317 124.724 124.226 124.622L127.805 120.419C127.477 120.178 127.136 120.02 126.781 119.946C126.433 119.878 126.092 119.899 125.758 120.008C125.431 120.123 125.143 120.327 124.892 120.622C124.623 120.938 124.464 121.266 124.416 121.605C124.369 121.959 124.431 122.303 124.602 122.639L123.568 123.852C123.319 123.475 123.155 123.056 123.077 122.596C122.993 122.144 123.014 121.68 123.14 121.204C123.267 120.728 123.524 120.262 123.912 119.806ZM128.623 121.135L126.04 124.168C126.479 124.516 126.942 124.651 127.429 124.571C127.923 124.497 128.345 124.254 128.696 123.842C129.009 123.474 129.18 123.043 129.209 122.547C129.238 122.051 129.042 121.581 128.623 121.135Z" fill="#EF7133"/>
<path d="M116.565 126.179C117.172 125.802 117.732 125.66 118.244 125.751C118.755 125.843 119.22 126.225 119.638 126.898L121.571 130.012L122.494 129.439L123.175 130.534L122.251 131.108L123.169 132.585L121.864 133.395L120.947 131.918L119.396 132.881L118.716 131.785L120.267 130.822L118.333 127.708C118.139 127.396 117.94 127.23 117.734 127.21C117.528 127.19 117.278 127.272 116.982 127.455L116.293 127.883L115.605 126.775L116.565 126.179Z" fill="#EF7133"/>
<path d="M114.629 127.28L117.329 133.94L115.96 134.495L115.462 133.384C115.402 133.877 115.225 134.314 114.93 134.694C114.631 135.086 114.217 135.39 113.689 135.604L113.085 134.113L113.474 133.955C114.11 133.698 114.517 133.34 114.696 132.882C114.879 132.432 114.834 131.872 114.562 131.201L113.206 127.858L114.629 127.28Z" fill="#EF7133"/>
<path d="M107.78 129.384C108.236 129.303 108.669 129.309 109.078 129.402C109.489 129.505 109.838 129.698 110.124 129.981C110.41 130.263 110.593 130.632 110.675 131.089C110.772 131.631 110.716 132.087 110.508 132.458C110.292 132.84 109.969 133.148 109.54 133.382C109.103 133.627 108.609 133.799 108.057 133.897L106.26 134.219C106.333 134.628 106.458 134.944 106.636 135.167C106.815 135.4 107.029 135.553 107.277 135.626C107.528 135.709 107.805 135.723 108.109 135.669C108.508 135.597 108.843 135.439 109.113 135.195C109.376 134.962 109.509 134.638 109.514 134.225L111.04 133.952C111.084 134.474 110.991 134.942 110.761 135.356C110.522 135.772 110.186 136.117 109.754 136.39C109.322 136.664 108.845 136.847 108.322 136.941C107.637 137.063 107.049 137.036 106.556 136.859C106.055 136.694 105.656 136.407 105.357 135.999C105.049 135.593 104.844 135.105 104.742 134.534L104.354 132.367C104.295 132.093 104.202 131.898 104.073 131.784C103.937 131.681 103.724 131.645 103.436 131.677L103.204 130.379C103.584 130.311 103.924 130.295 104.225 130.329C104.516 130.365 104.767 130.453 104.978 130.592C105.191 130.74 105.375 130.943 105.529 131.2C105.689 130.779 105.964 130.396 106.354 130.051C106.743 129.707 107.219 129.485 107.78 129.384ZM107.645 130.689C107.255 130.759 106.93 130.915 106.669 131.158C106.41 131.41 106.228 131.708 106.122 132.05C106.019 132.403 106 132.764 106.066 133.135L106.071 133.163L107.754 132.862C108.03 132.813 108.285 132.733 108.521 132.622C108.747 132.513 108.921 132.364 109.044 132.175C109.16 131.998 109.193 131.771 109.143 131.495C109.079 131.134 108.903 130.891 108.615 130.765C108.33 130.65 108.006 130.624 107.645 130.689Z" fill="#EF7133"/>
<path d="M100.906 130.176L103.11 137.533L101.491 137.42L99.8966 131.529L97.4875 137.142L95.8977 137.031L99.099 130.05L100.906 130.176Z" fill="#EF7133"/>
<path d="M92.7571 128.57C93.4286 128.785 93.9733 129.127 94.3911 129.595C94.809 130.064 95.0782 130.617 95.1986 131.254C95.3099 131.888 95.2536 132.554 95.0296 133.253C94.7968 133.98 94.4524 134.564 93.9963 135.007C93.5402 135.449 93.0075 135.734 92.3981 135.864C91.7765 135.999 91.1254 135.958 90.4447 135.74C89.7825 135.528 89.2501 135.195 88.8477 134.742C88.4424 134.297 88.1813 133.783 88.0645 133.197C87.9384 132.609 87.9771 131.998 88.1804 131.363C88.2217 131.235 88.2617 131.126 88.3003 131.037C88.3298 130.945 88.3744 130.837 88.434 130.714L93.6909 132.398C93.787 132.003 93.801 131.627 93.7326 131.271C93.6614 130.923 93.5112 130.617 93.282 130.351C93.0499 130.094 92.7499 129.906 92.3819 129.788C91.9864 129.662 91.6227 129.641 91.2907 129.728C90.9467 129.82 90.6526 130.01 90.4085 130.297L88.8908 129.811C89.143 129.435 89.4662 129.123 89.8604 128.874C90.2453 128.622 90.6818 128.463 91.1698 128.396C91.6577 128.329 92.1868 128.387 92.7571 128.57ZM93.3455 133.429L89.5512 132.213C89.3987 132.753 89.4532 133.232 89.7147 133.65C89.9732 134.078 90.36 134.374 90.8751 134.539C91.3351 134.686 91.7993 134.678 92.2677 134.514C92.7362 134.349 93.0955 133.988 93.3455 133.429Z" fill="#EF7133"/>
<path d="M88.9408 127.227L84.2403 136.214L82.8794 135.502L87.58 126.515L88.9408 127.227Z" fill="#EF7133"/>
<path d="M84.2456 124.132C84.695 124.466 85.048 124.85 85.3046 125.281C85.5554 125.721 85.6874 126.174 85.7007 126.642C85.714 127.109 85.593 127.555 85.3376 127.979L84.094 127.053C84.2474 126.734 84.2742 126.399 84.1744 126.048C84.0746 125.696 83.8503 125.391 83.5017 125.131C83.1917 124.901 82.8909 124.779 82.5992 124.767C82.3016 124.762 82.0693 124.872 81.902 125.097C81.7578 125.29 81.7112 125.49 81.7622 125.697C81.8055 125.898 81.9047 126.104 82.0601 126.316C82.2076 126.522 82.3803 126.735 82.5782 126.955C82.8712 127.305 83.1303 127.661 83.3557 128.021C83.5734 128.376 83.6983 128.733 83.7306 129.095C83.7628 129.456 83.6434 129.818 83.3723 130.183C83.1071 130.539 82.7863 130.776 82.41 130.893C82.0202 131.012 81.6068 131.018 81.1699 130.909C80.7329 130.801 80.3052 130.591 79.8868 130.279C79.2592 129.812 78.8544 129.264 78.6725 128.635C78.4847 128.014 78.5925 127.383 78.9959 126.744L80.1814 127.627C80.0105 127.921 79.971 128.217 80.0629 128.514C80.147 128.805 80.3441 129.066 80.654 129.297C80.9407 129.51 81.2164 129.625 81.4811 129.642C81.74 129.666 81.9531 129.566 82.1204 129.341C82.2357 129.186 82.2718 129.008 82.2285 128.807C82.1795 128.614 82.0841 128.411 81.9423 128.197C81.787 127.985 81.6211 127.771 81.4445 127.556C81.1128 127.176 80.8381 126.809 80.6204 126.455C80.4028 126.1 80.2846 125.741 80.2659 125.378C80.2471 125.015 80.381 124.633 80.6673 124.232C80.9326 123.875 81.2669 123.637 81.6702 123.515C82.06 123.396 82.4801 123.39 82.9306 123.496C83.3734 123.597 83.8117 123.809 84.2456 124.132Z" fill="#EF7133"/>
<path d="M79.0618 123.879L74.0146 128.916L72.8768 127.719L78.1636 122.934L79.0618 123.879ZM80.8612 121.23C81.0608 121.44 81.1571 121.681 81.1502 121.954C81.1362 122.234 81.0277 122.471 80.8247 122.663C80.6217 122.856 80.3836 122.949 80.1105 122.943C79.8304 122.942 79.5905 122.837 79.3909 122.627C79.1913 122.417 79.0984 122.172 79.1124 121.892C79.1193 121.619 79.2243 121.386 79.4274 121.193C79.6304 121 79.872 120.904 80.1521 120.904C80.4252 120.911 80.6616 121.02 80.8612 121.23Z" fill="#EF7133"/>
<path d="M87.197 109.607L87.5101 99.1634L82.0173 90.276L86.8421 89.0198L92.4961 93.7277L99.4634 91.8608L89.1111 78.0892L94.8988 76.4651L109.871 89.0355L118.341 86.766C119.388 86.4854 120.403 86.6284 121.384 87.1951C122.366 87.7618 122.997 88.5688 123.278 89.6162C123.558 90.6635 123.419 91.6708 122.861 92.6379C122.303 93.6051 121.5 94.2289 120.452 94.5096L111.914 96.7974L105.258 115.126L99.4521 116.682L101.488 99.5544L94.521 101.421L92.0467 108.307L87.197 109.607Z" fill="#EF7133"/>
</g>
<defs>
<filter id="filter0_d_160_740" x="0.242592" y="0.979468" width="197.187" height="197.187" filterUnits="userSpaceOnUse" color-interpolation-filters="sRGB">
<feFlood flood-opacity="0" result="BackgroundImageFix"/>
<feColorMatrix in="SourceAlpha" type="matrix" values="0 0 0 0 0 0 0 0 0 0 0 0 0 0 0 0 0 0 127 0" result="hardAlpha"/>
<feOffset dy="3.57306"/>
<feGaussianBlur stdDeviation="24.2968"/>
<feComposite in2="hardAlpha" operator="out"/>
<feColorMatrix type="matrix" values="0 0 0 0 0.67451 0 0 0 0 0.745098 0 0 0 0 0.435294 0 0 0 0.1 0"/>
<feBlend mode="normal" in2="BackgroundImageFix" result="effect1_dropShadow_160_740"/>
<feBlend mode="normal" in="SourceGraphic" in2="effect1_dropShadow_160_740" result="shape"/>
</filter>
</defs>
</svg>
