<svg width="101" height="100" viewBox="0 0 101 100" fill="none" xmlns="http://www.w3.org/2000/svg">
<g clip-path="url(#clip0_173_1082)">
<g filter="url(#filter0_d_173_1082)">
<path d="M100.836 50C100.836 77.6142 78.4504 100 50.8362 100C23.2219 100 0.836182 77.6142 0.836182 50C0.836182 22.3858 23.2219 0 50.8362 0C78.4504 0 100.836 22.3858 100.836 50Z" fill="#FCE2A9"/>
<path d="M19.9905 42.7086C19.9345 43.266 19.7871 43.7657 19.5485 44.2077C19.3003 44.6487 18.9791 44.9949 18.5849 45.2465C18.1907 45.4981 17.7461 45.6233 17.2512 45.622L17.4063 44.0796C17.7591 44.0471 18.0604 43.8978 18.3105 43.6317C18.5605 43.3657 18.7073 43.0164 18.7508 42.5839C18.7895 42.1995 18.7392 41.8789 18.6 41.6223C18.4511 41.3646 18.2374 41.2218 17.9587 41.1937C17.7184 41.1696 17.5228 41.2324 17.3718 41.3822C17.2218 41.5225 17.0958 41.7137 16.9938 41.9558C16.8927 42.1883 16.7989 42.4458 16.7122 42.7283C16.562 43.1598 16.3903 43.5648 16.1969 43.9433C16.0044 44.3123 15.7616 44.6034 15.4683 44.8166C15.1751 45.0298 14.8026 45.1136 14.3509 45.0682C13.9088 45.0237 13.5408 44.8702 13.2469 44.6077C12.9443 44.3346 12.7273 43.9827 12.5959 43.552C12.4645 43.1214 12.4248 42.6466 12.477 42.1276C12.5553 41.3492 12.8176 40.7203 13.2638 40.241C13.7004 39.7607 14.2964 39.5294 15.0519 39.5471L14.904 41.0175C14.5637 41.0221 14.2898 41.1402 14.082 41.3717C13.8753 41.5936 13.7525 41.8967 13.7139 42.2811C13.6781 42.6367 13.7212 42.9323 13.8431 43.1678C13.9554 43.4024 14.1509 43.5337 14.4296 43.5617C14.6218 43.5811 14.7929 43.5206 14.943 43.3804C15.0834 43.2392 15.2089 43.0528 15.3196 42.8212C15.4216 42.5791 15.5197 42.3269 15.6141 42.0646C15.7691 41.5851 15.9428 41.1608 16.1352 40.7919C16.3277 40.4229 16.5748 40.1372 16.8767 39.9345C17.1786 39.7319 17.5751 39.6505 18.0662 39.6902C18.5083 39.7346 18.885 39.8987 19.1962 40.1824C19.4988 40.4555 19.7201 40.8127 19.8602 41.2539C20.0012 41.6855 20.0447 42.1704 19.9905 42.7086Z" fill="#EF7133"/>
<path d="M21.0437 37.417C20.8956 37.8563 20.6821 38.2328 20.4031 38.5465C20.1149 38.8571 19.7782 39.0697 19.393 39.1845C19.0077 39.2993 18.5954 39.2826 18.1561 39.1345C17.6344 38.9587 17.2611 38.6901 17.0363 38.329C16.8054 37.9555 16.6908 37.5245 16.6925 37.0358C16.6881 36.5348 16.7753 36.0189 16.9543 35.4881L17.5374 33.7582C17.1438 33.6255 16.8065 33.5831 16.5253 33.6311C16.235 33.6759 15.9979 33.7896 15.814 33.9723C15.6209 34.1518 15.4751 34.3881 15.3763 34.681C15.2468 35.0654 15.2241 35.4349 15.3085 35.7895C15.3867 36.1318 15.6057 36.4044 15.9654 36.6072L15.4703 38.0763C14.9914 37.8639 14.6259 37.5572 14.3738 37.1562C14.1247 36.7461 13.9842 36.2859 13.9523 35.7757C13.9205 35.2655 13.9894 34.7587 14.1591 34.2553C14.3812 33.5963 14.6883 33.0934 15.0805 32.7465C15.4665 32.3874 15.9102 32.1751 16.4113 32.1096C16.9155 32.0349 17.4422 32.0902 17.9914 32.2753L20.0782 32.9787C20.3468 33.059 20.5621 33.0705 20.7241 33.013C20.8801 32.9433 21.0136 32.7742 21.1245 32.5058L22.3738 32.9269C22.2504 33.293 22.1012 33.5995 21.9263 33.8463C21.7544 34.084 21.5568 34.262 21.3335 34.3804C21.1009 34.4956 20.835 34.5589 20.5356 34.5701C20.8277 34.9132 21.0309 35.3384 21.1452 35.8458C21.2596 36.3533 21.2258 36.877 21.0437 37.417ZM19.965 36.6711C20.0915 36.2959 20.111 35.9355 20.0236 35.5901C19.927 35.2415 19.754 34.9386 19.5044 34.6811C19.2456 34.4207 18.9378 34.2302 18.5808 34.1099L18.5534 34.1007L18.0073 35.7207C17.9178 35.9861 17.865 36.2486 17.8488 36.5082C17.8358 36.7586 17.8823 36.9833 17.9886 37.1822C18.0887 37.3688 18.2715 37.5069 18.537 37.5964C18.8848 37.7136 19.1827 37.6764 19.4308 37.4849C19.6697 37.2902 19.8477 37.0189 19.965 36.6711Z" fill="#EF7133"/>
<path d="M22.8564 32.4438L17.725 29.5386L17.2539 30.3707L16.1318 29.7354L16.6029 28.9033L15.9473 28.5321C15.2664 28.1467 14.8765 27.6983 14.7774 27.1872C14.6699 26.6713 14.7899 26.1065 15.1373 25.4929L15.4656 24.9129L16.6003 25.5554L16.3933 25.921C16.222 26.2236 16.1637 26.4736 16.2184 26.6711C16.2647 26.8638 16.4307 27.041 16.7165 27.2028L17.3595 27.5669L18.1161 26.2304L19.2382 26.8657L18.4816 28.2021L23.613 31.1073L22.8564 32.4438Z" fill="#EF7133"/>
<path d="M26.8359 26.8781C26.3787 27.4149 25.8535 27.7858 25.2601 27.991C24.6667 28.1961 24.0529 28.2316 23.4187 28.0975C22.7907 27.9559 22.1972 27.6472 21.6383 27.1713C21.0574 26.6765 20.6508 26.1336 20.4184 25.5424C20.186 24.9512 20.1275 24.3495 20.2429 23.7373C20.3572 23.1115 20.646 22.5265 21.1095 21.9823C21.5604 21.4529 22.0725 21.0898 22.646 20.8931C23.2122 20.6901 23.7877 20.6474 24.3727 20.765C24.9639 20.8752 25.5132 21.1464 26.0206 21.5785C26.1236 21.6662 26.2087 21.745 26.276 21.815C26.3495 21.8776 26.4315 21.9601 26.5219 22.0625L22.9429 26.2651C23.2706 26.506 23.6121 26.6636 23.9675 26.7379C24.3155 26.806 24.6565 26.7855 24.9903 26.6765C25.3168 26.5613 25.6053 26.3566 25.8558 26.0624C26.1251 25.7462 26.2838 25.4183 26.332 25.0787C26.379 24.7255 26.3172 24.3811 26.1464 24.0453L27.1797 22.832C27.4292 23.2094 27.5929 23.6279 27.6708 24.0876C27.7551 24.5399 27.734 25.0041 27.6077 25.4801C27.4814 25.9562 27.2241 26.4221 26.8359 26.8781ZM22.125 25.5495L24.7083 22.5161C24.2693 22.1676 23.8063 22.0334 23.3194 22.1136C22.8251 22.1874 22.4027 22.4303 22.052 22.8421C21.7388 23.2097 21.5679 23.6414 21.5391 24.137C21.5103 24.6327 21.7056 25.1035 22.125 25.5495Z" fill="#EF7133"/>
<path d="M34.1828 20.5042C33.5756 20.8813 33.0162 21.024 32.5045 20.9324C31.9929 20.8408 31.5281 20.4585 31.1104 19.7856L29.1768 16.6716L28.2537 17.2447L27.5735 16.1493L28.4966 15.5761L27.5795 14.099L28.8843 13.2889L29.8013 14.766L31.3522 13.803L32.0324 14.8985L30.4815 15.8615L32.4151 18.9755C32.6087 19.2874 32.8084 19.4533 33.0141 19.4734C33.2198 19.4934 33.4704 19.4117 33.7658 19.2283L34.4551 18.8003L35.1429 19.9081L34.1828 20.5042Z" fill="#EF7133"/>
<path d="M36.1189 19.4031L33.4188 12.7435L34.7883 12.1882L35.2859 13.2997C35.3463 12.8062 35.5237 12.3695 35.8178 11.9897C36.1173 11.5973 36.5311 11.294 37.0592 11.0799L37.6635 12.5702L37.2741 12.7281C36.6386 12.9858 36.2313 13.3437 36.0523 13.8019C35.8697 14.2512 35.9145 14.8115 36.1866 15.4828L37.5422 18.8261L36.1189 19.4031Z" fill="#EF7133"/>
<path d="M42.9686 17.2993C42.5122 17.381 42.0794 17.375 41.6702 17.2814C41.2593 17.1783 40.9108 16.9855 40.6248 16.703C40.3388 16.4206 40.1549 16.0512 40.0733 15.5948C39.9764 15.0528 40.0321 14.5964 40.2405 14.2255C40.4567 13.8434 40.7794 13.5355 41.2085 13.3017C41.6455 13.0567 42.1397 12.8849 42.6912 12.7863L44.4882 12.4649C44.4151 12.056 44.2898 11.7399 44.1125 11.5165C43.9335 11.2836 43.7197 11.1305 43.4711 11.0572C43.2208 10.9744 42.9435 10.9603 42.6392 11.0147C42.2399 11.0861 41.9051 11.2441 41.6349 11.4887C41.3724 11.7221 41.2389 12.0452 41.2343 12.4582L39.7083 12.7311C39.664 12.2092 39.7569 11.7412 39.987 11.3272C40.2266 10.9115 40.5624 10.5669 40.9942 10.2934C41.4261 10.0199 41.9035 9.83636 42.4265 9.74283C43.111 9.62038 43.6997 9.64754 44.1925 9.82432C44.6931 9.98989 45.0927 10.2766 45.3913 10.6843C45.6995 11.0904 45.9045 11.5786 46.0066 12.1491L46.3943 14.3169C46.4532 14.591 46.5468 14.7852 46.6752 14.8996C46.8114 15.0028 47.0238 15.0384 47.3124 15.0064L47.5446 16.3042C47.1643 16.3722 46.8238 16.389 46.5233 16.3544C46.2323 16.3182 45.9811 16.2306 45.7698 16.0918C45.5569 15.9435 45.3734 15.7408 45.2195 15.4838C45.0594 15.9049 44.7844 16.2877 44.3947 16.6321C44.0049 16.9766 43.5296 17.199 42.9686 17.2993ZM43.1032 15.9948C43.493 15.925 43.8183 15.7687 44.079 15.5259C44.3381 15.2735 44.5204 14.9759 44.6259 14.6333C44.7297 14.2811 44.7484 13.9196 44.6821 13.5488L44.677 13.5202L42.9941 13.8213C42.7183 13.8706 42.4628 13.9506 42.2275 14.0614C42.0017 14.1705 41.8272 14.3194 41.704 14.5083C41.5886 14.6859 41.5556 14.9126 41.6049 15.1883C41.6695 15.5496 41.8455 15.7929 42.1328 15.9181C42.4184 16.0339 42.7419 16.0594 43.1032 15.9948Z" fill="#EF7133"/>
<path d="M49.8426 16.5076L47.6384 9.15076L49.2572 9.26335L50.8517 15.1545L53.2608 9.54181L54.8506 9.65239L51.6493 16.6333L49.8426 16.5076Z" fill="#EF7133"/>
<path d="M57.9912 18.1144C57.3197 17.8992 56.775 17.5574 56.3572 17.0888C55.9393 16.6202 55.6701 16.0675 55.5496 15.4305C55.4384 14.7964 55.4947 14.1298 55.7187 13.4308C55.9515 12.7041 56.2959 12.1197 56.752 11.6775C57.2081 11.2354 57.7408 10.9497 58.3502 10.8203C58.9718 10.6848 59.6229 10.726 60.3035 10.9441C60.9658 11.1563 61.4982 11.4891 61.9006 11.9426C62.3059 12.3869 62.567 12.9016 62.6838 13.4867C62.8098 14.0747 62.7712 14.6861 62.5678 15.3208C62.5266 15.4496 62.4866 15.5585 62.448 15.6475C62.4185 15.7395 62.3739 15.8469 62.3143 15.9698L57.0574 14.2856C56.9613 14.6808 56.9473 15.0567 57.0157 15.4133C57.0869 15.7607 57.2371 16.0674 57.4663 16.3336C57.6984 16.5905 57.9984 16.7779 58.3663 16.8958C58.7619 17.0225 59.1256 17.0427 59.4576 16.9563C59.8016 16.8637 60.0957 16.6739 60.3398 16.387L61.8575 16.8732C61.6053 17.2488 61.2821 17.5611 60.8879 17.8101C60.503 18.062 60.0665 18.2214 59.5785 18.2882C59.0906 18.355 58.5615 18.2971 57.9912 18.1144ZM57.4028 13.2553L61.1971 14.4709C61.3496 13.9315 61.2951 13.4525 61.0336 13.0341C60.7751 12.6064 60.3883 12.31 59.8732 12.145C59.4132 11.9977 58.949 12.0061 58.4806 12.1705C58.0121 12.3348 57.6528 12.6964 57.4028 13.2553Z" fill="#EF7133"/>
<path d="M61.8072 19.4572L66.5078 10.4705L67.8686 11.1823L63.1681 20.169L61.8072 19.4572Z" fill="#EF7133"/>
<path d="M66.5027 22.5527C66.0533 22.2182 65.7003 21.8351 65.4437 21.4033C65.1929 20.9638 65.0609 20.5103 65.0476 20.0428C65.0343 19.5754 65.1553 19.1297 65.4107 18.7057L66.6543 19.6313C66.5009 19.9506 66.4741 20.2858 66.5739 20.6371C66.6737 20.9883 66.898 21.2937 67.2466 21.5532C67.5566 21.7838 67.8574 21.9054 68.1491 21.9179C68.4467 21.9226 68.679 21.8126 68.8463 21.5879C68.9905 21.3942 69.0371 21.1941 68.9861 20.9876C68.9428 20.7868 68.8436 20.5805 68.6882 20.3685C68.5407 20.1624 68.368 19.9496 68.1701 19.7301C67.8771 19.3795 67.618 19.0241 67.3925 18.6637C67.1749 18.309 67.0499 17.9511 67.0177 17.59C66.9855 17.2289 67.1049 16.8662 67.376 16.502C67.6412 16.1456 67.962 15.9088 68.3383 15.7915C68.7281 15.6722 69.1414 15.6669 69.5784 15.7754C70.0154 15.8839 70.4431 16.0939 70.8615 16.4053C71.4891 16.8724 71.8939 17.4205 72.0758 18.0496C72.2636 18.671 72.1558 19.3011 71.7524 19.9401L70.5669 19.0577C70.7378 18.7635 70.7773 18.4678 70.6854 18.1706C70.6013 17.8792 70.4042 17.6182 70.0943 17.3875C69.8076 17.1741 69.5319 17.0592 69.2672 17.0428C69.0083 17.0186 68.7952 17.1189 68.6279 17.3436C68.5126 17.4986 68.4765 17.6764 68.5198 17.8772C68.5688 18.0702 68.6642 18.2736 68.806 18.4875C68.9613 18.6995 69.1272 18.9133 69.3038 19.129C69.6355 19.5083 69.9102 19.8753 70.1279 20.23C70.3455 20.5846 70.4637 20.9435 70.4824 21.3066C70.5012 21.6697 70.3673 22.0518 70.081 22.4527C69.8157 22.8091 69.4814 23.0479 69.0781 23.1692C68.6883 23.2884 68.2682 23.2948 67.8177 23.1883C67.3749 23.0875 66.9366 22.8756 66.5027 22.5527Z" fill="#EF7133"/>
<path d="M71.6862 22.8044L76.7334 17.7678L77.8712 18.965L72.5845 23.7496L71.6862 22.8044ZM69.8869 25.4539C69.6873 25.2439 69.5909 25.0023 69.5979 24.7292C69.6118 24.4494 69.7203 24.2131 69.9233 24.0201C70.1264 23.8272 70.3645 23.7341 70.6376 23.7411C70.9177 23.7414 71.1575 23.8466 71.3572 24.0566C71.5568 24.2666 71.6496 24.5115 71.6357 24.7913C71.6287 25.0644 71.5237 25.2974 71.3207 25.4904C71.1176 25.6834 70.8761 25.7797 70.596 25.7794C70.3229 25.7725 70.0865 25.664 69.8869 25.4539Z" fill="#EF7133"/>
<path d="M82.7573 57.9755C82.8133 57.4181 82.9607 56.9184 83.1993 56.4764C83.4475 56.0354 83.7687 55.6891 84.1629 55.4376C84.5571 55.186 85.0017 55.0608 85.4966 55.0621L85.3415 56.6045C84.9887 56.637 84.6874 56.7863 84.4373 57.0523C84.1873 57.3184 84.0405 57.6677 83.997 58.1002C83.9583 58.4846 84.0086 58.8051 84.1478 59.0618C84.2967 59.3195 84.5104 59.4623 84.7891 59.4904C85.0294 59.5145 85.225 59.4517 85.376 59.3018C85.526 59.1616 85.652 58.9704 85.754 58.7283C85.8551 58.4958 85.9489 58.2382 86.0356 57.9557C86.1858 57.5243 86.3575 57.1193 86.5509 56.7407C86.7434 56.3718 86.9862 56.0807 87.2795 55.8675C87.5727 55.6543 87.9452 55.5704 88.3969 55.6159C88.839 55.6603 89.207 55.8139 89.5009 56.0764C89.8035 56.3495 90.0205 56.7014 90.1519 57.1321C90.2833 57.5627 90.323 58.0375 90.2708 58.5565C90.1925 59.3349 89.9302 59.9638 89.484 60.4431C89.0474 60.9234 88.4514 61.1547 87.6959 61.1369L87.8438 59.6666C88.1841 59.662 88.4581 59.5439 88.6658 59.3124C88.8725 59.0905 88.9953 58.7873 89.0339 58.4029C89.0697 58.0474 89.0266 57.7518 88.9047 57.5163C88.7924 57.2817 88.5969 57.1504 88.3182 57.1223C88.126 57.103 87.9549 57.1635 87.8048 57.3037C87.6644 57.4449 87.5389 57.6313 87.4283 57.8628C87.3262 58.105 87.2281 58.3572 87.1337 58.6195C86.9787 59.099 86.805 59.5232 86.6126 59.8922C86.4201 60.2611 86.173 60.5469 85.8711 60.7495C85.5692 60.9522 85.1727 61.0336 84.6816 60.9939C84.2395 60.9495 83.8628 60.7854 83.5516 60.5017C83.249 60.2285 83.0277 59.8714 82.8876 59.4302C82.7466 58.9985 82.7031 58.5136 82.7573 57.9755Z" fill="#EF7133"/>
<path d="M81.7046 63.2666C81.8527 62.8273 82.0662 62.4508 82.3452 62.1371C82.6334 61.8265 82.9701 61.6138 83.3553 61.4991C83.7406 61.3843 84.1529 61.401 84.5922 61.5491C85.1139 61.7249 85.4872 61.9935 85.712 62.3546C85.9429 62.7281 86.0575 63.1591 86.0558 63.6478C86.0602 64.1488 85.973 64.6647 85.794 65.1955L85.2109 66.9254C85.6045 67.0581 85.9418 67.1004 86.223 67.0525C86.5133 67.0077 86.7504 66.8939 86.9343 66.7113C87.1273 66.5317 87.2732 66.2955 87.372 66.0026C87.5015 65.6182 87.5242 65.2487 87.4398 64.8941C87.3616 64.5517 87.1426 64.2792 86.7828 64.0764L87.278 62.6073C87.7569 62.8197 88.1224 63.1264 88.3745 63.5274C88.6236 63.9375 88.7641 64.3977 88.796 64.9078C88.8278 65.418 88.7589 65.9248 88.5892 66.4282C88.3671 67.0873 88.0599 67.5902 87.6678 67.9371C87.2817 68.2962 86.8381 68.5085 86.337 68.574C85.8328 68.6487 85.3061 68.5934 84.7569 68.4083L82.67 67.7049C82.4015 67.6245 82.1862 67.6131 82.0242 67.6706C81.8681 67.7403 81.7347 67.9094 81.6238 68.1778L80.3745 67.7567C80.4979 67.3906 80.6471 67.0841 80.822 66.8373C80.9938 66.5996 81.1915 66.4216 81.4148 66.3032C81.6474 66.188 81.9133 66.1247 82.2127 66.1135C81.9206 65.7704 81.7174 65.3452 81.603 64.8378C81.4887 64.3303 81.5225 63.8066 81.7046 63.2666ZM82.7833 64.0125C82.6568 64.3877 82.6373 64.7481 82.7247 65.0935C82.8212 65.4421 82.9943 65.745 83.2439 66.0024C83.5027 66.2629 83.8105 66.4534 84.1675 66.5737L84.1949 66.5829L84.741 64.9629C84.8305 64.6975 84.8833 64.435 84.8995 64.1754C84.9125 63.925 84.8659 63.7003 84.7597 63.5014C84.6595 63.3148 84.4767 63.1767 84.2113 63.0872C83.8635 62.97 83.5656 63.0071 83.3175 63.1987C83.0786 63.3934 82.9005 63.6647 82.7833 64.0125Z" fill="#EF7133"/>
<path d="M79.8919 68.2403L85.0233 71.1455L85.4944 70.3134L86.6165 70.9487L86.1454 71.7808L86.801 72.152C87.4819 72.5374 87.8718 72.9857 87.9709 73.4969C88.0784 74.0128 87.9584 74.5776 87.611 75.1912L87.2827 75.7711L86.148 75.1287L86.355 74.7631C86.5263 74.4605 86.5846 74.2105 86.5299 74.013C86.4836 73.8203 86.3176 73.6431 86.0318 73.4813L85.3888 73.1172L84.6322 74.4537L83.5101 73.8184L84.2667 72.4819L79.1353 69.5767L79.8919 68.2403Z" fill="#EF7133"/>
<path d="M75.9122 73.806C76.3693 73.2692 76.8946 72.8982 77.488 72.6931C78.0813 72.4879 78.6951 72.4525 79.3294 72.5866C79.9574 72.7282 80.5508 73.0369 81.1097 73.5128C81.6906 74.0076 82.0973 74.5505 82.3297 75.1417C82.562 75.7329 82.6205 76.3346 82.5052 76.9468C82.3909 77.5726 82.102 78.1576 81.6386 78.7017C81.1877 79.2312 80.6755 79.5943 80.102 79.791C79.5359 79.9939 78.9603 80.0366 78.3754 79.9191C77.7841 79.8089 77.2348 79.5377 76.7274 79.1056C76.6245 79.0179 76.5394 78.9391 76.4721 78.8691C76.3986 78.8065 76.3166 78.724 76.2261 78.6216L79.8051 74.419C79.4775 74.1781 79.136 74.0204 78.7806 73.9461C78.4325 73.8781 78.0916 73.8986 77.7577 74.0076C77.4312 74.1228 77.1427 74.3275 76.8922 74.6216C76.623 74.9378 76.4642 75.2657 76.4161 75.6053C76.369 75.9585 76.4309 76.303 76.6017 76.6388L75.5684 77.8521C75.3189 77.4747 75.1552 77.0562 75.0772 76.5965C74.993 76.1442 75.014 75.68 75.1403 75.204C75.2666 74.7279 75.5239 74.2619 75.9122 73.806ZM80.623 75.1346L78.0398 78.1679C78.4788 78.5165 78.9418 78.6506 79.4287 78.5705C79.9229 78.4966 80.3454 78.2538 80.6961 77.842C81.0092 77.4743 81.1802 77.0427 81.209 76.547C81.2378 76.0514 81.0424 75.5806 80.623 75.1346Z" fill="#EF7133"/>
<path d="M68.5652 80.1794C69.1725 79.8023 69.7319 79.6596 70.2435 79.7512C70.7552 79.8428 71.2199 80.2251 71.6377 80.898L73.5712 84.012L74.4944 83.4389L75.1746 84.5343L74.2514 85.1075L75.1685 86.5846L73.8638 87.3947L72.9467 85.9176L71.3958 86.8806L70.7156 85.7851L72.2665 84.8221L70.333 81.7081C70.1394 81.3962 69.9397 81.2303 69.734 81.2102C69.5282 81.1902 69.2777 81.2718 68.9823 81.4553L68.293 81.8832L67.6051 80.7755L68.5652 80.1794Z" fill="#EF7133"/>
<path d="M66.6294 81.2805L69.3295 87.9401L67.96 88.4954L67.4624 87.3839C67.402 87.8774 67.2246 88.3141 66.9305 88.6939C66.631 89.0863 66.2172 89.3896 65.6891 89.6037L65.0848 88.1134L65.4742 87.9555C66.1097 87.6978 66.517 87.3399 66.696 86.8817C66.8786 86.4324 66.8338 85.8721 66.5616 85.2008L65.2061 81.8575L66.6294 81.2805Z" fill="#EF7133"/>
<path d="M59.7797 83.3843C60.2361 83.3026 60.6689 83.3086 61.0781 83.4022C61.489 83.5053 61.8375 83.6981 62.1235 83.9806C62.4095 84.263 62.5934 84.6324 62.675 85.0888C62.7719 85.6308 62.7162 86.0872 62.5078 86.4581C62.2916 86.8402 61.9689 87.1481 61.5397 87.3819C61.1028 87.6268 60.6085 87.7987 60.0571 87.8973L58.2601 88.2187C58.3332 88.6276 58.4584 88.9437 58.6358 89.1671C58.8148 89.4 59.0286 89.5531 59.2772 89.6264C59.5275 89.7091 59.8048 89.7233 60.1091 89.6689C60.5084 89.5975 60.8432 89.4395 61.1134 89.1949C61.3758 88.9615 61.5094 88.6384 61.514 88.2254L63.04 87.9525C63.0843 88.4744 62.9914 88.9424 62.7613 89.3564C62.5217 89.7721 62.1859 90.1167 61.7541 90.3902C61.3222 90.6637 60.8448 90.8472 60.3218 90.9408C59.6373 91.0632 59.0486 91.0361 58.5558 90.8593C58.0552 90.6937 57.6556 90.407 57.357 89.9993C57.0488 89.5932 56.8438 89.105 56.7417 88.5345L56.354 86.3667C56.2951 86.0926 56.2015 85.8984 56.0731 85.784C55.9369 85.6808 55.7245 85.6452 55.4358 85.6772L55.2037 84.3794C55.584 84.3114 55.9245 84.2946 56.225 84.3292C56.516 84.3654 56.7672 84.453 56.9784 84.5918C57.1914 84.7401 57.3748 84.9428 57.5288 85.1998C57.6889 84.7787 57.9639 84.3959 58.3536 84.0515C58.7434 83.707 59.2187 83.4846 59.7797 83.3843ZM59.6451 84.6888C59.2553 84.7586 58.93 84.9149 58.6692 85.1577C58.4102 85.4101 58.2279 85.7077 58.1224 86.0503C58.0186 86.4025 57.9999 86.764 58.0662 87.1348L58.0713 87.1633L59.7542 86.8623C60.0299 86.813 60.2855 86.733 60.5208 86.6222C60.7466 86.5131 60.9211 86.3641 61.0443 86.1753C61.1597 85.9977 61.1927 85.771 61.1434 85.4952C61.0788 85.1339 60.9028 84.8907 60.6155 84.7655C60.3298 84.6497 60.0064 84.6242 59.6451 84.6888Z" fill="#EF7133"/>
<path d="M52.9057 84.176L55.1099 91.5328L53.4911 91.4202L51.8966 85.5291L49.4875 91.1418L47.8977 91.0312L51.099 84.0503L52.9057 84.176Z" fill="#EF7133"/>
<path d="M44.7571 82.5697C45.4286 82.7848 45.9733 83.1267 46.3911 83.5953C46.809 84.0638 47.0782 84.6166 47.1986 85.2536C47.3099 85.8877 47.2536 86.5542 47.0296 87.2533C46.7968 87.98 46.4524 88.5644 45.9963 89.0065C45.5402 89.4487 45.0075 89.7344 44.3981 89.8637C43.7765 89.9993 43.1254 89.9581 42.4447 89.74C41.7825 89.5278 41.2501 89.195 40.8477 88.7415C40.4424 88.2972 40.1813 87.7825 40.0645 87.1974C39.9384 86.6093 39.9771 85.998 40.1804 85.3633C40.2217 85.2345 40.2617 85.1256 40.3003 85.0366C40.3298 84.9446 40.3744 84.8372 40.434 84.7143L45.6909 86.3984C45.787 86.0033 45.801 85.6274 45.7326 85.2708C45.6614 84.9234 45.5112 84.6166 45.282 84.3505C45.0499 84.0936 44.7499 83.9062 44.3819 83.7883C43.9864 83.6616 43.6227 83.6414 43.2907 83.7278C42.9467 83.8204 42.6526 84.0102 42.4085 84.2971L40.8908 83.8109C41.143 83.4353 41.4662 83.123 41.8604 82.874C42.2453 82.622 42.6818 82.4627 43.1698 82.3959C43.6577 82.3291 44.1868 82.387 44.7571 82.5697ZM45.3455 87.4288L41.5512 86.2132C41.3987 86.7526 41.4532 87.2316 41.7147 87.65C41.9732 88.0777 42.36 88.3741 42.8751 88.5391C43.3351 88.6864 43.7993 88.6779 44.2677 88.5136C44.7362 88.3493 45.0955 87.9877 45.3455 87.4288Z" fill="#EF7133"/>
<path d="M40.9408 81.2269L36.2403 90.2136L34.8794 89.5018L39.58 80.5151L40.9408 81.2269Z" fill="#EF7133"/>
<path d="M36.2456 78.1319C36.695 78.4664 37.048 78.8495 37.3046 79.2813C37.5554 79.7208 37.6874 80.1743 37.7007 80.6417C37.714 81.1092 37.593 81.5549 37.3376 81.9789L36.094 81.0533C36.2474 80.734 36.2742 80.3987 36.1744 80.0475C36.0746 79.6963 35.8503 79.3909 35.5017 79.1314C35.1917 78.9007 34.8909 78.7792 34.5992 78.7667C34.3016 78.762 34.0693 78.872 33.902 79.0967C33.7578 79.2904 33.7112 79.4905 33.7622 79.697C33.8055 79.8978 33.9047 80.1041 34.0601 80.316C34.2076 80.5222 34.3803 80.735 34.5782 80.9545C34.8712 81.305 35.1303 81.6605 35.3557 82.0209C35.5734 82.3756 35.6983 82.7335 35.7306 83.0946C35.7628 83.4557 35.6434 83.8184 35.3723 84.1825C35.1071 84.5389 34.7863 84.7758 34.41 84.8931C34.0202 85.0123 33.6068 85.0177 33.1699 84.9092C32.7329 84.8007 32.3052 84.5907 31.8868 84.2793C31.2592 83.8122 30.8544 83.2641 30.6725 82.635C30.4847 82.0136 30.5925 81.3835 30.9959 80.7445L32.1814 81.6268C32.0105 81.9211 31.971 82.2168 32.0629 82.514C32.147 82.8054 32.3441 83.0664 32.654 83.2971C32.9407 83.5105 33.2164 83.6254 33.4811 83.6418C33.74 83.6659 33.9531 83.5657 34.1204 83.341C34.2357 83.186 34.2718 83.0082 34.2285 82.8074C34.1795 82.6144 34.0841 82.411 33.9423 82.197C33.787 81.9851 33.6211 81.7713 33.4445 81.5556C33.1128 81.1762 32.8381 80.8092 32.6204 80.4546C32.4028 80.0999 32.2846 79.7411 32.2659 79.3779C32.2471 79.0148 32.381 78.6328 32.6673 78.2319C32.9326 77.8755 33.2669 77.6366 33.6702 77.5154C34.06 77.3961 34.4801 77.3898 34.9306 77.4963C35.3734 77.5971 35.8117 77.8089 36.2456 78.1319Z" fill="#EF7133"/>
<path d="M31.0618 77.8791L26.0146 82.9158L24.8768 81.7186L30.1636 76.934L31.0618 77.8791ZM32.8612 75.2297C33.0608 75.4397 33.1571 75.6813 33.1502 75.9544C33.1362 76.2342 33.0277 76.4705 32.8247 76.6635C32.6217 76.8564 32.3836 76.9495 32.1105 76.9425C31.8304 76.9422 31.5905 76.837 31.3909 76.627C31.1913 76.417 31.0984 76.1721 31.1124 75.8923C31.1193 75.6192 31.2243 75.3862 31.4274 75.1932C31.6304 75.0002 31.872 74.9039 32.1521 74.9042C32.4252 74.9111 32.6616 75.0196 32.8612 75.2297Z" fill="#EF7133"/>
<path d="M39.197 63.6066L39.5101 53.1634L34.0173 44.276L38.8421 43.0198L44.4961 47.7277L51.4634 45.8608L41.1111 32.0892L46.8988 30.4651L61.8709 43.0355L70.3408 40.766C71.3882 40.4854 72.4027 40.6284 73.3842 41.1951C74.3658 41.7618 74.9969 42.5688 75.2775 43.6162C75.5582 44.6635 75.4193 45.6708 74.8609 46.6379C74.3026 47.6051 73.4997 48.2289 72.4523 48.5096L63.9141 50.7974L57.2581 69.1264L51.4521 70.6821L53.4882 53.5544L46.521 55.4212L44.0467 62.3071L39.197 63.6066Z" fill="#EF7133"/>
</g>
</g>
<defs>
<filter id="filter0_d_173_1082" x="-47.7574" y="-45.0205" width="197.187" height="197.187" filterUnits="userSpaceOnUse" color-interpolation-filters="sRGB">
<feFlood flood-opacity="0" result="BackgroundImageFix"/>
<feColorMatrix in="SourceAlpha" type="matrix" values="0 0 0 0 0 0 0 0 0 0 0 0 0 0 0 0 0 0 127 0" result="hardAlpha"/>
<feOffset dy="3.57306"/>
<feGaussianBlur stdDeviation="24.2968"/>
<feComposite in2="hardAlpha" operator="out"/>
<feColorMatrix type="matrix" values="0 0 0 0 0.67451 0 0 0 0 0.745098 0 0 0 0 0.435294 0 0 0 0.1 0"/>
<feBlend mode="normal" in2="BackgroundImageFix" result="effect1_dropShadow_173_1082"/>
<feBlend mode="normal" in="SourceGraphic" in2="effect1_dropShadow_173_1082" result="shape"/>
</filter>
<clipPath id="clip0_173_1082">
<rect width="100" height="100" fill="white" transform="translate(0.836182)"/>
</clipPath>
</defs>
</svg>
