<svg width="407" height="184" viewBox="0 0 407 184" fill="none" xmlns="http://www.w3.org/2000/svg">
<g filter="url(#filter0_d_158_336)">
<path d="M261.975 75.7815L261.97 75.7866C259.92 78.0522 257.196 79.1968 253.743 79.1968C250.595 79.1968 248.209 78.3707 246.513 76.7824C244.835 75.1546 243.946 72.6164 243.946 69.0582V45.4538C243.946 44.5835 243.24 43.8781 242.37 43.8781H235.684C234.814 43.8781 234.108 44.5835 234.108 45.4538V69.7406C234.108 73.3936 234.833 76.583 236.305 79.2903C237.772 81.9895 239.802 84.0813 242.393 85.5533C244.983 87.0247 247.918 87.7546 251.184 87.7546C253.897 87.7546 256.185 87.4089 258.028 86.6954C259.839 85.9943 261.301 85.1064 262.39 84.0177C263.347 83.0599 264.1 82.0695 264.637 81.0449C264.706 80.9132 264.829 80.8444 264.943 80.8444C265.111 80.8444 265.247 80.9804 265.247 81.1482V93.2864C265.247 94.0673 265.064 94.5551 264.791 94.8476C264.524 95.1332 264.089 95.3205 263.383 95.3205H174.531C173.661 95.3205 172.956 96.026 172.956 96.8962V102.473C172.956 103.344 173.661 104.049 174.531 104.049H266.028C268.75 104.049 270.946 103.247 272.545 101.588C274.194 99.9371 274.999 97.7479 274.999 95.078V45.4538C274.999 44.5835 274.293 43.8781 273.423 43.8781H266.737C265.867 43.8781 265.161 44.5835 265.161 45.4538V65.731C265.161 70.2011 264.072 73.5228 261.975 75.7815Z" fill="#F17032" stroke="#F17032" stroke-width="1.05045"/>
<mask id="path-2-outside-1_158_336" maskUnits="userSpaceOnUse" x="183.185" y="24.7437" width="47" height="64" fill="black">
<rect fill="white" x="183.185" y="24.7437" width="47" height="64"/>
<path d="M204.636 87.6556C201.167 87.6556 197.953 86.8025 194.996 85.0963C192.038 83.3901 189.65 80.9445 187.83 77.7595C186.067 74.5177 185.185 70.6219 185.185 66.072V64.7923C185.185 60.2993 186.067 56.4318 187.83 53.19C189.593 49.9482 191.953 47.4742 194.911 45.768C197.868 44.0618 201.11 43.2086 204.636 43.2086C207.366 43.2086 209.641 43.5499 211.461 44.2324C213.338 44.9149 214.873 45.7964 216.068 46.877C217.108 47.7686 217.932 48.7034 218.541 49.6813C218.707 49.9469 218.992 50.1188 219.305 50.1188V50.1188C219.779 50.1188 220.163 49.7348 220.163 49.261V27.7941C220.163 27.214 220.633 26.7437 221.213 26.7437H227.899C228.479 26.7437 228.95 27.214 228.95 27.7941V85.4108C228.95 85.9909 228.479 86.4613 227.899 86.4613H221.384C220.804 86.4613 220.333 85.9909 220.333 85.4108V81.3593C220.333 80.8789 219.944 80.4895 219.463 80.4895V80.4895C219.156 80.4895 218.874 80.6525 218.707 80.9097C217.628 82.5642 216.066 84.0734 214.02 85.4375C211.859 86.9162 208.731 87.6556 204.636 87.6556ZM207.11 79.9776C210.921 79.9776 214.049 78.7548 216.494 76.3093C218.997 73.8637 220.248 70.3659 220.248 65.816V65.0482C220.248 60.5552 219.025 57.0859 216.58 54.6403C214.134 52.1947 210.977 50.9719 207.11 50.9719C203.356 50.9719 200.228 52.1947 197.726 54.6403C195.28 57.0859 194.058 60.5552 194.058 65.0482V65.816C194.058 70.3659 195.28 73.8637 197.726 76.3093C200.228 78.7548 203.356 79.9776 207.11 79.9776Z"/>
</mask>
<path d="M204.636 87.6556C201.167 87.6556 197.953 86.8025 194.996 85.0963C192.038 83.3901 189.65 80.9445 187.83 77.7595C186.067 74.5177 185.185 70.6219 185.185 66.072V64.7923C185.185 60.2993 186.067 56.4318 187.83 53.19C189.593 49.9482 191.953 47.4742 194.911 45.768C197.868 44.0618 201.11 43.2086 204.636 43.2086C207.366 43.2086 209.641 43.5499 211.461 44.2324C213.338 44.9149 214.873 45.7964 216.068 46.877C217.108 47.7686 217.932 48.7034 218.541 49.6813C218.707 49.9469 218.992 50.1188 219.305 50.1188V50.1188C219.779 50.1188 220.163 49.7348 220.163 49.261V27.7941C220.163 27.214 220.633 26.7437 221.213 26.7437H227.899C228.479 26.7437 228.95 27.214 228.95 27.7941V85.4108C228.95 85.9909 228.479 86.4613 227.899 86.4613H221.384C220.804 86.4613 220.333 85.9909 220.333 85.4108V81.3593C220.333 80.8789 219.944 80.4895 219.463 80.4895V80.4895C219.156 80.4895 218.874 80.6525 218.707 80.9097C217.628 82.5642 216.066 84.0734 214.02 85.4375C211.859 86.9162 208.731 87.6556 204.636 87.6556ZM207.11 79.9776C210.921 79.9776 214.049 78.7548 216.494 76.3093C218.997 73.8637 220.248 70.3659 220.248 65.816V65.0482C220.248 60.5552 219.025 57.0859 216.58 54.6403C214.134 52.1947 210.977 50.9719 207.11 50.9719C203.356 50.9719 200.228 52.1947 197.726 54.6403C195.28 57.0859 194.058 60.5552 194.058 65.0482V65.816C194.058 70.3659 195.28 73.8637 197.726 76.3093C200.228 78.7548 203.356 79.9776 207.11 79.9776Z" fill="#F17032"/>
<path d="M194.996 85.0963L195.521 84.1864L195.521 84.1864L194.996 85.0963ZM187.83 77.7595L186.907 78.2614L186.912 78.2711L186.918 78.2807L187.83 77.7595ZM211.461 44.2324L211.092 45.216L211.102 45.2196L211.461 44.2324ZM216.068 46.877L215.363 47.656L215.373 47.6654L215.384 47.6746L216.068 46.877ZM214.02 85.4375L213.438 84.5634L213.427 84.5706L214.02 85.4375ZM216.494 76.3093L215.76 75.5579L215.751 75.5665L216.494 76.3093ZM216.58 54.6403L217.322 53.8975L217.322 53.8975L216.58 54.6403ZM197.726 54.6403L196.992 53.889L196.983 53.8975L197.726 54.6403ZM197.726 76.3093L196.983 77.0521L196.992 77.0605L197.726 76.3093ZM218.707 80.9097L217.827 80.3362L218.707 80.9097ZM218.541 49.6813L219.433 49.1262L218.541 49.6813ZM204.636 86.6052C201.348 86.6052 198.316 85.799 195.521 84.1864L194.471 86.0062C197.591 87.806 200.986 88.7061 204.636 88.7061V86.6052ZM195.521 84.1864C192.737 82.5801 190.477 80.2742 188.742 77.2384L186.918 78.2807C188.823 81.6148 191.34 84.2001 194.471 86.0062L195.521 84.1864ZM188.753 77.2577C187.091 74.2018 186.236 70.4869 186.236 66.072H184.135C184.135 70.7569 185.043 74.8337 186.907 78.2614L188.753 77.2577ZM186.236 66.072V64.7923H184.135V66.072H186.236ZM186.236 64.7923C186.236 60.4368 187.09 56.7496 188.753 53.6919L186.907 52.6881C185.044 56.1141 184.135 60.1618 184.135 64.7923H186.236ZM188.753 53.6919C190.431 50.6059 192.659 48.2795 195.436 46.6779L194.386 44.8581C191.247 46.6689 188.755 49.2905 186.907 52.6881L188.753 53.6919ZM195.436 46.6779C198.228 45.0668 201.288 44.2591 204.636 44.2591V42.1582C200.932 42.1582 197.508 43.0567 194.386 44.8581L195.436 46.6779ZM204.636 44.2591C207.287 44.2591 209.427 44.5916 211.092 45.2159L211.83 43.2488C209.855 42.5081 207.445 42.1582 204.636 42.1582V44.2591ZM211.102 45.2196C212.881 45.8664 214.29 46.6855 215.363 47.656L216.772 46.0981C215.456 44.9073 213.795 43.9633 211.82 43.2452L211.102 45.2196ZM215.384 47.6746C216.358 48.5093 217.107 49.3648 217.649 50.2365L219.433 49.1262C218.758 48.042 217.858 47.028 216.751 46.0795L215.384 47.6746ZM221.213 49.261V27.7941H219.112V49.261H221.213ZM221.213 27.7941H227.899V25.6932H221.213V27.7941ZM227.899 27.7941V85.4108H230V27.7941H227.899ZM227.899 85.4108H221.384V87.5117H227.899V85.4108ZM221.384 85.4108V81.3593H219.283V85.4108H221.384ZM217.827 80.3362C216.843 81.846 215.393 83.2596 213.438 84.5635L214.603 86.3116C216.739 84.8873 218.414 83.2824 219.587 81.4832L217.827 80.3362ZM213.427 84.5706C211.514 85.8797 208.63 86.6052 204.636 86.6052V88.7061C208.832 88.7061 212.204 87.9527 214.613 86.3045L213.427 84.5706ZM207.11 81.0281C211.168 81.0281 214.573 79.7156 217.237 77.052L215.751 75.5665C213.524 77.7941 210.673 78.9272 207.11 78.9272V81.0281ZM217.228 77.0605C219.989 74.3628 221.298 70.5599 221.298 65.816H219.197C219.197 70.172 218.005 73.3645 215.76 75.558L217.228 77.0605ZM221.298 65.816V65.0482H219.197V65.816H221.298ZM221.298 65.0482C221.298 60.3635 220.019 56.594 217.322 53.8975L215.837 55.3831C218.031 57.5777 219.197 60.7469 219.197 65.0482H221.298ZM217.322 53.8975C214.656 51.2309 211.22 49.9215 207.11 49.9215V52.0224C210.735 52.0224 213.612 53.1586 215.837 55.3831L217.322 53.8975ZM207.11 49.9215C203.104 49.9215 199.706 51.2368 196.992 53.889L198.46 55.3916C200.751 53.1527 203.609 52.0224 207.11 52.0224V49.9215ZM196.983 53.8975C194.287 56.594 193.007 60.3635 193.007 65.0482H195.108C195.108 60.7469 196.274 57.5777 198.469 55.3831L196.983 53.8975ZM193.007 65.0482V65.816H195.108V65.0482H193.007ZM193.007 65.816C193.007 70.5533 194.284 74.3532 196.983 77.052L198.469 75.5665C196.276 73.3742 195.108 70.1786 195.108 65.816H193.007ZM196.992 77.0605C199.706 79.7128 203.104 81.0281 207.11 81.0281V78.9272C203.609 78.9272 200.751 77.7969 198.46 75.558L196.992 77.0605ZM219.463 79.439C218.778 79.439 218.175 79.8017 217.827 80.3362L219.587 81.4832C219.574 81.5033 219.535 81.5399 219.463 81.5399V79.439ZM221.384 81.3593C221.384 80.2988 220.524 79.439 219.463 79.439V81.5399C219.364 81.5399 219.283 81.4591 219.283 81.3593H221.384ZM221.384 85.4108L221.384 85.4108H219.283C219.283 86.5711 220.223 87.5117 221.384 87.5117V85.4108ZM227.899 85.4108L227.899 85.4108V87.5117C229.059 87.5117 230 86.5711 230 85.4108H227.899ZM227.899 27.7941L227.899 27.7941H230C230 26.6338 229.059 25.6932 227.899 25.6932V27.7941ZM221.213 27.7941L221.213 27.7941V25.6932C220.053 25.6932 219.112 26.6338 219.112 27.7941H221.213ZM219.305 51.1693C220.359 51.1693 221.213 50.3149 221.213 49.261H219.112C219.112 49.1546 219.198 49.0684 219.305 49.0684V51.1693ZM217.649 50.2365C217.99 50.7834 218.599 51.1693 219.305 51.1693V49.0684C219.385 49.0684 219.423 49.1104 219.433 49.1262L217.649 50.2365Z" fill="#F17032" mask="url(#path-2-outside-1_158_336)"/>
<path d="M139.541 78.0105L139.541 78.0105L139.546 78.0201C141.409 81.2796 143.862 83.7951 146.906 85.5512C149.944 87.3043 153.249 88.1808 156.808 88.1808C160.952 88.1808 164.202 87.435 166.487 85.8727C168.577 84.479 170.194 82.9225 171.319 81.1965C171.396 81.0779 171.518 81.0147 171.636 81.0147C171.826 81.0147 171.98 81.169 171.98 81.3593V85.4108C171.98 86.281 172.686 86.9865 173.556 86.9865H180.072C180.942 86.9865 181.647 86.281 181.647 85.4108V27.7941C181.647 26.9239 180.942 26.2184 180.072 26.2184H173.385C172.515 26.2184 171.81 26.9239 171.81 27.7941V49.261C171.81 49.4447 171.661 49.5936 171.477 49.5936C171.361 49.5936 171.237 49.5287 171.159 49.4037C170.519 48.3744 169.658 47.4016 168.587 46.4828C167.333 45.3498 165.737 44.4389 163.815 43.7396C161.918 43.0287 159.577 42.6834 156.808 42.6834C153.193 42.6834 149.86 43.5592 146.821 45.313C143.772 47.0715 141.346 49.6194 139.541 52.9391C137.728 56.273 136.832 60.2305 136.832 64.7923V66.072C136.832 70.6894 137.727 74.6757 139.541 78.0105ZM168.299 75.9336L168.295 75.9379C165.959 78.2745 162.969 79.4524 159.282 79.4524C155.656 79.4524 152.664 78.2766 150.267 75.9357C147.95 73.6168 146.755 70.2709 146.755 65.816V65.0482C146.755 60.6524 147.949 57.3338 150.268 55.0138C152.664 52.673 155.656 51.4972 159.282 51.4972C163.029 51.4972 166.045 52.6767 168.381 55.0117C170.701 57.3318 171.895 60.651 171.895 65.0482V65.816C171.895 70.269 170.673 73.6141 168.3 75.9336L168.299 75.9336Z" fill="#F17032" stroke="#F17032" stroke-width="1.05045"/>
<path d="M120.738 75.7861L120.737 75.7866C118.688 78.0522 115.964 79.1968 112.511 79.1968C109.363 79.1968 106.976 78.3707 105.28 76.7824C103.602 75.1546 102.713 72.6164 102.713 69.0582V45.4538C102.713 44.5835 102.008 43.8781 101.137 43.8781H94.4513C93.5811 43.8781 92.8757 44.5835 92.8757 45.4538V69.6553C92.8757 73.3636 93.6002 76.5818 95.0722 79.2903C96.5391 81.9895 98.5699 84.0813 101.161 85.5533C103.75 87.0247 106.685 87.7546 109.951 87.7546C113.984 87.7546 117.126 87.0081 119.302 85.4371L119.302 85.4371L119.309 85.4315C121.208 84.0077 122.609 82.4906 123.483 80.8725C123.554 80.742 123.676 80.6738 123.791 80.6738C123.961 80.6738 124.099 80.812 124.099 80.9825V85.4111C124.099 86.2813 124.805 86.9868 125.675 86.9868H132.191C133.061 86.9868 133.766 86.2813 133.766 85.4111V45.4538C133.766 44.5835 133.061 43.8781 132.191 43.8781H125.504C124.634 43.8781 123.929 44.5835 123.929 45.4538V65.6457C123.929 70.1148 122.84 73.4685 120.738 75.7861Z" fill="#F17032" stroke="#F17032" stroke-width="1.05045"/>
<path d="M60.5475 85.871L60.5475 85.871L60.5527 85.8745C62.8919 87.434 66.1666 88.1808 70.3136 88.1808C73.928 88.1808 77.2335 87.3053 80.2183 85.55C83.2626 83.7932 85.6878 81.2764 87.4935 78.0149C89.3657 74.6792 90.2897 70.6911 90.2897 66.072V64.7923C90.2897 60.2305 89.3944 56.273 87.5812 52.9391C85.7758 49.6194 83.3495 47.0715 80.3015 45.313C77.2615 43.5592 73.9288 42.6834 70.3136 42.6834C67.5433 42.6834 65.1751 43.0292 63.2239 43.7388C61.2998 44.4384 59.7267 45.3517 58.5254 46.4913C57.5014 47.4136 56.6499 48.3869 55.9757 49.4126C55.8981 49.5306 55.7762 49.5936 55.6585 49.5936C55.4673 49.5936 55.3122 49.4386 55.3122 49.2473V27.7941C55.3122 26.9239 54.6068 26.2184 53.7366 26.2184H47.0505C46.1802 26.2184 45.4748 26.9239 45.4748 27.7941V85.4108C45.4748 86.281 46.1802 86.9865 47.0505 86.9865H53.5659C54.4362 86.9865 55.1416 86.281 55.1416 85.4108V81.3593C55.1416 81.169 55.2959 81.0147 55.4862 81.0147C55.604 81.0147 55.7255 81.078 55.8021 81.196C56.9214 82.92 58.5092 84.4764 60.5475 85.871ZM76.7713 75.9336L76.7671 75.9379C74.4305 78.2745 71.4411 79.4524 67.7543 79.4524C64.1278 79.4524 61.1356 78.2766 58.7393 75.9357C56.4218 73.6168 55.2269 70.2709 55.2269 65.816V65.0482C55.2269 60.6524 56.4206 57.3338 58.7394 55.0138C61.1357 52.673 64.1279 51.4972 67.7543 51.4972C71.5004 51.4972 74.5173 52.6767 76.8524 55.0117C79.1725 57.3318 80.3669 60.651 80.3669 65.0482V65.816C80.3669 70.269 79.1448 73.6141 76.7714 75.9336L76.7713 75.9336Z" fill="#F17032" stroke="#F17032" stroke-width="1.05045"/>
<path d="M176.781 100.057L264.494 100.057" stroke="#FEFCF1" stroke-width="0.525227" stroke-linecap="round" stroke-dasharray="4.2 4.2"/>
<path d="M313.252 101.126L303.078 82.1901L284.168 72.0018L291.465 64.798L306.366 67.3708L316.849 56.8737L284.27 42.9805L292.903 34.1301L332.47 41.1281L345.214 28.367C346.79 26.789 348.743 26 351.072 26C353.401 26 355.354 26.789 356.93 28.367C358.506 29.945 359.294 31.8832 359.294 34.1815C359.294 36.4799 358.506 38.4181 356.93 39.9961L344.084 52.8601L351.072 92.3785L342.336 101.126L328.359 68.5028L317.877 78.9999L320.549 93.8192L313.252 101.126Z" fill="#F17032"/>
<path d="M35.4217 138.064V120.205H37.9658L38.0656 122.076C38.498 121.444 39.0799 120.929 39.8116 120.529C40.5432 120.114 41.4079 119.906 42.4056 119.906C43.6361 119.906 44.692 120.197 45.5733 120.779C46.4546 121.344 47.1364 122.117 47.6186 123.099C48.1008 124.063 48.3419 125.152 48.3419 126.366C48.3419 127.58 48.1008 128.686 47.6186 129.683C47.1364 130.664 46.4463 131.446 45.5484 132.028C44.6671 132.593 43.6195 132.876 42.4056 132.876C41.3746 132.876 40.485 132.668 39.7368 132.252C39.0051 131.82 38.4481 131.296 38.0656 130.681V138.064H35.4217ZM41.8569 130.556C42.6218 130.556 43.2869 130.373 43.8523 130.008C44.4176 129.642 44.8583 129.143 45.1742 128.511C45.4902 127.879 45.6481 127.164 45.6481 126.366C45.6481 125.535 45.4818 124.811 45.1493 124.196C44.8333 123.564 44.3927 123.074 43.8273 122.724C43.262 122.375 42.6051 122.201 41.8569 122.201C41.1252 122.201 40.4767 122.384 39.9114 122.749C39.346 123.099 38.897 123.589 38.5645 124.221C38.2485 124.836 38.0906 125.56 38.0906 126.391C38.0906 127.156 38.2485 127.863 38.5645 128.511C38.8804 129.143 39.3211 129.642 39.8864 130.008C40.4518 130.373 41.1086 130.556 41.8569 130.556ZM50.6454 132.577V115.117H53.2893V132.577H50.6454ZM60.1161 132.876C59.3179 132.876 58.5863 132.735 57.9212 132.452C57.256 132.153 56.7239 131.72 56.3249 131.155C55.9258 130.59 55.7262 129.908 55.7262 129.11C55.7262 128.162 55.959 127.405 56.4246 126.84C56.9068 126.258 57.547 125.834 58.3452 125.568C59.16 125.285 60.0496 125.144 61.014 125.144H64.1568C64.1568 124.429 64.0404 123.855 63.8076 123.423C63.5748 122.974 63.2589 122.65 62.8598 122.45C62.4607 122.234 61.9951 122.126 61.463 122.126C60.7646 122.126 60.1494 122.292 59.6173 122.625C59.1018 122.941 58.7775 123.448 58.6445 124.146H55.9757C56.0588 123.248 56.3581 122.483 56.8736 121.851C57.4057 121.22 58.0791 120.737 58.8939 120.405C59.7087 120.072 60.5734 119.906 61.4879 119.906C62.6852 119.906 63.6746 120.13 64.4561 120.579C65.2542 121.012 65.8446 121.619 66.227 122.4C66.6261 123.182 66.8256 124.071 66.8256 125.069V128.86C66.8422 129.342 66.942 129.7 67.1249 129.933C67.3245 130.149 67.6737 130.274 68.1725 130.307V132.577C67.5074 132.577 66.9254 132.502 66.4265 132.352C65.9443 132.203 65.5452 131.978 65.2293 131.679C64.9134 131.363 64.6639 130.964 64.481 130.481C64.082 131.147 63.5 131.712 62.7351 132.178C61.9702 132.643 61.0972 132.876 60.1161 132.876ZM60.7397 130.706C61.4214 130.706 62.02 130.54 62.5355 130.207C63.051 129.858 63.4501 129.409 63.7328 128.86C64.0154 128.295 64.1568 127.688 64.1568 127.039V126.99H61.2136C60.7313 126.99 60.2741 127.048 59.8417 127.164C59.426 127.281 59.0851 127.48 58.8191 127.763C58.5697 128.029 58.445 128.403 58.445 128.885C58.445 129.517 58.6694 129.983 59.1184 130.282C59.5674 130.565 60.1078 130.706 60.7397 130.706ZM70.2047 132.577V120.205H72.7489L72.7987 122.026C73.2145 121.344 73.7881 120.82 74.5198 120.455C75.2681 120.089 76.0579 119.906 76.8893 119.906C78.336 119.906 79.5083 120.363 80.4062 121.278C81.3041 122.176 81.7531 123.523 81.7531 125.318V132.577H79.1092V125.643C79.1092 124.529 78.8598 123.672 78.3609 123.074C77.8621 122.458 77.1138 122.151 76.1161 122.151C75.135 122.151 74.3452 122.492 73.7466 123.173C73.1479 123.838 72.8486 124.761 72.8486 125.942V132.577H70.2047ZM91.815 138.064L94.5587 132.028L89.3956 120.205H92.3139L95.9555 129.234L99.7467 120.205H102.515L94.6086 138.064H91.815ZM109.047 132.876C107.85 132.876 106.769 132.618 105.805 132.103C104.857 131.571 104.1 130.814 103.535 129.833C102.986 128.852 102.712 127.696 102.712 126.366C102.712 125.036 102.995 123.888 103.56 122.924C104.142 121.959 104.915 121.22 105.88 120.704C106.861 120.172 107.95 119.906 109.147 119.906C110.344 119.906 111.425 120.164 112.39 120.679C113.354 121.195 114.127 121.935 114.709 122.899C115.291 123.863 115.582 125.019 115.582 126.366C115.582 127.63 115.3 128.752 114.734 129.733C114.185 130.714 113.421 131.488 112.44 132.053C111.458 132.602 110.328 132.876 109.047 132.876ZM109.072 130.581C109.804 130.581 110.452 130.398 111.018 130.033C111.6 129.667 112.057 129.168 112.39 128.536C112.722 127.887 112.888 127.156 112.888 126.341C112.888 125.51 112.722 124.786 112.39 124.171C112.074 123.539 111.633 123.057 111.068 122.724C110.502 122.375 109.845 122.201 109.097 122.201C108.316 122.201 107.642 122.384 107.077 122.749C106.528 123.115 106.104 123.614 105.805 124.246C105.522 124.861 105.381 125.568 105.381 126.366C105.381 127.281 105.547 128.054 105.88 128.686C106.229 129.318 106.686 129.791 107.251 130.107C107.817 130.423 108.424 130.581 109.072 130.581ZM122.635 132.876C121.621 132.876 120.748 132.668 120.016 132.252C119.285 131.82 118.719 131.205 118.32 130.407C117.921 129.592 117.722 128.619 117.722 127.488V120.205H120.341V127.139C120.341 128.237 120.59 129.093 121.089 129.708C121.604 130.324 122.353 130.631 123.334 130.631C124.348 130.631 125.146 130.299 125.728 129.633C126.31 128.952 126.601 128.021 126.601 126.84V120.205H129.245V132.577H126.701L126.651 130.731C126.235 131.413 125.67 131.945 124.955 132.327C124.257 132.693 123.483 132.876 122.635 132.876ZM132.098 132.577V120.205H134.642L134.717 122.3C135.133 121.552 135.698 120.97 136.413 120.554C137.145 120.122 138.001 119.906 138.982 119.906V122.675H138.259C137.078 122.675 136.197 122.982 135.615 123.597C135.033 124.196 134.742 125.119 134.742 126.366V132.577H132.098ZM151.967 132.577C150.736 132.577 149.789 132.277 149.123 131.679C148.458 131.08 148.126 130.099 148.126 128.736V122.425H146.255V120.205H148.126V117.212H150.77V120.205H153.912V122.425H150.77V128.736C150.77 129.367 150.911 129.791 151.194 130.008C151.476 130.224 151.917 130.332 152.516 130.332H153.912V132.577H151.967ZM156.285 132.577V120.205H158.83L158.904 122.3C159.32 121.552 159.885 120.97 160.6 120.554C161.332 120.122 162.188 119.906 163.17 119.906V122.675H162.446C161.266 122.675 160.384 122.982 159.802 123.597C159.22 124.196 158.929 125.119 158.929 126.366V132.577H156.285ZM168.923 132.876C168.124 132.876 167.393 132.735 166.728 132.452C166.063 132.153 165.53 131.72 165.131 131.155C164.732 130.59 164.533 129.908 164.533 129.11C164.533 128.162 164.766 127.405 165.231 126.84C165.713 126.258 166.354 125.834 167.152 125.568C167.967 125.285 168.856 125.144 169.821 125.144H172.963C172.963 124.429 172.847 123.855 172.614 123.423C172.381 122.974 172.065 122.65 171.666 122.45C171.267 122.234 170.802 122.126 170.27 122.126C169.571 122.126 168.956 122.292 168.424 122.625C167.908 122.941 167.584 123.448 167.451 124.146H164.782C164.865 123.248 165.165 122.483 165.68 121.851C166.212 121.22 166.886 120.737 167.7 120.405C168.515 120.072 169.38 119.906 170.294 119.906C171.492 119.906 172.481 120.13 173.263 120.579C174.061 121.012 174.651 121.619 175.034 122.4C175.433 123.182 175.632 124.071 175.632 125.069V128.86C175.649 129.342 175.749 129.7 175.931 129.933C176.131 130.149 176.48 130.274 176.979 130.307V132.577C176.314 132.577 175.732 132.502 175.233 132.352C174.751 132.203 174.352 131.978 174.036 131.679C173.72 131.363 173.47 130.964 173.288 130.481C172.888 131.147 172.307 131.712 171.542 132.178C170.777 132.643 169.904 132.876 168.923 132.876ZM169.546 130.706C170.228 130.706 170.827 130.54 171.342 130.207C171.858 129.858 172.257 129.409 172.539 128.86C172.822 128.295 172.963 127.688 172.963 127.039V126.99H170.02C169.538 126.99 169.081 127.048 168.648 127.164C168.233 127.281 167.892 127.48 167.626 127.763C167.376 128.029 167.252 128.403 167.252 128.885C167.252 129.517 167.476 129.983 167.925 130.282C168.374 130.565 168.914 130.706 169.546 130.706ZM181.749 132.577L177.085 120.205H179.879L183.321 130.132L186.788 120.205H189.531L184.867 132.577H181.749ZM196.391 132.876C195.177 132.876 194.105 132.602 193.174 132.053C192.242 131.504 191.511 130.739 190.979 129.758C190.463 128.777 190.205 127.655 190.205 126.391C190.205 125.077 190.463 123.938 190.979 122.974C191.494 122.009 192.217 121.261 193.149 120.729C194.096 120.18 195.186 119.906 196.416 119.906C197.613 119.906 198.661 120.172 199.559 120.704C200.457 121.22 201.155 121.926 201.654 122.824C202.169 123.722 202.427 124.745 202.427 125.892C202.427 126.125 202.419 126.324 202.402 126.491C202.402 126.657 202.386 126.857 202.352 127.089H192.849C192.899 127.788 193.074 128.411 193.373 128.96C193.672 129.492 194.08 129.916 194.595 130.232C195.111 130.531 195.701 130.681 196.366 130.681C197.081 130.681 197.688 130.523 198.187 130.207C198.702 129.875 199.085 129.409 199.334 128.81H202.078C201.862 129.559 201.496 130.24 200.98 130.856C200.482 131.471 199.85 131.961 199.085 132.327C198.32 132.693 197.422 132.876 196.391 132.876ZM192.874 125.219H199.733C199.7 124.254 199.359 123.498 198.711 122.949C198.062 122.384 197.272 122.101 196.341 122.101C195.51 122.101 194.753 122.359 194.071 122.874C193.39 123.39 192.991 124.171 192.874 125.219ZM204.636 132.577V115.117H207.28V132.577H204.636ZM211.363 132.776C210.864 132.776 210.44 132.61 210.091 132.277C209.758 131.928 209.592 131.512 209.592 131.03C209.592 130.548 209.758 130.141 210.091 129.808C210.44 129.459 210.864 129.284 211.363 129.284C211.845 129.284 212.252 129.459 212.585 129.808C212.934 130.141 213.109 130.548 213.109 131.03C213.109 131.512 212.934 131.928 212.585 132.277C212.252 132.61 211.845 132.776 211.363 132.776ZM232.689 132.876C231.725 132.876 230.844 132.71 230.045 132.377C229.247 132.028 228.599 131.537 228.1 130.906C227.601 130.274 227.31 129.534 227.227 128.686H229.896C230.012 129.284 230.32 129.775 230.819 130.157C231.318 130.54 231.941 130.731 232.689 130.731C233.355 130.731 233.895 130.59 234.311 130.307C234.726 130.008 234.934 129.617 234.934 129.135C234.934 128.719 234.793 128.395 234.51 128.162C234.244 127.929 233.895 127.746 233.463 127.613C233.047 127.48 232.59 127.364 232.091 127.264C231.326 127.081 230.603 126.857 229.921 126.59C229.256 126.324 228.715 125.959 228.299 125.493C227.884 125.027 227.676 124.404 227.676 123.622C227.676 122.857 227.875 122.201 228.275 121.652C228.69 121.087 229.256 120.654 229.971 120.355C230.686 120.056 231.492 119.906 232.39 119.906C233.737 119.906 234.859 120.247 235.757 120.929C236.655 121.594 237.154 122.575 237.254 123.872H234.71C234.643 123.29 234.394 122.841 233.961 122.525C233.546 122.209 233.005 122.051 232.34 122.051C231.725 122.051 231.226 122.176 230.844 122.425C230.461 122.658 230.27 123.015 230.27 123.498C230.27 123.83 230.403 124.113 230.669 124.346C230.935 124.562 231.276 124.745 231.692 124.894C232.124 125.027 232.573 125.152 233.039 125.269C233.887 125.451 234.643 125.676 235.308 125.942C235.973 126.208 236.506 126.582 236.905 127.064C237.304 127.547 237.512 128.212 237.528 129.06C237.528 129.825 237.312 130.498 236.88 131.08C236.464 131.645 235.89 132.086 235.159 132.402C234.444 132.718 233.621 132.876 232.689 132.876ZM244.478 132.577C243.247 132.577 242.3 132.277 241.635 131.679C240.969 131.08 240.637 130.099 240.637 128.736V122.425H238.766V120.205H240.637V117.212H243.281V120.205H246.423V122.425H243.281V128.736C243.281 129.367 243.422 129.791 243.705 130.008C243.987 130.224 244.428 130.332 245.027 130.332H246.423V132.577H244.478ZM254.217 132.876C253.003 132.876 251.93 132.602 250.999 132.053C250.068 131.504 249.336 130.739 248.804 129.758C248.289 128.777 248.031 127.655 248.031 126.391C248.031 125.077 248.289 123.938 248.804 122.974C249.32 122.009 250.043 121.261 250.974 120.729C251.922 120.18 253.011 119.906 254.242 119.906C255.439 119.906 256.486 120.172 257.384 120.704C258.282 121.22 258.981 121.926 259.48 122.824C259.995 123.722 260.253 124.745 260.253 125.892C260.253 126.125 260.244 126.324 260.228 126.491C260.228 126.657 260.211 126.857 260.178 127.089H250.675C250.725 127.788 250.899 128.411 251.199 128.96C251.498 129.492 251.905 129.916 252.421 130.232C252.936 130.531 253.527 130.681 254.192 130.681C254.907 130.681 255.514 130.523 256.013 130.207C256.528 129.875 256.91 129.409 257.16 128.81H259.904C259.687 129.559 259.322 130.24 258.806 130.856C258.307 131.471 257.675 131.961 256.91 132.327C256.146 132.693 255.248 132.876 254.217 132.876ZM250.7 125.219H257.559C257.526 124.254 257.185 123.498 256.536 122.949C255.888 122.384 255.098 122.101 254.167 122.101C253.335 122.101 252.579 122.359 251.897 122.874C251.215 123.39 250.816 124.171 250.7 125.219ZM262.461 138.064V120.205H265.005L265.105 122.076C265.538 121.444 266.12 120.929 266.851 120.529C267.583 120.114 268.447 119.906 269.445 119.906C270.676 119.906 271.732 120.197 272.613 120.779C273.494 121.344 274.176 122.117 274.658 123.099C275.14 124.063 275.381 125.152 275.381 126.366C275.381 127.58 275.14 128.686 274.658 129.683C274.176 130.664 273.486 131.446 272.588 132.028C271.707 132.593 270.659 132.876 269.445 132.876C268.414 132.876 267.525 132.668 266.776 132.252C266.045 131.82 265.488 131.296 265.105 130.681V138.064H262.461ZM268.896 130.556C269.661 130.556 270.326 130.373 270.892 130.008C271.457 129.642 271.898 129.143 272.214 128.511C272.53 127.879 272.688 127.164 272.688 126.366C272.688 125.535 272.521 124.811 272.189 124.196C271.873 123.564 271.432 123.074 270.867 122.724C270.302 122.375 269.645 122.201 268.896 122.201C268.165 122.201 267.516 122.384 266.951 122.749C266.386 123.099 265.937 123.589 265.604 124.221C265.288 124.836 265.13 125.56 265.13 126.391C265.13 127.156 265.288 127.863 265.604 128.511C265.92 129.143 266.361 129.642 266.926 130.008C267.491 130.373 268.148 130.556 268.896 130.556ZM290.929 132.876C289.998 132.876 289.15 132.693 288.385 132.327C287.636 131.945 287.038 131.396 286.589 130.681L286.489 132.577H283.945V115.117H286.589V122.101C287.021 121.452 287.603 120.929 288.335 120.529C289.066 120.114 289.931 119.906 290.929 119.906C292.143 119.906 293.19 120.189 294.072 120.754C294.969 121.319 295.66 122.093 296.142 123.074C296.624 124.055 296.865 125.152 296.865 126.366C296.865 127.58 296.624 128.686 296.142 129.683C295.66 130.664 294.969 131.446 294.072 132.028C293.19 132.593 292.143 132.876 290.929 132.876ZM290.38 130.556C291.145 130.556 291.81 130.382 292.375 130.033C292.941 129.667 293.381 129.168 293.697 128.536C294.013 127.887 294.171 127.164 294.171 126.366C294.171 125.535 294.005 124.811 293.672 124.196C293.357 123.564 292.916 123.074 292.351 122.724C291.785 122.375 291.128 122.201 290.38 122.201C289.648 122.201 289 122.384 288.435 122.749C287.869 123.099 287.42 123.589 287.088 124.221C286.772 124.836 286.614 125.56 286.614 126.391C286.614 127.189 286.772 127.904 287.088 128.536C287.42 129.168 287.869 129.667 288.435 130.033C289 130.382 289.648 130.556 290.38 130.556ZM299.563 138.064L302.307 132.028L297.144 120.205H300.062L303.704 129.234L307.495 120.205H310.263L302.357 138.064H299.563ZM323.033 132.876C322.068 132.876 321.187 132.71 320.389 132.377C319.591 132.028 318.942 131.537 318.443 130.906C317.944 130.274 317.653 129.534 317.57 128.686H320.239C320.355 129.284 320.663 129.775 321.162 130.157C321.661 130.54 322.284 130.731 323.033 130.731C323.698 130.731 324.238 130.59 324.654 130.307C325.07 130.008 325.277 129.617 325.277 129.135C325.277 128.719 325.136 128.395 324.853 128.162C324.587 127.929 324.238 127.746 323.806 127.613C323.39 127.48 322.933 127.364 322.434 127.264C321.669 127.081 320.946 126.857 320.264 126.59C319.599 126.324 319.058 125.959 318.643 125.493C318.227 125.027 318.019 124.404 318.019 123.622C318.019 122.857 318.219 122.201 318.618 121.652C319.034 121.087 319.599 120.654 320.314 120.355C321.029 120.056 321.835 119.906 322.733 119.906C324.08 119.906 325.203 120.247 326.101 120.929C326.998 121.594 327.497 122.575 327.597 123.872H325.053C324.986 123.29 324.737 122.841 324.305 122.525C323.889 122.209 323.349 122.051 322.683 122.051C322.068 122.051 321.569 122.176 321.187 122.425C320.804 122.658 320.613 123.015 320.613 123.498C320.613 123.83 320.746 124.113 321.012 124.346C321.278 124.562 321.619 124.745 322.035 124.894C322.467 125.027 322.916 125.152 323.382 125.269C324.23 125.451 324.986 125.676 325.652 125.942C326.317 126.208 326.849 126.582 327.248 127.064C327.647 127.547 327.855 128.212 327.871 129.06C327.871 129.825 327.655 130.498 327.223 131.08C326.807 131.645 326.234 132.086 325.502 132.402C324.787 132.718 323.964 132.876 323.033 132.876ZM334.821 132.577C333.591 132.577 332.643 132.277 331.978 131.679C331.313 131.08 330.98 130.099 330.98 128.736V122.425H329.109V120.205H330.98V117.212H333.624V120.205H336.767V122.425H333.624V128.736C333.624 129.367 333.765 129.791 334.048 130.008C334.331 130.224 334.771 130.332 335.37 130.332H336.767V132.577H334.821ZM344.56 132.876C343.346 132.876 342.274 132.602 341.342 132.053C340.411 131.504 339.68 130.739 339.147 129.758C338.632 128.777 338.374 127.655 338.374 126.391C338.374 125.077 338.632 123.938 339.147 122.974C339.663 122.009 340.386 121.261 341.317 120.729C342.265 120.18 343.354 119.906 344.585 119.906C345.782 119.906 346.83 120.172 347.728 120.704C348.626 121.22 349.324 121.926 349.823 122.824C350.338 123.722 350.596 124.745 350.596 125.892C350.596 126.125 350.588 126.324 350.571 126.491C350.571 126.657 350.554 126.857 350.521 127.089H341.018C341.068 127.788 341.243 128.411 341.542 128.96C341.841 129.492 342.249 129.916 342.764 130.232C343.28 130.531 343.87 130.681 344.535 130.681C345.25 130.681 345.857 130.523 346.356 130.207C346.871 129.875 347.254 129.409 347.503 128.81H350.247C350.031 129.559 349.665 130.24 349.149 130.856C348.651 131.471 348.019 131.961 347.254 132.327C346.489 132.693 345.591 132.876 344.56 132.876ZM341.043 125.219H347.902C347.869 124.254 347.528 123.498 346.88 122.949C346.231 122.384 345.441 122.101 344.51 122.101C343.679 122.101 342.922 122.359 342.24 122.874C341.559 123.39 341.159 124.171 341.043 125.219ZM352.805 138.064V120.205H355.349L355.448 122.076C355.881 121.444 356.463 120.929 357.194 120.529C357.926 120.114 358.791 119.906 359.788 119.906C361.019 119.906 362.075 120.197 362.956 120.779C363.837 121.344 364.519 122.117 365.001 123.099C365.484 124.063 365.725 125.152 365.725 126.366C365.725 127.58 365.484 128.686 365.001 129.683C364.519 130.664 363.829 131.446 362.931 132.028C362.05 132.593 361.002 132.876 359.788 132.876C358.757 132.876 357.868 132.668 357.12 132.252C356.388 131.82 355.831 131.296 355.448 130.681V138.064H352.805ZM359.24 130.556C360.005 130.556 360.67 130.373 361.235 130.008C361.8 129.642 362.241 129.143 362.557 128.511C362.873 127.879 363.031 127.164 363.031 126.366C363.031 125.535 362.865 124.811 362.532 124.196C362.216 123.564 361.776 123.074 361.21 122.724C360.645 122.375 359.988 122.201 359.24 122.201C358.508 122.201 357.86 122.384 357.294 122.749C356.729 123.099 356.28 123.589 355.947 124.221C355.631 124.836 355.473 125.56 355.473 126.391C355.473 127.156 355.631 127.863 355.947 128.511C356.263 129.143 356.704 129.642 357.269 130.008C357.835 130.373 358.491 130.556 359.24 130.556ZM369.323 132.776C368.825 132.776 368.401 132.61 368.051 132.277C367.719 131.928 367.553 131.512 367.553 131.03C367.553 130.548 367.719 130.141 368.051 129.808C368.401 129.459 368.825 129.284 369.323 129.284C369.806 129.284 370.213 129.459 370.546 129.808C370.895 130.141 371.069 130.548 371.069 131.03C371.069 131.512 370.895 131.928 370.546 132.277C370.213 132.61 369.806 132.776 369.323 132.776Z" fill="#F17032"/>
</g>
<defs>
<filter id="filter0_d_158_336" x="0.421753" y="0.693359" width="405.648" height="182.371" filterUnits="userSpaceOnUse" color-interpolation-filters="sRGB">
<feFlood flood-opacity="0" result="BackgroundImageFix"/>
<feColorMatrix in="SourceAlpha" type="matrix" values="0 0 0 0 0 0 0 0 0 0 0 0 0 0 0 0 0 0 127 0" result="hardAlpha"/>
<feOffset dy="10"/>
<feGaussianBlur stdDeviation="17.5"/>
<feComposite in2="hardAlpha" operator="out"/>
<feColorMatrix type="matrix" values="0 0 0 0 0.67451 0 0 0 0 0.745098 0 0 0 0 0.435294 0 0 0 0.1 0"/>
<feBlend mode="normal" in2="BackgroundImageFix" result="effect1_dropShadow_158_336"/>
<feBlend mode="normal" in="SourceGraphic" in2="effect1_dropShadow_158_336" result="shape"/>
</filter>
</defs>
</svg>
