<svg width="61" height="60" viewBox="0 0 61 60" fill="none" xmlns="http://www.w3.org/2000/svg">
<g clip-path="url(#clip0_173_1090)">
<circle cx="30.8362" cy="30" r="30" fill="#595880"/>
<path d="M23.6862 39.0005C23.1774 39.0005 22.7419 38.8201 22.3796 38.4594C22.0173 38.0986 21.8362 37.665 21.8362 37.1584V27.0268C21.8362 26.5202 22.0173 26.0866 22.3796 25.7258C22.7419 25.3651 23.1774 25.1847 23.6862 25.1847H27.3862V23.3426C27.3862 22.836 27.5673 22.4024 27.9296 22.0416C28.2919 21.6809 28.7274 21.5005 29.2362 21.5005H32.9362C33.4449 21.5005 33.8805 21.6809 34.2427 22.0416C34.605 22.4024 34.7862 22.836 34.7862 23.3426V25.1847H38.4862C38.9949 25.1847 39.4305 25.3651 39.7927 25.7258C40.155 26.0866 40.3362 26.5202 40.3362 27.0268V37.1584C40.3362 37.665 40.155 38.0986 39.7927 38.4594C39.4305 38.8201 38.9949 39.0005 38.4862 39.0005H23.6862ZM29.2362 25.1847H32.9362V23.3426H29.2362V25.1847ZM25.5362 27.0268H23.6862V37.1584H25.5362V27.0268ZM34.7862 37.1584V27.0268H27.3862V37.1584H34.7862ZM36.6362 27.0268V37.1584H38.4862V27.0268H36.6362Z" fill="#CBCBE7"/>
<path d="M52.6075 30.177C52.6309 29.8737 52.7046 29.6006 52.8286 29.3577C52.9578 29.1152 53.1278 28.9232 53.3386 28.7817C53.5495 28.6402 53.7892 28.5667 54.0579 28.5611L53.993 29.4004C53.802 29.4224 53.6402 29.5072 53.5079 29.6548C53.3755 29.8024 53.3002 29.9938 53.282 30.2291C53.2658 30.4383 53.2971 30.6116 53.3759 30.7492C53.4599 30.8872 53.5778 30.9621 53.7294 30.9738C53.8601 30.9839 53.9655 30.9473 54.0456 30.8641C54.1253 30.7861 54.1913 30.6807 54.2436 30.548C54.2955 30.4205 54.3433 30.2796 54.3868 30.1251C54.4629 29.8891 54.551 29.6671 54.6513 29.4591C54.7511 29.2564 54.8793 29.0954 55.0358 28.976C55.1923 28.8566 55.3934 28.8064 55.6392 28.8254C55.8797 28.844 56.0814 28.9227 56.2443 29.0615C56.4119 29.206 56.5341 29.3943 56.6109 29.6264C56.6876 29.8585 56.7151 30.1157 56.6933 30.3981C56.6605 30.8216 56.526 31.1663 56.2898 31.4321C56.0589 31.6983 55.7382 31.8313 55.3279 31.8312L55.3898 31.0311C55.5744 31.0244 55.7217 30.9568 55.8315 30.8286C55.941 30.7055 56.0038 30.5394 56.0199 30.3303C56.0349 30.1368 56.0078 29.9769 55.9387 29.8506C55.8748 29.7247 55.767 29.6558 55.6154 29.6441C55.5108 29.636 55.4187 29.671 55.339 29.749C55.2645 29.8274 55.1987 29.9302 55.1416 30.0572C55.0892 30.19 55.0391 30.3281 54.9912 30.4717C54.9131 30.7339 54.8241 30.9664 54.7242 31.1691C54.6244 31.3717 54.4938 31.53 54.3325 31.6437C54.1712 31.7575 53.9569 31.8067 53.6899 31.7913C53.4493 31.7727 53.2428 31.6884 53.0703 31.5383C52.9027 31.3938 52.778 31.2027 52.6965 30.965C52.6145 30.7324 52.5848 30.4698 52.6075 30.177Z" fill="#CBCBE7"/>
<path d="M52.1527 33.7001C52.2385 33.3216 52.3966 33.0509 52.6271 32.888C52.8576 32.7252 53.1826 32.6912 53.602 32.7863L55.543 33.2261L55.6734 32.6507L56.3562 32.8054L56.2259 33.3808L57.1465 33.5894L56.9623 34.4027L56.0416 34.1941L55.8226 35.1608L55.1397 35.006L55.3588 34.0393L53.4177 33.5995C53.2233 33.5555 53.0831 33.5694 52.9969 33.6413C52.9107 33.7132 52.8467 33.8412 52.805 34.0253L52.7076 34.455L52.0171 34.2985L52.1527 33.7001Z" fill="#CBCBE7"/>
<path d="M51.2845 36.2807C51.38 36.0478 51.5087 35.8512 51.6708 35.6909C51.8377 35.5325 52.0275 35.429 52.2402 35.3801C52.4529 35.3313 52.6757 35.3546 52.9087 35.45C53.1853 35.5634 53.3782 35.7218 53.4876 35.9253C53.5997 36.1356 53.6469 36.3732 53.6291 36.6379C53.6141 36.9095 53.549 37.1861 53.4336 37.4675L53.0578 38.3847C53.2665 38.4702 53.4478 38.5048 53.6018 38.4886C53.7607 38.4744 53.8931 38.4209 53.9991 38.3283C54.1099 38.2377 54.1971 38.1148 54.2607 37.9595C54.3443 37.7557 54.3693 37.5562 54.3359 37.3612C54.3053 37.173 54.1961 37.0177 54.0082 36.8953L54.3274 36.1164C54.5795 36.2481 54.7669 36.4269 54.8897 36.6529C55.0105 36.8838 55.0706 37.138 55.0703 37.4156C55.0699 37.6931 55.015 37.9654 54.9056 38.2323C54.7624 38.5817 54.5786 38.8436 54.3541 39.0179C54.1324 39.1992 53.8847 39.2989 53.6109 39.317C53.3351 39.34 53.0516 39.2918 52.7604 39.1725L51.654 38.7191C51.5113 38.6663 51.395 38.6526 51.3052 38.6782C51.2182 38.7105 51.1401 38.7975 51.0707 38.9391L50.4083 38.6677C50.4879 38.4736 50.5793 38.3127 50.6826 38.185C50.784 38.0622 50.8972 37.9725 51.0224 37.9161C51.1524 37.8617 51.2987 37.8367 51.4613 37.8409C51.3149 37.6449 51.2195 37.4075 51.1751 37.1286C51.1307 36.8496 51.1672 36.567 51.2845 36.2807ZM51.8432 36.7222C51.7617 36.9212 51.7386 37.1158 51.774 37.306C51.8143 37.4982 51.8976 37.6683 52.0239 37.8165C52.1551 37.9666 52.3153 38.0804 52.5046 38.158L52.5191 38.1639L52.8711 37.305C52.9288 37.1643 52.9665 37.0239 52.9842 36.8838C53 36.7485 52.9825 36.6252 52.9318 36.5137C52.884 36.4091 52.7898 36.328 52.649 36.2703C52.4646 36.1947 52.3019 36.2046 52.1609 36.2998C52.0247 36.397 51.9188 36.5378 51.8432 36.7222Z" fill="#CBCBE7"/>
<path d="M48.4015 38.704L49.5238 40.4685L53.5368 41.1405L53.0342 41.9116L50.0214 41.3187L51.7541 43.8755L51.2773 44.607L47.9204 39.4421L48.4015 38.704Z" fill="#CBCBE7"/>
<path d="M45.2431 45.185C45.5242 44.933 45.8323 44.7659 46.1673 44.6839C46.5019 44.6093 46.8389 44.6277 47.1782 44.7391C47.5136 44.854 47.8214 45.0676 48.1014 45.38C48.3815 45.6924 48.5567 46.0213 48.6269 46.3668C48.6933 46.7159 48.6675 47.0524 48.5496 47.3765C48.4312 47.708 48.2315 47.9998 47.9503 48.2519C47.6691 48.5039 47.3611 48.671 47.026 48.753C46.691 48.835 46.3537 48.824 46.0139 48.72C45.6742 48.6161 45.3626 48.4059 45.079 48.0896C44.8129 47.7929 44.643 47.4698 44.5692 47.1203C44.4916 46.7744 44.5084 46.4318 44.6198 46.0925C44.7346 45.7571 44.9424 45.4546 45.2431 45.185ZM45.7203 45.7291C45.5485 45.8832 45.4347 46.0627 45.379 46.2676C45.3193 46.476 45.317 46.6895 45.3719 46.9079C45.4303 47.1302 45.5453 47.337 45.7169 47.5284C45.8919 47.7236 46.0832 47.8585 46.2909 47.9329C46.4981 48.0148 46.7031 48.0353 46.9059 47.9943C47.1122 47.9573 47.3032 47.86 47.4789 47.7025C47.6624 47.5379 47.7821 47.3532 47.8378 47.1483C47.8897 46.9468 47.8842 46.7404 47.8215 46.529C47.7583 46.325 47.6427 46.1293 47.4747 45.9419C47.2821 45.7271 47.0803 45.5805 46.8692 45.5021C46.6541 45.4273 46.447 45.4123 46.2477 45.4571C46.0484 45.5019 45.8726 45.5926 45.7203 45.7291Z" fill="#CBCBE7"/>
<path d="M43.1997 46.9782L45.3184 50.2548L44.6446 50.6905L44.2659 50.1484C44.284 50.4178 44.2339 50.6687 44.1157 50.9013C43.996 51.1411 43.8062 51.345 43.5464 51.513L43.0722 50.7797L43.2638 50.6559C43.5765 50.4537 43.7572 50.2213 43.806 49.9587C43.8576 49.7004 43.7766 49.4062 43.5631 49.0759L42.4994 47.431L43.1997 46.9782Z" fill="#CBCBE7"/>
<path d="M38.7737 47.4184C39.0746 47.2818 39.3702 47.1908 39.6606 47.1453C39.951 47.0998 40.2129 47.1249 40.4464 47.2205C40.6729 47.3134 40.848 47.496 40.9716 47.7682C41.054 47.9497 41.0828 48.1209 41.058 48.2819C41.0332 48.4429 40.9652 48.5976 40.854 48.746C41.0037 48.7587 41.1359 48.8024 41.2504 48.877C41.365 48.9517 41.4537 49.0583 41.5166 49.1968C41.6532 49.4977 41.6221 49.7969 41.4232 50.0946C41.5733 50.1589 41.7085 50.2473 41.8287 50.3597C41.9489 50.4722 42.0458 50.6096 42.1195 50.7719C42.2366 51.0298 42.2754 51.28 42.2358 51.5227C42.1984 51.77 42.095 51.9927 41.9256 52.1905C41.7584 52.3931 41.5364 52.5573 41.2594 52.6831C41.0541 52.7763 40.8524 52.8333 40.6545 52.8541L39.4082 53.42L39.1382 52.8255L39.6611 52.5881C39.5769 52.5169 39.5012 52.4389 39.434 52.3543C39.362 52.2718 39.3021 52.178 39.2544 52.073C39.1351 51.8103 39.0966 51.5542 39.1388 51.3047C39.1784 51.0621 39.2818 50.8394 39.449 50.6368C39.6183 50.439 39.8391 50.2782 40.1113 50.1546C40.2354 50.0983 40.3554 50.0582 40.4713 50.0343C40.5894 50.0153 40.7118 50.0058 40.8385 50.0058C40.9271 49.8965 40.9443 49.7821 40.8901 49.6627C40.7882 49.4383 40.5486 49.4117 40.1714 49.583L39.5482 49.866C39.2713 49.9918 39.0151 50.062 38.7799 50.0766C38.542 50.0983 38.3313 50.0528 38.1478 49.9403C37.9594 49.83 37.8056 49.6435 37.6864 49.3809C37.5693 49.123 37.546 48.8687 37.6164 48.6178C37.682 48.3692 37.8173 48.1407 38.0222 47.9324C38.2272 47.7242 38.4777 47.5528 38.7737 47.4184ZM39.0574 48.024C38.7995 48.1411 38.6005 48.2862 38.4602 48.4593C38.3199 48.6324 38.2921 48.8121 38.3767 48.9984C38.5328 49.3422 38.8329 49.4132 39.277 49.2116L39.8428 48.9546C40.0529 48.8592 40.1982 48.7414 40.2785 48.6013C40.3589 48.4611 40.36 48.3051 40.282 48.1332C40.2212 47.9995 40.1271 47.9126 39.9995 47.8726C39.8719 47.8327 39.7265 47.8296 39.5633 47.8634C39.3979 47.8924 39.2293 47.9459 39.0574 48.024ZM40.3949 50.7602C40.18 50.8578 40.0339 50.999 39.9566 51.1839C39.8745 51.3709 39.8768 51.5599 39.9635 51.751C40.0481 51.9372 40.1878 52.0609 40.3827 52.1222C40.5727 52.1857 40.7752 52.1686 40.9901 52.071C41.205 51.9734 41.3511 51.8322 41.4284 51.6473C41.501 51.4646 41.495 51.2802 41.4104 51.0939C41.3237 50.9029 41.19 50.7735 41.0095 50.7058C40.8242 50.6402 40.6193 50.6583 40.3949 50.7602Z" fill="#CBCBE7"/>
<path d="M36.1336 50.2411C36.3782 50.1817 36.613 50.1706 36.8379 50.2078C37.064 50.2501 37.2593 50.343 37.4236 50.4866C37.588 50.6302 37.6999 50.8243 37.7592 51.069C37.8297 51.3595 37.8146 51.6087 37.714 51.8166C37.6094 52.0308 37.4448 52.2084 37.2199 52.3493C36.9912 52.4966 36.7291 52.606 36.4334 52.6778L35.4702 52.9115C35.5234 53.1307 35.6017 53.2978 35.7052 53.413C35.81 53.5333 35.9309 53.6092 36.0681 53.6407C36.2065 53.6773 36.3572 53.6758 36.5203 53.6362C36.7344 53.5842 36.9106 53.4875 37.0489 53.346C37.1834 53.2108 37.2451 53.0313 37.2339 52.8073L38.0519 52.6089C38.0932 52.8903 38.0584 53.147 37.9474 53.379C37.8313 53.6122 37.6607 53.8101 37.4357 53.9726C37.2107 54.1351 36.9581 54.2504 36.6777 54.3184C36.3108 54.4075 35.9909 54.4123 35.7179 54.3328C35.4411 54.2596 35.2151 54.1175 35.0397 53.9064C34.8593 53.6965 34.732 53.4387 34.6578 53.1329L34.3758 51.9709C34.3348 51.8243 34.2777 51.7222 34.2043 51.6644C34.1271 51.613 34.0108 51.6008 33.8554 51.6277L33.6866 50.932C33.8904 50.8825 34.0744 50.8622 34.2384 50.8709C34.3973 50.8809 34.5364 50.9201 34.6555 50.9883C34.7758 51.0617 34.8819 51.1654 34.9738 51.2996C35.0467 51.0661 35.183 50.8495 35.3828 50.6499C35.5827 50.4503 35.8329 50.314 36.1336 50.2411ZM36.1039 50.9526C35.8949 51.0033 35.7238 51.0988 35.5905 51.239C35.4585 51.3844 35.3696 51.5517 35.3238 51.7409C35.2792 51.9352 35.281 52.1317 35.3292 52.3305L35.3329 52.3458L36.235 52.1269C36.3828 52.091 36.5186 52.0392 36.6425 51.9714C36.7613 51.9048 36.8509 51.8182 36.9114 51.7118C36.9681 51.6117 36.9785 51.4878 36.9426 51.34C36.8956 51.1463 36.7922 51.0203 36.6323 50.9619C36.4737 50.9087 36.2975 50.9056 36.1039 50.9526Z" fill="#CBCBE7"/>
<path d="M33.014 51.0487L33.1796 54.9471L32.3779 54.9811L32.3378 54.408C32.216 54.6284 32.0422 54.8012 31.8165 54.9262C31.5857 55.0515 31.3392 55.1197 31.0772 55.1309C30.6214 55.1502 30.2458 55.0218 29.9507 54.7456C29.6557 54.4747 29.4962 54.0563 29.4722 53.4904L29.375 51.2033L30.2081 51.1679L30.3009 53.3529C30.3159 53.7039 30.4059 53.9704 30.5711 54.1524C30.7365 54.3396 30.9764 54.4265 31.2908 54.4131C31.6 54.4 31.8443 54.282 32.0238 54.0592C32.2035 53.8416 32.2855 53.5468 32.2697 53.1747L32.1809 51.0841L33.014 51.0487Z" fill="#CBCBE7"/>
<path d="M27.3873 55.6161C27.5387 55.6307 27.6641 55.6955 27.7637 55.8105C27.8575 55.9303 27.8968 56.0684 27.8816 56.225C27.867 56.3764 27.8024 56.4993 27.6879 56.5936C27.5682 56.6874 27.4327 56.7269 27.2813 56.7123C27.1247 56.6972 26.9992 56.6323 26.9049 56.5178C26.8054 56.4028 26.763 56.2697 26.7776 56.1183C26.7927 55.9617 26.8604 55.8339 26.9806 55.7348C27.0951 55.6405 27.2307 55.6009 27.3873 55.6161ZM28.2437 51.0912L27.8682 54.975L27.0382 54.8947L27.4137 51.011L28.2437 51.0912Z" fill="#CBCBE7"/>
<path d="M26.8165 50.9792L26.6796 51.6417L24.2549 53.7353L26.1423 54.1253L26.0038 54.7956L23.1919 54.2146L23.3272 53.5597L25.7596 51.4677L23.8105 51.065L23.9506 50.387L26.8165 50.9792Z" fill="#CBCBE7"/>
<path d="M21.9382 49.5775C22.2961 49.7133 22.5817 49.9142 22.7949 50.1802C23.008 50.4463 23.1382 50.7537 23.1853 51.1025C23.2275 51.4495 23.1779 51.8093 23.0365 52.1819C22.8895 52.5693 22.686 52.8763 22.4261 53.103C22.1661 53.3297 21.8691 53.4694 21.535 53.5221C21.1941 53.5779 20.8422 53.5369 20.4794 53.3992C20.1264 53.2652 19.8472 53.0695 19.642 52.8121C19.4349 52.5597 19.3081 52.2731 19.2614 51.9525C19.2099 51.6301 19.2484 51.2997 19.3768 50.9613C19.4028 50.8927 19.4276 50.8348 19.4511 50.7876C19.4697 50.7386 19.497 50.6816 19.5328 50.6167L22.335 51.6801C22.3985 51.4686 22.4168 51.2652 22.3899 51.0699C22.3612 50.8795 22.2885 50.7089 22.1719 50.558C22.0534 50.4121 21.896 50.3019 21.6999 50.2275C21.4891 50.1475 21.2924 50.1261 21.11 50.1635C20.9208 50.2038 20.7559 50.2983 20.6153 50.4469L19.8063 50.1399C19.9538 49.9434 20.138 49.7833 20.3588 49.6596C20.5748 49.534 20.816 49.4601 21.0825 49.4378C21.3489 49.4155 21.6342 49.4621 21.9382 49.5775ZM22.1183 52.229L20.0957 51.4614C19.9976 51.7495 20.0135 52.0107 20.1433 52.2451C20.2712 52.4844 20.4725 52.6561 20.7471 52.7603C20.9922 52.8534 21.2442 52.862 21.5029 52.7863C21.7616 52.7106 21.9668 52.5248 22.1183 52.229Z" fill="#CBCBE7"/>
<path d="M18.4461 47.8875C18.7773 48.0898 19.0159 48.343 19.1619 48.6473C19.3007 48.9533 19.3544 49.278 19.3229 49.6213C19.2869 49.9619 19.1692 50.2956 18.9696 50.6223C18.7728 50.9446 18.5325 51.1972 18.2486 51.3803C17.9575 51.5651 17.6469 51.6611 17.3167 51.6684C16.9794 51.6774 16.6451 51.5808 16.3139 51.3785C16.0677 51.2282 15.8754 51.04 15.7368 50.8141C15.5956 50.5926 15.5183 50.3518 15.5051 50.0918L14.3652 51.9581L13.6468 51.5194L16.5171 46.8199L17.2086 47.2423L16.9197 47.7756C17.1338 47.6667 17.3756 47.6178 17.6454 47.6289C17.9151 47.64 18.182 47.7262 18.4461 47.8875ZM17.9238 48.4257C17.7134 48.2972 17.5021 48.2358 17.2898 48.2413C17.0775 48.2468 16.8791 48.31 16.6946 48.4309C16.5102 48.5518 16.3537 48.7174 16.2253 48.9277C16.0777 49.1694 16.0003 49.4018 15.9931 49.6248C15.9815 49.845 16.0267 50.0478 16.1286 50.233C16.2261 50.4154 16.3689 50.5641 16.5569 50.6789C16.7493 50.7964 16.9503 50.8547 17.1599 50.8536C17.3695 50.8526 17.5696 50.7966 17.7603 50.6856C17.9464 50.572 18.1092 50.401 18.2487 50.1728C18.3853 49.949 18.4609 49.7247 18.4752 49.5C18.4896 49.2752 18.4494 49.0694 18.3546 48.8824C18.2598 48.6955 18.1162 48.5433 17.9238 48.4257Z" fill="#CBCBE7"/>
<path d="M14.8046 47.4697L12.4 50.504L11.7109 49.93L14.2605 47.0165L14.8046 47.4697ZM15.608 45.9274C15.7289 46.0281 15.796 46.1523 15.8095 46.3001C15.8196 46.4518 15.776 46.5861 15.6787 46.703C15.5813 46.8198 15.4588 46.885 15.3111 46.8985C15.16 46.9159 15.024 46.8743 14.9031 46.7737C14.7822 46.673 14.7167 46.5467 14.7066 46.395C14.6931 46.2473 14.7351 46.115 14.8324 45.9981C14.9298 45.8812 15.054 45.8141 15.2051 45.7966C15.3528 45.7831 15.4871 45.8267 15.608 45.9274Z" fill="#CBCBE7"/>
<path d="M9.18013 30.5667C9.15669 30.87 9.08298 31.1431 8.959 31.386C8.82979 31.6285 8.65978 31.8205 8.44896 31.962C8.23813 32.1035 7.99837 32.177 7.72968 32.1825L7.79455 31.3433C7.98562 31.3212 8.14735 31.2364 8.27974 31.0889C8.41213 30.9413 8.48742 30.7499 8.50561 30.5146C8.52178 30.3054 8.49047 30.132 8.41168 29.9944C8.32767 29.8564 8.20984 29.7816 8.0582 29.7699C7.92748 29.7597 7.82208 29.7963 7.74201 29.8795C7.66234 29.9575 7.59633 30.0629 7.54399 30.1956C7.49205 30.3231 7.44434 30.4641 7.40084 30.6185C7.32473 30.8546 7.23656 31.0766 7.13632 31.2845C7.03649 31.4872 6.90832 31.6483 6.75181 31.7677C6.5953 31.8871 6.39416 31.9373 6.1484 31.9183C5.90788 31.8997 5.70619 31.821 5.54333 31.6821C5.37566 31.5377 5.25345 31.3494 5.17671 31.1173C5.09997 30.8851 5.07251 30.6279 5.09434 30.3455C5.12708 29.922 5.26155 29.5773 5.49776 29.3116C5.72874 29.0454 6.04937 28.9123 6.45965 28.9125L6.39781 29.7125C6.21318 29.7193 6.06594 29.7868 5.95608 29.9151C5.84663 30.0381 5.78382 30.2042 5.76765 30.4134C5.7527 30.6068 5.77979 30.7667 5.84892 30.8931C5.91283 31.019 6.0206 31.0878 6.17224 31.0995C6.27682 31.1076 6.36894 31.0727 6.44861 30.9947C6.52306 30.9162 6.58886 30.8135 6.64602 30.6864C6.69836 30.5537 6.74849 30.4155 6.79641 30.272C6.87454 30.0097 6.96352 29.7773 7.06335 29.5746C7.16318 29.3719 7.29377 29.2137 7.45511 29.0999C7.61644 28.9861 7.83065 28.9369 8.09773 28.9523C8.33825 28.9709 8.54477 29.0553 8.71727 29.2054C8.88495 29.3498 9.00957 29.5409 9.09113 29.7787C9.1731 30.0112 9.20277 30.2739 9.18013 30.5667Z" fill="#CBCBE7"/>
<path d="M9.63486 27.0436C9.5491 27.4221 9.39097 27.6927 9.16048 27.8556C8.92999 28.0185 8.60504 28.0524 8.18563 27.9574L6.24455 27.5176L6.11418 28.093L5.43135 27.9383L5.56173 27.3628L4.64106 27.1542L4.82533 26.341L5.746 26.5496L5.96503 25.5829L6.64786 25.7376L6.42882 26.7043L8.3699 27.1441C8.56426 27.1882 8.70454 27.1742 8.79073 27.1023C8.87693 27.0305 8.94088 26.9025 8.9826 26.7183L9.07995 26.2887L9.77045 26.4451L9.63486 27.0436Z" fill="#CBCBE7"/>
<path d="M10.5031 24.4629C10.4076 24.6959 10.2789 24.8925 10.1168 25.0528C9.94994 25.2111 9.76013 25.3147 9.54741 25.3635C9.33469 25.4124 9.11186 25.3891 8.87892 25.2936C8.60232 25.1803 8.40936 25.0218 8.30005 24.8184C8.18787 24.608 8.14069 24.3705 8.15851 24.1057C8.17346 23.8341 8.2386 23.5576 8.35395 23.2761L8.72982 22.359C8.52115 22.2734 8.33981 22.2388 8.18579 22.255C8.02692 22.2693 7.89451 22.3227 7.78855 22.4153C7.67773 22.5059 7.59051 22.6289 7.52687 22.7842C7.44334 22.988 7.41829 23.1874 7.4517 23.3825C7.48225 23.5707 7.59148 23.726 7.77939 23.8483L7.4602 24.6272C7.2081 24.4956 7.02067 24.3167 6.89791 24.0907C6.77714 23.8599 6.71696 23.6056 6.71735 23.3281C6.71774 23.0505 6.77262 22.7783 6.882 22.5114C7.02519 22.162 7.20903 21.9001 7.43353 21.7257C7.65516 21.5445 7.90288 21.4448 8.1767 21.4267C8.45251 21.4037 8.736 21.4518 9.02717 21.5711L10.1336 22.0246C10.2763 22.0774 10.3926 22.091 10.4824 22.0655C10.5694 22.0331 10.6475 21.9461 10.7169 21.8045L11.3793 22.076C11.2997 22.2701 11.2083 22.431 11.105 22.5587C11.0036 22.6815 10.8904 22.7711 10.7652 22.8275C10.6352 22.8819 10.4889 22.907 10.3263 22.9027C10.4727 23.0987 10.5681 23.3362 10.6125 23.6151C10.6569 23.894 10.6204 24.1766 10.5031 24.4629ZM9.94439 24.0214C10.0259 23.8225 10.049 23.6279 10.0136 23.4377C9.97333 23.2455 9.89003 23.0753 9.7637 22.9272C9.63251 22.7771 9.47229 22.6632 9.28303 22.5857L9.26848 22.5797L8.91647 23.4387C8.8588 23.5794 8.82109 23.7198 8.80336 23.8599C8.78761 23.9951 8.80507 24.1185 8.85575 24.2299C8.90357 24.3345 8.99784 24.4157 9.13857 24.4734C9.32297 24.5489 9.4857 24.5391 9.62674 24.4439C9.76294 24.3467 9.86882 24.2058 9.94439 24.0214Z" fill="#CBCBE7"/>
<path d="M13.3861 22.0396L12.2638 20.2751L8.25077 19.6031L8.75338 18.832L11.7662 19.4249L10.0335 16.8682L10.5103 16.1366L13.8672 21.3015L13.3861 22.0396Z" fill="#CBCBE7"/>
<path d="M16.5445 15.5586C16.2634 15.8107 15.9553 15.9777 15.6203 16.0597C15.2857 16.1343 14.9487 16.1159 14.6094 16.0046C14.274 15.8897 13.9662 15.6761 13.6862 15.3637C13.4061 15.0513 13.2309 14.7223 13.1606 14.3768C13.0943 14.0278 13.1201 13.6912 13.238 13.3671C13.3564 13.0356 13.5561 12.7438 13.8373 12.4918C14.1185 12.2397 14.4265 12.0727 14.7616 11.9907C15.0966 11.9087 15.4339 11.9197 15.7737 12.0236C16.1134 12.1276 16.425 12.3377 16.7086 12.654C16.9747 12.9508 17.1446 13.2739 17.2184 13.6233C17.296 13.9692 17.2792 14.3119 17.1678 14.6512C17.053 14.9866 16.8452 15.2891 16.5445 15.5586ZM16.0673 15.0145C16.2391 14.8605 16.3529 14.681 16.4086 14.476C16.4683 14.2676 16.4706 14.0542 16.4157 13.8358C16.3573 13.6135 16.2423 13.4066 16.0707 13.2153C15.8957 13.0201 15.7044 12.8852 15.4967 12.8107C15.2895 12.7289 15.0845 12.7084 14.8817 12.7493C14.6754 12.7863 14.4844 12.8836 14.3087 13.0412C14.1252 13.2057 14.0055 13.3904 13.9498 13.5954C13.8979 13.7968 13.9034 14.0032 13.9661 14.2146C14.0293 14.4186 14.1449 14.6144 14.3129 14.8018C14.5055 15.0166 14.7073 15.1631 14.9184 15.2415C15.1335 15.3164 15.3406 15.3314 15.5399 15.2866C15.7392 15.2417 15.915 15.151 16.0673 15.0145Z" fill="#CBCBE7"/>
<path d="M18.5884 13.7654L16.4697 10.4889L17.1435 10.0532L17.5221 10.5953C17.5041 10.3259 17.5542 10.0749 17.6723 9.84238C17.7921 9.60258 17.9819 9.39867 18.2417 9.23065L18.7158 9.96391L18.5243 10.0878C18.2116 10.29 18.0309 10.5224 17.9821 10.785C17.9305 11.0432 18.0114 11.3375 18.225 11.6678L19.2886 13.3126L18.5884 13.7654Z" fill="#CBCBE7"/>
<path d="M23.0139 13.3253C22.713 13.4619 22.4174 13.5529 22.127 13.5984C21.8366 13.6438 21.5747 13.6188 21.3412 13.5232C21.1147 13.4302 20.9396 13.2476 20.816 12.9755C20.7336 12.794 20.7048 12.6228 20.7296 12.4617C20.7544 12.3007 20.8224 12.146 20.9336 11.9976C20.7839 11.985 20.6517 11.9413 20.5372 11.8666C20.4226 11.7919 20.3339 11.6853 20.271 11.5468C20.1344 11.246 20.1655 10.9467 20.3644 10.6491C20.2143 10.5848 20.0791 10.4964 19.9589 10.3839C19.8387 10.2715 19.7418 10.1341 19.6681 9.97171C19.551 9.71385 19.5122 9.46361 19.5518 9.221C19.5892 8.97362 19.6926 8.751 19.862 8.55314C20.0292 8.35051 20.2512 8.18631 20.5282 8.06055C20.7335 7.96731 20.9351 7.91031 21.1331 7.88955L22.3794 7.32361L22.6494 7.91812L22.1265 8.15556C22.2107 8.22677 22.2864 8.30471 22.3536 8.38937C22.4256 8.47187 22.4855 8.56564 22.5332 8.6707C22.6525 8.93333 22.691 9.18943 22.6488 9.43898C22.6092 9.68159 22.5058 9.90421 22.3386 10.1068C22.1693 10.3047 21.9485 10.4654 21.6763 10.589C21.5522 10.6454 21.4321 10.6855 21.3163 10.7093C21.1982 10.7284 21.0758 10.7379 20.949 10.7378C20.8605 10.8472 20.8433 10.9615 20.8975 11.0809C20.9994 11.3054 21.239 11.3319 21.6162 11.1606L22.2394 10.8777C22.5163 10.7519 22.7724 10.6817 23.0077 10.667C23.2456 10.6454 23.4563 10.6908 23.6398 10.8033C23.8282 10.9136 23.9819 11.1001 24.1012 11.3627C24.2183 11.6206 24.2416 11.875 24.1712 12.1258C24.1056 12.3745 23.9703 12.6029 23.7654 12.8112C23.5604 13.0195 23.3099 13.1908 23.0139 13.3253ZM22.7302 12.7197C22.9881 12.6026 23.1871 12.4575 23.3274 12.2843C23.4677 12.1112 23.4955 11.9315 23.4109 11.7453C23.2548 11.4015 22.9547 11.3304 22.5106 11.5321L21.9448 11.789C21.7346 11.8844 21.5894 12.0022 21.5091 12.1424C21.4287 12.2825 21.4276 12.4386 21.5056 12.6105C21.5663 12.7442 21.6605 12.831 21.7881 12.871C21.9157 12.911 22.0611 12.9141 22.2243 12.8803C22.3897 12.8513 22.5583 12.7977 22.7302 12.7197ZM21.3927 9.98343C21.6076 9.88586 21.7537 9.74464 21.831 9.55977C21.9131 9.37273 21.9108 9.1837 21.8241 8.9927C21.7395 8.80646 21.5998 8.68271 21.4049 8.62144C21.2149 8.558 21.0124 8.57506 20.7975 8.67264C20.5826 8.77021 20.4365 8.91144 20.3592 9.09631C20.2866 9.27901 20.2926 9.46348 20.3772 9.64971C20.4639 9.84072 20.5976 9.97011 20.7781 10.0379C20.9634 10.1035 21.1683 10.0853 21.3927 9.98343Z" fill="#CBCBE7"/>
<path d="M25.654 10.5026C25.4093 10.5619 25.1746 10.573 24.9497 10.5358C24.7236 10.4936 24.5283 10.4006 24.364 10.257C24.1996 10.1134 24.0877 9.91931 24.0284 9.67468C23.9579 9.38417 23.973 9.13496 24.0736 8.92705C24.1782 8.71281 24.3428 8.53524 24.5677 8.39433C24.7964 8.24709 25.0585 8.13761 25.3541 8.06588L26.3174 7.83215C26.2642 7.613 26.1859 7.44582 26.0824 7.33063C25.9776 7.21033 25.8567 7.13445 25.7195 7.10297C25.5811 7.06639 25.4304 7.06789 25.2673 7.10746C25.0532 7.1594 24.877 7.25613 24.7387 7.39763C24.6042 7.5328 24.5425 7.71236 24.5537 7.93631L23.7357 8.1348C23.6944 7.8534 23.7292 7.5967 23.8402 7.36469C23.9563 7.13145 24.1269 6.93356 24.3519 6.77103C24.5769 6.60851 24.8295 6.49323 25.1098 6.42522C25.4768 6.33618 25.7967 6.3314 26.0697 6.41088C26.3465 6.48403 26.5725 6.62616 26.7479 6.83725C26.9283 7.04711 27.0556 7.30494 27.1298 7.61073L27.4118 8.77275C27.4528 8.91931 27.5099 9.02147 27.5833 9.07922C27.6605 9.13063 27.7768 9.14289 27.9322 9.11598L28.101 9.81166C27.8972 9.86113 27.7132 9.88148 27.5492 9.87271C27.3902 9.8627 27.2512 9.82358 27.1321 9.75534C27.0118 9.682 26.9057 9.57823 26.8138 9.44404C26.7409 9.67758 26.6046 9.89415 26.4048 10.0937C26.2049 10.2933 25.9547 10.4296 25.654 10.5026ZM25.6837 9.79109C25.8927 9.74039 26.0638 9.6449 26.1971 9.50463C26.3291 9.35927 26.418 9.19198 26.4638 9.00277C26.5084 8.80846 26.5066 8.61193 26.4584 8.41316L26.4547 8.39787L25.5526 8.61676C25.4048 8.65262 25.2689 8.70447 25.1451 8.7723C25.0263 8.83889 24.9367 8.9254 24.8762 9.03183C24.8195 9.13193 24.8091 9.25588 24.845 9.40368C24.892 9.59735 24.9954 9.72336 25.1553 9.7817C25.3139 9.83496 25.4901 9.83808 25.6837 9.79109Z" fill="#CBCBE7"/>
<path d="M28.7736 9.69495L28.608 5.79659L29.4097 5.76253L29.4498 6.33562C29.5716 6.11523 29.7454 5.94249 29.971 5.81743C30.2019 5.69214 30.4484 5.62393 30.7104 5.6128C31.1662 5.59344 31.5417 5.72184 31.8369 5.99801C32.1319 6.26893 32.2914 6.68734 32.3154 7.25324L32.4126 9.54038L31.5795 9.57577L31.4867 7.3908C31.4717 7.03974 31.3817 6.77323 31.2165 6.59127C31.0511 6.40408 30.8112 6.31716 30.4968 6.33052C30.1876 6.34365 29.9433 6.46163 29.7638 6.68447C29.5841 6.90208 29.5021 7.19689 29.5179 7.56891L29.6067 9.65957L28.7736 9.69495Z" fill="#CBCBE7"/>
<path d="M34.4003 5.12757C34.2489 5.11293 34.1235 5.04811 34.0239 4.9331C33.9301 4.81339 33.8908 4.67523 33.906 4.51862C33.9206 4.36724 33.9852 4.24439 34.0997 4.15009C34.2194 4.05629 34.3549 4.0167 34.5063 4.03134C34.6629 4.04649 34.7884 4.11131 34.8827 4.2258C34.9822 4.34081 35.0246 4.474 35.01 4.62538C34.9949 4.78199 34.9272 4.9098 34.807 5.00882C34.6925 5.10313 34.5569 5.14271 34.4003 5.12757ZM33.5439 9.65243L33.9194 5.76866L34.7494 5.84892L34.3739 9.73269L33.5439 9.65243Z" fill="#CBCBE7"/>
<path d="M34.9716 9.76447L35.1085 9.10192L37.5332 7.0083L35.6458 6.61832L35.7842 5.94807L38.5962 6.52907L38.4609 7.18391L36.0284 9.27594L37.9776 9.67866L37.8375 10.3566L34.9716 9.76447Z" fill="#CBCBE7"/>
<path d="M39.8494 11.1657C39.4915 11.0299 39.2059 10.8289 38.9927 10.5629C38.7796 10.2969 38.6494 9.98949 38.6023 9.64065C38.5601 9.29367 38.6097 8.93386 38.7511 8.56122C38.8981 8.17386 39.1016 7.86683 39.3615 7.64013C39.6215 7.41343 39.9185 7.27373 40.2526 7.22103C40.5935 7.16529 40.9454 7.20627 41.3082 7.34397C41.6612 7.47795 41.9404 7.67363 42.1456 7.93102C42.3527 8.18351 42.4795 8.47005 42.5262 8.79065C42.5777 9.11311 42.5392 9.4435 42.4108 9.78183C42.3848 9.85047 42.36 9.90838 42.3365 9.95555C42.3179 10.0046 42.2906 10.0616 42.2548 10.1265L39.4526 9.06302C39.3891 9.27454 39.3708 9.47795 39.3977 9.67325C39.4264 9.86365 39.4991 10.0343 39.6157 10.1851C39.7342 10.3311 39.8916 10.4413 40.0877 10.5157C40.2985 10.5957 40.4952 10.617 40.6776 10.5797C40.8668 10.5393 41.0317 10.4448 41.1723 10.2962L41.9813 10.6033C41.8338 10.7997 41.6496 10.9598 41.4288 11.0836C41.2128 11.2091 40.9716 11.2831 40.7051 11.3054C40.4387 11.3276 40.1534 11.2811 39.8494 11.1657ZM39.6693 8.5142L41.6919 9.28179C41.79 8.99368 41.7741 8.73244 41.6443 8.49806C41.5164 8.25878 41.3151 8.08703 41.0405 7.98282C40.7954 7.88978 40.5434 7.88112 40.2847 7.95682C40.026 8.03253 39.8208 8.21832 39.6693 8.5142Z" fill="#CBCBE7"/>
<path d="M43.3415 12.8562C43.0103 12.6539 42.7717 12.4006 42.6257 12.0964C42.4869 11.7903 42.4332 11.4657 42.4647 11.1223C42.5007 10.7817 42.6184 10.4481 42.818 10.1213C43.0148 9.79909 43.2551 9.54644 43.539 9.36339C43.8301 9.17859 44.1407 9.08255 44.4709 9.07526C44.8082 9.06622 45.1425 9.16285 45.4737 9.36514C45.7199 9.51548 45.9122 9.70363 46.0507 9.92959C46.192 10.1511 46.2693 10.3918 46.2825 10.6519L47.4224 8.7855L48.1408 9.22425L45.2705 13.9237L44.579 13.5014L44.8679 12.968C44.6538 13.077 44.412 13.1259 44.1422 13.1148C43.8725 13.1037 43.6056 13.0175 43.3415 12.8562ZM43.8638 12.3179C44.0742 12.4464 44.2855 12.5079 44.4978 12.5024C44.7101 12.4968 44.9085 12.4336 45.0929 12.3128C45.2774 12.1919 45.4338 12.0263 45.5623 11.8159C45.7099 11.5742 45.7873 11.3419 45.7945 11.1189C45.8061 10.8986 45.7609 10.6959 45.659 10.5107C45.5615 10.3282 45.4187 10.1796 45.2307 10.0648C45.0383 9.94725 44.8373 9.889 44.6277 9.89004C44.4181 9.89109 44.218 9.94708 44.0273 10.058C43.8411 10.1717 43.6784 10.3426 43.5389 10.5709C43.4023 10.7947 43.3267 11.0189 43.3124 11.2437C43.298 11.4684 43.3382 11.6743 43.433 11.8612C43.5277 12.0481 43.6714 12.2004 43.8638 12.3179Z" fill="#CBCBE7"/>
<path d="M46.9835 13.274L49.3881 10.2397L50.0772 10.8136L47.5275 13.7271L46.9835 13.274ZM46.1801 14.8162C46.0592 14.7155 45.992 14.5913 45.9786 14.4436C45.9685 14.2918 46.0121 14.1575 46.1094 14.0407C46.2068 13.9238 46.3293 13.8587 46.477 13.8452C46.6281 13.8277 46.7641 13.8693 46.885 13.97C47.0059 14.0707 47.0714 14.1969 47.0815 14.3487C47.0949 14.4964 47.053 14.6287 46.9557 14.7455C46.8583 14.8624 46.7341 14.9296 46.583 14.9471C46.4353 14.9605 46.301 14.9169 46.1801 14.8162Z" fill="#CBCBE7"/>
</g>
<defs>
<clipPath id="clip0_173_1090">
<rect width="60" height="60" fill="white" transform="translate(0.836182)"/>
</clipPath>
</defs>
</svg>
