<svg width="116" height="115" viewBox="0 0 116 115" fill="none" xmlns="http://www.w3.org/2000/svg">
<circle cx="58.3362" cy="57.5" r="57.5" fill="#FCE2A9"/>
<path d="M58.0275 77.6978C57.1388 77.6978 56.3357 77.4842 55.6179 77.057C54.9002 76.6298 54.3363 76.0573 53.9261 75.3396C52.7983 75.3396 51.8327 74.938 51.0296 74.1348C50.2264 73.3316 49.8248 72.3661 49.8248 71.2382V63.9584C47.8083 62.6254 46.1934 60.8653 44.9801 58.6779C43.7668 56.4905 43.1602 54.1152 43.1602 51.5519C43.1602 47.4164 44.6042 43.9046 47.4922 41.0166C50.3802 38.1286 53.892 36.6846 58.0275 36.6846C62.163 36.6846 65.6747 38.1286 68.5627 41.0166C71.4508 43.9046 72.8948 47.4164 72.8948 51.5519C72.8948 54.1836 72.2881 56.576 71.0748 58.7292C69.8615 60.8824 68.2466 62.6254 66.2301 63.9584V71.2382C66.2301 72.3661 65.8285 73.3316 65.0253 74.1348C64.2222 74.938 63.2566 75.3396 62.1288 75.3396C61.7186 76.0573 61.1547 76.6298 60.437 77.057C59.7193 77.4842 58.9161 77.6978 58.0275 77.6978ZM53.9261 71.2382H62.1288V69.3926H53.9261V71.2382ZM53.9261 67.342H62.1288V65.3938H53.9261V67.342ZM53.516 61.2925H56.4895V55.7557L51.978 51.2443L54.1312 49.0911L58.0275 52.9873L61.9237 49.0911L64.0769 51.2443L59.5655 55.7557V61.2925H62.5389C64.3845 60.4039 65.8883 59.0966 67.0504 57.3706C68.2124 55.6447 68.7934 53.7051 68.7934 51.5519C68.7934 48.5442 67.751 45.998 65.6662 43.9132C63.5813 41.8283 61.0351 40.7859 58.0275 40.7859C55.0198 40.7859 52.4736 41.8283 50.3887 43.9132C48.3039 45.998 47.2615 48.5442 47.2615 51.5519C47.2615 53.7051 47.8425 55.6447 49.0045 57.3706C50.1666 59.0966 51.6704 60.4039 53.516 61.2925Z" fill="#EF7133"/>
<path d="M97.1074 54.6998L108.234 55.7757L108.081 57.3608L106.909 57.3103C107.277 57.6177 107.563 58.0114 107.768 58.4912C107.982 58.9721 108.06 59.5234 108 60.145C107.926 60.9116 107.681 61.5519 107.265 62.0659C106.86 62.581 106.337 62.9591 105.697 63.2005C105.067 63.4428 104.374 63.5274 103.617 63.4543C102.861 63.3811 102.187 63.1643 101.594 62.8038C101.012 62.4442 100.567 61.9672 100.258 61.3727C99.9589 60.7896 99.8459 60.1198 99.919 59.3636C99.9811 58.7213 100.164 58.1795 100.468 57.7384C100.782 57.3086 101.142 56.9931 101.548 56.7919L96.9481 56.3471L97.1074 54.6998ZM101.397 59.1614C101.351 59.638 101.425 60.0634 101.619 60.4377C101.813 60.812 102.097 61.1166 102.472 61.3515C102.846 61.5864 103.282 61.7279 103.78 61.776C104.298 61.8261 104.758 61.766 105.162 61.5959C105.574 61.4371 105.906 61.1921 106.158 60.8609C106.41 60.5297 106.558 60.131 106.603 59.6648C106.647 59.209 106.572 58.7939 106.378 58.4197C106.195 58.0464 105.916 57.7371 105.543 57.4918C105.178 57.2579 104.737 57.1159 104.219 57.0659C103.743 57.0198 103.293 57.0756 102.87 57.2334C102.457 57.3922 102.12 57.6366 101.858 57.9668C101.596 58.297 101.442 58.6952 101.397 59.1614Z" fill="#EF7133"/>
<path d="M98.7323 65.88C98.8757 65.4014 99.092 64.9881 99.381 64.6401C99.6799 64.2951 100.035 64.0537 100.445 63.916C100.856 63.7783 101.301 63.7812 101.779 63.9246C102.348 64.0949 102.759 64.3704 103.015 64.7512C103.277 65.1449 103.416 65.6049 103.432 66.1313C103.456 66.6706 103.38 67.2294 103.207 67.8077L102.642 69.6921C103.071 69.8206 103.436 69.8539 103.737 69.792C104.048 69.733 104.299 69.6019 104.491 69.3984C104.692 69.198 104.84 68.9382 104.936 68.6192C105.062 68.2004 105.072 67.8017 104.969 67.4229C104.872 67.057 104.626 66.7715 104.231 66.5662L104.711 64.966C105.234 65.1772 105.639 65.4941 105.925 65.9167C106.208 66.3493 106.377 66.8397 106.43 67.388C106.483 67.9363 106.427 68.4847 106.263 69.033C106.048 69.7509 105.735 70.3038 105.326 70.6917C104.923 71.0926 104.453 71.3375 103.916 71.4264C103.375 71.5252 102.806 71.485 102.208 71.3058L99.9346 70.6245C99.6425 70.5479 99.4102 70.5435 99.2377 70.6113C99.0723 70.6921 98.9347 70.8791 98.8252 71.1722L97.4642 70.7644C97.5837 70.3656 97.7332 70.0301 97.9125 69.7578C98.0889 69.4956 98.2952 69.2966 98.5314 69.161C98.7777 69.0283 99.0618 68.9505 99.3838 68.9274C99.0567 68.5686 98.8222 68.1181 98.6805 67.5758C98.5388 67.0335 98.5561 66.4683 98.7323 65.88ZM99.9214 66.6438C99.7989 67.0526 99.791 67.4414 99.8978 67.8102C100.015 68.182 100.212 68.502 100.49 68.7701C100.778 69.0412 101.117 69.235 101.506 69.3515L101.536 69.3604L102.065 67.5957C102.151 67.3066 102.199 67.0219 102.206 66.7418C102.211 66.4716 102.153 66.2314 102.031 66.0211C101.917 65.8237 101.715 65.6817 101.425 65.5951C101.047 65.4815 100.727 65.5325 100.467 65.7479C100.217 65.9663 100.035 66.2649 99.9214 66.6438Z" fill="#EF7133"/>
<path d="M95.1743 74.949C95.5239 74.2745 95.9853 73.7575 96.5585 73.3981C97.1317 73.0387 97.7629 72.85 98.4521 72.8321C99.1506 72.819 99.8556 72.9969 100.567 73.3657C101.269 73.7298 101.819 74.1963 102.216 74.7654C102.612 75.3344 102.829 75.9567 102.866 76.6323C102.902 77.3078 102.741 77.9921 102.382 78.6852C101.956 79.5076 101.384 80.0905 100.667 80.4338C99.9538 80.7912 99.1731 80.8613 98.3243 80.6441L99.129 79.0916C99.514 79.1857 99.8918 79.1353 100.262 78.9406C100.628 78.755 100.921 78.4497 101.142 78.0247C101.367 77.5904 101.443 77.1725 101.369 76.7711C101.305 76.3744 101.131 76.0088 100.848 75.6741C100.568 75.3535 100.216 75.083 99.7912 74.8627C99.3476 74.6328 98.9073 74.4984 98.4703 74.4594C98.0377 74.4345 97.6409 74.5102 97.2799 74.6865C96.9233 74.8768 96.6397 75.1752 96.4289 75.5818C96.2134 75.9977 96.126 76.4037 96.1668 76.8C96.2168 77.2011 96.4049 77.5506 96.7311 77.8487L95.9264 79.4011C95.4941 79.0363 95.1744 78.6127 94.9673 78.1302C94.7602 77.6477 94.6699 77.132 94.6966 76.5831C94.7324 76.0389 94.8916 75.4942 95.1743 74.949Z" fill="#EF7133"/>
<path d="M93.3307 78.6998L102.001 85.3523L100.994 86.6653L95.8783 82.7403L96.7185 87.0057L95.445 88.6656L94.603 83.71L89.1491 84.15L90.4416 82.4654L95.2218 82.2367L92.3233 80.0128L93.3307 78.6998Z" fill="#EF7133"/>
<path d="M83.4601 89.0215C83.9323 88.6454 84.4286 88.3831 84.9491 88.2346C85.4761 88.0943 85.9849 88.0815 86.4755 88.1963C86.9662 88.3111 87.3973 88.5599 87.7687 88.9427L86.4621 89.9835C86.1716 89.7359 85.8297 89.6157 85.4363 89.623C85.0429 89.6303 84.6631 89.7799 84.2967 90.0717C83.9711 90.3311 83.7616 90.6111 83.6683 90.9116C83.5815 91.2203 83.6322 91.4926 83.8202 91.7287C83.9824 91.9322 84.178 92.0359 84.4072 92.0396C84.6283 92.0498 84.8706 92.0032 85.1341 91.8997C85.3895 91.8027 85.6588 91.6813 85.9419 91.5356C86.3878 91.3269 86.8294 91.1547 87.267 91.019C87.6964 90.8899 88.1036 90.8582 88.4887 90.924C88.8739 90.9899 89.2188 91.2141 89.5236 91.5967C89.8219 91.9712 89.9804 92.3706 89.999 92.7949C90.016 93.2338 89.9078 93.666 89.6745 94.0914C89.4411 94.5168 89.1047 94.9046 88.6651 95.2548C88.0056 95.78 87.3232 96.0509 86.6177 96.0673C85.9187 96.0919 85.2918 95.8061 84.7371 95.21L85.9827 94.2178C86.2422 94.4768 86.5394 94.5993 86.8743 94.5854C87.2011 94.5779 87.5273 94.4445 87.8529 94.1851C88.1541 93.9452 88.3497 93.6895 88.4397 93.4183C88.5361 93.1551 88.4903 92.9055 88.3022 92.6694C88.1725 92.5066 87.9972 92.4201 87.7761 92.4099C87.5616 92.4078 87.3233 92.4512 87.0614 92.5401C86.7979 92.6436 86.5295 92.7576 86.2561 92.8822C85.7696 93.1234 85.3116 93.3086 84.8822 93.4377C84.4528 93.5669 84.0464 93.5912 83.6629 93.5108C83.2795 93.4303 82.9183 93.1857 82.5794 92.777C82.2811 92.4025 82.1243 91.9885 82.109 91.535C82.092 91.0961 82.201 90.6566 82.436 90.2166C82.6629 89.783 83.0042 89.3847 83.4601 89.0215Z" fill="#EF7133"/>
<path d="M80.959 91.6138L84.2913 98.6039L82.8538 99.2892L82.3815 98.4074C82.3218 98.8625 82.1512 99.2666 81.8699 99.6198C81.5837 99.9869 81.2197 100.276 80.7782 100.486C80.2426 100.741 79.7097 100.857 79.1794 100.833C78.6442 100.823 78.1472 100.639 77.6884 100.281C77.6502 100.83 77.4756 101.323 77.1648 101.759C76.8585 102.205 76.4563 102.546 75.9584 102.784C75.4134 103.044 74.8758 103.162 74.3455 103.138C73.8197 103.123 73.3319 102.946 72.882 102.607C72.4228 102.273 72.0297 101.763 71.7027 101.077L69.741 96.9615L71.2207 96.2561L73.0884 100.174C73.3885 100.803 73.7554 101.222 74.1891 101.431C74.6228 101.639 75.1074 101.616 75.643 101.36C76.1785 101.105 76.5164 100.713 76.6567 100.185C76.797 99.6571 76.7081 99.0595 76.3901 98.3924L74.6031 94.6437L76.0828 93.9383L77.9505 97.8561C78.2506 98.4856 78.6222 98.9023 79.0653 99.1062C79.5084 99.31 79.9883 99.2888 80.505 99.0425C80.9936 98.8096 81.3266 98.4318 81.504 97.909C81.6765 97.4001 81.5926 96.7887 81.2522 96.0746L79.4651 92.3259L80.959 91.6138Z" fill="#EF7133"/>
<path d="M66.4328 97.2449C66.9224 97.1457 67.3888 97.1414 67.832 97.2322C68.2772 97.3331 68.6574 97.5322 68.9725 97.8294C69.2876 98.1266 69.4948 98.52 69.594 99.0097C69.7118 99.5911 69.6631 100.084 69.4477 100.489C69.2243 100.906 68.8842 101.246 68.4277 101.508C67.963 101.783 67.4348 101.98 66.8431 102.1L64.9151 102.491C65.004 102.929 65.1468 103.267 65.3433 103.503C65.5419 103.75 65.7761 103.909 66.0457 103.982C66.3174 104.065 66.6165 104.073 66.9429 104.007C67.3713 103.92 67.7281 103.742 68.0132 103.472C68.2901 103.214 68.426 102.862 68.4208 102.417L70.058 102.086C70.1187 102.647 70.0301 103.153 69.7925 103.605C69.5446 104.059 69.1914 104.438 68.7329 104.744C68.2744 105.049 67.7646 105.258 67.2035 105.372C66.4691 105.521 65.8342 105.506 65.299 105.328C64.7556 105.162 64.318 104.863 63.9862 104.431C63.6442 104.001 63.4112 103.48 63.2872 102.868L62.8159 100.543C62.7457 100.249 62.6401 100.042 62.4989 99.9218C62.3497 99.814 62.1199 99.7809 61.8098 99.8225L61.5276 98.43C61.9356 98.3474 62.302 98.3209 62.6266 98.3507C62.941 98.3826 63.2138 98.4707 63.4448 98.615C63.6779 98.7696 63.8805 98.9834 64.0527 99.2565C64.2148 98.7988 64.5016 98.3796 64.9129 97.9989C65.3243 97.6182 65.8309 97.3669 66.4328 97.2449ZM66.32 98.6536C65.9017 98.7384 65.5552 98.9148 65.2803 99.1829C65.0075 99.4612 64.8185 99.7863 64.7133 100.158C64.6101 100.54 64.5989 100.93 64.6795 101.328L64.6857 101.358L66.4913 100.992C66.7871 100.933 67.0604 100.84 67.3111 100.715C67.5517 100.592 67.736 100.427 67.8641 100.22C67.984 100.026 68.014 99.7812 67.9541 99.4854C67.8755 99.0977 67.6799 98.84 67.3673 98.7122C67.0567 98.5946 66.7076 98.5751 66.32 98.6536Z" fill="#EF7133"/>
<path d="M60.226 98.4409L60.5547 106.178L58.9636 106.245L58.8612 104.937C58.6211 105.416 58.283 105.795 57.8469 106.074C57.4008 106.364 56.871 106.522 56.2575 106.548L56.1839 104.816L56.6363 104.797C57.3746 104.766 57.9176 104.55 58.2652 104.15C58.6132 103.76 58.7707 103.175 58.7376 102.395L58.5726 98.5112L60.226 98.4409Z" fill="#EF7133"/>
<path d="M51.8621 98.3364C52.6295 98.4017 53.2048 98.6386 53.5879 99.0473C53.971 99.4559 54.1263 100.085 54.054 100.936L53.7192 104.872L54.886 104.971L54.7682 106.355L53.6015 106.256L53.4427 108.123L51.7938 107.983L51.9525 106.116L49.9924 105.949L50.1102 104.565L52.0703 104.731L52.405 100.796C52.4386 100.401 52.3729 100.13 52.2081 99.9797C52.0432 99.8299 51.7741 99.7391 51.4008 99.7074L50.5296 99.6333L50.6487 98.2332L51.8621 98.3364Z" fill="#EF7133"/>
<path d="M47.7129 101.017L46.3421 108.578L44.5991 108.218L46.3369 100.733L47.7129 101.017ZM47.6767 97.5664C47.9825 97.6296 48.2163 97.7842 48.378 98.0302C48.5376 98.2863 48.5869 98.5622 48.5258 98.8578C48.4647 99.1534 48.3112 99.3821 48.0652 99.5438C47.8172 99.7157 47.5402 99.7701 47.2344 99.7069C46.9286 99.6438 46.6959 99.4841 46.5363 99.2279C46.3746 98.9819 46.3242 98.7111 46.3853 98.4155C46.4464 98.1199 46.601 97.8862 46.849 97.7142C47.095 97.5525 47.3709 97.5032 47.6767 97.5664Z" fill="#EF7133"/>
<path d="M21.1158 60.8353L9.98923 59.7594L10.1425 58.1743L11.314 58.2249C10.9464 57.9174 10.6603 57.5238 10.4557 57.0439C10.2408 56.563 10.1634 56.0118 10.2235 55.3902C10.2976 54.6236 10.5425 53.9832 10.9582 53.4692C11.3636 52.9542 11.8864 52.576 12.5267 52.3347C13.1566 52.0923 13.8497 52.0077 14.606 52.0809C15.3623 52.154 16.0367 52.3708 16.6292 52.7314C17.2114 53.0909 17.6568 53.568 17.9653 54.1625C18.2644 54.7456 18.3774 55.4153 18.3043 56.1716C18.2422 56.8139 18.0591 57.3556 17.755 57.7968C17.4415 58.2266 17.0817 58.5421 16.6753 58.7433L21.2751 59.1881L21.1158 60.8353ZM16.826 56.3737C16.8721 55.8972 16.7982 55.4717 16.6043 55.0975C16.4105 54.7232 16.1262 54.4186 15.7516 54.1837C15.3769 53.9488 14.941 53.8073 14.4437 53.7592C13.9257 53.7091 13.465 53.7691 13.0617 53.9393C12.649 54.098 12.3168 54.343 12.0652 54.6742C11.8135 55.0054 11.6652 55.4041 11.6201 55.8703C11.576 56.3262 11.6509 56.7412 11.8448 57.1155C12.0283 57.4888 12.3069 57.798 12.6805 58.0433C13.0448 58.2772 13.4859 58.4192 14.0039 58.4693C14.4805 58.5154 14.9303 58.4595 15.3534 58.3018C15.7661 58.143 16.1034 57.8985 16.3654 57.5683C16.6274 57.2381 16.7809 56.8399 16.826 56.3737Z" fill="#EF7133"/>
<path d="M19.4908 49.6551C19.3474 50.1337 19.1312 50.547 18.8422 50.895C18.5432 51.2401 18.1884 51.4814 17.7777 51.6191C17.367 51.7568 16.9224 51.754 16.4438 51.6106C15.8755 51.4403 15.4637 51.1647 15.2083 50.784C14.946 50.3903 14.8068 49.9302 14.7907 49.4039C14.7676 48.8645 14.8427 48.3057 15.016 47.7274L15.5807 45.8431C15.152 45.7146 14.7871 45.6813 14.486 45.7432C14.175 45.8021 13.9238 45.9333 13.7325 46.1367C13.5311 46.3372 13.3827 46.5969 13.2871 46.916C13.1616 47.3347 13.1507 47.7335 13.2545 48.1123C13.3513 48.4781 13.5972 48.7637 13.992 48.9689L13.5125 50.5692C12.989 50.358 12.5842 50.0411 12.2979 49.6185C12.0147 49.1859 11.8465 48.6954 11.7935 48.1471C11.7405 47.5988 11.7962 47.0505 11.9605 46.5021C12.1756 45.7843 12.488 45.2314 12.8976 44.8435C13.3003 44.4426 13.7702 44.1977 14.3076 44.1088C14.8479 44.0099 15.4171 44.0501 16.0153 44.2294L18.2886 44.9106C18.5807 44.9873 18.813 44.9917 18.9854 44.9238C19.1509 44.843 19.2884 44.6561 19.398 44.3629L20.7589 44.7708C20.6394 45.1696 20.49 45.5051 20.3106 45.7773C20.1342 46.0396 19.9279 46.2385 19.6917 46.3742C19.4455 46.5068 19.1614 46.5847 18.8394 46.6077C19.1665 46.9665 19.4009 47.4171 19.5426 47.9593C19.6844 48.5016 19.6671 49.0669 19.4908 49.6551ZM18.3017 48.8914C18.4242 48.4826 18.4321 48.0938 18.3253 47.7249C18.2086 47.3531 18.0111 47.0332 17.7328 46.7651C17.4446 46.494 17.1061 46.3002 16.7173 46.1837L16.6874 46.1747L16.1585 47.9394C16.0719 48.2286 16.0246 48.5132 16.0167 48.7934C16.0118 49.0635 16.0702 49.3038 16.1919 49.5141C16.3066 49.7114 16.5085 49.8534 16.7977 49.9401C17.1766 50.0536 17.4961 50.0027 17.7562 49.7873C18.0064 49.5689 18.1882 49.2702 18.3017 48.8914Z" fill="#EF7133"/>
<path d="M23.0489 40.5861C22.6992 41.2607 22.2378 41.7777 21.6646 42.1371C21.0915 42.4965 20.4603 42.6851 19.771 42.703C19.0726 42.7161 18.3676 42.5383 17.656 42.1694C16.9537 41.8054 16.4042 41.3389 16.0075 40.7698C15.6108 40.2007 15.3941 39.5784 15.3574 38.9029C15.3207 38.2273 15.4819 37.543 15.8412 36.85C16.2675 36.0276 16.8393 35.4447 17.5565 35.1014C18.2693 34.744 19.0501 34.6739 19.8988 34.8911L19.0941 36.4435C18.7091 36.3495 18.3313 36.3998 17.9607 36.5946C17.5949 36.7801 17.3018 37.0854 17.0815 37.5105C16.8564 37.9448 16.7804 38.3627 16.8537 38.7641C16.9178 39.1607 17.0917 39.5264 17.3754 39.861C17.6547 40.1816 18.0069 40.4521 18.432 40.6724C18.8755 40.9024 19.3158 41.0368 19.7528 41.0758C20.1854 41.1007 20.5822 41.025 20.9432 40.8487C21.2998 40.6584 21.5835 40.3599 21.7942 39.9533C22.0098 39.5375 22.0971 39.1314 22.0564 38.7352C22.0064 38.3341 21.8183 37.9845 21.4921 37.6865L22.2968 36.1341C22.7291 36.4988 23.0487 36.9224 23.2559 37.4049C23.463 37.8875 23.5532 38.4032 23.5266 38.9521C23.4907 39.4962 23.3315 40.0409 23.0489 40.5861Z" fill="#EF7133"/>
<path d="M24.8925 36.8353L16.2218 30.1829L17.2291 28.8699L22.3449 32.7948L21.5047 28.5294L22.7782 26.8696L23.6202 31.8251L29.074 31.3851L27.7816 33.0697L23.0014 33.2985L25.8999 35.5223L24.8925 36.8353Z" fill="#EF7133"/>
<path d="M34.7633 26.5136C34.2911 26.8898 33.7948 27.1521 33.2743 27.3006C32.7473 27.4409 32.2385 27.4536 31.7479 27.3388C31.2572 27.224 30.8261 26.9752 30.4547 26.5925L31.7613 25.5516C32.0518 25.7993 32.3937 25.9195 32.7871 25.9122C33.1805 25.9049 33.5603 25.7553 33.9267 25.4635C34.2523 25.2041 34.4618 24.9241 34.5551 24.6236C34.6418 24.3149 34.5912 24.0425 34.4031 23.8064C34.241 23.6029 34.0454 23.4993 33.8162 23.4956C33.5951 23.4853 33.3528 23.532 33.0893 23.6355C32.8339 23.7325 32.5646 23.8538 32.2815 23.9995C31.8356 24.2083 31.394 24.3805 30.9564 24.5161C30.527 24.6453 30.1198 24.6769 29.7346 24.6111C29.3495 24.5453 29.0046 24.3211 28.6998 23.9384C28.4015 23.564 28.243 23.1646 28.2244 22.7403C28.2074 22.3014 28.3156 21.8692 28.5489 21.4438C28.7822 21.0184 29.1187 20.6306 29.5583 20.2804C30.2178 19.7551 30.9002 19.4843 31.6057 19.4678C32.3047 19.4433 32.9316 19.729 33.4863 20.3251L32.2407 21.3174C31.9812 21.0584 31.6839 20.9358 31.3491 20.9498C31.0223 20.9572 30.6961 21.0906 30.3705 21.35C30.0693 21.59 29.8737 21.8456 29.7837 22.1169C29.6873 22.38 29.7331 22.6296 29.9211 22.8657C30.0508 23.0285 30.2262 23.115 30.4473 23.1253C30.6618 23.1273 30.9001 23.0839 31.1619 22.9951C31.4255 22.8916 31.6939 22.7776 31.9673 22.653C32.4538 22.4118 32.9118 22.2266 33.3412 22.0974C33.7706 21.9683 34.177 21.9439 34.5605 22.0244C34.9439 22.1048 35.3051 22.3494 35.644 22.7581C35.9423 23.1326 36.0991 23.5466 36.1144 24.0002C36.1314 24.4391 36.0224 24.8786 35.7874 25.3186C35.5605 25.7521 35.2192 26.1505 34.7633 26.5136Z" fill="#EF7133"/>
<path d="M37.2642 23.9214L33.9319 16.9313L35.3694 16.246L35.8416 17.1278C35.9014 16.6727 36.0719 16.2685 36.3533 15.9153C36.6395 15.5483 37.0034 15.2595 37.445 15.049C37.9805 14.7937 38.5134 14.678 39.0437 14.7019C39.5789 14.712 40.0759 14.8959 40.5347 15.2537C40.573 14.7051 40.7475 14.2126 41.0583 13.7761C41.3647 13.3303 41.7668 12.9887 42.2648 12.7513C42.8097 12.4916 43.3473 12.3736 43.8776 12.3976C44.4034 12.4121 44.8912 12.5889 45.3411 12.9279C45.8004 13.2624 46.1935 13.7726 46.5204 14.4585L48.4822 18.5736L47.0024 19.2791L45.1347 15.3612C44.8346 14.7317 44.4678 14.3128 44.0341 14.1044C43.6003 13.8961 43.1157 13.9196 42.5802 14.1749C42.0447 14.4302 41.7068 14.8219 41.5665 15.35C41.4262 15.8781 41.515 16.4756 41.833 17.1427L43.6201 20.8914L42.1403 21.5969L40.2726 17.679C39.9726 17.0495 39.601 16.6328 39.1579 16.429C38.7148 16.2251 38.2349 16.2463 37.7181 16.4927C37.2296 16.7256 36.8966 17.1034 36.7191 17.6261C36.5466 18.135 36.6306 18.7465 36.9709 19.4605L38.758 23.2093L37.2642 23.9214Z" fill="#EF7133"/>
<path d="M51.7904 18.2903C51.3007 18.3895 50.8343 18.3937 50.3911 18.303C49.9459 18.2021 49.5657 18.003 49.2506 17.7058C48.9355 17.4085 48.7283 17.0151 48.6291 16.5255C48.5113 15.944 48.5601 15.4509 48.7754 15.0462C48.9989 14.6292 49.3389 14.2895 49.7955 14.0271C50.2602 13.7524 50.7884 13.5551 51.38 13.4352L53.308 13.0445C53.2191 12.6059 53.0764 12.2684 52.8798 12.0321C52.6812 11.7856 52.4471 11.626 52.1774 11.5532C51.9058 11.4702 51.6067 11.4618 51.2803 11.5279C50.8518 11.6147 50.4951 11.7932 50.21 12.0634C49.933 12.3213 49.7971 12.6727 49.8024 13.1177L48.1651 13.4495C48.1045 12.8883 48.193 12.3818 48.4307 11.9301C48.6786 11.4763 49.0318 11.0968 49.4903 10.7915C49.9488 10.4862 50.4585 10.2767 51.0196 10.163C51.7541 10.0141 52.3889 10.0289 52.9242 10.2071C53.4676 10.3731 53.9052 10.6721 54.2369 11.104C54.5789 11.5338 54.8119 12.0548 54.9359 12.6668L55.4073 14.9926C55.4774 15.2864 55.5831 15.4933 55.7242 15.6134C55.8735 15.7212 56.1032 15.7543 56.4134 15.7127L56.6955 17.1051C56.2875 17.1878 55.9212 17.2142 55.5965 17.1844C55.2821 17.1526 55.0094 17.0645 54.7783 16.9201C54.5453 16.7656 54.3426 16.5518 54.1705 16.2787C54.0083 16.7363 53.7216 17.1555 53.3102 17.5362C52.8989 17.917 52.3922 18.1683 51.7904 18.2903ZM51.9032 16.8815C52.3214 16.7968 52.668 16.6203 52.9428 16.3522C53.2157 16.0739 53.4047 15.7489 53.5099 15.3771C53.613 14.9951 53.6243 14.6052 53.5437 14.2074L53.5374 14.1768L51.7319 14.5427C51.4361 14.6026 51.1628 14.6952 50.912 14.8203C50.6715 14.9434 50.4871 15.1082 50.3591 15.3147C50.2391 15.5089 50.2091 15.7539 50.2691 16.0498C50.3476 16.4374 50.5432 16.6951 50.8559 16.8229C51.1664 16.9405 51.5155 16.9601 51.9032 16.8815Z" fill="#EF7133"/>
<path d="M57.9971 17.0942L57.6685 9.35744L59.2595 9.28985L59.362 10.5981C59.6021 10.1191 59.9402 9.74016 60.3763 9.46119C60.8223 9.17138 61.3521 9.01345 61.9657 8.98739L62.0392 10.7188L61.5869 10.738C60.8486 10.7694 60.3056 10.9852 59.958 11.3854C59.6099 11.7752 59.4524 12.3601 59.4856 13.14L59.6505 17.024L57.9971 17.0942Z" fill="#EF7133"/>
<path d="M66.3611 17.1988C65.5936 17.1335 65.0184 16.8965 64.6353 16.4879C64.2522 16.0793 64.0968 15.4497 64.1692 14.5993L64.5039 10.6636L63.3372 10.5644L63.4549 9.17985L64.6217 9.27908L64.7804 7.41233L66.4294 7.55258L66.2706 9.41933L68.2307 9.58605L68.113 10.9706L66.1529 10.8038L65.8181 14.7396C65.7846 15.1337 65.8503 15.4056 66.0151 15.5554C66.1799 15.7053 66.449 15.796 66.8224 15.8278L67.6935 15.9019L67.5744 17.302L66.3611 17.1988Z" fill="#EF7133"/>
<path d="M70.5102 14.5177L71.881 6.95741L73.624 7.31755L71.8863 14.8021L70.5102 14.5177ZM70.5465 17.9687C70.2407 17.9056 70.0069 17.751 69.8452 17.505C69.6855 17.2488 69.6362 16.9729 69.6973 16.6773C69.7584 16.3818 69.9119 16.1531 70.1579 15.9913C70.406 15.8194 70.6829 15.765 70.9887 15.8282C71.2945 15.8914 71.5272 16.0511 71.6869 16.3073C71.8486 16.5532 71.8989 16.824 71.8379 17.1196C71.7768 17.4152 71.6222 17.649 71.3741 17.8209C71.1281 17.9827 70.8522 18.0319 70.5465 17.9687Z" fill="#EF7133"/>
</svg>
