<svg width="61" height="60" viewBox="0 0 61 60" fill="none" xmlns="http://www.w3.org/2000/svg">
<g clip-path="url(#clip0_173_1088)">
<g filter="url(#filter0_d_173_1088)">
<path d="M60.8362 30C60.8362 46.5685 47.4047 60 30.8362 60C14.2676 60 0.836182 46.5685 0.836182 30C0.836182 13.4315 14.2676 0 30.8362 0C47.4047 0 60.8362 13.4315 60.8362 30Z" fill="#ACBE6F"/>
<path d="M47.5994 36.1034C47.6366 35.6849 47.7671 35.3716 47.9908 35.1635C48.2145 34.9554 48.5582 34.8719 49.022 34.9132L51.1682 35.104L51.2248 34.4678L51.9798 34.5349L51.9232 35.1712L52.9412 35.2617L52.8612 36.1609L51.8433 36.0704L51.7482 37.1393L50.9932 37.0721L51.0883 36.0032L48.942 35.8124C48.7271 35.7933 48.5786 35.8285 48.4965 35.9181C48.4145 36.0077 48.3644 36.1543 48.3463 36.3579L48.304 36.833L47.5405 36.7651L47.5994 36.1034Z" fill="#FEFAE7"/>
<path d="M47.0261 38.6443C47.1131 38.3861 47.2386 38.1647 47.4027 37.9804C47.572 37.7978 47.77 37.6728 47.9964 37.6053C48.2229 37.5379 48.4652 37.5476 48.7235 37.6347C49.0302 37.7381 49.2496 37.8959 49.3817 38.1082C49.5175 38.3277 49.5848 38.5811 49.5839 38.8684C49.5865 39.1629 49.5352 39.4661 49.43 39.7782L49.0872 40.7951C49.3185 40.8731 49.5169 40.898 49.6821 40.8698C49.8528 40.8434 49.9922 40.7766 50.1003 40.6692C50.2137 40.5637 50.2995 40.4248 50.3575 40.2526C50.4337 40.0267 50.447 39.8095 50.3974 39.601C50.3514 39.3998 50.2227 39.2395 50.0112 39.1203L50.3023 38.2568C50.5838 38.3816 50.7986 38.5619 50.9469 38.7976C51.0933 39.0387 51.1759 39.3092 51.1946 39.6091C51.2133 39.909 51.1728 40.2069 51.0731 40.5028C50.9425 40.8902 50.7619 41.1859 50.5314 41.3898C50.3045 41.6009 50.0437 41.7257 49.7491 41.7642C49.4527 41.8081 49.1431 41.7756 48.8203 41.6668L47.5936 41.2533C47.4358 41.2061 47.3092 41.1993 47.2139 41.2331C47.1222 41.2741 47.0438 41.3735 46.9786 41.5313L46.2442 41.2837C46.3167 41.0685 46.4044 40.8884 46.5073 40.7433C46.6083 40.6036 46.7244 40.4989 46.8557 40.4293C46.9924 40.3616 47.1488 40.3244 47.3247 40.3178C47.1531 40.1161 47.0336 39.8662 46.9664 39.5679C46.8992 39.2696 46.919 38.9618 47.0261 38.6443ZM47.6602 39.0828C47.5858 39.3034 47.5743 39.5152 47.6257 39.7182C47.6825 39.9231 47.7842 40.1012 47.9309 40.2525C48.083 40.4057 48.264 40.5176 48.4738 40.5883L48.49 40.5938L48.811 39.6414C48.8636 39.4854 48.8946 39.3311 48.9041 39.1785C48.9118 39.0313 48.8844 38.8993 48.822 38.7823C48.7631 38.6726 48.6556 38.5915 48.4996 38.5389C48.2951 38.4699 48.12 38.4918 47.9742 38.6044C47.8338 38.7189 47.7291 38.8783 47.6602 39.0828Z" fill="#FEFAE7"/>
<path d="M46.0753 41.7192L50.9846 45.1017L50.4724 45.8451L47.5759 43.8494L48.1526 46.1498L47.5051 47.0895L46.9082 44.4133L43.9492 44.805L44.6064 43.8512L47.2042 43.5933L45.5631 42.4626L46.0753 41.7192Z" fill="#FEFAE7"/>
<path d="M41.8702 46.6544C42.1896 46.3903 42.5315 46.2291 42.896 46.1709C43.2604 46.1127 43.6194 46.1548 43.9728 46.2972C44.322 46.4432 44.634 46.6825 44.909 47.0151C45.1948 47.3607 45.3748 47.7166 45.449 48.0825C45.5232 48.4485 45.4956 48.8028 45.3663 49.1454C45.2363 49.496 45.0094 49.8052 44.6856 50.0729C44.3705 50.3334 44.037 50.4913 43.6849 50.5467C43.3364 50.6064 42.9989 50.5724 42.6723 50.4446C42.3412 50.3205 42.0509 50.1074 41.8013 49.8055C41.7506 49.7442 41.7094 49.6899 41.6776 49.6426C41.6414 49.5988 41.6024 49.5427 41.5605 49.4742L44.0612 47.4065C43.8962 47.2336 43.7145 47.1075 43.5164 47.0282C43.3219 46.9533 43.1224 46.9304 42.918 46.9594C42.7172 46.9928 42.5293 47.0818 42.3543 47.2265C42.1661 47.3821 42.0408 47.5557 41.9783 47.7474C41.915 47.9471 41.9156 48.1528 41.9802 48.3646L41.2582 48.9616C41.1523 48.7176 41.1002 48.4586 41.102 48.1846C41.0994 47.9141 41.159 47.6476 41.2807 47.3849C41.4024 47.1222 41.5989 46.8787 41.8702 46.6544ZM44.4617 47.9042L42.6567 49.3966C42.8753 49.6432 43.1296 49.7681 43.4196 49.7714C43.7133 49.7791 43.9827 49.6816 44.2277 49.479C44.4465 49.2981 44.5895 49.0657 44.6568 48.7817C44.724 48.4977 44.659 48.2052 44.4617 47.9042Z" fill="#FEFAE7"/>
<path d="M38.7833 54.2525C38.9385 54.1976 39.0912 54.2038 39.2415 54.271C39.3884 54.3455 39.4902 54.4631 39.547 54.6237C39.602 54.7789 39.5948 54.9289 39.5257 55.0739C39.4512 55.2207 39.3363 55.3216 39.1811 55.3765C39.0205 55.4334 38.8678 55.4272 38.7228 55.3581C38.5725 55.2908 38.4699 55.1795 38.415 55.0243C38.3582 54.8638 38.366 54.7074 38.4387 54.5552C38.5078 54.4103 38.6227 54.3094 38.7833 54.2525ZM37.5521 49.4213L38.9615 53.4034L38.1105 53.7047L36.7011 49.7225L37.5521 49.4213Z" fill="#FEFAE7"/>
<path d="M33.878 50.4258C34.2916 50.3518 34.6282 50.3954 34.8877 50.5566C35.1473 50.7178 35.318 51.0276 35.4 51.4859L35.7794 53.607L36.4082 53.4945L36.5416 54.2406L35.9129 54.3531L36.0928 55.3591L35.2042 55.5181L35.0242 54.5121L33.9679 54.701L33.8344 53.9549L34.8907 53.7659L34.5113 51.6449C34.4734 51.4325 34.4004 51.2985 34.2923 51.2428C34.1843 51.1871 34.0297 51.1773 33.8285 51.2133L33.359 51.2973L33.2241 50.5427L33.878 50.4258Z" fill="#FEFAE7"/>
<path d="M28.3899 50.2391C28.7964 50.3198 29.1374 50.4831 29.4127 50.7288C29.6881 50.9745 29.8822 51.2794 29.9951 51.6434C30.1025 52.0062 30.1141 52.3993 30.0301 52.8225C29.9427 53.2625 29.7806 53.6268 29.5437 53.9155C29.3069 54.2042 29.0149 54.4067 28.6676 54.5229C28.3137 54.6436 27.9307 54.663 27.5186 54.5812C27.1176 54.5015 26.7845 54.3427 26.5192 54.1047C26.2527 53.8724 26.0659 53.5892 25.9585 53.2553C25.8456 52.9203 25.8274 52.5606 25.9037 52.1764C25.9192 52.0984 25.9353 52.0322 25.9519 51.9776C25.963 51.9219 25.9818 51.8562 26.0084 51.7804L29.1911 52.4127C29.2208 52.1755 29.2038 51.955 29.1401 51.7513C29.0753 51.5532 28.9671 51.3841 28.8154 51.244C28.6627 51.1095 28.475 51.0201 28.2522 50.9758C28.0128 50.9282 27.799 50.9408 27.6109 51.0134C27.4161 51.0905 27.2571 51.2209 27.1337 51.4048L26.2148 51.2223C26.337 50.9861 26.5049 50.7821 26.7185 50.6103C26.9265 50.4375 27.1707 50.3152 27.4512 50.2436C27.7317 50.172 28.0446 50.1705 28.3899 50.2391ZM29.0582 53.0375L26.7611 52.5812C26.708 52.9064 26.7719 53.1824 26.9525 53.4094C27.1321 53.6419 27.3778 53.7891 27.6897 53.851C27.9681 53.9064 28.2387 53.8704 28.5013 53.7431C28.7639 53.6158 28.9496 53.3806 29.0582 53.0375Z" fill="#FEFAE7"/>
<path d="M24.6592 49.0875C24.9012 49.2129 25.1008 49.3707 25.258 49.5609C25.4126 49.7562 25.506 49.9708 25.5381 50.2049C25.5702 50.439 25.5236 50.6771 25.3982 50.919C25.2493 51.2064 25.0598 51.3991 24.8298 51.4974C24.5922 51.598 24.3315 51.626 24.0477 51.5812C23.7563 51.5389 23.4644 51.4419 23.172 51.2904L22.2193 50.7965C22.107 51.0133 22.0521 51.2055 22.0547 51.3731C22.0548 51.5458 22.0996 51.6937 22.1892 51.8169C22.2762 51.9452 22.4004 52.0511 22.5617 52.1347C22.7734 52.2445 22.986 52.2907 23.1996 52.2735C23.4055 52.2588 23.5835 52.156 23.7336 51.9651L24.5426 52.3845C24.3763 52.6437 24.1654 52.8285 23.9098 52.9391C23.6492 53.047 23.3693 53.0874 23.0701 53.0601C22.7708 53.0329 22.4825 52.9475 22.2053 52.8037C21.8424 52.6156 21.5777 52.3921 21.4113 52.1332C21.2373 51.8767 21.1537 51.6 21.1606 51.3029C21.1624 51.0033 21.2417 50.7023 21.3985 50.3998L21.9942 49.2505C22.065 49.1017 22.0909 48.9777 22.072 48.8784C22.0455 48.7815 21.9593 48.6888 21.8133 48.6003L22.1699 47.9123C22.3716 48.0168 22.5362 48.1309 22.6639 48.2547C22.7866 48.3758 22.8723 48.5066 22.9211 48.6469C22.9672 48.7924 22.9801 48.9525 22.9598 49.1275C23.1853 48.9885 23.4505 48.9086 23.7556 48.8877C24.0606 48.8667 24.3618 48.9333 24.6592 49.0875ZM24.1292 49.6473C23.9225 49.5402 23.7149 49.4965 23.5064 49.5164C23.2953 49.5412 23.1038 49.6146 22.9318 49.7365C22.7573 49.8635 22.6191 50.0253 22.5172 50.2219L22.5093 50.237L23.4016 50.6995C23.5478 50.7752 23.6955 50.8295 23.8449 50.8621C23.9892 50.8921 24.1239 50.8852 24.249 50.8413C24.3664 50.7999 24.463 50.7061 24.5387 50.5599C24.638 50.3683 24.6431 50.1919 24.5541 50.0306C24.4624 49.8744 24.3208 49.7466 24.1292 49.6473Z" fill="#FEFAE7"/>
<path d="M20.5601 46.3872C20.8045 46.6079 20.9898 46.8518 21.1159 47.1187C21.2383 47.3898 21.2903 47.6626 21.2722 47.9368C21.254 48.2111 21.1584 48.4652 20.9854 48.6992L20.309 48.0884C20.4165 47.9101 20.4508 47.7154 20.412 47.5043C20.3731 47.2932 20.2588 47.102 20.0692 46.9308C19.9006 46.7786 19.7314 46.6907 19.5613 46.6672C19.3875 46.6479 19.2454 46.6994 19.135 46.8216C19.0399 46.9269 19.0015 47.0414 19.0199 47.1651C19.034 47.285 19.0806 47.4113 19.1597 47.5439C19.2346 47.6728 19.3239 47.8069 19.4275 47.9464C19.5794 48.1678 19.7114 48.3902 19.8232 48.6136C19.9309 48.8333 19.9841 49.0496 19.9829 49.2628C19.9817 49.4759 19.8917 49.6815 19.7128 49.8795C19.5378 50.0733 19.3369 50.1941 19.1102 50.2418C18.8755 50.29 18.6332 50.2702 18.3836 50.1824C18.1339 50.0946 17.8953 49.9479 17.6677 49.7424C17.3264 49.4342 17.12 49.091 17.0485 48.7127C16.9731 48.3387 17.0712 47.9759 17.3428 47.6244L17.9875 48.2066C17.8712 48.3693 17.8316 48.5402 17.8689 48.7192C17.9019 48.8944 18.0027 49.0581 18.1713 49.2103C18.3272 49.3511 18.4821 49.4336 18.6361 49.458C18.7863 49.4865 18.9166 49.4397 19.0269 49.3175C19.103 49.2332 19.134 49.1311 19.1199 49.0112C19.1019 48.8956 19.0574 48.7712 18.9863 48.6381C18.9072 48.5055 18.822 48.3711 18.7306 48.2351C18.5576 47.9947 18.4172 47.7646 18.3096 47.545C18.2019 47.3254 18.1527 47.1088 18.1619 46.8952C18.1711 46.6817 18.2707 46.4656 18.4605 46.2469C18.6356 46.0531 18.8445 45.9319 19.0872 45.8833C19.322 45.8352 19.5682 45.8548 19.8259 45.9422C20.0794 46.0258 20.3241 46.1741 20.5601 46.3872Z" fill="#FEFAE7"/>
<path d="M20.2628 43.7092L18.0259 44.058L15.6203 47.7482L15.0731 46.9154L16.9668 44.1832L13.6794 44.7944L13.1603 44.0043L19.739 42.912L20.2628 43.7092Z" fill="#FEFAE7"/>
<path d="M14.7298 41.4465L10.8665 43.0723L10.5118 42.1685L14.4497 40.733L14.7298 41.4465ZM16.296 40.4018C16.3582 40.5604 16.3572 40.7133 16.293 40.8605C16.2235 41.0097 16.1121 41.1144 15.9588 41.1746C15.8055 41.2347 15.6553 41.2327 15.5081 41.1685C15.3556 41.1063 15.2483 40.996 15.1861 40.8374C15.1238 40.6788 15.1275 40.5249 15.197 40.3757C15.2612 40.2285 15.37 40.1248 15.5232 40.0647C15.6765 40.0045 15.8294 40.0055 15.9819 40.0677C16.1291 40.1319 16.2338 40.2433 16.296 40.4018Z" fill="#FEFAE7"/>
<path d="M14.4862 24.6784C14.449 25.0969 14.3185 25.4102 14.0948 25.6183C13.8711 25.8264 13.5273 25.9098 13.0636 25.8686L10.9173 25.6777L10.8608 26.3139L10.1058 26.2468L10.1623 25.6106L9.14436 25.52L9.22433 24.6208L10.2423 24.7113L10.3374 23.6425L11.0924 23.7096L10.9973 24.7785L13.1436 24.9694C13.3585 24.9885 13.507 24.9532 13.589 24.8636C13.6711 24.774 13.7212 24.6274 13.7393 24.4238L13.7815 23.9488L14.545 24.0167L14.4862 24.6784Z" fill="#FEFAE7"/>
<path d="M15.0594 22.1369C14.9723 22.3952 14.8468 22.6165 14.6828 22.8009C14.5134 22.9835 14.3155 23.1085 14.089 23.1759C13.8626 23.2434 13.6202 23.2336 13.362 23.1465C13.0553 23.0432 12.8359 22.8853 12.7037 22.673C12.568 22.4535 12.5006 22.2001 12.5016 21.9128C12.499 21.6184 12.5503 21.3151 12.6555 21.0031L12.9983 19.9862C12.7669 19.9082 12.5686 19.8833 12.4033 19.9114C12.2327 19.9378 12.0933 20.0047 11.9852 20.112C11.8717 20.2176 11.786 20.3564 11.7279 20.5286C11.6518 20.7546 11.6385 20.9718 11.688 21.1802C11.734 21.3815 11.8628 21.5417 12.0742 21.6609L11.7831 22.5245C11.5017 22.3996 11.2868 22.2194 11.1386 21.9837C10.9922 21.7426 10.9096 21.4721 10.8909 21.1722C10.8721 20.8722 10.9126 20.5743 11.0124 20.2784C11.143 19.891 11.3235 19.5954 11.554 19.3915C11.781 19.1804 12.0417 19.0556 12.3363 19.0171C12.6327 18.9732 12.9423 19.0057 13.2651 19.1145L14.4919 19.528C14.6497 19.5752 14.7763 19.5819 14.8715 19.5481C14.9632 19.5071 15.0417 19.4077 15.1068 19.25L15.8413 19.4975C15.7687 19.7127 15.681 19.8929 15.5782 20.038C15.4772 20.1777 15.361 20.2823 15.2297 20.3519C15.093 20.4197 14.9367 20.4568 14.7607 20.4634C14.9324 20.6651 15.0518 20.9151 15.1191 21.2134C15.1863 21.5116 15.1664 21.8195 15.0594 22.1369ZM14.4253 21.6985C14.4996 21.4779 14.5111 21.2661 14.4597 21.063C14.403 20.8581 14.3012 20.68 14.1545 20.5287C14.0024 20.3756 13.8215 20.2637 13.6116 20.1929L13.5955 20.1875L13.2745 21.1398C13.2219 21.2958 13.1908 21.4501 13.1813 21.6027C13.1737 21.7499 13.201 21.882 13.2635 21.9989C13.3224 22.1086 13.4298 22.1898 13.5858 22.2424C13.7903 22.3113 13.9654 22.2894 14.1112 22.1768C14.2517 22.0624 14.3564 21.9029 14.4253 21.6985Z" fill="#FEFAE7"/>
<path d="M16.0104 19.062L11.1011 15.6796L11.6133 14.9362L14.5098 16.9318L13.9331 14.6315L14.5806 13.6917L15.1775 16.368L18.1365 15.9762L17.4793 16.93L14.8815 17.1879L16.5226 18.3186L16.0104 19.062Z" fill="#FEFAE7"/>
<path d="M20.2153 14.1264C19.8959 14.3905 19.5539 14.5517 19.1895 14.6099C18.825 14.6681 18.4661 14.626 18.1126 14.4836C17.7635 14.3376 17.4515 14.0983 17.1765 13.7657C16.8907 13.42 16.7107 13.0642 16.6365 12.6982C16.5623 12.3323 16.5898 11.978 16.7191 11.6354C16.8491 11.2848 17.0761 10.9756 17.3999 10.7078C17.7149 10.4474 18.0485 10.2894 18.4006 10.2341C18.749 10.1744 19.0865 10.2084 19.4132 10.3362C19.7442 10.4603 20.0345 10.6733 20.2842 10.9753C20.3348 11.0365 20.3761 11.0908 20.4079 11.1382C20.444 11.182 20.4831 11.2381 20.525 11.3066L18.0242 13.3742C18.1893 13.5472 18.3709 13.6733 18.5691 13.7526C18.7636 13.8275 18.9631 13.8504 19.1675 13.8214C19.3682 13.788 19.5561 13.6989 19.7312 13.5542C19.9193 13.3987 20.0447 13.225 20.1072 13.0333C20.1705 12.8337 20.1698 12.6279 20.1052 12.4161L20.8272 11.8192C20.9332 12.0631 20.9852 12.3221 20.9834 12.5962C20.986 12.8666 20.9265 13.1332 20.8048 13.3959C20.6831 13.6586 20.4866 13.9021 20.2153 14.1264ZM17.6237 12.8765L19.4288 11.3841C19.2102 11.1376 18.9559 11.0126 18.6658 11.0093C18.3721 11.0017 18.1028 11.0991 17.8577 11.3017C17.639 11.4826 17.4959 11.7151 17.4287 11.9991C17.3614 12.283 17.4265 12.5755 17.6237 12.8765Z" fill="#FEFAE7"/>
<path d="M23.3023 6.52871C23.1471 6.58365 22.9943 6.57749 22.8441 6.51022C22.6972 6.43571 22.5954 6.31817 22.5386 6.1576C22.4836 6.00238 22.4907 5.8523 22.5599 5.70736C22.6344 5.56053 22.7493 5.45965 22.9045 5.40471C23.0651 5.34788 23.2178 5.35404 23.3627 5.4232C23.513 5.49046 23.6156 5.60171 23.6706 5.75692C23.7274 5.9175 23.7195 6.07387 23.6469 6.22606C23.5778 6.371 23.4629 6.47188 23.3023 6.52871ZM24.5335 11.36L23.124 7.37781L23.9751 7.07659L25.3845 11.0588L24.5335 11.36Z" fill="#FEFAE7"/>
<path d="M28.2075 10.356C27.7939 10.4299 27.4573 10.3863 27.1977 10.2251C26.9382 10.0639 26.7674 9.75413 26.6854 9.29583L26.306 7.17478L25.6773 7.28725L25.5438 6.54111L26.1726 6.42864L25.9926 5.42261L26.8813 5.26365L27.0612 6.26968L28.1176 6.08074L28.251 6.82688L27.1947 7.01582L27.5741 9.13687C27.6121 9.34926 27.6851 9.48328 27.7931 9.53894C27.9011 9.59461 28.0557 9.60444 28.2569 9.56845L28.7264 9.48448L28.8614 10.239L28.2075 10.356Z" fill="#FEFAE7"/>
<path d="M33.6957 10.5422C33.2891 10.4614 32.9482 10.2982 32.6728 10.0525C32.3975 9.80672 32.2034 9.50187 32.0904 9.1379C31.9831 8.77503 31.9714 8.38198 32.0555 7.95874C32.1429 7.5188 32.305 7.15447 32.5418 6.86577C32.7786 6.57707 33.0707 6.3746 33.4179 6.25835C33.7719 6.13764 34.1549 6.11822 34.567 6.20009C34.968 6.27975 35.3011 6.43855 35.5664 6.6765C35.8328 6.90888 36.0197 7.19203 36.127 7.52594C36.2399 7.86096 36.2582 8.2206 36.1819 8.60486C36.1664 8.68282 36.1503 8.7491 36.1337 8.80368C36.1226 8.85937 36.1038 8.92509 36.0771 9.00084L32.8945 8.36855C32.8647 8.60577 32.8817 8.82622 32.9455 9.02991C33.0103 9.22803 33.1185 9.39714 33.2701 9.53725C33.4229 9.67179 33.6106 9.76118 33.8334 9.80544C34.0728 9.85301 34.2866 9.84049 34.4747 9.76787C34.6694 9.69079 34.8285 9.56031 34.9519 9.37642L35.8708 9.55897C35.7486 9.79519 35.5807 9.99918 35.3671 10.1709C35.1591 10.3438 34.9149 10.466 34.6343 10.5377C34.3538 10.6093 34.0409 10.6108 33.6957 10.5422ZM33.0273 7.74371L35.3245 8.20008C35.3775 7.87487 35.3137 7.59881 35.133 7.37188C34.9535 7.13939 34.7078 6.99217 34.3959 6.93021C34.1174 6.87489 33.8469 6.91087 33.5843 7.03814C33.3217 7.16542 33.136 7.40061 33.0273 7.74371Z" fill="#FEFAE7"/>
<path d="M37.4263 11.6938C37.1844 11.5684 36.9848 11.4105 36.8276 11.2203C36.673 11.0251 36.5796 10.8104 36.5475 10.5763C36.5153 10.3422 36.562 10.1042 36.6874 9.86222C36.8363 9.57489 37.0258 9.38212 37.2558 9.28389C37.4934 9.18324 37.7541 9.15529 38.0379 9.20006C38.3293 9.2424 38.6212 9.33934 38.9135 9.49089L39.8663 9.98473C39.9786 9.76797 40.0335 9.57577 40.0308 9.40813C40.0308 9.23545 39.986 9.08751 39.8964 8.96431C39.8093 8.83607 39.6852 8.73014 39.5239 8.64653C39.3122 8.53679 39.0995 8.49052 38.886 8.50772C38.6801 8.5225 38.5021 8.62529 38.352 8.8161L37.5429 8.39673C37.7092 8.13759 37.9202 7.95275 38.1757 7.8422C38.4363 7.73426 38.7163 7.6939 39.0155 7.72111C39.3148 7.74833 39.603 7.83379 39.8803 7.9775C40.2432 8.16563 40.5079 8.38915 40.6742 8.64806C40.8483 8.90454 40.9318 9.18129 40.925 9.4783C40.9231 9.77793 40.8438 10.079 40.6871 10.3814L40.0913 11.5307C40.0206 11.6795 39.9947 11.8036 40.0135 11.9029C40.04 11.9998 40.1263 12.0924 40.2723 12.1809L39.9156 12.869C39.714 12.7645 39.5493 12.6503 39.4216 12.5266C39.299 12.4054 39.2133 12.2747 39.1645 12.1343C39.1184 11.9889 39.1055 11.8287 39.1258 11.6538C38.9003 11.7927 38.635 11.8726 38.33 11.8936C38.025 11.9145 37.7237 11.8479 37.4263 11.6938ZM37.9564 11.1339C38.163 11.2411 38.3706 11.2847 38.5791 11.2649C38.7903 11.24 38.9818 11.1666 39.1537 11.0447C39.3283 10.9178 39.4665 10.756 39.5684 10.5594L39.5762 10.5443L38.684 10.0818C38.5378 10.006 38.39 9.95179 38.2407 9.91914C38.0964 9.8891 37.9617 9.89603 37.8366 9.93991C37.7192 9.98137 37.6226 10.0752 37.5468 10.2214C37.4475 10.4129 37.4424 10.5893 37.5315 10.7506C37.6232 10.9069 37.7648 11.0346 37.9564 11.1339Z" fill="#FEFAE7"/>
<path d="M41.5253 14.394C41.281 14.1733 41.0957 13.9295 40.9695 13.6626C40.8472 13.3914 40.7951 13.1187 40.8133 12.8444C40.8315 12.5701 40.9271 12.316 41.1001 12.0821L41.7764 12.6929C41.6689 12.8712 41.6346 13.0659 41.6735 13.277C41.7124 13.4881 41.8266 13.6792 42.0162 13.8505C42.1848 14.0027 42.3541 14.0905 42.5241 14.114C42.698 14.1333 42.8401 14.0819 42.9504 13.9597C43.0456 13.8543 43.084 13.7398 43.0656 13.6161C43.0515 13.4962 43.0048 13.37 42.9257 13.2373C42.8508 13.1085 42.7616 12.9743 42.658 12.8349C42.506 12.6135 42.3741 12.3911 42.2622 12.1676C42.1545 11.948 42.1013 11.7316 42.1025 11.5185C42.1037 11.3054 42.1938 11.0998 42.3726 10.9017C42.5477 10.7079 42.7486 10.5871 42.9753 10.5394C43.21 10.4913 43.4522 10.5111 43.7019 10.5989C43.9516 10.6867 44.1902 10.8333 44.4177 11.0388C44.7591 11.347 44.9655 11.6903 45.037 12.0686C45.1123 12.4426 45.0142 12.8054 44.7427 13.1569L44.098 12.5746C44.2143 12.4119 44.2538 12.2411 44.2166 12.0621C44.1835 11.8869 44.0827 11.7232 43.9142 11.571C43.7583 11.4302 43.6033 11.3476 43.4493 11.3233C43.2991 11.2948 43.1689 11.3416 43.0585 11.4638C42.9824 11.5481 42.9514 11.6501 42.9656 11.77C42.9835 11.8857 43.028 12.01 43.0991 12.1431C43.1782 12.2758 43.2635 12.4101 43.3548 12.5462C43.5279 12.7866 43.6682 13.0166 43.7759 13.2363C43.8835 13.4559 43.9328 13.6725 43.9235 13.886C43.9143 14.0995 43.8148 14.3157 43.6249 14.5344C43.4498 14.7282 43.241 14.8494 42.9982 14.8979C42.7635 14.946 42.5173 14.9264 42.2595 14.839C42.0061 14.7555 41.7613 14.6071 41.5253 14.394Z" fill="#FEFAE7"/>
<path d="M41.8226 17.0721L44.0595 16.7232L46.4652 13.0331L47.0124 13.8658L45.1186 16.598L48.4061 15.9869L48.9252 16.7769L42.3464 17.8692L41.8226 17.0721Z" fill="#FEFAE7"/>
<path d="M47.3557 19.3353L51.219 17.7094L51.5736 18.6132L47.6357 20.0488L47.3557 19.3353ZM45.7895 20.3799C45.7272 20.2213 45.7282 20.0685 45.7925 19.9213C45.862 19.772 45.9734 19.6673 46.1266 19.6072C46.2799 19.547 46.4301 19.549 46.5773 19.6133C46.7298 19.6754 46.8372 19.7858 46.8994 19.9443C46.9616 20.1029 46.958 20.2568 46.8885 20.4061C46.8242 20.5533 46.7155 20.6569 46.5622 20.7171C46.4089 20.7772 46.2561 20.7762 46.1036 20.7141C45.9564 20.6499 45.8517 20.5385 45.7895 20.3799Z" fill="#FEFAE7"/>
<path d="M27.7711 36.1638C27.8087 33.6352 27.6473 29.823 28.6751 27.2824C27.0812 27.1865 24.5776 27.5962 21.1634 28.511C21.7255 26.7256 25.8689 24.2801 28.8186 24.8916C27.3971 21.5967 21.3978 20.6072 21.3978 20.6072C21.3978 20.6072 27.5048 19.134 30.6213 22.8404C34.1934 20.1677 37.8378 20.4426 39.9883 22.6828C39.9883 22.6828 34.5099 23.2686 32.6725 24.6431C36.2926 24.8006 37.9205 27.0045 38.8262 30.0511C36.7382 28.2489 33.5917 26.6746 31.0659 27.4259C30.3873 29.7977 31.1403 33.4011 31.7003 35.6199M23.7117 38.0215C29.6909 33.7566 36.7714 36.8909 43.3207 35.1196" stroke="#FEFAE7" stroke-width="1.42618" stroke-miterlimit="10" stroke-linecap="round" stroke-linejoin="round"/>
<path d="M27.6132 39.3288C27.6705 39.5426 27.5436 39.7624 27.3298 39.8197C27.116 39.877 26.8962 39.7501 26.8389 39.5363C26.7816 39.3224 26.9085 39.1026 27.1223 39.0453C27.3361 38.988 27.5559 39.1149 27.6132 39.3288Z" fill="black" stroke="#FEFAE7" stroke-width="0.713091"/>
<path d="M32.0025 38.152C32.0598 38.3659 31.9329 38.5856 31.7191 38.6429C31.5053 38.7002 31.2855 38.5733 31.2282 38.3595C31.1709 38.1457 31.2978 37.9259 31.5116 37.8686C31.7254 37.8113 31.9452 37.9382 32.0025 38.152Z" fill="black" stroke="#FEFAE7" stroke-width="0.713091"/>
<path d="M30.95 32.1617L27.8525 32.9917" stroke="#FEFAE7" stroke-width="1.42618" stroke-miterlimit="10" stroke-linecap="round" stroke-linejoin="round"/>
<path d="M30.7812 29.0702L28.0729 29.7959" stroke="#FEFAE7" stroke-width="1.42618" stroke-miterlimit="10" stroke-linecap="round" stroke-linejoin="round"/>
</g>
</g>
<defs>
<filter id="filter0_d_173_1088" x="-53.5638" y="-50.4" width="168.8" height="168.8" filterUnits="userSpaceOnUse" color-interpolation-filters="sRGB">
<feFlood flood-opacity="0" result="BackgroundImageFix"/>
<feColorMatrix in="SourceAlpha" type="matrix" values="0 0 0 0 0 0 0 0 0 0 0 0 0 0 0 0 0 0 127 0" result="hardAlpha"/>
<feOffset dy="4"/>
<feGaussianBlur stdDeviation="27.2"/>
<feComposite in2="hardAlpha" operator="out"/>
<feColorMatrix type="matrix" values="0 0 0 0 0.67451 0 0 0 0 0.745098 0 0 0 0 0.435294 0 0 0 0.1 0"/>
<feBlend mode="normal" in2="BackgroundImageFix" result="effect1_dropShadow_173_1088"/>
<feBlend mode="normal" in="SourceGraphic" in2="effect1_dropShadow_173_1088" result="shape"/>
</filter>
<clipPath id="clip0_173_1088">
<rect width="60" height="60" fill="white" transform="translate(0.836182)"/>
</clipPath>
</defs>
</svg>
