<svg width="170" height="170" viewBox="0 0 170 170" fill="none" xmlns="http://www.w3.org/2000/svg">
<g filter="url(#filter0_d_160_597)">
<path d="M114.836 81C114.836 97.5685 101.405 111 84.8362 111C68.2676 111 54.8362 97.5685 54.8362 81C54.8362 64.4315 68.2676 51 84.8362 51C101.405 51 114.836 64.4315 114.836 81Z" fill="#ACBE6F"/>
<path d="M101.599 87.1034C101.637 86.6849 101.767 86.3716 101.991 86.1635C102.215 85.9554 102.558 85.8719 103.022 85.9132L105.168 86.104L105.225 85.4678L105.98 85.5349L105.923 86.1712L106.941 86.2617L106.861 87.1609L105.843 87.0704L105.748 88.1393L104.993 88.0721L105.088 87.0032L102.942 86.8124C102.727 86.7933 102.579 86.8285 102.497 86.9181C102.414 87.0077 102.364 87.1543 102.346 87.3579L102.304 87.833L101.541 87.7651L101.599 87.1034Z" fill="#FEFAE7"/>
<path d="M101.026 89.6443C101.113 89.3861 101.239 89.1647 101.403 88.9804C101.572 88.7978 101.77 88.6728 101.996 88.6053C102.223 88.5379 102.465 88.5476 102.723 88.6347C103.03 88.7381 103.25 88.8959 103.382 89.1082C103.517 89.3277 103.585 89.5811 103.584 89.8684C103.586 90.1629 103.535 90.4661 103.43 90.7782L103.087 91.7951C103.319 91.8731 103.517 91.898 103.682 91.8698C103.853 91.8434 103.992 91.7766 104.1 91.6692C104.214 91.5637 104.299 91.4248 104.358 91.2526C104.434 91.0267 104.447 90.8095 104.397 90.601C104.351 90.3998 104.223 90.2395 104.011 90.1203L104.302 89.2568C104.584 89.3816 104.799 89.5619 104.947 89.7976C105.093 90.0387 105.176 90.3092 105.195 90.6091C105.213 90.909 105.173 91.2069 105.073 91.5028C104.942 91.8902 104.762 92.1859 104.531 92.3898C104.304 92.6009 104.044 92.7257 103.749 92.7642C103.453 92.8081 103.143 92.7756 102.82 92.6668L101.594 92.2533C101.436 92.2061 101.309 92.1993 101.214 92.2331C101.122 92.2741 101.044 92.3735 100.979 92.5313L100.244 92.2837C100.317 92.0685 100.404 91.8884 100.507 91.7433C100.608 91.6036 100.724 91.4989 100.856 91.4293C100.992 91.3616 101.149 91.3244 101.325 91.3178C101.153 91.1161 101.034 90.8662 100.966 90.5679C100.899 90.2696 100.919 89.9618 101.026 89.6443ZM101.66 90.0828C101.586 90.3034 101.574 90.5152 101.626 90.7182C101.682 90.9231 101.784 91.1012 101.931 91.2525C102.083 91.4057 102.264 91.5176 102.474 91.5883L102.49 91.5938L102.811 90.6414C102.864 90.4854 102.895 90.3311 102.904 90.1785C102.912 90.0313 102.884 89.8993 102.822 89.7823C102.763 89.6726 102.656 89.5915 102.5 89.5389C102.295 89.4699 102.12 89.4918 101.974 89.6044C101.834 89.7189 101.729 89.8783 101.66 90.0828Z" fill="#FEFAE7"/>
<path d="M100.075 92.7192L104.985 96.1017L104.472 96.8451L101.576 94.8494L102.153 97.1498L101.505 98.0895L100.908 95.4133L97.9492 95.805L98.6064 94.8512L101.204 94.5933L99.5631 93.4626L100.075 92.7192Z" fill="#FEFAE7"/>
<path d="M95.8702 97.6544C96.1896 97.3903 96.5315 97.2291 96.896 97.1709C97.2604 97.1127 97.6194 97.1548 97.9728 97.2972C98.322 97.4432 98.634 97.6825 98.909 98.0151C99.1948 98.3607 99.3748 98.7166 99.449 99.0825C99.5232 99.4485 99.4956 99.8028 99.3663 100.145C99.2363 100.496 99.0094 100.805 98.6856 101.073C98.3705 101.333 98.037 101.491 97.6849 101.547C97.3364 101.606 96.9989 101.572 96.6723 101.445C96.3412 101.32 96.0509 101.107 95.8013 100.806C95.7506 100.744 95.7094 100.69 95.6776 100.643C95.6414 100.599 95.6024 100.543 95.5605 100.474L98.0612 98.4065C97.8962 98.2336 97.7145 98.1075 97.5164 98.0282C97.3219 97.9533 97.1224 97.9304 96.918 97.9594C96.7172 97.9928 96.5293 98.0818 96.3543 98.2265C96.1661 98.3821 96.0408 98.5557 95.9783 98.7474C95.915 98.9471 95.9156 99.1528 95.9802 99.3646L95.2582 99.9616C95.1523 99.7176 95.1002 99.4586 95.102 99.1846C95.0994 98.9141 95.159 98.6476 95.2807 98.3849C95.4024 98.1222 95.5989 97.8787 95.8702 97.6544ZM98.4617 98.9042L96.6567 100.397C96.8753 100.643 97.1296 100.768 97.4196 100.771C97.7133 100.779 97.9827 100.682 98.2277 100.479C98.4465 100.298 98.5895 100.066 98.6568 99.7817C98.724 99.4977 98.659 99.2052 98.4617 98.9042Z" fill="#FEFAE7"/>
<path d="M92.7833 105.253C92.9385 105.198 93.0912 105.204 93.2415 105.271C93.3884 105.346 93.4902 105.463 93.547 105.624C93.602 105.779 93.5948 105.929 93.5257 106.074C93.4512 106.221 93.3363 106.322 93.1811 106.377C93.0205 106.433 92.8678 106.427 92.7228 106.358C92.5725 106.291 92.4699 106.18 92.415 106.024C92.3582 105.864 92.366 105.707 92.4387 105.555C92.5078 105.41 92.6227 105.309 92.7833 105.253ZM91.5521 100.421L92.9615 104.403L92.1105 104.705L90.7011 100.722L91.5521 100.421Z" fill="#FEFAE7"/>
<path d="M87.878 101.426C88.2916 101.352 88.6282 101.395 88.8877 101.557C89.1473 101.718 89.318 102.028 89.4 102.486L89.7794 104.607L90.4082 104.494L90.5416 105.241L89.9129 105.353L90.0928 106.359L89.2042 106.518L89.0242 105.512L87.9679 105.701L87.8344 104.955L88.8907 104.766L88.5113 102.645C88.4734 102.432 88.4004 102.298 88.2923 102.243C88.1843 102.187 88.0297 102.177 87.8285 102.213L87.359 102.297L87.2241 101.543L87.878 101.426Z" fill="#FEFAE7"/>
<path d="M82.3899 101.239C82.7964 101.32 83.1374 101.483 83.4127 101.729C83.6881 101.975 83.8822 102.279 83.9951 102.643C84.1025 103.006 84.1141 103.399 84.0301 103.823C83.9427 104.262 83.7806 104.627 83.5437 104.915C83.3069 105.204 83.0149 105.407 82.6676 105.523C82.3137 105.644 81.9307 105.663 81.5186 105.581C81.1176 105.502 80.7845 105.343 80.5192 105.105C80.2527 104.872 80.0659 104.589 79.9585 104.255C79.8456 103.92 79.8274 103.561 79.9037 103.176C79.9192 103.098 79.9353 103.032 79.9519 102.978C79.963 102.922 79.9818 102.856 80.0084 102.78L83.1911 103.413C83.2208 103.175 83.2038 102.955 83.1401 102.751C83.0753 102.553 82.9671 102.384 82.8154 102.244C82.6627 102.109 82.475 102.02 82.2522 101.976C82.0128 101.928 81.799 101.941 81.6109 102.013C81.4161 102.09 81.2571 102.221 81.1337 102.405L80.2148 102.222C80.337 101.986 80.5049 101.782 80.7185 101.61C80.9265 101.437 81.1707 101.315 81.4512 101.244C81.7317 101.172 82.0446 101.17 82.3899 101.239ZM83.0582 104.038L80.7611 103.581C80.708 103.906 80.7719 104.182 80.9525 104.409C81.1321 104.642 81.3778 104.789 81.6897 104.851C81.9681 104.906 82.2387 104.87 82.5013 104.743C82.7639 104.616 82.9496 104.381 83.0582 104.038Z" fill="#FEFAE7"/>
<path d="M78.6592 100.087C78.9012 100.213 79.1008 100.371 79.258 100.561C79.4126 100.756 79.506 100.971 79.5381 101.205C79.5702 101.439 79.5236 101.677 79.3982 101.919C79.2493 102.206 79.0598 102.399 78.8298 102.497C78.5922 102.598 78.3315 102.626 78.0477 102.581C77.7563 102.539 77.4644 102.442 77.172 102.29L76.2193 101.797C76.107 102.013 76.0521 102.205 76.0547 102.373C76.0548 102.546 76.0996 102.694 76.1892 102.817C76.2762 102.945 76.4004 103.051 76.5617 103.135C76.7734 103.244 76.986 103.291 77.1996 103.274C77.4055 103.259 77.5835 103.156 77.7336 102.965L78.5426 103.385C78.3763 103.644 78.1654 103.829 77.9098 103.939C77.6492 104.047 77.3693 104.087 77.0701 104.06C76.7708 104.033 76.4825 103.947 76.2053 103.804C75.8424 103.616 75.5777 103.392 75.4113 103.133C75.2373 102.877 75.1537 102.6 75.1606 102.303C75.1624 102.003 75.2417 101.702 75.3985 101.4L75.9942 100.251C76.065 100.102 76.0909 99.9777 76.072 99.8784C76.0455 99.7815 75.9593 99.6888 75.8133 99.6003L76.1699 98.9123C76.3716 99.0168 76.5362 99.1309 76.6639 99.2547C76.7866 99.3758 76.8723 99.5066 76.9211 99.6469C76.9672 99.7924 76.9801 99.9525 76.9598 100.127C77.1853 99.9885 77.4505 99.9086 77.7556 99.8877C78.0606 99.8667 78.3618 99.9333 78.6592 100.087ZM78.1292 100.647C77.9225 100.54 77.7149 100.497 77.5064 100.516C77.2953 100.541 77.1038 100.615 76.9318 100.737C76.7573 100.863 76.6191 101.025 76.5172 101.222L76.5093 101.237L77.4016 101.699C77.5478 101.775 77.6955 101.829 77.8449 101.862C77.9892 101.892 78.1239 101.885 78.249 101.841C78.3664 101.8 78.463 101.706 78.5387 101.56C78.638 101.368 78.6431 101.192 78.5541 101.031C78.4624 100.874 78.3208 100.747 78.1292 100.647Z" fill="#FEFAE7"/>
<path d="M74.5601 97.3872C74.8045 97.6079 74.9898 97.8518 75.1159 98.1187C75.2383 98.3898 75.2903 98.6626 75.2722 98.9368C75.254 99.2111 75.1584 99.4652 74.9854 99.6992L74.309 99.0884C74.4165 98.9101 74.4508 98.7154 74.412 98.5043C74.3731 98.2932 74.2588 98.102 74.0692 97.9308C73.9006 97.7786 73.7314 97.6907 73.5613 97.6672C73.3875 97.6479 73.2454 97.6994 73.135 97.8216C73.0399 97.9269 73.0015 98.0414 73.0199 98.1651C73.034 98.285 73.0806 98.4113 73.1597 98.5439C73.2346 98.6728 73.3239 98.8069 73.4275 98.9464C73.5794 99.1678 73.7114 99.3902 73.8232 99.6136C73.9309 99.8333 73.9841 100.05 73.9829 100.263C73.9817 100.476 73.8917 100.681 73.7128 100.88C73.5378 101.073 73.3369 101.194 73.1102 101.242C72.8755 101.29 72.6332 101.27 72.3836 101.182C72.1339 101.095 71.8953 100.948 71.6677 100.742C71.3264 100.434 71.12 100.091 71.0485 99.7127C70.9731 99.3387 71.0712 98.9759 71.3428 98.6244L71.9875 99.2066C71.8712 99.3693 71.8316 99.5402 71.8689 99.7192C71.9019 99.8944 72.0027 100.058 72.1713 100.21C72.3272 100.351 72.4821 100.434 72.6361 100.458C72.7863 100.486 72.9166 100.44 73.0269 100.317C73.103 100.233 73.134 100.131 73.1199 100.011C73.1019 99.8956 73.0574 99.7712 72.9863 99.6381C72.9072 99.5055 72.822 99.3711 72.7306 99.2351C72.5576 98.9947 72.4172 98.7646 72.3096 98.545C72.2019 98.3254 72.1527 98.1088 72.1619 97.8952C72.1711 97.6817 72.2707 97.4656 72.4605 97.2469C72.6356 97.0531 72.8445 96.9319 73.0872 96.8833C73.322 96.8352 73.5682 96.8548 73.8259 96.9422C74.0794 97.0258 74.3241 97.1741 74.5601 97.3872Z" fill="#FEFAE7"/>
<path d="M74.2628 94.7092L72.0259 95.058L69.6203 98.7482L69.0731 97.9154L70.9668 95.1832L67.6794 95.7944L67.1603 95.0043L73.739 93.912L74.2628 94.7092Z" fill="#FEFAE7"/>
<path d="M68.7298 92.4465L64.8665 94.0723L64.5118 93.1685L68.4497 91.733L68.7298 92.4465ZM70.296 91.4018C70.3582 91.5604 70.3572 91.7133 70.293 91.8605C70.2235 92.0097 70.1121 92.1144 69.9588 92.1746C69.8055 92.2347 69.6553 92.2327 69.5081 92.1685C69.3556 92.1063 69.2483 91.996 69.1861 91.8374C69.1238 91.6788 69.1275 91.5249 69.197 91.3757C69.2612 91.2285 69.37 91.1248 69.5232 91.0647C69.6765 91.0045 69.8294 91.0055 69.9819 91.0677C70.1291 91.1319 70.2338 91.2433 70.296 91.4018Z" fill="#FEFAE7"/>
<path d="M68.4862 75.6784C68.449 76.0969 68.3185 76.4102 68.0948 76.6183C67.8711 76.8264 67.5273 76.9098 67.0636 76.8686L64.9173 76.6777L64.8608 77.3139L64.1058 77.2468L64.1623 76.6106L63.1444 76.52L63.2243 75.6208L64.2423 75.7113L64.3374 74.6425L65.0924 74.7096L64.9973 75.7785L67.1436 75.9694C67.3585 75.9885 67.507 75.9532 67.589 75.8636C67.6711 75.774 67.7212 75.6274 67.7393 75.4238L67.7815 74.9488L68.545 75.0167L68.4862 75.6784Z" fill="#FEFAE7"/>
<path d="M69.0594 73.1369C68.9723 73.3952 68.8468 73.6165 68.6828 73.8009C68.5134 73.9835 68.3155 74.1085 68.089 74.1759C67.8626 74.2434 67.6202 74.2336 67.362 74.1465C67.0553 74.0432 66.8359 73.8853 66.7037 73.673C66.568 73.4535 66.5006 73.2001 66.5016 72.9128C66.499 72.6184 66.5503 72.3151 66.6555 72.0031L66.9983 70.9862C66.7669 70.9082 66.5686 70.8833 66.4033 70.9114C66.2327 70.9378 66.0933 71.0047 65.9852 71.112C65.8717 71.2176 65.786 71.3564 65.7279 71.5286C65.6518 71.7546 65.6385 71.9718 65.688 72.1802C65.734 72.3815 65.8628 72.5417 66.0742 72.6609L65.7831 73.5245C65.5017 73.3996 65.2868 73.2194 65.1386 72.9837C64.9922 72.7426 64.9096 72.4721 64.8909 72.1722C64.8721 71.8722 64.9126 71.5743 65.0124 71.2784C65.143 70.891 65.3235 70.5954 65.554 70.3915C65.781 70.1804 66.0417 70.0556 66.3363 70.0171C66.6327 69.9732 66.9423 70.0057 67.2651 70.1145L68.4919 70.528C68.6497 70.5752 68.7763 70.5819 68.8715 70.5481C68.9632 70.5071 69.0417 70.4077 69.1068 70.25L69.8413 70.4975C69.7687 70.7127 69.681 70.8929 69.5782 71.038C69.4772 71.1777 69.361 71.2823 69.2297 71.3519C69.093 71.4197 68.9367 71.4568 68.7607 71.4634C68.9324 71.6651 69.0518 71.9151 69.1191 72.2134C69.1863 72.5116 69.1664 72.8195 69.0594 73.1369ZM68.4253 72.6985C68.4996 72.4779 68.5111 72.2661 68.4597 72.063C68.403 71.8581 68.3012 71.68 68.1545 71.5287C68.0024 71.3756 67.8215 71.2637 67.6116 71.1929L67.5955 71.1875L67.2745 72.1398C67.2219 72.2958 67.1908 72.4501 67.1813 72.6027C67.1737 72.7499 67.201 72.882 67.2635 72.9989C67.3224 73.1086 67.4298 73.1898 67.5858 73.2424C67.7903 73.3113 67.9654 73.2894 68.1112 73.1768C68.2517 73.0624 68.3564 72.9029 68.4253 72.6985Z" fill="#FEFAE7"/>
<path d="M70.0104 70.062L65.1011 66.6796L65.6133 65.9362L68.5098 67.9318L67.9331 65.6315L68.5806 64.6917L69.1775 67.368L72.1365 66.9762L71.4793 67.93L68.8815 68.1879L70.5226 69.3186L70.0104 70.062Z" fill="#FEFAE7"/>
<path d="M74.2153 65.1264C73.8959 65.3905 73.5539 65.5517 73.1895 65.6099C72.825 65.6681 72.4661 65.626 72.1126 65.4836C71.7635 65.3376 71.4515 65.0983 71.1765 64.7657C70.8907 64.42 70.7107 64.0642 70.6365 63.6982C70.5623 63.3323 70.5898 62.978 70.7191 62.6354C70.8491 62.2848 71.0761 61.9756 71.3999 61.7078C71.7149 61.4474 72.0485 61.2894 72.4006 61.2341C72.749 61.1744 73.0865 61.2084 73.4132 61.3362C73.7442 61.4603 74.0345 61.6733 74.2842 61.9753C74.3348 62.0365 74.3761 62.0908 74.4079 62.1382C74.444 62.182 74.4831 62.2381 74.525 62.3066L72.0242 64.3742C72.1893 64.5472 72.3709 64.6733 72.5691 64.7526C72.7636 64.8275 72.9631 64.8504 73.1675 64.8214C73.3682 64.788 73.5561 64.6989 73.7312 64.5542C73.9193 64.3987 74.0447 64.225 74.1072 64.0333C74.1705 63.8337 74.1698 63.6279 74.1052 63.4161L74.8272 62.8192C74.9332 63.0631 74.9852 63.3221 74.9834 63.5962C74.986 63.8666 74.9265 64.1332 74.8048 64.3959C74.6831 64.6586 74.4866 64.9021 74.2153 65.1264ZM71.6237 63.8765L73.4288 62.3841C73.2102 62.1376 72.9559 62.0126 72.6658 62.0093C72.3721 62.0017 72.1028 62.0991 71.8577 62.3017C71.639 62.4826 71.4959 62.7151 71.4287 62.9991C71.3614 63.283 71.4265 63.5755 71.6237 63.8765Z" fill="#FEFAE7"/>
<path d="M77.3023 57.5287C77.1471 57.5837 76.9943 57.5775 76.8441 57.5102C76.6972 57.4357 76.5954 57.3182 76.5386 57.1576C76.4836 57.0024 76.4907 56.8523 76.5599 56.7074C76.6344 56.5605 76.7493 56.4596 76.9045 56.4047C77.0651 56.3479 77.2178 56.354 77.3627 56.4232C77.513 56.4905 77.6156 56.6017 77.6706 56.7569C77.7274 56.9175 77.7195 57.0739 77.6469 57.2261C77.5778 57.371 77.4629 57.4719 77.3023 57.5287ZM78.5335 62.36L77.124 58.3778L77.9751 58.0766L79.3845 62.0588L78.5335 62.36Z" fill="#FEFAE7"/>
<path d="M82.2075 61.356C81.7939 61.4299 81.4573 61.3863 81.1977 61.2251C80.9382 61.0639 80.7674 60.7541 80.6854 60.2958L80.306 58.1748L79.6773 58.2873L79.5438 57.5411L80.1726 57.4286L79.9926 56.4226L80.8813 56.2637L81.0612 57.2697L82.1176 57.0807L82.251 57.8269L81.1947 58.0158L81.5741 60.1369C81.6121 60.3493 81.6851 60.4833 81.7931 60.5389C81.9011 60.5946 82.0557 60.6044 82.2569 60.5685L82.7264 60.4845L82.8614 61.239L82.2075 61.356Z" fill="#FEFAE7"/>
<path d="M87.6957 61.5422C87.2891 61.4614 86.9482 61.2982 86.6728 61.0525C86.3975 60.8067 86.2034 60.5019 86.0904 60.1379C85.9831 59.775 85.9714 59.382 86.0555 58.9587C86.1429 58.5188 86.305 58.1545 86.5418 57.8658C86.7786 57.5771 87.0707 57.3746 87.4179 57.2583C87.7719 57.1376 88.1549 57.1182 88.567 57.2001C88.968 57.2797 89.3011 57.4386 89.5664 57.6765C89.8328 57.9089 90.0197 58.192 90.127 58.5259C90.2399 58.861 90.2582 59.2206 90.1819 59.6049C90.1664 59.6828 90.1503 59.7491 90.1337 59.8037C90.1226 59.8594 90.1038 59.9251 90.0771 60.0008L86.8945 59.3686C86.8647 59.6058 86.8817 59.8262 86.9455 60.0299C87.0103 60.228 87.1185 60.3971 87.2701 60.5372C87.4229 60.6718 87.6106 60.7612 87.8334 60.8054C88.0728 60.853 88.2866 60.8405 88.4747 60.7679C88.6694 60.6908 88.8285 60.5603 88.9519 60.3764L89.8708 60.559C89.7486 60.7952 89.5807 60.9992 89.3671 61.1709C89.1591 61.3438 88.9149 61.466 88.6343 61.5377C88.3538 61.6093 88.0409 61.6108 87.6957 61.5422ZM87.0273 58.7437L89.3245 59.2001C89.3775 58.8749 89.3137 58.5988 89.133 58.3719C88.9535 58.1394 88.7078 57.9922 88.3959 57.9302C88.1174 57.8749 87.8469 57.9109 87.5843 58.0381C87.3217 58.1654 87.136 58.4006 87.0273 58.7437Z" fill="#FEFAE7"/>
<path d="M91.4263 62.6938C91.1844 62.5684 90.9848 62.4105 90.8276 62.2203C90.673 62.0251 90.5796 61.8104 90.5475 61.5763C90.5153 61.3422 90.562 61.1042 90.6874 60.8622C90.8363 60.5749 91.0258 60.3821 91.2558 60.2839C91.4934 60.1832 91.7541 60.1553 92.0379 60.2001C92.3293 60.2424 92.6212 60.3393 92.9135 60.4909L93.8663 60.9847C93.9786 60.768 94.0335 60.5758 94.0308 60.4081C94.0308 60.2355 93.986 60.0875 93.8964 59.9643C93.8093 59.8361 93.6852 59.7301 93.5239 59.6465C93.3122 59.5368 93.0995 59.4905 92.886 59.5077C92.6801 59.5225 92.5021 59.6253 92.352 59.8161L91.5429 59.3967C91.7092 59.1376 91.9202 58.9527 92.1757 58.8422C92.4363 58.7343 92.7163 58.6939 93.0155 58.7211C93.3148 58.7483 93.603 58.8338 93.8803 58.9775C94.2432 59.1656 94.5079 59.3891 94.6742 59.6481C94.8483 59.9045 94.9318 60.1813 94.925 60.4783C94.9231 60.7779 94.8438 61.079 94.6871 61.3814L94.0913 62.5307C94.0206 62.6795 93.9947 62.8036 94.0135 62.9029C94.04 62.9998 94.1263 63.0924 94.2723 63.1809L93.9156 63.869C93.714 63.7645 93.5493 63.6503 93.4216 63.5266C93.299 63.4054 93.2133 63.2747 93.1645 63.1343C93.1184 62.9889 93.1055 62.8287 93.1258 62.6538C92.9003 62.7927 92.635 62.8726 92.33 62.8936C92.025 62.9145 91.7237 62.8479 91.4263 62.6938ZM91.9564 62.1339C92.163 62.2411 92.3706 62.2847 92.5791 62.2649C92.7903 62.24 92.9818 62.1666 93.1537 62.0447C93.3283 61.9178 93.4665 61.756 93.5684 61.5594L93.5762 61.5443L92.684 61.0818C92.5378 61.006 92.39 60.9518 92.2407 60.9191C92.0964 60.8891 91.9617 60.896 91.8366 60.9399C91.7192 60.9814 91.6226 61.0752 91.5468 61.2214C91.4475 61.4129 91.4424 61.5893 91.5315 61.7506C91.6232 61.9069 91.7648 62.0346 91.9564 62.1339Z" fill="#FEFAE7"/>
<path d="M95.5253 65.394C95.281 65.1733 95.0957 64.9295 94.9695 64.6626C94.8472 64.3914 94.7951 64.1187 94.8133 63.8444C94.8315 63.5701 94.9271 63.316 95.1001 63.0821L95.7764 63.6929C95.6689 63.8712 95.6346 64.0659 95.6735 64.277C95.7124 64.4881 95.8266 64.6792 96.0162 64.8505C96.1848 65.0027 96.3541 65.0905 96.5241 65.114C96.698 65.1333 96.8401 65.0819 96.9504 64.9597C97.0456 64.8543 97.084 64.7398 97.0656 64.6161C97.0515 64.4962 97.0048 64.37 96.9257 64.2373C96.8508 64.1085 96.7616 63.9743 96.658 63.8349C96.506 63.6135 96.3741 63.3911 96.2622 63.1676C96.1545 62.948 96.1013 62.7316 96.1025 62.5185C96.1037 62.3054 96.1938 62.0998 96.3726 61.9017C96.5477 61.7079 96.7486 61.5871 96.9753 61.5394C97.21 61.4913 97.4522 61.5111 97.7019 61.5989C97.9516 61.6867 98.1902 61.8333 98.4177 62.0388C98.7591 62.347 98.9655 62.6903 99.037 63.0686C99.1123 63.4426 99.0142 63.8054 98.7427 64.1569L98.098 63.5746C98.2143 63.4119 98.2538 63.2411 98.2166 63.0621C98.1835 62.8869 98.0827 62.7232 97.9142 62.571C97.7583 62.4302 97.6033 62.3476 97.4493 62.3233C97.2991 62.2948 97.1689 62.3416 97.0585 62.4638C96.9824 62.5481 96.9514 62.6501 96.9656 62.77C96.9835 62.8857 97.028 63.01 97.0991 63.1431C97.1782 63.2758 97.2635 63.4101 97.3548 63.5462C97.5279 63.7866 97.6682 64.0166 97.7759 64.2363C97.8835 64.4559 97.9328 64.6725 97.9235 64.886C97.9143 65.0995 97.8148 65.3157 97.6249 65.5344C97.4498 65.7282 97.241 65.8494 96.9982 65.8979C96.7635 65.946 96.5173 65.9264 96.2595 65.839C96.0061 65.7555 95.7613 65.6071 95.5253 65.394Z" fill="#FEFAE7"/>
<path d="M95.8226 68.0721L98.0595 67.7232L100.465 64.0331L101.012 64.8658L99.1186 67.598L102.406 66.9869L102.925 67.7769L96.3464 68.8692L95.8226 68.0721Z" fill="#FEFAE7"/>
<path d="M101.356 70.3353L105.219 68.7094L105.574 69.6132L101.636 71.0488L101.356 70.3353ZM99.7895 71.3799C99.7272 71.2213 99.7282 71.0685 99.7925 70.9213C99.862 70.772 99.9734 70.6673 100.127 70.6072C100.28 70.547 100.43 70.549 100.577 70.6133C100.73 70.6754 100.837 70.7858 100.899 70.9443C100.962 71.1029 100.958 71.2568 100.888 71.4061C100.824 71.5533 100.715 71.6569 100.562 71.7171C100.409 71.7772 100.256 71.7762 100.104 71.7141C99.9564 71.6499 99.8517 71.5385 99.7895 71.3799Z" fill="#FEFAE7"/>
<path d="M81.7711 87.1638C81.8087 84.6352 81.6473 80.823 82.6751 78.2824C81.0812 78.1865 78.5776 78.5962 75.1634 79.511C75.7255 77.7256 79.8689 75.2801 82.8186 75.8916C81.3971 72.5967 75.3978 71.6072 75.3978 71.6072C75.3978 71.6072 81.5048 70.134 84.6213 73.8404C88.1934 71.1677 91.8378 71.4426 93.9883 73.6828C93.9883 73.6828 88.5099 74.2686 86.6725 75.6431C90.2926 75.8006 91.9205 78.0045 92.8262 81.0511C90.7382 79.2489 87.5917 77.6746 85.0659 78.4259C84.3873 80.7977 85.1403 84.4011 85.7003 86.6199M77.7117 89.0215C83.6909 84.7566 90.7714 87.8909 97.3207 86.1196" stroke="#FEFAE7" stroke-width="1.42618" stroke-miterlimit="10" stroke-linecap="round" stroke-linejoin="round"/>
<path d="M81.6132 90.3288C81.6705 90.5426 81.5436 90.7624 81.3298 90.8197C81.116 90.877 80.8962 90.7501 80.8389 90.5363C80.7816 90.3224 80.9085 90.1026 81.1223 90.0453C81.3361 89.988 81.5559 90.1149 81.6132 90.3288Z" fill="black" stroke="#FEFAE7" stroke-width="0.713091"/>
<path d="M86.0025 89.152C86.0598 89.3659 85.9329 89.5856 85.7191 89.6429C85.5053 89.7002 85.2855 89.5733 85.2282 89.3595C85.1709 89.1457 85.2978 88.9259 85.5116 88.8686C85.7254 88.8113 85.9452 88.9382 86.0025 89.152Z" fill="black" stroke="#FEFAE7" stroke-width="0.713091"/>
<path d="M84.95 83.1617L81.8525 83.9917" stroke="#FEFAE7" stroke-width="1.42618" stroke-miterlimit="10" stroke-linecap="round" stroke-linejoin="round"/>
<path d="M84.7812 80.0702L82.0729 80.7959" stroke="#FEFAE7" stroke-width="1.42618" stroke-miterlimit="10" stroke-linecap="round" stroke-linejoin="round"/>
</g>
<defs>
<filter id="filter0_d_160_597" x="0.43618" y="0.599998" width="168.8" height="168.8" filterUnits="userSpaceOnUse" color-interpolation-filters="sRGB">
<feFlood flood-opacity="0" result="BackgroundImageFix"/>
<feColorMatrix in="SourceAlpha" type="matrix" values="0 0 0 0 0 0 0 0 0 0 0 0 0 0 0 0 0 0 127 0" result="hardAlpha"/>
<feOffset dy="4"/>
<feGaussianBlur stdDeviation="27.2"/>
<feComposite in2="hardAlpha" operator="out"/>
<feColorMatrix type="matrix" values="0 0 0 0 0.67451 0 0 0 0 0.745098 0 0 0 0 0.435294 0 0 0 0.1 0"/>
<feBlend mode="normal" in2="BackgroundImageFix" result="effect1_dropShadow_160_597"/>
<feBlend mode="normal" in="SourceGraphic" in2="effect1_dropShadow_160_597" result="shape"/>
</filter>
</defs>
</svg>
