<svg width="61" height="60" viewBox="0 0 61 60" fill="none" xmlns="http://www.w3.org/2000/svg">
<circle cx="30.8362" cy="30" r="30" fill="#FCE2A9"/>
<path d="M28.9287 38.6706C27.8795 38.6706 26.9814 38.297 26.2343 37.5499C25.4872 36.8028 25.1136 35.9047 25.1136 34.8555C25.1136 33.8064 25.4872 32.9083 26.2343 32.1612C26.9814 31.4141 27.8795 31.0405 28.9287 31.0405C29.2943 31.0405 29.6321 31.0842 29.942 31.1716C30.252 31.2591 30.5501 31.3902 30.8362 31.5651V21.5029H36.5587V25.318H32.7437V34.8555C32.7437 35.9047 32.3702 36.8028 31.623 37.5499C30.8759 38.297 29.9778 38.6706 28.9287 38.6706Z" fill="#EF7133"/>
<path d="M52.7189 31.0065C52.7568 30.6151 52.8821 30.2855 53.0948 30.0178C53.3124 29.7558 53.5846 29.5633 53.9115 29.44C54.2379 29.3221 54.5942 29.2818 54.9803 29.3192C55.3612 29.356 55.6978 29.4633 55.9903 29.6411C56.2876 29.8246 56.5126 30.0653 56.6653 30.363C56.8228 30.6666 56.8827 31.0141 56.8448 31.4055C56.8167 31.6964 56.7303 31.955 56.5856 32.1813C56.4462 32.4081 56.2609 32.585 56.0297 32.7122L58.2355 32.9255L58.1534 33.7745L52.5993 33.2374L52.6783 32.4201L53.2923 32.4475C53.0983 32.3006 52.9467 32.1017 52.8375 31.8509C52.7282 31.6001 52.6887 31.3186 52.7189 31.0065ZM53.4407 31.2445C53.4167 31.4931 53.4541 31.713 53.5531 31.9041C53.6521 32.0952 53.7975 32.2481 53.9893 32.3627C54.1811 32.4774 54.4013 32.5467 54.6499 32.5707C54.9355 32.5984 55.1816 32.5661 55.388 32.4739C55.594 32.3871 55.7588 32.2562 55.8825 32.0813C56.0057 31.9117 56.078 31.7158 56.0995 31.4936C56.1215 31.2661 56.0856 31.0571 55.992 30.8665C55.8983 30.6759 55.7587 30.5183 55.5732 30.3936C55.3872 30.2741 55.1593 30.2014 54.8895 30.1753C54.6251 30.1497 54.3872 30.1801 54.176 30.2665C53.9647 30.3528 53.7949 30.4806 53.6664 30.6497C53.5379 30.8188 53.4627 31.0171 53.4407 31.2445Z" fill="#EF7133"/>
<path d="M51.8811 35.4577C51.9924 35.0916 52.1716 34.7851 52.4188 34.538C52.6696 34.2976 52.9712 34.1365 53.3237 34.0548C53.6747 33.9781 54.0536 34.0016 54.4604 34.1252C54.8672 34.2488 55.1918 34.4418 55.4342 34.7043C55.675 34.9718 55.8295 35.277 55.8975 35.6198C55.9691 35.9693 55.9493 36.327 55.838 36.6931C55.7268 37.0593 55.5476 37.3658 55.3004 37.6129C55.0531 37.8599 54.755 38.0276 54.4061 38.116C54.0571 38.2043 53.6766 38.186 53.2648 38.0608C52.8783 37.9434 52.5614 37.7527 52.3139 37.4887C52.0648 37.2298 51.8995 36.924 51.8177 36.5715C51.7411 36.2205 51.7622 35.8493 51.8811 35.4577ZM52.5805 35.6785C52.5126 35.9023 52.5082 36.1176 52.5676 36.3244C52.6254 36.5364 52.7355 36.7226 52.8978 36.883C53.0652 37.0449 53.2735 37.1637 53.5226 37.2394C53.7769 37.3167 54.0135 37.333 54.2326 37.2885C54.4551 37.2506 54.6435 37.1606 54.7977 37.0186C54.957 36.8782 55.0715 36.6935 55.141 36.4647C55.2136 36.2257 55.2202 36.0028 55.1609 35.7959C55.1 35.5942 54.9868 35.4181 54.8214 35.2679C54.6595 35.1243 54.4565 35.0154 54.2125 34.9413C53.9328 34.8563 53.6809 34.8354 53.4568 34.8784C53.2311 34.9264 53.0437 35.0222 52.8946 35.1658C52.7455 35.3093 52.6408 35.4802 52.5805 35.6785Z" fill="#EF7133"/>
<path d="M51.1801 37.9105L54.6768 39.7559L54.2973 40.475L53.7752 40.2175C53.9059 40.4367 53.9684 40.677 53.9627 40.9384C53.9544 41.2044 53.8883 41.455 53.7643 41.69C53.5485 42.0988 53.2444 42.362 52.8519 42.4793C52.4642 42.5992 52.0165 42.5252 51.5089 42.2573L49.4574 41.1745L49.8518 40.4273L51.8117 41.4616C52.1266 41.6278 52.4058 41.6851 52.6494 41.6334C52.8977 41.5841 53.0963 41.4185 53.2451 41.1365C53.3915 40.8592 53.413 40.5852 53.3096 40.3143C53.2109 40.0458 52.9947 39.8236 52.661 39.6475L50.7857 38.6577L51.1801 37.9105Z" fill="#EF7133"/>
<path d="M52.1893 43.661L53.4464 45.1121L52.9199 45.8528L51.8475 44.1418L52.1893 43.661Z" fill="#EF7133"/>
<path d="M47.0485 44.199C47.3089 43.9043 47.5811 43.7406 47.8653 43.708C48.1494 43.6753 48.4547 43.8033 48.7813 44.0918L50.2927 45.4271L50.6885 44.9791L51.2202 45.4488L50.8244 45.8968L51.5413 46.5302L50.9818 47.1634L50.2649 46.5301L49.5999 47.2828L49.0682 46.8131L49.7332 46.0603L48.2218 44.725C48.0705 44.5913 47.939 44.5355 47.8274 44.5574C47.7159 44.5794 47.5967 44.662 47.4701 44.8054L47.1745 45.14L46.6368 44.665L47.0485 44.199Z" fill="#EF7133"/>
<path d="M45.0641 46.4138L47.162 49.7651L46.4728 50.1965L46.1819 49.7768C46.1781 50.0111 46.1152 50.2261 45.9931 50.4217C45.8693 50.6245 45.7015 50.7922 45.4898 50.9248C45.2331 51.0855 44.9695 51.1753 44.6991 51.194C44.4271 51.2202 44.1642 51.1558 43.9106 51.0011C43.9232 51.2816 43.8634 51.5416 43.7312 51.7812C43.6018 52.0252 43.4178 52.2219 43.179 52.3713C42.9178 52.5349 42.6519 52.6261 42.3816 52.6448C42.114 52.6681 41.8562 52.6069 41.6083 52.4612C41.3558 52.3183 41.1267 52.0824 40.9208 51.7536L39.6857 49.7806L40.3952 49.3365L41.571 51.2149C41.76 51.5167 41.9705 51.7078 42.2027 51.7882C42.4348 51.8686 42.6792 51.8284 42.936 51.6677C43.1928 51.5069 43.3413 51.2885 43.3817 51.0125C43.422 50.7364 43.3421 50.4385 43.1419 50.1187L42.0168 48.3214L42.7263 47.8773L43.9021 49.7556C44.091 50.0574 44.3038 50.2471 44.5405 50.3247C44.7771 50.4022 45.0193 50.3635 45.2671 50.2084C45.5013 50.0618 45.6482 49.8507 45.7077 49.5752C45.7655 49.307 45.6873 49.0018 45.473 48.6594L44.3479 46.8621L45.0641 46.4138Z" fill="#EF7133"/>
<path d="M40.4317 54.2657C40.5752 54.2094 40.7183 54.2103 40.861 54.2685C41.0007 54.3335 41.0997 54.4403 41.1579 54.5887C41.2142 54.7322 41.2123 54.8728 41.1522 55.0105C41.0871 55.1502 40.9829 55.2482 40.8394 55.3045C40.691 55.3628 40.5479 55.3618 40.4101 55.3017C40.2674 55.2436 40.1679 55.1427 40.1116 54.9993C40.0534 54.8509 40.0558 54.7043 40.1189 54.5597C40.179 54.4219 40.2833 54.3239 40.4317 54.2657ZM39.1273 49.7852L40.5716 53.4658L39.7851 53.7744L38.3407 50.0939L39.1273 49.7852Z" fill="#EF7133"/>
<path d="M36.0967 50.6978C36.3948 50.6194 36.6807 50.5992 36.9544 50.6371C37.2295 50.6802 37.4698 50.7792 37.6753 50.9339C37.8809 51.0887 38.0309 51.2938 38.1255 51.5492L37.3006 51.766C37.216 51.5904 37.0811 51.4638 36.8958 51.3861C36.7105 51.3084 36.5022 51.3 36.271 51.3608C36.0654 51.4148 35.9098 51.5024 35.8043 51.6236C35.7001 51.7499 35.6676 51.8875 35.7068 52.0366C35.7406 52.1651 35.8106 52.2538 35.9169 52.3028C36.0181 52.3532 36.1408 52.3813 36.2853 52.3873C36.4246 52.3946 36.5754 52.3935 36.7377 52.3838C36.989 52.3782 37.2308 52.3888 37.4631 52.4156C37.6903 52.4438 37.8871 52.513 38.0534 52.6231C38.2197 52.7333 38.3347 52.9091 38.3982 53.1507C38.4603 53.3871 38.452 53.6063 38.3732 53.8084C38.2907 54.0169 38.151 54.1965 37.9544 54.3471C37.7577 54.4977 37.5205 54.6095 37.243 54.6824C36.8267 54.7918 36.4521 54.7777 36.1191 54.6399C35.7875 54.5073 35.5536 54.2446 35.4174 53.8518L36.2038 53.6451C36.2716 53.8196 36.3852 53.9381 36.5445 54.0006C36.6987 54.0645 36.8786 54.0694 37.0841 54.0153C37.2743 53.9654 37.4184 53.8863 37.5163 53.7781C37.6156 53.6751 37.6457 53.549 37.6065 53.4C37.5795 53.2972 37.5154 53.2206 37.4142 53.1703C37.3144 53.1251 37.1942 53.0962 37.0536 53.0838C36.9091 53.0778 36.7602 53.0757 36.6068 53.0776C36.3299 53.0899 36.0778 53.082 35.8506 53.0538C35.6234 53.0256 35.4285 52.9532 35.266 52.8366C35.1034 52.72 34.9851 52.5313 34.9111 52.2705C34.8489 52.0341 34.861 51.8083 34.9474 51.5933C35.0299 51.3848 35.1715 51.202 35.3719 51.0449C35.5673 50.8891 35.8089 50.7734 36.0967 50.6978Z" fill="#EF7133"/>
<path d="M32.6388 51.3043C32.9456 51.2746 33.2311 51.3004 33.4952 51.3817C33.7598 51.4682 33.9812 51.6043 34.1593 51.7899C34.3375 51.9756 34.4528 52.202 34.5053 52.4692L33.6564 52.5513C33.6009 52.3645 33.488 52.2179 33.3175 52.1116C33.1471 52.0053 32.9428 51.9636 32.7048 51.9867C32.4932 52.0071 32.3256 52.0687 32.2021 52.1714C32.0791 52.2794 32.025 52.4101 32.0398 52.5635C32.0526 52.6957 32.1075 52.7945 32.2046 52.8599C32.2964 52.9258 32.4131 52.9732 32.5547 53.0022C32.6911 53.0318 32.8401 53.0547 33.0019 53.0711C33.2508 53.1058 33.4878 53.1549 33.7129 53.2186C33.9326 53.2828 34.1158 53.3825 34.2624 53.5178C34.4089 53.6532 34.4942 53.8451 34.5183 54.0938C34.5418 54.3371 34.4985 54.5522 34.3885 54.739C34.2736 54.9316 34.1071 55.0865 33.8888 55.2037C33.6706 55.321 33.4186 55.3934 33.133 55.421C32.7045 55.4624 32.337 55.3885 32.0304 55.1993C31.7243 55.0153 31.5354 54.7186 31.4638 54.309L32.2731 54.2308C32.3121 54.4139 32.4053 54.549 32.5526 54.6362C32.6945 54.7239 32.8713 54.7576 33.0829 54.7371C33.2786 54.7182 33.4334 54.6632 33.5474 54.572C33.6619 54.4862 33.7118 54.3666 33.6969 54.2132C33.6867 54.1074 33.6357 54.0216 33.5439 53.9557C33.4526 53.8951 33.3385 53.8474 33.2017 53.8126C33.0601 53.7836 32.9134 53.7577 32.7617 53.735C32.4863 53.7029 32.2387 53.6548 32.019 53.5906C31.7992 53.5265 31.6184 53.4238 31.4766 53.2827C31.3349 53.1416 31.2483 52.9364 31.2169 52.6671C31.1934 52.4238 31.2414 52.2029 31.3611 52.0045C31.4759 51.8118 31.6448 51.654 31.8679 51.531C32.0856 51.4085 32.3426 51.3329 32.6388 51.3043Z" fill="#EF7133"/>
<path d="M27.6121 51.2277C27.8641 51.2669 28.0883 51.3474 28.2844 51.4693C28.4798 51.5964 28.6267 51.759 28.725 51.9571C28.8233 52.1552 28.8529 52.3803 28.8138 52.6324C28.7673 52.9317 28.6567 53.1593 28.4819 53.315C28.3011 53.4751 28.0781 53.5776 27.813 53.6225C27.5418 53.6719 27.254 53.6729 26.9494 53.6256L25.9569 53.4715C25.9218 53.6973 25.9304 53.8842 25.9828 54.0321C26.0343 54.1854 26.1181 54.3032 26.2344 54.3858C26.3498 54.4737 26.4916 54.5306 26.6596 54.5567C26.8802 54.591 27.0826 54.5686 27.267 54.4897C27.4453 54.4152 27.5725 54.2709 27.6488 54.0569L28.4916 54.1877C28.4213 54.4672 28.2893 54.6941 28.0955 54.8684C27.8965 55.0418 27.6602 55.1611 27.3866 55.2262C27.1129 55.2913 26.8317 55.3014 26.5429 55.2565C26.1648 55.1978 25.8633 55.0784 25.6385 54.8983C25.4077 54.7227 25.251 54.5021 25.1685 54.2365C25.0808 53.9701 25.0614 53.6794 25.1103 53.3643L25.2962 52.167C25.3146 52.0139 25.3006 51.8961 25.2543 51.8136C25.2019 51.7355 25.0977 51.679 24.9418 51.6441L25.0531 50.9272C25.2631 50.9599 25.4433 51.012 25.5935 51.0837C25.7384 51.1547 25.8535 51.2451 25.9386 51.3551C26.0228 51.4704 26.082 51.6087 26.1162 51.7699C26.2748 51.5794 26.4863 51.4294 26.7507 51.3199C27.0151 51.2103 27.3022 51.1796 27.6121 51.2277ZM27.3087 51.8825C27.0934 51.849 26.8962 51.8722 26.7171 51.952C26.5372 52.037 26.3892 52.1592 26.273 52.3186C26.156 52.4833 26.0816 52.668 26.0498 52.8729L26.0474 52.8886L26.9769 53.0329C27.1291 53.0566 27.2764 53.0606 27.4187 53.045C27.5556 53.0287 27.6731 52.9823 27.771 52.9061C27.8628 52.8343 27.9205 52.7223 27.9442 52.57C27.9751 52.3704 27.9271 52.2124 27.8 52.0959C27.672 51.9846 27.5083 51.9134 27.3087 51.8825Z" fill="#EF7133"/>
<path d="M21.103 49.3354C21.3739 49.4584 21.5966 49.6237 21.7708 49.8312C21.938 50.0414 22.0397 50.2802 22.0759 50.5476L22.3554 50.0092L23.0957 50.3453L20.7886 55.4261L20.0193 55.0767L20.9421 53.0444C20.7306 53.176 20.492 53.2515 20.2264 53.271C19.9585 53.2953 19.6795 53.2415 19.3891 53.1097C19.0359 52.9493 18.7684 52.7286 18.5867 52.4476C18.4001 52.1644 18.3014 51.8482 18.2907 51.499C18.2801 51.1498 18.3549 50.7986 18.5153 50.4454C18.6757 50.0921 18.892 49.8022 19.1641 49.5756C19.4341 49.3538 19.7382 49.2176 20.0764 49.1669C20.4075 49.1188 20.7497 49.175 21.103 49.3354ZM20.9561 50.0829C20.7336 49.9818 20.5169 49.9448 20.3063 49.9717C20.0934 50.0034 19.8993 50.0904 19.7238 50.2325C19.5462 50.3794 19.4047 50.5691 19.2992 50.8013C19.1893 51.0433 19.1421 51.2757 19.1576 51.4987C19.1661 51.7243 19.2295 51.9253 19.3478 52.1016C19.4662 52.2779 19.6343 52.4155 19.852 52.5144C20.0649 52.6111 20.2778 52.6436 20.4907 52.6118C20.7013 52.5849 20.8968 52.5015 21.0771 52.3615C21.2503 52.2243 21.3919 52.0346 21.5017 51.7927C21.6072 51.5604 21.6557 51.3315 21.6473 51.1059C21.634 50.8781 21.5692 50.6736 21.4531 50.4924C21.3347 50.3161 21.169 50.1796 20.9561 50.0829Z" fill="#EF7133"/>
<path d="M17.6367 47.322C17.9537 47.5456 18.1833 47.8148 18.3254 48.1297C18.4675 48.4445 18.5177 48.7791 18.476 49.1333C18.4299 49.4845 18.2904 49.8251 18.0577 50.1552C17.8157 50.4982 17.5386 50.7482 17.2263 50.9052C16.914 51.0621 16.5873 51.1243 16.246 51.0917C15.8974 51.0605 15.5624 50.9315 15.2411 50.7048C14.9284 50.4843 14.7038 50.2218 14.5673 49.9175C14.4277 49.6174 14.3755 49.3042 14.4106 48.9778C14.4414 48.6484 14.5625 48.3338 14.7738 48.0341C14.8167 47.9733 14.8556 47.9228 14.8906 47.8824C14.9212 47.839 14.9623 47.7899 15.0139 47.7352L17.4958 49.4857C17.6114 49.2942 17.6807 49.0991 17.7036 48.9007C17.7234 48.7066 17.6951 48.5208 17.6187 48.3433C17.5392 48.1702 17.4126 48.0224 17.2389 47.8999C17.0522 47.7682 16.8646 47.6976 16.6761 47.6882C16.4802 47.6802 16.2945 47.7313 16.1191 47.8417L15.4026 47.3363C15.5969 47.1807 15.818 47.07 16.0659 47.0043C16.3096 46.9355 16.5649 46.9238 16.8321 46.9691C17.0992 47.0145 17.3674 47.1321 17.6367 47.322ZM17.1447 49.9697L15.3533 48.7062C15.1843 48.9642 15.134 49.2246 15.2023 49.4874C15.2675 49.7545 15.4217 49.9738 15.6649 50.1454C15.8821 50.2985 16.1271 50.3706 16.4001 50.3615C16.6731 50.3525 16.9213 50.2219 17.1447 49.9697Z" fill="#EF7133"/>
<path d="M14.9121 45.0603C15.0898 45.2432 15.2203 45.4424 15.3036 45.6579C15.3831 45.877 15.4025 46.0952 15.3618 46.3126C15.321 46.53 15.2092 46.7276 15.0262 46.9053C14.8089 47.1164 14.5836 47.2315 14.3503 47.2506C14.1095 47.2697 13.8698 47.2173 13.631 47.0936C13.3848 46.9698 13.1543 46.7973 12.9395 46.5762L12.2397 45.8557C12.0758 46.0149 11.9702 46.1694 11.9229 46.319C11.8719 46.4724 11.8679 46.617 11.911 46.7529C11.9503 46.8925 12.0292 47.0233 12.1477 47.1453C12.3032 47.3054 12.4783 47.4094 12.6731 47.4574C12.8603 47.5052 13.0487 47.4666 13.2385 47.3416L13.8328 47.9534C13.6084 48.1343 13.3664 48.236 13.1068 48.2585C12.8434 48.2772 12.5829 48.2302 12.3252 48.1175C12.0676 48.0048 11.8369 47.8436 11.6332 47.6339C11.3666 47.3595 11.1978 47.0827 11.1267 46.8035C11.0481 46.5243 11.0557 46.2538 11.1497 45.9921C11.24 45.7266 11.3996 45.4827 11.6283 45.2606L12.4974 44.4163C12.6043 44.3051 12.664 44.2027 12.6766 44.1089C12.6818 44.015 12.6326 43.9072 12.5291 43.7854L13.0495 43.28C13.1976 43.4325 13.31 43.5826 13.3868 43.7302C13.4599 43.8741 13.4973 44.0156 13.499 44.1547C13.4969 44.2974 13.461 44.4435 13.3912 44.5928C13.6325 44.5362 13.8917 44.5437 14.1688 44.6154C14.4458 44.6871 14.6936 44.8353 14.9121 45.0603ZM14.2758 45.4005C14.1239 45.2442 13.9525 45.144 13.7615 45.0999C13.5667 45.0595 13.3749 45.068 13.1861 45.1254C12.9936 45.1865 12.823 45.2892 12.6743 45.4336L12.6629 45.4447L13.3182 46.1194C13.4256 46.23 13.5408 46.3219 13.6637 46.3951C13.783 46.4644 13.9047 46.4981 14.0287 46.4962C14.1452 46.4941 14.2588 46.4394 14.3693 46.332C14.5142 46.1913 14.5709 46.0362 14.5396 45.8666C14.5044 45.7007 14.4165 45.5454 14.2758 45.4005Z" fill="#EF7133"/>
<path d="M11.969 41.6868C12.1957 42.0081 12.2921 42.3108 12.2583 42.5948C12.2244 42.8788 12.0295 43.1463 11.6734 43.3975L10.0253 44.5599L10.3699 45.0485L9.79009 45.4574L9.44551 44.9688L8.6638 45.5202L8.17679 44.8297L8.95849 44.2783L8.37959 43.4575L8.95935 43.0486L9.53826 43.8694L11.1863 42.707C11.3514 42.5906 11.4361 42.4756 11.4405 42.3619C11.4449 42.2483 11.3919 42.1133 11.2816 41.957L11.0244 41.5922L11.6106 41.1787L11.969 41.6868Z" fill="#EF7133"/>
<path d="M9.63509 41.0829L6.24719 43.061L5.80825 42.2653L9.28856 40.4547L9.63509 41.0829ZM10.9618 39.9232C11.0388 40.0628 11.0564 40.2048 11.0147 40.3492C10.9683 40.4962 10.8777 40.6069 10.7427 40.6813C10.6078 40.7557 10.4681 40.7721 10.3237 40.7304C10.1746 40.6912 10.0616 40.6018 9.9846 40.4622C9.90759 40.3226 9.89228 40.1794 9.93866 40.0324C9.98039 39.888 10.0687 39.7786 10.2037 39.7041C10.3386 39.6297 10.4806 39.612 10.6297 39.6512C10.7741 39.6929 10.8848 39.7836 10.9618 39.9232Z" fill="#EF7133"/>
<path d="M9.80038 29.949C9.76253 30.3405 9.63723 30.6701 9.42447 30.9378C9.20694 31.1997 8.93471 31.3923 8.60779 31.5155C8.28138 31.6335 7.9251 31.6738 7.53896 31.6364C7.1581 31.5996 6.82144 31.4923 6.52896 31.3145C6.23171 31.1309 6.00671 30.8903 5.85397 30.5925C5.69646 30.289 5.63662 29.9415 5.67448 29.5501C5.70261 29.2591 5.78901 29.0005 5.93369 28.7743C6.07308 28.5475 6.25837 28.3705 6.48957 28.2434L4.2838 28.0301L4.36589 27.1811L9.92 27.7182L9.84097 28.5354L9.22695 28.5081C9.42097 28.655 9.57259 28.8539 9.68182 29.1047C9.79104 29.3555 9.83056 29.637 9.80038 29.949ZM9.07859 29.7111C9.10263 29.4624 9.06516 29.2426 8.96618 29.0515C8.8672 28.8604 8.72181 28.7075 8.53001 28.5929C8.33821 28.4782 8.11801 28.4089 7.8694 28.3848C7.58376 28.3572 7.33771 28.3895 7.13125 28.4816C6.9253 28.5685 6.76048 28.6994 6.63679 28.8743C6.51361 29.0439 6.44127 29.2398 6.41979 29.462C6.39779 29.6894 6.43364 29.8984 6.52733 30.089C6.62103 30.2796 6.76061 30.4373 6.9461 30.562C7.1321 30.6814 7.35998 30.7542 7.62975 30.7803C7.89423 30.8058 8.13209 30.7754 8.34333 30.6891C8.55456 30.6027 8.72442 30.475 8.85289 30.3059C8.98137 30.1368 9.0566 29.9385 9.07859 29.7111Z" fill="#EF7133"/>
<path d="M10.6381 25.4978C10.5269 25.8639 10.3477 26.1705 10.1005 26.4175C9.84971 26.6579 9.54807 26.819 9.19554 26.9008C8.84456 26.9774 8.46567 26.954 8.05889 26.8304C7.6521 26.7068 7.32751 26.5138 7.08511 26.2513C6.84425 25.9837 6.68981 25.6785 6.62177 25.3357C6.5502 24.9863 6.57002 24.6285 6.68124 24.2624C6.79247 23.8963 6.97169 23.5897 7.21891 23.3427C7.46614 23.0957 7.76424 22.928 8.11323 22.8396C8.46222 22.7512 8.84265 22.7696 9.25452 22.8947C9.64097 23.0121 9.95793 23.2028 10.2054 23.4669C10.4544 23.7258 10.6198 24.0315 10.7016 24.3841C10.7782 24.735 10.7571 25.1063 10.6381 25.4978ZM9.93876 25.277C10.0067 25.0533 10.011 24.838 9.95169 24.6311C9.89389 24.4192 9.78383 24.233 9.6215 24.0726C9.45408 23.9107 9.2458 23.7918 8.99664 23.7161C8.7424 23.6389 8.50576 23.6226 8.28673 23.6671C8.06415 23.705 7.87576 23.795 7.72154 23.937C7.56224 24.0774 7.44783 24.262 7.37832 24.4908C7.30571 24.7298 7.29909 24.9528 7.35843 25.1596C7.41932 25.3614 7.53247 25.5374 7.69789 25.6876C7.85977 25.8312 8.06275 25.9401 8.30682 26.0143C8.58648 26.0992 8.83838 26.1202 9.0625 26.0772C9.28816 26.0291 9.47556 25.9333 9.62469 25.7898C9.77382 25.6463 9.87851 25.4753 9.93876 25.277Z" fill="#EF7133"/>
<path d="M11.3392 23.0451L7.84245 21.1996L8.22197 20.4805L8.74405 20.7381C8.61336 20.5189 8.55089 20.2786 8.55664 20.0172C8.56486 19.7511 8.63098 19.5006 8.75501 19.2656C8.97081 18.8567 9.27493 18.5936 9.66737 18.4762C10.0551 18.3564 10.5028 18.4304 11.0104 18.6983L13.0619 19.781L12.6675 20.5283L10.7076 19.4939C10.3927 19.3278 10.1135 19.2705 9.86986 19.3222C9.62155 19.3714 9.42298 19.537 9.27415 19.819C9.1278 20.0963 9.10633 20.3704 9.20973 20.6413C9.30842 20.9097 9.52462 21.132 9.85831 21.3081L11.7336 22.2978L11.3392 23.0451Z" fill="#EF7133"/>
<path d="M10.33 17.2945L9.07286 15.8435L9.59934 15.1028L10.6717 16.8137L10.33 17.2945Z" fill="#EF7133"/>
<path d="M15.4709 16.7566C15.2105 17.0513 14.9383 17.215 14.6542 17.2476C14.37 17.2802 14.0647 17.1523 13.7381 16.8638L12.2267 15.5285L11.8309 15.9765L11.2992 15.5068L11.695 15.0587L10.9782 14.4254L11.5376 13.7921L12.2545 14.4255L12.9195 13.6728L13.4512 14.1425L12.7862 14.8952L14.2976 16.2305C14.4489 16.3642 14.5804 16.4201 14.692 16.3981C14.8036 16.3762 14.9227 16.2935 15.0494 16.1501L15.3449 15.8156L15.8826 16.2906L15.4709 16.7566Z" fill="#EF7133"/>
<path d="M17.4553 14.5418L15.3574 11.1905L16.0466 10.759L16.3375 11.1788C16.3413 10.9444 16.4043 10.7295 16.5264 10.5339C16.6501 10.331 16.8179 10.1633 17.0296 10.0308C17.2863 9.87006 17.5499 9.78031 17.8203 9.76152C18.0924 9.73541 18.3552 9.79972 18.6088 9.95445C18.5962 9.67393 18.656 9.41392 18.7882 9.17441C18.9176 8.93041 19.1017 8.73368 19.3404 8.58423C19.6017 8.42068 19.8675 8.32951 20.1379 8.31073C20.4054 8.28744 20.6632 8.34865 20.9111 8.49437C21.1636 8.63727 21.3928 8.87314 21.5986 9.20197L22.8337 11.1749L22.1242 11.6191L20.9484 9.74068C20.7594 9.43888 20.5489 9.24779 20.3168 9.1674C20.0846 9.08701 19.8402 9.12718 19.5834 9.28791C19.3267 9.44864 19.1781 9.66703 19.1377 9.94309C19.0974 10.2191 19.1773 10.5171 19.3775 10.8369L20.5026 12.6342L19.7932 13.0783L18.6173 11.1999C18.4284 10.8981 18.2156 10.7085 17.9789 10.6309C17.7423 10.5533 17.5001 10.5921 17.2523 10.7472C17.0181 10.8938 16.8712 11.1049 16.8117 11.3804C16.7539 11.6485 16.8321 11.9538 17.0464 12.2962L18.1715 14.0934L17.4553 14.5418Z" fill="#EF7133"/>
<path d="M22.0877 6.68989C21.9442 6.74619 21.8011 6.74526 21.6584 6.68708C21.5187 6.62202 21.4197 6.51529 21.3615 6.36688C21.3052 6.22342 21.3071 6.0828 21.3672 5.94503C21.4323 5.80532 21.5366 5.70732 21.68 5.65102C21.8284 5.59278 21.9715 5.59372 22.1093 5.65383C22.252 5.712 22.3515 5.81282 22.4078 5.95628C22.466 6.10469 22.4636 6.25123 22.4005 6.39588C22.3404 6.53365 22.2361 6.63165 22.0877 6.68989ZM23.3921 11.1704L21.9478 7.48982L22.7343 7.18114L24.1787 10.8617L23.3921 11.1704Z" fill="#EF7133"/>
<path d="M26.4226 10.2578C26.1245 10.3362 25.8386 10.3564 25.5649 10.3184C25.2898 10.2753 25.0495 10.1764 24.844 10.0216C24.6384 9.86685 24.4884 9.66178 24.3938 9.40641L25.2187 9.18957C25.3033 9.36514 25.4382 9.49177 25.6235 9.56945C25.8088 9.64713 26.017 9.65557 26.2483 9.59478C26.4539 9.54074 26.6095 9.45314 26.715 9.33199C26.8192 9.2057 26.8517 9.06803 26.8125 8.91898C26.7787 8.79048 26.7087 8.70174 26.6024 8.65276C26.5012 8.60242 26.3784 8.57425 26.234 8.56826C26.0947 8.56092 25.9439 8.56209 25.7816 8.57179C25.5303 8.5774 25.2885 8.56678 25.0562 8.53994C24.829 8.51175 24.6322 8.44258 24.4659 8.33245C24.2995 8.22231 24.1846 8.04646 24.1211 7.80489C24.059 7.56847 24.0673 7.34924 24.1461 7.1472C24.2286 6.93868 24.3682 6.75911 24.5649 6.6085C24.7616 6.45789 24.9987 6.34611 25.2763 6.27315C25.6926 6.16372 26.0672 6.17789 26.4002 6.31566C26.7317 6.44829 26.9656 6.711 27.1019 7.10379L26.3155 7.3105C26.2476 7.13602 26.1341 7.01751 25.9748 6.95498C25.8206 6.8911 25.6407 6.88619 25.4351 6.94023C25.245 6.99022 25.1009 7.06929 25.003 7.17746C24.9037 7.28049 24.8736 7.40653 24.9128 7.55558C24.9398 7.65838 25.0039 7.73495 25.1051 7.78528C25.2049 7.83048 25.3251 7.85932 25.4657 7.87181C25.6102 7.8778 25.7591 7.87987 25.9124 7.87801C26.1894 7.86565 26.4415 7.87356 26.6687 7.90176C26.8959 7.92995 27.0908 8.00236 27.2533 8.11899C27.4159 8.23561 27.5342 8.42431 27.6082 8.68509C27.6703 8.92151 27.6582 9.14723 27.5719 9.36225C27.4893 9.57077 27.3478 9.75359 27.1473 9.91069C26.952 10.0664 26.7104 10.1821 26.4226 10.2578Z" fill="#EF7133"/>
<path d="M29.8805 9.65128C29.5737 9.68094 29.2882 9.65516 29.0241 9.57392C28.7594 9.48739 28.5381 9.35129 28.3599 9.16563C28.1818 8.97997 28.0665 8.75353 28.0139 8.48632L28.8629 8.40422C28.9184 8.59107 29.0313 8.73765 29.2018 8.84397C29.3722 8.95028 29.5765 8.99193 29.8145 8.96892C30.0261 8.94846 30.1937 8.88687 30.3172 8.78416C30.4402 8.67616 30.4943 8.54546 30.4795 8.39206C30.4667 8.25982 30.4118 8.16102 30.3147 8.09566C30.2229 8.02979 30.1062 7.98234 29.9646 7.95333C29.8282 7.9238 29.6792 7.90083 29.5174 7.88444C29.2685 7.84979 29.0315 7.80063 28.8064 7.73696C28.5866 7.67279 28.4035 7.57304 28.2569 7.43772C28.1104 7.3024 28.0251 7.11043 28.001 6.86182C27.9775 6.61849 28.0208 6.40342 28.1308 6.21658C28.2457 6.02395 28.4122 5.86903 28.6305 5.75182C28.8487 5.63461 29.1007 5.5622 29.3863 5.53458C29.8148 5.49314 30.1823 5.56706 30.4889 5.75631C30.795 5.94027 30.9839 6.23702 31.0555 6.64654L30.2462 6.7248C30.2071 6.54171 30.114 6.40656 29.9667 6.31936C29.8248 6.23164 29.648 6.19801 29.4364 6.21847C29.2407 6.2374 29.0859 6.29241 28.9719 6.38352C28.8574 6.46934 28.8075 6.58895 28.8224 6.74235C28.8326 6.84814 28.8836 6.93397 28.9754 6.99985C29.0667 7.06043 29.1807 7.10813 29.3176 7.14295C29.4592 7.17196 29.6059 7.19783 29.7576 7.22053C30.033 7.25263 30.2805 7.30077 30.5003 7.36494C30.7201 7.42912 30.9009 7.53176 31.0426 7.67289C31.1844 7.81401 31.271 8.0192 31.3024 8.28846C31.3259 8.53178 31.2779 8.75266 31.1582 8.9511C31.0434 9.14373 30.8744 9.30156 30.6514 9.42457C30.4337 9.54706 30.1767 9.62263 29.8805 9.65128Z" fill="#EF7133"/>
<path d="M34.9072 9.72784C34.6552 9.68871 34.431 9.6082 34.2348 9.48631C34.0395 9.35918 33.8926 9.19655 33.7943 8.99844C33.696 8.80032 33.6664 8.57523 33.7055 8.32317C33.752 8.02384 33.8626 7.79631 34.0374 7.64059C34.2182 7.48044 34.4412 7.37792 34.7063 7.33303C34.9775 7.2837 35.2653 7.28268 35.5699 7.32997L36.5624 7.48406C36.5975 7.25825 36.5888 7.07137 36.5365 6.92342C36.485 6.77022 36.4011 6.65232 36.2849 6.56974C36.1695 6.48191 36.0277 6.42494 35.8597 6.39885C35.6391 6.36461 35.4367 6.38696 35.2523 6.4659C35.074 6.5404 34.9468 6.68467 34.8705 6.89871L34.0277 6.76786C34.0979 6.48836 34.23 6.26147 34.4237 6.08719C34.6228 5.91373 34.8591 5.79445 35.1327 5.72938C35.4063 5.6643 35.6876 5.65418 35.9764 5.69902C36.3545 5.75772 36.6559 5.87712 36.8807 6.05723C37.1116 6.2329 37.2683 6.45351 37.3507 6.71908C37.4385 6.98546 37.4579 7.27619 37.4089 7.59128L37.2231 8.7886C37.2047 8.9417 37.2186 9.0595 37.265 9.14198C37.3174 9.22004 37.4216 9.27654 37.5775 9.3115L37.4662 10.0283C37.2561 9.99571 37.076 9.94354 36.9258 9.87182C36.7809 9.80091 36.6658 9.71045 36.5807 9.60044C36.4964 9.48517 36.4372 9.34691 36.4031 9.18565C36.2445 9.37614 36.033 9.52615 35.7686 9.63569C35.5042 9.74523 35.2171 9.77594 34.9072 9.72784ZM35.2106 9.07311C35.4259 9.10653 35.6231 9.08337 35.8022 9.00362C35.9821 8.91861 36.1301 8.79639 36.2463 8.63695C36.3633 8.47227 36.4377 8.28752 36.4695 8.08272L36.4719 8.06696L35.5424 7.92266C35.3901 7.89901 35.2429 7.89497 35.1006 7.91054C34.9636 7.92691 34.8462 7.97322 34.7483 8.04945C34.6565 8.12124 34.5988 8.23328 34.5751 8.38557C34.5442 8.58512 34.5922 8.74317 34.7193 8.85971C34.8473 8.97099 35.011 9.04213 35.2106 9.07311Z" fill="#EF7133"/>
<path d="M41.4162 11.6197C41.1452 11.4966 40.9226 11.3314 40.7484 11.1238C40.5812 10.9137 40.4795 10.6749 40.4433 10.4075L40.1638 10.9459L39.4234 10.6097L41.7305 5.52901L42.4999 5.87837L41.5771 7.91067C41.7886 7.77908 42.0271 7.70356 42.2928 7.68411C42.5606 7.65982 42.8397 7.71359 43.13 7.84542C43.4833 8.00582 43.7508 8.22651 43.9325 8.50748C44.1191 8.79065 44.2177 9.10684 44.2284 9.45605C44.2391 9.80526 44.1643 10.1565 44.0039 10.5097C43.8435 10.8629 43.6272 11.1529 43.355 11.3795C43.0851 11.6012 42.781 11.7375 42.4428 11.7882C42.1116 11.8362 41.7694 11.7801 41.4162 11.6197ZM41.563 10.8722C41.7856 10.9732 42.0022 11.0103 42.2129 10.9834C42.4258 10.9517 42.6199 10.8647 42.7953 10.7226C42.973 10.5756 43.1145 10.386 43.22 10.1538C43.3298 9.91182 43.377 9.67936 43.3615 9.45638C43.3531 9.23076 43.2897 9.02978 43.1713 8.85346C43.0529 8.67714 42.8849 8.53955 42.6671 8.44067C42.4542 8.34399 42.2413 8.31153 42.0285 8.34327C41.8178 8.37018 41.6224 8.4536 41.4421 8.59353C41.2689 8.73082 41.1273 8.92043 41.0174 9.16237C40.912 9.39464 40.8635 9.62358 40.8719 9.8492C40.8852 10.077 40.9499 10.2815 41.0661 10.4627C41.1845 10.639 41.3501 10.7755 41.563 10.8722Z" fill="#EF7133"/>
<path d="M44.8827 13.6335C44.5657 13.4099 44.3361 13.1407 44.194 12.8259C44.0519 12.511 44.0017 12.1765 44.0434 11.8223C44.0895 11.4711 44.229 11.1305 44.4617 10.8004C44.7037 10.4573 44.9809 10.2073 45.2931 10.0504C45.6054 9.89347 45.9322 9.83128 46.2734 9.86384C46.622 9.89512 46.957 10.0241 47.2783 10.2507C47.591 10.4713 47.8156 10.7337 47.9521 11.0381C48.0917 11.3381 48.1439 11.6513 48.1088 11.9777C48.078 12.3072 47.9569 12.6218 47.7456 12.9214C47.7027 12.9822 47.6638 13.0328 47.6288 13.0732C47.5982 13.1166 47.5571 13.1656 47.5055 13.2203L45.0236 11.4698C44.908 11.6614 44.8387 11.8564 44.8158 12.0549C44.796 12.249 44.8243 12.4348 44.9007 12.6122C44.9802 12.7853 45.1068 12.9332 45.2805 13.0557C45.4672 13.1874 45.6549 13.2579 45.8433 13.2673C46.0392 13.2754 46.2249 13.2243 46.4003 13.1139L47.1168 13.6193C46.9226 13.7749 46.7014 13.8855 46.4535 13.9513C46.2099 14.0201 45.9545 14.0318 45.6873 13.9864C45.4202 13.9411 45.152 13.8234 44.8827 13.6335ZM45.3747 10.9859L47.1661 12.2493C47.3351 11.9913 47.3854 11.7309 47.3171 11.4682C47.2519 11.2011 47.0977 10.9817 46.8545 10.8102C46.6374 10.6571 46.3923 10.585 46.1193 10.5941C45.8463 10.6031 45.5981 10.7337 45.3747 10.9859Z" fill="#EF7133"/>
<path d="M47.6072 15.8953C47.4295 15.7123 47.299 15.5131 47.2157 15.2977C47.1362 15.0786 47.1168 14.8603 47.1575 14.6429C47.1983 14.4256 47.3101 14.228 47.4931 14.0503C47.7104 13.8392 47.9357 13.7241 48.169 13.7049C48.4098 13.6859 48.6495 13.7382 48.8882 13.862C49.1345 13.9858 49.365 14.1583 49.5797 14.3794L50.2796 15.0998C50.4435 14.9406 50.5491 14.7862 50.5963 14.6366C50.6474 14.4832 50.6514 14.3386 50.6083 14.2027C50.569 14.063 50.4901 13.9322 50.3716 13.8102C50.2161 13.6501 50.041 13.5461 49.8462 13.4982C49.659 13.4504 49.4705 13.489 49.2808 13.614L48.6865 13.0022C48.9109 12.8213 49.1529 12.7196 49.4125 12.697C49.6759 12.6783 49.9364 12.7253 50.1941 12.8381C50.4517 12.9508 50.6824 13.112 50.886 13.3216C51.1526 13.5961 51.3215 13.8729 51.3926 14.152C51.4712 14.4313 51.4635 14.7018 51.3695 14.9635C51.2792 15.229 51.1197 15.4728 50.891 15.695L50.0219 16.5392C49.915 16.6504 49.8553 16.7529 49.8427 16.8467C49.8375 16.9406 49.8867 17.0484 49.9902 17.1701L49.4698 17.6756C49.3217 17.5231 49.2093 17.373 49.1325 17.2253C49.0594 17.0815 49.022 16.94 49.0203 16.8009C49.0224 16.6581 49.0583 16.5121 49.1281 16.3628C48.8868 16.4194 48.6276 16.4119 48.3505 16.3402C48.0734 16.2685 47.8257 16.1202 47.6072 15.8953ZM48.2435 15.5551C48.3953 15.7113 48.5668 15.8115 48.7578 15.8557C48.9526 15.8961 49.1444 15.8876 49.3332 15.8302C49.5257 15.7691 49.6963 15.6664 49.845 15.522L49.8564 15.5108L49.201 14.8361C49.0937 14.7256 48.9785 14.6337 48.8555 14.5605C48.7363 14.4911 48.6146 14.4574 48.4906 14.4594C48.3741 14.4614 48.2605 14.5162 48.15 14.6235C48.0051 14.7642 47.9484 14.9194 47.9797 15.089C48.0149 15.2548 48.1028 15.4102 48.2435 15.5551Z" fill="#EF7133"/>
<path d="M50.5502 19.2688C50.3235 18.9474 50.2271 18.6448 50.2609 18.3608C50.2947 18.0768 50.4897 17.8092 50.8458 17.5581L52.4939 16.3957L52.1493 15.9071L52.7291 15.4982L53.0737 15.9867L53.8554 15.4354L54.3424 16.1259L53.5607 16.6772L54.1396 17.498L53.5598 17.9069L52.9809 17.0862L51.3328 18.2486C51.1678 18.365 51.0831 18.48 51.0787 18.5936C51.0743 18.7073 51.1273 18.8423 51.2375 18.9986L51.4948 19.3634L50.9085 19.7769L50.5502 19.2688Z" fill="#EF7133"/>
<path d="M52.8844 19.8727L56.2723 17.8945L56.7113 18.6902L53.231 20.5008L52.8844 19.8727ZM51.5577 21.0324C51.4807 20.8928 51.4631 20.7508 51.5048 20.6064C51.5512 20.4594 51.6419 20.3487 51.7768 20.2743C51.9118 20.1998 52.0514 20.1835 52.1958 20.2252C52.3449 20.2644 52.4579 20.3537 52.5349 20.4933C52.6119 20.6329 52.6273 20.7762 52.5809 20.9232C52.5391 21.0676 52.4508 21.177 52.3159 21.2514C52.1809 21.3259 52.0389 21.3435 51.8899 21.3044C51.7455 21.2626 51.6348 21.172 51.5577 21.0324Z" fill="#EF7133"/>
</svg>
