<svg width="61" height="60" viewBox="0 0 61 60" fill="none" xmlns="http://www.w3.org/2000/svg">
<path d="M60.8362 30C60.8362 46.5685 47.4047 60 30.8362 60C14.2676 60 0.836182 46.5685 0.836182 30C0.836182 13.4315 14.2676 0 30.8362 0C47.4047 0 60.8362 13.4315 60.8362 30Z" fill="#FCE2A9"/>
<mask id="mask0_160_527" style="mask-type:alpha" maskUnits="userSpaceOnUse" x="18" y="17" width="26" height="26">
<rect x="18.5059" y="17.6694" width="24.9454" height="24.9454" fill="#D9D9D9"/>
</mask>
<g mask="url(#mask0_160_527)">
<path d="M22.6634 39.497C22.0917 39.497 21.6023 39.2934 21.1952 38.8863C20.7881 38.4792 20.5846 37.9899 20.5846 37.4182V25.9849C20.5846 25.4132 20.7881 24.9238 21.1952 24.5167C21.6023 24.1096 22.0917 23.9061 22.6634 23.9061H26.8209V21.8273C26.8209 21.2557 27.0245 20.7663 27.4316 20.3592C27.8387 19.9521 28.3281 19.7485 28.8997 19.7485H33.0573C33.629 19.7485 34.1183 19.9521 34.5254 20.3592C34.9325 20.7663 35.1361 21.2557 35.1361 21.8273V23.9061H39.2936C39.8653 23.9061 40.3547 24.1096 40.7618 24.5167C41.1689 24.9238 41.3724 25.4132 41.3724 25.9849V37.4182C41.3724 37.9899 41.1689 38.4792 40.7618 38.8863C40.3547 39.2934 39.8653 39.497 39.2936 39.497H22.6634ZM28.8997 23.9061H33.0573V21.8273H28.8997V23.9061ZM24.7422 25.9849H22.6634V37.4182H24.7422V25.9849ZM35.1361 37.4182V25.9849H26.8209V37.4182H35.1361ZM37.2149 25.9849V37.4182H39.2936V25.9849H37.2149Z" fill="#F17032"/>
</g>
<path d="M49.7132 33.2996C49.756 32.9846 49.8568 32.706 50.0157 32.464C50.1794 32.2284 50.3926 32.051 50.6551 31.932L50.0183 31.8112L50.1351 30.9504L56.0426 31.7518L55.9213 32.6464L53.5583 32.3258C53.7578 32.5018 53.9083 32.7228 54.0098 32.9887C54.1169 33.2553 54.1475 33.5574 54.1017 33.895C54.046 34.3057 53.9023 34.6472 53.6705 34.9194C53.438 35.1973 53.1447 35.3953 52.7906 35.5134C52.4365 35.6315 52.0541 35.6628 51.6434 35.607C51.2327 35.5513 50.8696 35.419 50.5542 35.21C50.2444 35.0018 50.0116 34.7325 49.8559 34.4019C49.7051 34.0778 49.6575 33.7104 49.7132 33.2996ZM50.5233 33.2205C50.4882 33.4793 50.5167 33.7123 50.6089 33.9196C50.7068 34.1277 50.8553 34.2997 51.0546 34.4356C51.2595 34.5723 51.497 34.6589 51.7671 34.6956C52.0484 34.7337 52.3008 34.7107 52.5242 34.6264C52.7525 34.5485 52.9387 34.4219 53.0828 34.2467C53.2269 34.0714 53.3161 33.8572 53.3505 33.604C53.3841 33.3564 53.3519 33.1286 53.2541 32.9205C53.1619 32.7132 53.0165 32.5388 52.818 32.3973C52.6243 32.2621 52.3869 32.1755 52.1055 32.1373C51.8355 32.1007 51.5863 32.1213 51.358 32.1992C51.1289 32.2827 50.9395 32.4117 50.7898 32.5862C50.6457 32.7615 50.5569 32.9729 50.5233 33.2205Z" fill="#F17032"/>
<path d="M48.5018 38.0521C48.6653 37.6774 48.8935 37.3743 49.1865 37.1429C49.4825 36.9189 49.8225 36.7854 50.2068 36.7424C50.5887 36.7046 50.9879 36.7765 51.4042 36.9581C51.8205 37.1397 52.141 37.3848 52.3657 37.6934C52.5881 38.0073 52.7141 38.3503 52.7438 38.7225C52.7763 39.1022 52.7109 39.4794 52.5475 39.8541C52.384 40.2288 52.1558 40.5319 51.8628 40.7633C51.5698 40.9948 51.2326 41.1358 50.8513 41.1862C50.47 41.2367 50.0686 41.17 49.6471 40.9861C49.2516 40.8136 48.9389 40.5719 48.709 40.261C48.4769 39.9553 48.3393 39.6104 48.2963 39.2261C48.2585 38.8442 48.327 38.4528 48.5018 38.0521ZM49.2166 38.3732C49.1167 38.6022 49.0854 38.8301 49.1227 39.057C49.1578 39.2891 49.2515 39.5003 49.4038 39.6907C49.5614 39.8833 49.7677 40.0352 50.0227 40.1465C50.2829 40.26 50.5319 40.3067 50.7699 40.2866C51.0108 40.274 51.2219 40.2019 51.4031 40.0704C51.5896 39.9411 51.7339 39.7594 51.8361 39.5252C51.9428 39.2806 51.9775 39.0449 51.9402 38.818C51.9006 38.5963 51.8024 38.3955 51.6455 38.2155C51.4915 38.0431 51.2896 37.9023 51.0398 37.7934C50.7536 37.6685 50.4889 37.615 50.2458 37.6328C50.0003 37.6558 49.7896 37.7342 49.6135 37.868C49.4374 38.0019 49.3051 38.1702 49.2166 38.3732Z" fill="#F17032"/>
<path d="M47.1331 41.1963L50.4562 43.8042L49.9199 44.4876L49.4203 44.1171C49.5158 44.3725 49.5356 44.637 49.4796 44.9107C49.4202 45.1888 49.3028 45.4395 49.1276 45.6628C48.8226 46.0514 48.4527 46.2699 48.0177 46.3184C47.5872 46.3703 47.1308 46.207 46.6484 45.8284L44.6987 44.2984L45.256 43.5882L47.1186 45.0498C47.4179 45.2847 47.7005 45.3982 47.9665 45.3904C48.2369 45.3861 48.4772 45.2499 48.6876 44.9819C48.8944 44.7184 48.9693 44.4344 48.9123 44.1299C48.8599 43.8289 48.6751 43.5539 48.3579 43.3051L46.5758 41.9065L47.1331 41.1963Z" fill="#F17032"/>
<path d="M41.2743 47.067L44.8045 49.8811L43.985 50.3692L41.2405 48.0587L41.9582 51.5766L41.1534 52.0561L40.3597 47.6119L41.2743 47.067Z" fill="#F17032"/>
<path d="M36.5941 49.191C36.9866 49.0766 37.3655 49.0579 37.7309 49.1347C38.0925 49.2186 38.4128 49.3943 38.6918 49.6619C38.9655 49.9311 39.1658 50.2837 39.2929 50.7198C39.42 51.1559 39.4369 51.559 39.3437 51.9292C39.2451 52.3009 39.0623 52.6174 38.7954 52.8785C38.5246 53.1467 38.193 53.3379 37.8006 53.4523C37.4081 53.5667 37.0291 53.5855 36.6637 53.5086C36.2983 53.4318 35.9742 53.2631 35.6912 53.0025C35.4083 52.742 35.2025 52.3909 35.0738 51.9494C34.9531 51.5351 34.9385 51.1402 35.0301 50.7646C35.1163 50.3905 35.2932 50.064 35.5608 49.7849C35.8299 49.5113 36.1744 49.3133 36.5941 49.191ZM36.8052 49.9456C36.5653 50.0155 36.3702 50.1374 36.2198 50.3114C36.064 50.4869 35.9618 50.6941 35.9131 50.933C35.866 51.1774 35.8814 51.4331 35.9593 51.7002C36.0387 51.9728 36.1623 52.194 36.3301 52.3639C36.4941 52.5409 36.6846 52.6568 36.9017 52.7119C37.1204 52.7723 37.3524 52.7668 37.5977 52.6953C37.8539 52.6206 38.0572 52.4963 38.2075 52.3224C38.3525 52.1501 38.4438 51.946 38.4816 51.7103C38.5155 51.4816 38.4943 51.2364 38.418 50.9748C38.3306 50.675 38.2023 50.4374 38.0329 50.262C37.858 50.0882 37.6629 49.9766 37.4473 49.927C37.2318 49.8775 37.0178 49.8837 36.8052 49.9456Z" fill="#F17032"/>
<path d="M32.8339 48.2822L31.9611 50.3712L33.8479 54.3517L32.8519 54.3825L31.5139 51.3393L30.3152 54.4608L29.3703 54.49L31.8805 48.3117L32.8339 48.2822Z" fill="#F17032"/>
<path d="M27.4823 49.8613C27.7492 49.9165 27.984 50.0143 28.1869 50.1548C28.3887 50.3008 28.5367 50.4821 28.6311 50.6987C28.7255 50.9154 28.7451 51.1571 28.69 51.424C28.6245 51.741 28.4944 51.9779 28.2996 52.1348C28.0981 52.2961 27.8548 52.3936 27.5695 52.4274C27.2775 52.4657 26.9703 52.4515 26.6478 52.3848L25.5969 52.1677C25.5475 52.4068 25.5468 52.6067 25.5947 52.7673C25.6416 52.9335 25.7248 53.0638 25.8445 53.1581C25.963 53.2579 26.1112 53.3262 26.2891 53.363C26.5227 53.4113 26.7399 53.3982 26.9408 53.3237C27.135 53.2537 27.2785 53.1065 27.3712 52.8822L28.2636 53.0666C28.1738 53.3611 28.0208 53.5962 27.8048 53.7718C27.5832 53.9464 27.3247 54.0611 27.0293 54.116C26.7339 54.1709 26.4332 54.1668 26.1274 54.1036C25.7271 54.0209 25.4117 53.8774 25.1814 53.6733C24.9444 53.4736 24.7889 53.2299 24.7151 52.9421C24.6356 52.6532 24.6303 52.3419 24.6993 52.0083L24.9612 50.7406C24.989 50.5782 24.9803 50.4517 24.9352 50.3612C24.8834 50.2752 24.7753 50.2093 24.6108 50.1638L24.7676 49.4048C24.99 49.4507 25.1795 49.516 25.3359 49.6005C25.4868 49.6838 25.6048 49.7865 25.6897 49.9084C25.7736 50.0359 25.8294 50.1865 25.8572 50.3604C26.0366 50.1656 26.2703 50.0167 26.5583 49.9139C26.8462 49.8111 27.1542 49.7935 27.4823 49.8613ZM27.1238 50.5439C26.8958 50.4967 26.6842 50.511 26.4888 50.5866C26.2923 50.6677 26.1279 50.7903 25.9954 50.9543C25.8618 51.1238 25.7727 51.317 25.7278 51.5338L25.7244 51.5505L26.7086 51.7538C26.8698 51.7872 27.0268 51.7993 27.1794 51.7902C27.3264 51.78 27.4542 51.7369 27.5627 51.6607C27.6645 51.589 27.732 51.4725 27.7653 51.3113C27.809 51.1 27.7661 50.9288 27.6367 50.7977C27.5061 50.6721 27.3351 50.5875 27.1238 50.5439Z" fill="#F17032"/>
<path d="M23.6599 46.7603C23.9845 46.9106 24.268 47.0889 24.5104 47.295C24.7529 47.5011 24.9173 47.7337 25.0038 47.9927C25.0876 48.2443 25.0615 48.5169 24.9255 48.8105C24.8348 49.0063 24.7147 49.1509 24.565 49.2443C24.4154 49.3377 24.2405 49.3912 24.0402 49.4048C24.1356 49.5366 24.1931 49.6759 24.2127 49.8226C24.2324 49.9694 24.2076 50.1174 24.1384 50.2669C23.9881 50.5914 23.7206 50.7773 23.3359 50.8244C23.3892 50.993 23.4122 51.1663 23.4048 51.3443C23.3974 51.5224 23.3532 51.699 23.2721 51.8742C23.1432 52.1524 22.9653 52.3609 22.7383 52.4998C22.5089 52.6439 22.2532 52.7163 21.9713 52.7172C21.6869 52.7231 21.3954 52.6569 21.0965 52.5186C20.875 52.416 20.6858 52.2908 20.529 52.1431L19.1843 51.5204L19.4813 50.8789L20.0455 51.1402C20.0444 51.0208 20.0549 50.9036 20.0768 50.7887C20.0937 50.6713 20.1283 50.556 20.1808 50.4426C20.312 50.1592 20.4949 49.9467 20.7294 49.8051C20.9565 49.6662 21.2121 49.5937 21.4965 49.5877C21.7784 49.5869 22.0662 49.6545 22.3599 49.7905C22.4938 49.8525 22.6115 49.9227 22.713 50.0009C22.812 50.0843 22.9062 50.178 22.9957 50.282C23.148 50.2775 23.254 50.2108 23.3136 50.082C23.4258 49.8398 23.2783 49.6245 22.8713 49.436L22.199 49.1247C21.9001 48.9863 21.6616 48.8258 21.4834 48.6431C21.2976 48.4633 21.1861 48.2583 21.1487 48.0282C21.1062 47.7958 21.1505 47.5379 21.2817 47.2545C21.4106 46.9763 21.6028 46.7775 21.8583 46.6581C22.1087 46.5363 22.3917 46.4859 22.7073 46.5069C23.0229 46.5279 23.3405 46.6124 23.6599 46.7603ZM23.3634 47.4208C23.0852 47.292 22.8256 47.2311 22.5844 47.2384C22.3433 47.2456 22.1762 47.3497 22.0832 47.5506C21.9114 47.9216 22.0651 48.218 22.5442 48.4399L23.1548 48.7226C23.3815 48.8276 23.5807 48.8635 23.7524 48.8304C23.9242 48.7974 24.053 48.6881 24.1389 48.5026C24.2057 48.3583 24.2104 48.2197 24.1531 48.0868C24.0958 47.9539 23.9956 47.8324 23.8526 47.7224C23.712 47.6072 23.5489 47.5067 23.3634 47.4208ZM22.0634 50.451C21.8316 50.3436 21.6125 50.3235 21.4062 50.3906C21.1948 50.4554 21.0413 50.5908 20.9459 50.7969C20.8528 50.9979 20.85 51.1999 20.9374 51.403C21.0196 51.6038 21.1766 51.7579 21.4085 51.8652C21.6403 51.9726 21.8594 51.9927 22.0657 51.9256C22.2668 51.856 22.4139 51.7208 22.507 51.5199C22.6024 51.3138 22.6142 51.1127 22.5422 50.9167C22.4652 50.7184 22.3056 50.5631 22.0634 50.451Z" fill="#F17032"/>
<path d="M18.939 46.1024C19.265 46.3583 19.4953 46.6581 19.6297 47.0018C19.7642 47.3455 19.7995 47.7052 19.7356 48.0809C19.6673 48.453 19.4999 48.8089 19.2335 49.1483C18.9566 49.5012 18.6473 49.7528 18.3055 49.9032C17.9637 50.0536 17.6117 50.1022 17.2494 50.0488C16.8791 49.9964 16.5287 49.8405 16.1982 49.5811C15.8766 49.3288 15.6513 49.0365 15.5223 48.7042C15.3897 48.3765 15.3511 48.0394 15.4064 47.6931C15.4572 47.3432 15.6035 47.0142 15.8454 46.706C15.8945 46.6435 15.9388 46.5916 15.9783 46.5505C16.0133 46.5058 16.0599 46.4557 16.1179 46.4002L18.6705 48.4034C18.8044 48.2053 18.8889 48.001 18.9242 47.7905C18.9559 47.5845 18.9359 47.3847 18.864 47.1912C18.7887 47.0021 18.6616 46.8375 18.483 46.6973C18.2909 46.5465 18.0946 46.461 17.894 46.4408C17.6854 46.4214 17.4845 46.4659 17.2914 46.5741L16.5544 45.9957C16.7702 45.8403 17.0121 45.7343 17.2803 45.6777C17.544 45.6176 17.8171 45.619 18.0997 45.682C18.3823 45.745 18.662 45.8851 18.939 46.1024ZM18.2695 48.9006L16.427 47.4548C16.2327 47.7208 16.1647 47.9959 16.2233 48.28C16.2783 48.5686 16.4309 48.811 16.681 49.0073C16.9043 49.1826 17.1619 49.2728 17.4537 49.2781C17.7455 49.2833 18.0174 49.1575 18.2695 48.9006Z" fill="#F17032"/>
<path d="M15.4002 45.439L12.3277 48.2899L11.6849 47.5623L14.8927 44.8646L15.4002 45.439ZM16.5138 43.921C16.6266 44.0487 16.678 44.1926 16.6681 44.3529C16.654 44.517 16.5852 44.6535 16.4618 44.7625C16.3384 44.8715 16.1965 44.9211 16.0363 44.9112C15.8717 44.905 15.7331 44.8381 15.6203 44.7105C15.5075 44.5828 15.4582 44.437 15.4724 44.2729C15.4823 44.1126 15.5489 43.978 15.6723 43.869C15.7957 43.7599 15.9397 43.7085 16.1042 43.7147C16.2645 43.7246 16.4011 43.7934 16.5138 43.921Z" fill="#F17032"/>
<path d="M11.2811 28.0622C11.2384 28.3772 11.1376 28.6558 10.9787 28.8978C10.8149 29.1334 10.6018 29.3108 10.3393 29.4299L10.9761 29.5506L10.8593 30.4114L4.95175 29.61L5.07311 28.7154L7.43613 29.036C7.23655 28.86 7.08604 28.639 6.98459 28.3731C6.87752 28.1065 6.84688 27.8044 6.89268 27.4668C6.9484 27.0561 7.09213 26.7146 7.32387 26.4424C7.55638 26.1645 7.84968 25.9665 8.20376 25.8484C8.55784 25.7303 8.94024 25.6991 9.35096 25.7548C9.76167 25.8105 10.1247 25.9428 10.4402 26.1518C10.75 26.36 10.9828 26.6294 11.1385 26.9599C11.2893 27.284 11.3369 27.6515 11.2811 28.0622ZM10.4711 28.1414C10.5062 27.8826 10.4777 27.6495 10.3855 27.4422C10.2876 27.2341 10.1391 27.0621 9.93978 26.9262C9.73486 26.7895 9.49737 26.7029 9.22731 26.6662C8.946 26.6281 8.69362 26.6511 8.47019 26.7354C8.24189 26.8133 8.05569 26.9399 7.91159 27.1152C7.76748 27.2904 7.67826 27.5046 7.64391 27.7578C7.61033 28.0054 7.64245 28.2332 7.74028 28.4413C7.83248 28.6486 7.97784 28.823 8.17637 28.9645C8.37004 29.0997 8.60753 29.1863 8.88884 29.2245C9.1589 29.2611 9.40808 29.2405 9.63638 29.1626C9.86544 29.0791 10.0548 28.9501 10.2046 28.7756C10.3487 28.6003 10.4375 28.3889 10.4711 28.1414Z" fill="#F17032"/>
<path d="M12.4925 23.3097C12.3291 23.6844 12.1009 23.9875 11.8079 24.219C11.5119 24.4429 11.1718 24.5764 10.7876 24.6194C10.4057 24.6572 10.0065 24.5853 9.59018 24.4037C9.17384 24.2221 8.85335 23.977 8.62869 23.6684C8.40631 23.3546 8.28029 23.0115 8.25063 22.6393C8.21804 22.2596 8.28347 21.8824 8.44692 21.5077C8.61038 21.133 8.83861 20.8299 9.13161 20.5985C9.42461 20.367 9.76176 20.226 10.1431 20.1756C10.5244 20.1251 10.9258 20.1918 11.3473 20.3757C11.7428 20.5482 12.0555 20.7899 12.2854 21.1008C12.5175 21.4065 12.6551 21.7515 12.6981 22.1357C12.7359 22.5176 12.6674 22.909 12.4925 23.3097ZM11.7778 22.9886C11.8777 22.7596 11.909 22.5317 11.8717 22.3048C11.8366 22.0727 11.7429 21.8615 11.5906 21.6711C11.433 21.4785 11.2267 21.3266 10.9717 21.2154C10.7115 21.1018 10.4624 21.0551 10.2245 21.0752C9.98359 21.0878 9.77251 21.1599 9.59124 21.2914C9.40476 21.4207 9.26045 21.6024 9.15829 21.8366C9.05159 22.0812 9.01689 22.317 9.0542 22.5439C9.09377 22.7655 9.19201 22.9663 9.3489 23.1463C9.50286 23.3188 9.70474 23.4595 9.95454 23.5684C10.2408 23.6933 10.5055 23.7468 10.7486 23.729C10.9941 23.706 11.2048 23.6276 11.3809 23.4938C11.5569 23.36 11.6892 23.1916 11.7778 22.9886Z" fill="#F17032"/>
<path d="M13.8612 20.1655L10.538 17.5576L11.0743 16.8742L11.5739 17.2447C11.4784 16.9893 11.4587 16.7248 11.5146 16.4511C11.5741 16.173 11.6914 15.9223 11.8667 15.699C12.1717 15.3104 12.5416 15.0919 12.9766 15.0435C13.407 14.9915 13.8635 15.1549 14.3459 15.5334L16.2955 17.0634L15.7382 17.7736L13.8756 16.312C13.5764 16.0771 13.2938 15.9636 13.0278 15.9714C12.7574 15.9757 12.517 16.1119 12.3067 16.3799C12.0999 16.6434 12.025 16.9274 12.0819 17.2319C12.1344 17.5329 12.3192 17.8079 12.6363 18.0567L14.4185 19.4553L13.8612 20.1655Z" fill="#F17032"/>
<path d="M19.7198 14.2948L16.1897 11.4808L17.0092 10.9926L19.7536 13.3032L19.0359 9.78522L19.8407 9.30576L20.6344 13.75L19.7198 14.2948Z" fill="#F17032"/>
<path d="M24.4003 12.1708C24.0078 12.2852 23.6289 12.304 23.2634 12.2271C22.9019 12.1432 22.5816 11.9675 22.3025 11.6999C22.0289 11.4307 21.8286 11.0781 21.7015 10.642C21.5744 10.2059 21.5574 9.80281 21.6506 9.43264C21.7493 9.06088 21.9321 8.74444 22.199 8.48332C22.4697 8.21516 22.8014 8.02389 23.1938 7.90951C23.5863 7.79512 23.9652 7.77635 24.3306 7.85319C24.6961 7.93003 25.0202 8.09873 25.3031 8.35929C25.5861 8.61984 25.7919 8.97088 25.9206 9.41242C26.0413 9.82669 26.0559 10.2216 25.9642 10.5973C25.8781 10.9713 25.7012 11.2978 25.4336 11.5769C25.1644 11.8505 24.82 12.0485 24.4003 12.1708ZM24.1892 11.4162C24.429 11.3463 24.6242 11.2244 24.7745 11.0504C24.9304 10.8749 25.0326 10.6677 25.0813 10.4288C25.1283 10.1844 25.1129 9.9287 25.0351 9.6616C24.9557 9.38905 24.8321 9.16782 24.6643 8.9979C24.5003 8.82095 24.3098 8.70497 24.0927 8.64996C23.874 8.5895 23.642 8.59502 23.3967 8.66651C23.1405 8.74117 22.9372 8.86548 22.7868 9.03941C22.6419 9.21176 22.5506 9.4158 22.5128 9.65153C22.4789 9.88022 22.5001 10.1254 22.5764 10.387C22.6637 10.6868 22.7921 10.9244 22.9615 11.0998C23.1363 11.2736 23.3315 11.3852 23.547 11.4348C23.7626 11.4843 23.9766 11.4781 24.1892 11.4162Z" fill="#F17032"/>
<path d="M28.1604 13.0796L29.0331 10.9906L27.1464 7.01009L28.1424 6.97933L29.4804 10.0225L30.6791 6.90098L31.624 6.87179L29.1138 13.0502L28.1604 13.0796Z" fill="#F17032"/>
<path d="M33.512 11.5005C33.2451 11.4454 33.0102 11.3475 32.8073 11.2071C32.6056 11.061 32.4575 10.8797 32.3632 10.6631C32.2688 10.4464 32.2492 10.2047 32.3043 9.93779C32.3698 9.62085 32.4999 9.38394 32.6947 9.22706C32.8961 9.06576 33.1395 8.96821 33.4248 8.93439C33.7167 8.89616 34.024 8.91036 34.3465 8.97699L35.3974 9.19413C35.4468 8.95503 35.4475 8.75516 35.3995 8.59451C35.3527 8.4283 35.2695 8.29804 35.1498 8.20374C35.0313 8.10389 34.8831 8.03558 34.7051 7.99881C34.4716 7.95056 34.2544 7.96366 34.0535 8.0381C33.8593 8.10813 33.7158 8.25532 33.6231 8.47966L32.7306 8.29527C32.8205 8.00075 32.9734 7.76566 33.1894 7.58998C33.411 7.41545 33.6695 7.30073 33.965 7.24582C34.2604 7.19091 34.561 7.19505 34.8669 7.25823C35.2672 7.34095 35.5825 7.48437 35.8128 7.6885C36.0499 7.88821 36.2053 8.13195 36.2792 8.41971C36.3587 8.70862 36.3639 9.01988 36.295 9.3535L36.033 10.6213C36.0053 10.7837 36.014 10.9101 36.059 11.0006C36.1108 11.0866 36.219 11.1525 36.3835 11.1981L36.2267 11.957C36.0042 11.9111 35.8148 11.8459 35.6583 11.7613C35.5074 11.678 35.3895 11.5754 35.3045 11.4534C35.2207 11.326 35.1649 11.1753 35.137 11.0014C34.9576 11.1962 34.724 11.3451 34.436 11.4479C34.1481 11.5508 33.8401 11.5683 33.512 11.5005ZM33.8704 10.818C34.0984 10.8651 34.3101 10.8508 34.5054 10.7752C34.7019 10.6941 34.8664 10.5715 34.9988 10.4076C35.1324 10.238 35.2216 10.0449 35.2664 9.82801L35.2699 9.81132L34.2857 9.60797C34.1244 9.57466 33.9675 9.56252 33.8149 9.57158C33.6678 9.58178 33.5401 9.62495 33.4316 9.70109C33.3298 9.77282 33.2622 9.88932 33.2289 10.0506C33.1853 10.2619 33.2282 10.4331 33.3576 10.5642C33.4882 10.6897 33.6592 10.7743 33.8704 10.818Z" fill="#F17032"/>
<path d="M37.3344 14.6015C37.0098 14.4512 36.7263 14.273 36.4838 14.0668C36.2414 13.8607 36.0769 13.6281 35.9904 13.3691C35.9067 13.1175 35.9328 12.845 36.0688 12.5513C36.1595 12.3555 36.2796 12.2109 36.4292 12.1175C36.5789 12.0241 36.7538 11.9706 36.9541 11.957C36.8587 11.8252 36.8012 11.6859 36.7815 11.5392C36.7619 11.3924 36.7867 11.2444 36.8558 11.095C37.0062 10.7704 37.2737 10.5845 37.6584 10.5374C37.6051 10.3688 37.5821 10.1955 37.5895 10.0175C37.5968 9.83943 37.6411 9.66282 37.7222 9.48765C37.851 9.20943 38.029 9.00088 38.256 8.86198C38.4854 8.71793 38.741 8.64549 39.023 8.64466C39.3073 8.63868 39.5989 8.70488 39.8977 8.84327C40.1193 8.94586 40.3085 9.07102 40.4653 9.21874L41.81 9.84146L41.513 10.4829L40.9488 10.2216C40.9498 10.341 40.9394 10.4582 40.9174 10.5731C40.9006 10.6905 40.866 10.8059 40.8135 10.9192C40.6822 11.2026 40.4994 11.4151 40.2648 11.5568C40.0378 11.6957 39.7821 11.7681 39.4978 11.7741C39.2159 11.7749 38.928 11.7073 38.6344 11.5713C38.5004 11.5093 38.3827 11.4391 38.2813 11.3609C38.1823 11.2775 38.088 11.1838 37.9985 11.0798C37.8463 11.0843 37.7403 11.151 37.6806 11.2798C37.5685 11.522 37.7159 11.7373 38.123 11.9258L38.7953 12.2371C39.0941 12.3755 39.3327 12.536 39.5109 12.7187C39.6966 12.8986 39.8082 13.1035 39.8456 13.3336C39.8881 13.566 39.8437 13.8239 39.7125 14.1073C39.5837 14.3855 39.3915 14.5843 39.136 14.7037C38.8856 14.8256 38.6026 14.876 38.2869 14.8549C37.9713 14.8339 37.6538 14.7494 37.3344 14.6015ZM37.6308 13.941C37.909 14.0699 38.1687 14.1307 38.4098 14.1234C38.6509 14.1162 38.818 14.0121 38.9111 13.8112C39.0829 13.4403 38.9292 13.1438 38.45 12.9219L37.8395 12.6392C37.6128 12.5342 37.4136 12.4983 37.2418 12.5314C37.0701 12.5645 36.9413 12.6737 36.8554 12.8592C36.7886 13.0035 36.7838 13.1421 36.8412 13.275C36.8985 13.4079 36.9987 13.5294 37.1417 13.6394C37.2823 13.7546 37.4454 13.8551 37.6308 13.941ZM38.9308 10.9108C39.1627 11.0182 39.3818 11.0383 39.5881 10.9712C39.7995 10.9064 39.9529 10.771 40.0484 10.5649C40.1414 10.364 40.1443 10.1619 40.0569 9.95877C39.9747 9.75801 39.8176 9.60395 39.5858 9.49658C39.3539 9.38922 39.1349 9.36911 38.9286 9.43626C38.7274 9.50579 38.5803 9.64103 38.4873 9.84196C38.3918 10.048 38.3801 10.2491 38.452 10.4451C38.5291 10.6434 38.6887 10.7987 38.9308 10.9108Z" fill="#F17032"/>
<path d="M42.0551 15.2594C41.729 15.0035 41.4987 14.7037 41.3643 14.36C41.2298 14.0164 41.1945 13.6567 41.2584 13.281C41.3267 12.9088 41.4941 12.5529 41.7605 12.2135C42.0374 11.8606 42.3468 11.609 42.6885 11.4586C43.0303 11.3082 43.3823 11.2597 43.7446 11.313C44.1149 11.3654 44.4653 11.5213 44.7958 11.7807C45.1174 12.0331 45.3427 12.3254 45.4718 12.6576C45.6043 12.9853 45.6429 13.3224 45.5876 13.6687C45.5368 14.0186 45.3905 14.3476 45.1486 14.6558C45.0995 14.7183 45.0553 14.7702 45.0157 14.8113C44.9807 14.856 44.9342 14.9061 44.8761 14.9616L42.3235 12.9584C42.1897 13.1565 42.1051 13.3608 42.0698 13.5713C42.0381 13.7773 42.0581 13.9771 42.13 14.1706C42.2054 14.3597 42.3324 14.5243 42.511 14.6645C42.7031 14.8153 42.8994 14.9008 43.1 14.9211C43.3086 14.9404 43.5095 14.8959 43.7027 14.7877L44.4397 15.3661C44.2239 15.5215 43.9819 15.6275 43.7137 15.6841C43.45 15.7442 43.1769 15.7428 42.8943 15.6798C42.6117 15.6169 42.332 15.4767 42.0551 15.2594ZM42.7245 12.4612L44.567 13.9071C44.7614 13.641 44.8293 13.3659 44.7708 13.0818C44.7157 12.7932 44.5632 12.5508 44.313 12.3545C44.0897 12.1793 43.8321 12.089 43.5403 12.0837C43.2485 12.0785 42.9766 12.2043 42.7245 12.4612Z" fill="#F17032"/>
<path d="M45.5942 15.9228L48.6667 13.0719L49.3095 13.7995L46.1016 16.4973L45.5942 15.9228ZM44.4806 17.4408C44.3678 17.3132 44.3163 17.1692 44.3263 17.0089C44.3404 16.8449 44.4092 16.7083 44.5326 16.5993C44.656 16.4903 44.7978 16.4407 44.9581 16.4507C45.1227 16.4568 45.2613 16.5237 45.3741 16.6514C45.4869 16.779 45.5362 16.9249 45.522 17.0889C45.5121 17.2492 45.4454 17.3838 45.3221 17.4929C45.1987 17.6019 45.0547 17.6533 44.8901 17.6472C44.7299 17.6372 44.5933 17.5685 44.4806 17.4408Z" fill="#F17032"/>
</svg>
