<svg width="318" height="161" viewBox="0 0 318 161" fill="none" xmlns="http://www.w3.org/2000/svg">
<g clip-path="url(#clip0_184_1184)">
<path fill-rule="evenodd" clip-rule="evenodd" d="M54.9939 40.1835C64.0073 39.3693 70.6748 31.1642 69.8862 21.8571L306.174 0.510799L306.751 7.31687C304.562 8.75503 303.206 11.3718 303.447 14.2249C303.689 17.0779 305.465 19.4117 307.862 20.4356L308.523 28.2369C306.334 29.675 304.978 32.2918 305.22 35.1448C305.461 37.9979 307.237 40.3317 309.635 41.3556L310.296 49.1569C308.107 50.5951 306.751 53.2119 306.992 56.0649C307.234 58.9179 309.01 61.2518 311.407 62.2757L312.068 70.077C309.879 71.5152 308.523 74.132 308.765 76.985C309.006 79.838 310.782 82.1719 313.18 83.1957L313.84 90.9971C311.652 92.4353 310.296 95.0521 310.537 97.9051C310.779 100.758 312.555 103.092 314.952 104.116L315.613 111.917C313.424 113.355 312.068 115.972 312.31 118.825C312.551 121.678 314.327 124.012 316.725 125.036L317.348 132.397L81.0606 153.743L81.0605 153.743C80.272 144.436 72.3259 137.551 63.3125 138.365C54.2992 139.179 47.6316 147.385 48.4202 156.692L48.4202 156.692L11.5225 160.025L10.8912 152.575C12.9894 151.117 14.2769 148.557 14.0409 145.771C13.8049 142.985 12.1063 140.695 9.79485 139.635L9.11874 131.655C11.2169 130.197 12.5044 127.636 12.2684 124.851C12.0324 122.065 10.3338 119.774 8.02235 118.715L7.34624 110.735C9.4444 109.277 10.7319 106.716 10.4959 103.931C10.2599 101.145 8.56133 98.8543 6.24985 97.7947L5.57374 89.8148C7.6719 88.3568 8.9594 85.7963 8.72338 83.0106C8.48736 80.225 6.78883 77.9342 4.47735 76.8746L3.80124 68.8947C5.89941 67.4367 7.18691 64.8762 6.95088 62.0905C6.71486 59.3049 5.01634 57.0142 2.70486 55.9545L2.02875 47.9747C4.12692 46.5167 5.41442 43.9562 5.1784 41.1705C4.94238 38.3849 3.24385 36.0942 0.932366 35.0345L0.348145 28.1392L37.2459 24.8058C38.0345 34.113 45.9805 40.9978 54.9939 40.1835Z" fill="#FCE2A9"/>
<path d="M55.1182 41.6489L63.1885 136.9" stroke="#F17032" stroke-width="0.735499" stroke-linecap="round" stroke-dasharray="5.88 5.88"/>
<path fill-rule="evenodd" clip-rule="evenodd" d="M42.39 14.073L5.35132 14.073V20.9946C7.56457 22.2583 9.0633 24.6932 9.0633 27.4895C9.0633 30.2858 7.56457 32.7207 5.35132 33.9843L5.35132 41.9946C7.56457 43.2583 9.0633 45.6932 9.0633 48.4895C9.0633 51.2858 7.56457 53.7206 5.35132 54.9843L5.35132 62.9946C7.56457 64.2583 9.0633 66.6932 9.0633 69.4895C9.0633 72.2858 7.56457 74.7206 5.35132 75.9843L5.35132 83.9946C7.56457 85.2583 9.0633 87.6931 9.0633 90.4895C9.0633 93.2858 7.56457 95.7207 5.35132 96.9843L5.35132 104.995C7.56457 106.258 9.0633 108.693 9.0633 111.489C9.0633 114.286 7.56457 116.721 5.35132 117.984L5.35132 125.995C7.56457 127.258 9.0633 129.693 9.0633 132.489C9.0633 135.286 7.56457 137.721 5.35132 138.984L5.35132 146.463H42.39V146.463C42.39 137.12 49.7247 129.546 58.7725 129.546C67.8203 129.546 75.155 137.12 75.155 146.463V146.463H312.345L312.345 139.074C310.044 137.838 308.471 135.353 308.471 132.49C308.471 129.626 310.044 127.141 312.345 125.905L312.345 118.074C310.044 116.838 308.471 114.353 308.471 111.49C308.471 108.626 310.044 106.141 312.345 104.905V97.0739C310.044 95.8382 308.471 93.3534 308.471 90.4895C308.471 87.6256 310.044 85.1408 312.345 83.9051V76.0739C310.044 74.8382 308.471 72.3534 308.471 69.4895C308.471 66.6256 310.044 64.1408 312.345 62.9051L312.345 55.0739C310.044 53.8382 308.471 51.3534 308.471 48.4895C308.471 45.6256 310.044 43.1408 312.345 41.9051L312.345 34.0739C310.044 32.8382 308.471 30.3534 308.471 27.4895C308.471 24.6256 310.044 22.1408 312.345 20.9051L312.345 14.073H75.155C75.1549 23.4156 67.8203 30.9893 58.7725 30.9893C49.7248 30.9893 42.3901 23.4156 42.39 14.073Z" fill="#595880"/>
<path d="M58.7725 32.4604L58.7725 128.075" stroke="#F2F2F9" stroke-width="0.735499" stroke-linecap="round" stroke-dasharray="5.88 5.88"/>
</g>
<defs>
<clipPath id="clip0_184_1184">
<rect width="317" height="159.514" fill="white" transform="translate(0.348145 0.510742)"/>
</clipPath>
</defs>
</svg>
