<svg width="61" height="60" viewBox="0 0 61 60" fill="none" xmlns="http://www.w3.org/2000/svg">
<circle cx="30.8362" cy="30" r="30" fill="#ACBE6F"/>
<path d="M40.5822 20.5038H40.5821V32.1798C40.5821 32.652 40.3786 33.0882 40.0658 33.4048L37.4183 36.0858L33.1378 40.4204L33.1298 40.4286C33.065 40.4942 32.9815 40.5788 32.892 40.642C32.0557 41.3781 31.0122 41.7463 29.969 41.7463C29.181 41.7463 28.416 41.5354 27.74 41.1362C27.0456 41.5342 26.2823 41.7463 25.5152 41.7463C24.3627 41.7463 23.2092 41.2953 22.3445 40.3934C22.3443 40.3932 22.3441 40.393 22.3438 40.3928L22.5213 40.2226C20.913 38.569 20.9378 35.8379 22.6203 34.1592L40.5822 20.5038ZM40.5822 20.5038L40.582 20.4965C40.5536 19.5466 39.8107 18.7547 38.827 18.7547H28.9298C27.9746 18.7547 27.1993 19.5441 27.1993 20.5038V29.1724L22.4467 33.9851C22.4464 33.9854 22.4462 33.9856 22.446 33.9858L40.5822 20.5038ZM23.4159 39.3505L23.4155 39.3501C22.2767 38.1738 22.3145 36.2469 23.5128 35.0335L28.4861 29.9973C28.6294 29.8522 28.7055 29.6653 28.7055 29.4738V22.7541H31.6778V29.172L26.8996 33.986L26.8991 33.9864C25.2363 35.6703 25.1032 38.3165 26.5192 40.0798C25.4638 40.465 24.2506 40.2169 23.4159 39.3505ZM31.9346 39.4927L31.9218 39.5014L31.9101 39.5116C30.7215 40.5532 28.9406 40.4831 27.8446 39.3502L27.8445 39.3501C26.7057 38.1738 26.7435 36.2469 27.9418 35.0335L32.9151 29.9973C33.0584 29.8522 33.1345 29.6653 33.1345 29.4738V22.7541H39.076V27.5791C36.7051 27.9421 34.8697 30.027 34.8697 32.5306C34.8697 33.6377 35.2113 34.6789 35.8531 35.5429L32.0704 39.3734C32.0212 39.4233 31.9866 39.4576 31.9346 39.4927ZM28.6807 20.5038C28.6807 20.3611 28.7963 20.2485 28.9298 20.2485H31.6688C31.6582 20.3331 31.6531 20.419 31.6531 20.5038V21.2602H28.6807V20.5038ZM39.076 32.1798C39.076 32.2388 39.0531 32.3025 38.9985 32.3578L36.9289 34.4535C36.5635 33.8885 36.3511 33.2263 36.3511 32.5306C36.3511 30.8473 37.5286 29.4404 39.076 29.1127V32.1798ZM39.076 21.2602H33.1345V20.5038C33.1345 20.3611 33.25 20.2485 33.3835 20.2485H38.827C38.9605 20.2485 39.076 20.3611 39.076 20.5038V21.2602Z" fill="#FFFDF2" stroke="#FFFDF2" stroke-width="0.491667"/>
<path d="M10.9978 26.7209C10.9645 27.0652 10.8543 27.3551 10.6672 27.5906C10.4759 27.821 10.2364 27.9903 9.94888 28.0987C9.66178 28.2024 9.34842 28.2379 9.0088 28.205C8.67382 28.1726 8.37771 28.0783 8.12047 27.9219C7.85902 27.7604 7.66112 27.5488 7.52678 27.2869C7.38824 27.0199 7.33562 26.7143 7.36891 26.37C7.39365 26.1141 7.46965 25.8867 7.5969 25.6877C7.7195 25.4882 7.88247 25.3326 8.08582 25.2207L6.14575 25.0331L6.21796 24.2864L11.103 24.7588L11.0335 25.4776L10.4935 25.4536C10.6641 25.5828 10.7975 25.7577 10.8935 25.9783C10.9896 26.1989 11.0244 26.4464 10.9978 26.7209ZM10.363 26.5116C10.3841 26.2929 10.3512 26.0996 10.2641 25.9315C10.177 25.7634 10.0492 25.629 9.88047 25.5281C9.71178 25.4273 9.5181 25.3663 9.29943 25.3451C9.0482 25.3208 8.83179 25.3492 8.6502 25.4303C8.46906 25.5067 8.3241 25.6218 8.2153 25.7756C8.10696 25.9248 8.04334 26.0971 8.02444 26.2925C8.0051 26.4926 8.03663 26.6764 8.11903 26.8441C8.20144 27.0117 8.32421 27.1503 8.48736 27.26C8.65095 27.3651 8.85138 27.4291 9.08866 27.452C9.32128 27.4745 9.53048 27.4478 9.71628 27.3718C9.90207 27.2959 10.0515 27.1835 10.1645 27.0348C10.2775 26.8861 10.3436 26.7117 10.363 26.5116Z" fill="#FFFDF2"/>
<path d="M11.7369 22.7273C11.6403 23.0497 11.4837 23.3199 11.2671 23.538C11.0473 23.7503 10.7825 23.893 10.4727 23.9661C10.1643 24.0347 9.83097 24.0153 9.47278 23.9079C9.11458 23.8006 8.82845 23.6319 8.61438 23.4019C8.40165 23.1673 8.26479 22.8994 8.20381 22.5981C8.1397 22.291 8.15594 21.9763 8.25255 21.6539C8.34915 21.3315 8.50577 21.0613 8.72239 20.8432C8.93901 20.6251 9.20065 20.4766 9.5073 20.3977C9.81395 20.3188 10.1486 20.3337 10.5113 20.4424C10.8516 20.5444 11.131 20.7111 11.3495 20.9425C11.5694 21.1694 11.7159 21.4377 11.789 21.7475C11.8576 22.056 11.8402 22.3826 11.7369 22.7273ZM11.121 22.5355C11.1801 22.3385 11.1831 22.1491 11.1302 21.9673C11.0787 21.7811 10.9813 21.6177 10.838 21.4772C10.6902 21.3353 10.5066 21.2315 10.2872 21.1657C10.0633 21.0987 9.85515 21.0851 9.66265 21.125C9.46701 21.1591 9.30161 21.2388 9.16644 21.3642C9.0268 21.4883 8.92679 21.651 8.86641 21.8525C8.80335 22.0629 8.79826 22.259 8.85114 22.4408C8.90537 22.6181 9.00548 22.7725 9.15147 22.9041C9.29432 23.0298 9.47321 23.1249 9.68813 23.1893C9.93438 23.2631 10.156 23.2807 10.353 23.2422C10.5513 23.1991 10.7158 23.1142 10.8465 22.9875C10.9772 22.8608 11.0687 22.7101 11.121 22.5355Z" fill="#FFFDF2"/>
<path d="M12.3762 20.4418L9.3067 18.8073L9.64283 18.1761L10.1012 18.4042C9.98695 18.211 9.93279 17.9995 9.93869 17.7696C9.94679 17.5356 10.0058 17.3155 10.1156 17.1092C10.3067 16.7503 10.5751 16.5198 10.9206 16.4179C11.2621 16.3137 11.6556 16.3803 12.1011 16.6176L13.902 17.5766L13.5527 18.2325L11.8323 17.3164C11.5558 17.1692 11.3104 17.1179 11.096 17.1626C10.8774 17.2051 10.7022 17.3501 10.5704 17.5977C10.4408 17.8411 10.421 18.0821 10.5111 18.3207C10.597 18.5571 10.7864 18.7533 11.0794 18.9093L12.7255 19.7858L12.3762 20.4418Z" fill="#FFFDF2"/>
<path d="M11.6979 15.0594L10.6015 13.7751L11.0693 13.127L12.0015 14.6387L11.6979 15.0594Z" fill="#FFFDF2"/>
<path d="M16.2563 14.5783C16.0244 14.835 15.7834 14.9763 15.5332 15.0023C15.283 15.0283 15.0157 14.9128 14.7313 14.656L13.4148 13.4671L13.0624 13.8573L12.5993 13.4391L12.9517 13.0488L12.3273 12.4849L12.8254 11.9334L13.4498 12.4973L14.0419 11.8417L14.505 12.2599L13.9129 12.9155L15.2294 14.1044C15.3612 14.2234 15.4763 14.2738 15.5746 14.2556C15.673 14.2374 15.7785 14.1658 15.8913 14.0409L16.1545 13.7495L16.6228 14.1724L16.2563 14.5783Z" fill="#FFFDF2"/>
<path d="M18.5886 12.3993L16.9016 10.0978L16.5283 10.3714L16.1594 9.8681L16.5326 9.59452L16.3171 9.30048C16.0933 8.99512 16.0103 8.71982 16.0681 8.47458C16.1232 8.22557 16.2883 8.00021 16.5635 7.79848L16.8237 7.60781L17.1967 8.11674L17.0327 8.23694C16.897 8.33642 16.8216 8.43516 16.8065 8.53316C16.7886 8.62739 16.8267 8.73859 16.9206 8.86676L17.132 9.15515L17.7314 8.71578L18.1004 9.21905L17.501 9.65842L19.188 11.9599L18.5886 12.3993Z" fill="#FFFDF2"/>
<path d="M21.841 10.4029C21.5416 10.5566 21.2383 10.631 20.9309 10.626C20.6256 10.6147 20.3392 10.5227 20.0719 10.35C19.8087 10.1751 19.5916 9.92141 19.4208 9.58879C19.2499 9.25618 19.1732 8.93299 19.1907 8.61923C19.2124 8.30333 19.3107 8.01901 19.4856 7.76625C19.6626 7.5072 19.9008 7.30079 20.2001 7.14702C20.4995 6.99325 20.8028 6.91888 21.1102 6.9239C21.4175 6.92892 21.7059 7.01463 21.9753 7.18103C22.2447 7.34743 22.4659 7.59902 22.6388 7.9358C22.8012 8.25178 22.8746 8.56873 22.8593 8.88665C22.8481 9.20243 22.7561 9.49401 22.5834 9.76137C22.4086 10.0246 22.1611 10.2384 21.841 10.4029ZM21.5525 9.82589C21.7354 9.73192 21.8741 9.60289 21.9685 9.43881C22.067 9.27259 22.1173 9.08913 22.1193 8.88842C22.1191 8.68356 22.0667 8.47926 21.9621 8.27554C21.8553 8.06765 21.7208 7.90815 21.5587 7.79702C21.3985 7.67961 21.2264 7.61563 21.0423 7.60509C20.8561 7.59039 20.6695 7.63109 20.4824 7.72719C20.2869 7.82757 20.142 7.9598 20.0477 8.12388C19.9574 8.28583 19.9155 8.46502 19.9218 8.66145C19.9301 8.85159 19.9856 9.04645 20.0881 9.24602C20.2055 9.47469 20.3464 9.64667 20.5107 9.76195C20.6792 9.8751 20.8544 9.93486 21.0364 9.94125C21.2183 9.94763 21.3903 9.90918 21.5525 9.82589Z" fill="#FFFDF2"/>
<path d="M24.0183 9.31128L22.9324 6.00762L23.6118 5.7843L23.8157 6.33722C23.861 6.10091 23.9609 5.89587 24.1153 5.7221C24.2727 5.54242 24.4825 5.40953 24.7444 5.32341L24.9875 6.06274L24.7943 6.12623C24.479 6.22986 24.2707 6.38937 24.1693 6.60475C24.0664 6.81569 24.0697 7.08768 24.1792 7.42071L24.7244 9.0792L24.0183 9.31128Z" fill="#FFFDF2"/>
<path d="M27.9473 9.92932C27.657 9.97895 27.3816 9.99048 27.121 9.96391C26.8604 9.93734 26.6403 9.85643 26.4606 9.72117C26.2864 9.58973 26.1769 9.3927 26.132 9.13009C26.102 8.95501 26.116 8.80088 26.1738 8.6677C26.2317 8.53452 26.3253 8.41656 26.4547 8.31381C26.3285 8.269 26.2245 8.20143 26.1427 8.1111C26.0608 8.02077 26.0085 7.9088 25.9857 7.77519C25.936 7.48493 26.0306 7.23402 26.2695 7.02247C26.1546 6.93305 26.0581 6.82626 25.98 6.7021C25.9019 6.57794 25.8494 6.43754 25.8226 6.28089C25.7801 6.0321 25.8034 5.80762 25.8924 5.60745C25.9807 5.40268 26.1202 5.23419 26.311 5.10199C26.501 4.96518 26.7296 4.87393 26.9968 4.82824C27.195 4.79436 27.3817 4.79089 27.557 4.81782L28.7595 4.61221L28.8576 5.18582L28.3531 5.27208C28.4095 5.35253 28.4571 5.43686 28.4959 5.52506C28.5393 5.61248 28.5697 5.70687 28.587 5.80823C28.6303 6.06163 28.6055 6.29111 28.5127 6.49667C28.4236 6.69684 28.2841 6.86533 28.0941 7.00214C27.9033 7.13434 27.6766 7.22289 27.414 7.26779C27.2942 7.28828 27.1816 7.29566 27.0763 7.28996C26.9702 7.27965 26.8626 7.26012 26.7533 7.23138C26.6522 7.30557 26.6115 7.40026 26.6312 7.51544C26.6682 7.73198 26.8687 7.80914 27.2327 7.7469L27.834 7.6441C28.1012 7.59841 28.3378 7.59588 28.544 7.63651C28.7539 7.67175 28.9252 7.75863 29.058 7.89716C29.1953 8.0349 29.2857 8.23047 29.329 8.48387C29.3715 8.73266 29.3341 8.9572 29.2166 9.15749C29.1037 9.35698 28.9353 9.52329 28.7115 9.6564C28.4877 9.78951 28.2329 9.88048 27.9473 9.92932ZM27.8399 9.34308C28.0887 9.30054 28.2932 9.22053 28.4533 9.10306C28.6134 8.98558 28.6781 8.83701 28.6474 8.65732C28.5906 8.3256 28.348 8.19637 27.9196 8.26963L27.3736 8.36298C27.1709 8.39764 27.019 8.46628 26.918 8.56891C26.817 8.67153 26.7807 8.80578 26.8091 8.97164C26.8311 9.10064 26.8926 9.19682 26.9935 9.26018C27.0945 9.32354 27.2191 9.35913 27.3674 9.36696C27.5166 9.3794 27.6741 9.37144 27.8399 9.34308ZM27.3066 6.68155C27.5139 6.6461 27.6719 6.55745 27.7804 6.4156C27.8935 6.27297 27.9343 6.10951 27.9028 5.92521C27.8721 5.74553 27.7797 5.60722 27.6256 5.51027C27.4761 5.41254 27.2977 5.3814 27.0904 5.41685C26.883 5.4523 26.7251 5.54095 26.6166 5.68279C26.5127 5.82385 26.4761 5.98422 26.5068 6.16391C26.5383 6.3482 26.6242 6.49 26.7645 6.58931C26.9094 6.68782 27.0901 6.71857 27.3066 6.68155Z" fill="#FFFDF2"/>
<path d="M31.4984 8.09946C31.1572 8.09682 30.8563 8.01738 30.5957 7.86111C30.3352 7.70485 30.1312 7.48826 29.9837 7.21134C29.841 6.93445 29.771 6.6184 29.7737 6.26317C29.7766 5.89393 29.8515 5.57432 29.9985 5.30434C30.1454 5.03437 30.3504 4.82561 30.6133 4.67806C30.8809 4.52588 31.1876 4.45112 31.5335 4.45379C31.87 4.45639 32.1639 4.53344 32.4152 4.68496C32.6665 4.8318 32.8612 5.03197 32.9995 5.28544C33.1424 5.53896 33.2127 5.82697 33.2102 6.14948C33.2097 6.21491 33.2069 6.27098 33.2019 6.31769C33.2015 6.36443 33.1964 6.42048 33.1865 6.48584L30.5154 6.46522C30.5279 6.66164 30.5756 6.83729 30.6585 6.99218C30.7415 7.1424 30.8551 7.26247 30.9993 7.35239C31.1436 7.43765 31.3092 7.48099 31.4961 7.48244C31.6971 7.48399 31.868 7.4409 32.0089 7.35318C32.1546 7.26082 32.2631 7.13077 32.3345 6.96305L33.1057 6.96901C33.0433 7.17887 32.939 7.36971 32.7928 7.54153C32.6512 7.71338 32.4725 7.84989 32.2567 7.95106C32.0409 8.05223 31.7881 8.1017 31.4984 8.09946ZM30.5264 5.93945L32.4545 5.95433C32.4472 5.68317 32.353 5.46976 32.1719 5.31411C31.9909 5.15379 31.7695 5.07262 31.5077 5.0706C31.274 5.06879 31.0608 5.1396 30.868 5.28301C30.6753 5.42643 30.5614 5.64524 30.5264 5.93945Z" fill="#FFFDF2"/>
<path d="M34.8857 8.33478C34.5445 8.27779 34.2956 8.15091 34.1389 7.95413C33.9822 7.75736 33.9355 7.46995 33.9986 7.09191L34.2909 5.34231L33.7722 5.25568L33.875 4.64021L34.3937 4.72684L34.5323 3.897L35.2653 4.01944L35.1267 4.84929L35.9981 4.99484L35.8953 5.61031L35.0239 5.46476L34.7317 7.21436C34.7024 7.38955 34.7219 7.51366 34.7903 7.58668C34.8587 7.65971 34.9758 7.71008 35.1418 7.73781L35.5291 7.8025L35.4251 8.42488L34.8857 8.33478Z" fill="#FFFDF2"/>
<path d="M39.0473 9.64634C38.7968 9.5426 38.5858 9.40462 38.4143 9.2324C38.2446 9.05586 38.1289 8.85871 38.0674 8.64095C38.0058 8.4232 38.0098 8.19973 38.0794 7.97055L38.7725 8.25762C38.7384 8.4256 38.7655 8.58608 38.8539 8.73906C38.9423 8.89204 39.0837 9.00878 39.278 9.08927C39.4508 9.16081 39.6063 9.18223 39.7447 9.15354C39.8848 9.12052 39.9808 9.0414 40.0327 8.91616C40.0774 8.8082 40.0756 8.70879 40.0272 8.61793C39.9832 8.52885 39.9122 8.44379 39.8142 8.36274C39.7205 8.28347 39.6143 8.20406 39.4955 8.12449C39.3165 7.99471 39.1528 7.85861 39.0044 7.71618C38.8603 7.57554 38.7593 7.42241 38.7014 7.25678C38.6435 7.09115 38.6566 6.90685 38.7407 6.70389C38.8229 6.50524 38.9454 6.35613 39.1081 6.25655C39.2768 6.15444 39.4702 6.10297 39.6881 6.10215C39.9059 6.10133 40.1315 6.14921 40.3647 6.2458C40.7145 6.39067 40.9693 6.59993 41.1291 6.87357C41.2908 7.14289 41.3148 7.45133 41.2012 7.7989L40.5405 7.52524C40.5858 7.36695 40.5693 7.22352 40.4911 7.09497C40.4171 6.9682 40.2937 6.86905 40.121 6.7975C39.9612 6.73133 39.8182 6.71006 39.6921 6.73369C39.5677 6.75301 39.4796 6.82529 39.4277 6.95052C39.392 7.03689 39.3961 7.12461 39.4402 7.21369C39.486 7.29844 39.5549 7.38261 39.6467 7.46619C39.7447 7.54724 39.8479 7.62792 39.9563 7.70823C40.1568 7.84696 40.3292 7.98664 40.4733 8.12727C40.6174 8.26791 40.7153 8.42231 40.7671 8.59047C40.8189 8.75863 40.8013 8.95372 40.7144 9.17575C40.6322 9.3744 40.5036 9.52604 40.3287 9.63068C40.1599 9.73279 39.9635 9.78552 39.7395 9.78887C39.5199 9.79401 39.2891 9.7465 39.0473 9.64634Z" fill="#FFFDF2"/>
<path d="M42.0723 11.2141C41.789 11.0324 41.5724 10.8074 41.4225 10.539C41.279 10.2693 41.2148 9.97546 41.2299 9.65753C41.249 9.34213 41.3594 9.02705 41.5613 8.71231C41.7632 8.39756 42.0042 8.16899 42.2844 8.0266C42.5684 7.88674 42.8637 7.82901 43.1701 7.85342C43.483 7.87641 43.7811 7.97876 44.0643 8.16046C44.3476 8.34216 44.5642 8.56718 44.7142 8.83551C44.8641 9.10384 44.9348 9.39627 44.9261 9.71279C44.9175 10.0293 44.8109 10.3469 44.6065 10.6656C44.4147 10.9646 44.1775 11.1873 43.8948 11.3336C43.6161 11.4824 43.3178 11.5493 42.9998 11.5342C42.6844 11.5151 42.3753 11.4084 42.0723 11.2141ZM42.4265 10.6749C42.5996 10.786 42.7808 10.8411 42.9701 10.8404C43.1633 10.8421 43.3472 10.7935 43.5218 10.6945C43.6989 10.5915 43.8493 10.4436 43.9729 10.2509C44.0991 10.0541 44.1695 9.85776 44.1842 9.66172C44.2054 9.46427 44.1743 9.2833 44.091 9.11881C44.0102 8.95038 43.8813 8.80939 43.7043 8.69583C43.5194 8.57722 43.3323 8.51829 43.143 8.51904C42.9576 8.52232 42.7816 8.57599 42.6149 8.68007C42.4546 8.78274 42.3139 8.9285 42.1928 9.11735C42.054 9.33374 41.976 9.54192 41.9588 9.7419C41.9455 9.9444 41.9818 10.1259 42.0676 10.2865C42.1534 10.447 42.273 10.5765 42.4265 10.6749Z" fill="#FFFDF2"/>
<path d="M45.2078 13.6478C44.9596 13.4136 44.7932 13.1506 44.7087 12.8588C44.6241 12.567 44.6205 12.2712 44.6977 11.9713C44.7782 11.6681 44.9419 11.3856 45.1889 11.1238C45.4327 10.8654 45.7019 10.6857 45.9966 10.5845C46.2912 10.4834 46.5867 10.4665 46.8829 10.5339C47.1791 10.6014 47.4547 10.7554 47.7097 10.996C48.0123 11.2814 48.1935 11.6002 48.2534 11.9523C48.3198 12.3041 48.2538 12.6499 48.0554 12.9897L47.4842 12.4508C47.5723 12.2961 47.5971 12.1268 47.5587 11.9427C47.5237 11.7619 47.428 11.5977 47.2716 11.4501C47.1118 11.2994 46.9407 11.2151 46.7583 11.1972C46.5792 11.176 46.3998 11.206 46.2203 11.2873C46.0475 11.3683 45.8872 11.4871 45.7397 11.6435C45.5857 11.8066 45.4734 11.9802 45.4027 12.1641C45.3386 12.3478 45.3223 12.5285 45.354 12.7061C45.3922 12.8836 45.4861 13.0429 45.6357 13.184C45.7887 13.3284 45.9533 13.4162 46.1294 13.4474C46.3088 13.4753 46.4829 13.4371 46.6518 13.333L47.223 13.8719C47.0122 14.0136 46.7898 14.0994 46.5559 14.1294C46.322 14.1593 46.0882 14.1347 45.8545 14.0555C45.6239 13.973 45.4083 13.837 45.2078 13.6478Z" fill="#FFFDF2"/>
<path d="M46.6834 14.9732L50.6204 12.0429L51.0641 12.6391L48.7413 14.368L50.687 14.5279L51.248 15.2816L49.0038 15.0378L48.5253 17.4479L47.956 16.683L48.4432 14.5898L47.1271 15.5694L46.6834 14.9732Z" fill="#FFFDF2"/>
<path d="M49.3518 19.1695C49.228 18.9284 49.1564 18.6867 49.137 18.4444C49.1218 18.2 49.1612 17.9748 49.2551 17.7689C49.349 17.563 49.4967 17.3952 49.698 17.2655L50.0408 17.9328C49.9061 18.0388 49.8229 18.1787 49.7914 18.3526C49.7598 18.5265 49.7921 18.7069 49.8882 18.894C49.9736 19.0603 50.0784 19.1773 50.2024 19.2449C50.3307 19.3104 50.4551 19.3122 50.5756 19.2503C50.6796 19.1969 50.7425 19.1199 50.7644 19.0193C50.7885 18.9229 50.7893 18.8121 50.7671 18.6869C50.7469 18.5659 50.7173 18.4366 50.6782 18.2991C50.6257 18.0843 50.5889 17.8746 50.5679 17.67C50.549 17.4695 50.571 17.2874 50.6341 17.1237C50.6971 16.9599 50.8263 16.8279 51.0217 16.7275C51.213 16.6292 51.4028 16.5948 51.5913 16.6241C51.786 16.6554 51.9668 16.7412 52.1334 16.8816C52.3001 17.0219 52.4411 17.2044 52.5564 17.4289C52.7294 17.7656 52.7883 18.0901 52.7332 18.4022C52.6822 18.7121 52.501 18.9628 52.1895 19.1544L51.8627 18.5182C51.9997 18.4268 52.0799 18.3068 52.1034 18.1581C52.129 18.0136 52.0991 17.8582 52.0137 17.6919C51.9347 17.5381 51.8394 17.4293 51.7279 17.3658C51.6206 17.3 51.5066 17.2981 51.3861 17.3601C51.3029 17.4028 51.2493 17.4723 51.2253 17.5688C51.2054 17.6631 51.2034 17.7718 51.2194 17.8949C51.2417 18.0201 51.2682 18.1484 51.2989 18.2798C51.362 18.5153 51.4031 18.7333 51.422 18.9338C51.4409 19.1343 51.4157 19.3154 51.3464 19.4771C51.277 19.6388 51.1374 19.7762 50.9275 19.8893C50.7363 19.9875 50.5401 20.02 50.3391 19.9866C50.1443 19.9553 49.9605 19.8684 49.7875 19.7261C49.6167 19.5879 49.4714 19.4024 49.3518 19.1695Z" fill="#FFFDF2"/>
<path d="M51.6526 20.5223L54.867 19.2678L55.1394 20.0192L51.8676 21.1155L51.6526 20.5223ZM50.3411 21.3481C50.2933 21.2163 50.2974 21.0905 50.3535 20.9707C50.4139 20.8494 50.5078 20.7656 50.6353 20.7195C50.7627 20.6733 50.8863 20.6782 51.006 20.7342C51.1302 20.7887 51.2161 20.8818 51.2639 21.0136C51.3117 21.1455 51.3054 21.2721 51.2449 21.3934C51.1889 21.5131 51.0971 21.5961 50.9697 21.6423C50.8423 21.6885 50.7165 21.6843 50.5923 21.6299C50.4726 21.5739 50.3888 21.4799 50.3411 21.3481Z" fill="#FFFDF2"/>
<path d="M50.1744 33.1653C50.2077 32.821 50.3179 32.5311 50.5051 32.2957C50.6964 32.0653 50.9358 31.8959 51.2234 31.7875C51.5105 31.6838 51.8238 31.6483 52.1634 31.6812C52.4984 31.7136 52.7945 31.808 53.0518 31.9643C53.3132 32.1258 53.5111 32.3375 53.6455 32.5993C53.784 32.8663 53.8366 33.1719 53.8033 33.5162C53.7786 33.7721 53.7026 33.9996 53.5753 34.1986C53.4527 34.398 53.2898 34.5537 53.0864 34.6655L55.0265 34.8531L54.9543 35.5998L50.0692 35.1274L50.1387 34.4086L50.6788 34.4327C50.5081 34.3035 50.3748 34.1286 50.2787 33.908C50.1826 33.6874 50.1479 33.4398 50.1744 33.1653ZM50.8093 33.3746C50.7881 33.5933 50.8211 33.7867 50.9081 33.9547C50.9952 34.1228 51.1231 34.2573 51.2918 34.3581C51.4605 34.459 51.6541 34.5199 51.8728 34.5411C52.124 34.5654 52.3405 34.537 52.522 34.456C52.7032 34.3795 52.8481 34.2644 52.9569 34.1106C53.0653 33.9614 53.1289 33.7891 53.1478 33.5937C53.1671 33.3937 53.1356 33.2098 53.0532 33.0422C52.9708 32.8745 52.848 32.7359 52.6849 32.6262C52.5213 32.5211 52.3209 32.4572 52.0836 32.4342C51.851 32.4117 51.6418 32.4384 51.456 32.5144C51.2702 32.5904 51.1208 32.7027 51.0078 32.8514C50.8948 33.0002 50.8286 33.1746 50.8093 33.3746Z" fill="#FFFDF2"/>
<path d="M49.4353 37.1594C49.532 36.837 49.6886 36.5668 49.9052 36.3487C50.1249 36.1364 50.3897 35.9937 50.6995 35.9207C51.008 35.8521 51.3413 35.8714 51.6995 35.9788C52.0577 36.0861 52.3438 36.2548 52.5579 36.4849C52.7706 36.7194 52.9074 36.9873 52.9684 37.2886C53.0325 37.5957 53.0163 37.9104 52.9197 38.2328C52.8231 38.5552 52.6665 38.8254 52.4499 39.0435C52.2332 39.2616 51.9716 39.4101 51.6649 39.489C51.3583 39.5679 51.0236 39.553 50.661 39.4443C50.3207 39.3423 50.0413 39.1756 49.8227 38.9443C49.6028 38.7173 49.4563 38.449 49.3833 38.1392C49.3147 37.8307 49.332 37.5041 49.4353 37.1594ZM50.0512 37.3513C49.9922 37.5483 49.9891 37.7376 50.042 37.9194C50.0935 38.1056 50.191 38.269 50.3343 38.4095C50.4821 38.5514 50.6656 38.6552 50.885 38.721C51.1089 38.7881 51.3171 38.8017 51.5096 38.7617C51.7052 38.7277 51.8706 38.6479 52.0058 38.5225C52.1454 38.3985 52.2455 38.2357 52.3058 38.0342C52.3689 37.8238 52.374 37.6277 52.3211 37.4459C52.2669 37.2687 52.1668 37.1142 52.0208 36.9826C51.8779 36.8569 51.699 36.7618 51.4841 36.6974C51.2379 36.6236 51.0162 36.606 50.8193 36.6446C50.6209 36.6876 50.4564 36.7725 50.3257 36.8992C50.1951 37.026 50.1035 37.1766 50.0512 37.3513Z" fill="#FFFDF2"/>
<path d="M48.7962 39.4444L51.8657 41.079L51.5295 41.7102L51.0712 41.482C51.1854 41.6752 51.2396 41.8867 51.2337 42.1166C51.2256 42.3506 51.1666 42.5707 51.0567 42.777C50.8656 43.1359 50.5973 43.3664 50.2517 43.4683C49.9103 43.5725 49.5168 43.5059 49.0712 43.2687L47.2704 42.3097L47.6197 41.6537L49.3401 42.5698C49.6165 42.717 49.862 42.7683 50.0764 42.7236C50.2949 42.6811 50.4701 42.5361 50.6019 42.2886C50.7316 42.0452 50.7513 41.8042 50.6613 41.5656C50.5753 41.3292 50.3859 41.133 50.093 40.977L48.4469 40.1004L48.7962 39.4444Z" fill="#FFFDF2"/>
<path d="M49.4744 44.8268L50.5707 46.1111L50.1029 46.7592L49.1707 45.2475L49.4744 44.8268Z" fill="#FFFDF2"/>
<path d="M44.9161 45.3079C45.1479 45.0512 45.3889 44.9099 45.6391 44.8839C45.8893 44.8579 46.1567 44.9734 46.4411 45.2303L47.7576 46.4192L48.11 46.0289L48.5731 46.4471L48.2207 46.8374L48.8451 47.4013L48.347 47.9528L47.7225 47.3889L47.1305 48.0446L46.6674 47.6263L47.2594 46.9707L45.943 45.7818C45.8112 45.6628 45.6961 45.6124 45.5977 45.6306C45.4994 45.6489 45.3938 45.7204 45.281 45.8453L45.0179 46.1367L44.5496 45.7138L44.9161 45.3079Z" fill="#FFFDF2"/>
<path d="M42.5837 47.487L44.2707 49.7884L44.6439 49.5149L45.0128 50.0181L44.6396 50.2917L44.8551 50.5858C45.079 50.8911 45.162 51.1664 45.1041 51.4116C45.049 51.6607 44.8839 51.886 44.6087 52.0877L44.3486 52.2784L43.9755 51.7695L44.1395 51.6493C44.2752 51.5498 44.3506 51.4511 44.3657 51.3531C44.3836 51.2588 44.3455 51.1476 44.2516 51.0195L44.0402 50.7311L43.4408 51.1705L43.0719 50.6672L43.6713 50.2278L41.9843 47.9263L42.5837 47.487Z" fill="#FFFDF2"/>
<path d="M39.3314 49.4834C39.6307 49.3296 39.9341 49.2552 40.2415 49.2603C40.5468 49.2716 40.8331 49.3636 41.1005 49.5363C41.3637 49.7111 41.5807 49.9648 41.7516 50.2974C41.9224 50.6301 41.9991 50.9532 41.9816 51.267C41.96 51.5829 41.8617 51.8672 41.6867 52.12C41.5098 52.379 41.2716 52.5854 40.9723 52.7392C40.6729 52.893 40.3695 52.9673 40.0622 52.9623C39.7548 52.9573 39.4665 52.8716 39.1971 52.7052C38.9277 52.5388 38.7065 52.2872 38.5335 51.9504C38.3712 51.6344 38.2977 51.3175 38.3131 50.9996C38.3243 50.6838 38.4162 50.3922 38.5889 50.1249C38.7638 49.8616 39.0112 49.6478 39.3314 49.4834ZM39.6199 50.0603C39.4369 50.1543 39.2983 50.2833 39.2039 50.4474C39.1054 50.6136 39.0551 50.7971 39.0531 50.9978C39.0532 51.2027 39.1056 51.407 39.2103 51.6107C39.3171 51.8186 39.4515 51.9781 39.6137 52.0892C39.7739 52.2066 39.946 52.2706 40.13 52.2811C40.3163 52.2958 40.5029 52.2551 40.69 52.159C40.8854 52.0587 41.0303 51.9264 41.1247 51.7624C41.2149 51.6004 41.2569 51.4212 41.2506 51.2248C41.2422 51.0346 41.1868 50.8398 41.0843 50.6402C40.9668 50.4115 40.8259 50.2396 40.6616 50.1243C40.4932 50.0111 40.318 49.9514 40.136 49.945C39.9541 49.9386 39.782 49.9771 39.6199 50.0603Z" fill="#FFFDF2"/>
<path d="M37.1539 50.575L38.2399 53.8786L37.5605 54.1019L37.3566 53.549C37.3113 53.7853 37.2114 53.9904 37.0569 54.1641C36.8995 54.3438 36.6898 54.4767 36.4278 54.5628L36.1848 53.8235L36.3779 53.76C36.6932 53.6564 36.9015 53.4969 37.0029 53.2815C37.1058 53.0705 37.1025 52.7986 36.993 52.4655L36.4479 50.807L37.1539 50.575Z" fill="#FFFDF2"/>
<path d="M33.225 49.9569C33.5152 49.9073 33.7907 49.8957 34.0513 49.9223C34.3119 49.9489 34.532 50.0298 34.7116 50.1651C34.8858 50.2965 34.9954 50.4935 35.0403 50.7561C35.0702 50.9312 35.0563 51.0853 34.9984 51.2185C34.9406 51.3517 34.8469 51.4697 34.7175 51.5724C34.8437 51.6172 34.9477 51.6848 35.0296 51.7751C35.1114 51.8655 35.1637 51.9774 35.1866 52.111C35.2362 52.4013 35.1416 52.6522 34.9027 52.8638C35.0176 52.9532 35.1141 53.06 35.1922 53.1841C35.2704 53.3083 35.3228 53.4487 35.3496 53.6053C35.3922 53.8541 35.3689 54.0786 35.2798 54.2788C35.1915 54.4836 35.052 54.652 34.8612 54.7842C34.6712 54.9211 34.4426 55.0123 34.1754 55.058C33.9773 55.0919 33.7906 55.0953 33.6153 55.0684L32.4128 55.274L32.3147 54.7004L32.8192 54.6142C32.7627 54.5337 32.7151 54.4494 32.6763 54.3612C32.6329 54.2737 32.6026 54.1794 32.5852 54.078C32.5419 53.8246 32.5667 53.5951 32.6596 53.3896C32.7486 53.1894 32.8882 53.0209 33.0782 52.8841C33.269 52.7519 33.4957 52.6633 33.7583 52.6184C33.8781 52.598 33.9906 52.5906 34.0959 52.5963C34.202 52.6066 34.3097 52.6261 34.4189 52.6549C34.52 52.5807 34.5607 52.486 34.541 52.3708C34.504 52.1542 34.3035 52.0771 33.9395 52.1393L33.3383 52.2421C33.0711 52.2878 32.8344 52.2904 32.6283 52.2497C32.4184 52.2145 32.247 52.1276 32.1143 51.9891C31.9769 51.8513 31.8866 51.6558 31.8432 51.4024C31.8007 51.1536 31.8382 50.929 31.9557 50.7287C32.0686 50.5292 32.2369 50.3629 32.4607 50.2298C32.6846 50.0967 32.9393 50.0057 33.225 49.9569ZM33.3323 50.5432C33.0835 50.5857 32.8791 50.6657 32.719 50.7832C32.5588 50.9006 32.4942 51.0492 32.5249 51.2289C32.5816 51.5606 32.8242 51.6899 33.2527 51.6166L33.7986 51.5233C34.0014 51.4886 34.1532 51.4199 34.2542 51.3173C34.3552 51.2147 34.3915 51.0805 34.3632 50.9146C34.3411 50.7856 34.2796 50.6894 34.1787 50.6261C34.0778 50.5627 33.9531 50.5271 33.8048 50.5193C33.6557 50.5068 33.4982 50.5148 33.3323 50.5432ZM33.8656 53.2047C33.6583 53.2401 33.5004 53.3288 33.3919 53.4706C33.2787 53.6133 33.2379 53.7767 33.2694 53.961C33.3001 54.1407 33.3926 54.279 33.5466 54.376C33.6961 54.4737 33.8745 54.5048 34.0819 54.4694C34.2892 54.4339 34.4471 54.3453 34.5556 54.2034C34.6596 54.0624 34.6962 53.902 34.6654 53.7223C34.6339 53.538 34.548 53.3962 34.4078 53.2969C34.2629 53.1984 34.0822 53.1677 33.8656 53.2047Z" fill="#FFFDF2"/>
<path d="M29.674 51.7868C30.0152 51.7894 30.3161 51.8689 30.5766 52.0251C30.8372 52.1814 31.0412 52.398 31.1886 52.6749C31.3314 52.9518 31.4014 53.2678 31.3987 53.6231C31.3958 53.9923 31.3209 54.3119 31.1739 54.5819C31.0269 54.8519 30.822 55.0606 30.5591 55.2082C30.2915 55.3604 29.9847 55.4351 29.6388 55.4324C29.3023 55.4298 29.0084 55.3528 28.7572 55.2013C28.5059 55.0544 28.3111 54.8543 28.1729 54.6008C28.0299 54.3473 27.9597 54.0593 27.9622 53.7368C27.9627 53.6713 27.9655 53.6152 27.9705 53.5685C27.9709 53.5218 27.976 53.4658 27.9858 53.4004L30.657 53.421C30.6445 53.2246 30.5968 53.0489 30.5138 52.894C30.4309 52.7438 30.3173 52.6238 30.1731 52.5338C30.0288 52.4486 29.8632 52.4052 29.6762 52.4038C29.4753 52.4022 29.3043 52.4453 29.1634 52.5331C29.0178 52.6254 28.9093 52.7555 28.8379 52.9232L28.0667 52.9172C28.1291 52.7074 28.2334 52.5165 28.3796 52.3447C28.5211 52.1728 28.6998 52.0363 28.9156 51.9352C29.1314 51.834 29.3842 51.7845 29.674 51.7868ZM30.6459 53.9468L28.7179 53.9319C28.7252 54.2031 28.8193 54.4165 29.0004 54.5721C29.1815 54.7324 29.4029 54.8136 29.6646 54.8156C29.8983 54.8174 30.1116 54.7466 30.3043 54.6032C30.4971 54.4598 30.6109 54.241 30.6459 53.9468Z" fill="#FFFDF2"/>
<path d="M26.2865 51.5515C26.6277 51.6084 26.8766 51.7353 27.0333 51.9321C27.19 52.1289 27.2368 52.4163 27.1736 52.7943L26.8814 54.5439L27.4 54.6306L27.2972 55.246L26.7785 55.1594L26.6399 55.9892L25.9069 55.8668L26.0455 55.0369L25.1742 54.8914L25.277 54.2759L26.1483 54.4215L26.4406 52.6719C26.4699 52.4967 26.4503 52.3726 26.3819 52.2995C26.3136 52.2265 26.1964 52.1761 26.0304 52.1484L25.6432 52.0837L25.7471 51.4613L26.2865 51.5515Z" fill="#FFFDF2"/>
<path d="M22.125 50.2404C22.3754 50.3441 22.5864 50.4821 22.7579 50.6543C22.9276 50.8309 23.0433 51.028 23.1049 51.2458C23.1665 51.4635 23.1624 51.687 23.0928 51.9162L22.3997 51.6291C22.4339 51.4611 22.4067 51.3006 22.3183 51.1477C22.2299 50.9947 22.0885 50.8779 21.8942 50.7975C21.7215 50.7259 21.5659 50.7045 21.4276 50.7332C21.2874 50.7662 21.1914 50.8453 21.1395 50.9706C21.0948 51.0785 21.0966 51.1779 21.145 51.2688C21.1891 51.3579 21.2601 51.4429 21.3581 51.524C21.4517 51.6032 21.5579 51.6827 21.6768 51.7622C21.8557 51.892 22.0194 52.0281 22.1679 52.1705C22.312 52.3112 22.413 52.4643 22.4709 52.6299C22.5287 52.7956 22.5157 52.9799 22.4316 53.1828C22.3493 53.3815 22.2268 53.5306 22.0642 53.6302C21.8954 53.7323 21.7021 53.7837 21.4842 53.7846C21.2663 53.7854 21.0408 53.7375 20.8076 53.6409C20.4578 53.496 20.203 53.2868 20.0431 53.0131C19.8814 52.7438 19.8574 52.4354 19.971 52.0878L20.6317 52.3615C20.5864 52.5198 20.6029 52.6632 20.6812 52.7918C20.7552 52.9185 20.8785 53.0177 21.0513 53.0892C21.211 53.1554 21.354 53.1767 21.4802 53.153C21.6045 53.1337 21.6926 53.0614 21.7445 52.9362C21.7803 52.8498 21.7761 52.7621 21.7321 52.673C21.6862 52.5883 21.6174 52.5041 21.5255 52.4205C21.4276 52.3395 21.3244 52.2588 21.216 52.1785C21.0154 52.0398 20.8431 51.9001 20.699 51.7594C20.5548 51.6188 20.4569 51.4644 20.4051 51.2962C20.3533 51.1281 20.3709 50.933 20.4578 50.711C20.5401 50.5123 20.6687 50.3607 20.8435 50.256C21.0123 50.1539 21.2087 50.1012 21.4327 50.0978C21.6524 50.0927 21.8831 50.1402 22.125 50.2404Z" fill="#FFFDF2"/>
<path d="M19.0999 48.6721C19.3832 48.8538 19.5998 49.0789 19.7498 49.3472C19.8933 49.6169 19.9575 49.9108 19.9423 50.2287C19.9233 50.5441 19.8128 50.8592 19.6109 51.1739C19.409 51.4887 19.168 51.7172 18.8879 51.8596C18.6038 51.9995 18.3086 52.0572 18.0021 52.0328C17.6892 52.0098 17.3912 51.9075 17.1079 51.7258C16.8246 51.5441 16.608 51.3191 16.4581 51.0507C16.3081 50.7824 16.2374 50.49 16.2461 50.1734C16.2548 49.8569 16.3613 49.5393 16.5657 49.2206C16.7575 48.9216 16.9948 48.699 17.2774 48.5526C17.5561 48.4038 17.8545 48.3369 18.1724 48.3521C18.4878 48.3711 18.797 48.4778 19.0999 48.6721ZM18.7458 49.2113C18.5727 49.1002 18.3915 49.0451 18.2022 49.0459C18.0089 49.0441 17.825 49.0927 17.6505 49.1917C17.4734 49.2947 17.323 49.4426 17.1993 49.6354C17.0731 49.8321 17.0027 50.0285 16.988 50.2245C16.9669 50.422 16.9979 50.6029 17.0812 50.7674C17.162 50.9358 17.2909 51.0768 17.468 51.1904C17.6529 51.309 17.84 51.3679 18.0293 51.3672C18.2146 51.3639 18.3907 51.3102 18.5574 51.2062C18.7176 51.1035 18.8583 50.9577 18.9795 50.7689C19.1183 50.5525 19.1963 50.3443 19.2135 50.1443C19.2267 49.9418 19.1905 49.7603 19.1047 49.5998C19.0188 49.4392 18.8992 49.3097 18.7458 49.2113Z" fill="#FFFDF2"/>
<path d="M15.9646 46.2384C16.2128 46.4726 16.3792 46.7356 16.4637 47.0274C16.5482 47.3192 16.5519 47.6151 16.4746 47.9149C16.3942 48.2181 16.2304 48.5006 15.9834 48.7624C15.7397 49.0208 15.4704 49.2006 15.1758 49.3017C14.8812 49.4029 14.5857 49.4197 14.2895 49.3523C13.9932 49.2848 13.7176 49.1308 13.4626 48.8903C13.1601 48.6048 12.9788 48.286 12.919 47.934C12.8526 47.5821 12.9186 47.2363 13.117 46.8966L13.6882 47.4355C13.6001 47.5901 13.5752 47.7595 13.6137 47.9435C13.6487 48.1244 13.7444 48.2886 13.9008 48.4361C14.0606 48.5869 14.2316 48.6712 14.414 48.689C14.5932 48.7103 14.7725 48.6802 14.952 48.599C15.1249 48.5179 15.2851 48.3992 15.4327 48.2428C15.5866 48.0796 15.699 47.906 15.7697 47.7221C15.8338 47.5384 15.85 47.3577 15.8184 47.1801C15.7802 47.0026 15.6863 46.8434 15.5367 46.7022C15.3837 46.5579 15.2191 46.4701 15.043 46.4388C14.8636 46.411 14.6895 46.4491 14.5205 46.5532L13.9494 46.0143C14.1602 45.8726 14.3825 45.7868 14.6164 45.7569C14.8503 45.7269 15.0841 45.7515 15.3179 45.8307C15.5485 45.9133 15.764 46.0492 15.9646 46.2384Z" fill="#FFFDF2"/>
<path d="M14.489 44.913L10.552 47.8433L10.1083 47.2472L12.4311 45.5183L10.4853 45.3583L9.9244 44.6046L12.1685 44.8484L12.6471 42.4383L13.2164 43.2032L12.7292 45.2964L14.0453 44.3168L14.489 44.913Z" fill="#FFFDF2"/>
<path d="M11.8205 40.7167C11.9444 40.9579 12.016 41.1996 12.0354 41.4419C12.0506 41.6863 12.0112 41.9114 11.9173 42.1173C11.8233 42.3232 11.6757 42.491 11.4743 42.6207L11.1316 41.9534C11.2663 41.8474 11.3494 41.7075 11.381 41.5336C11.4125 41.3598 11.3803 41.1793 11.2842 40.9922C11.1987 40.8259 11.094 40.7089 10.9699 40.6413C10.8417 40.5758 10.7173 40.574 10.5967 40.6359C10.4928 40.6893 10.4298 40.7663 10.4079 40.8669C10.3839 40.9633 10.383 41.0741 10.4053 41.1993C10.4254 41.3203 10.455 41.4496 10.4942 41.5872C10.5467 41.8019 10.5834 42.0116 10.6045 42.2162C10.6234 42.4167 10.6013 42.5988 10.5383 42.7626C10.4753 42.9263 10.3461 43.0584 10.1506 43.1588C9.95939 43.257 9.76953 43.2915 9.58107 43.2621C9.38632 43.2308 9.20561 43.145 9.03893 43.0046C8.87226 42.8643 8.73126 42.6819 8.61594 42.4574C8.44295 42.1206 8.38403 41.7962 8.43917 41.4841C8.49015 41.1741 8.67139 40.9234 8.98287 40.7319L9.30963 41.368C9.17265 41.4594 9.09243 41.5794 9.06896 41.7281C9.04335 41.8726 9.07326 42.028 9.15869 42.1943C9.23771 42.3482 9.33296 42.4569 9.44445 42.5205C9.55178 42.5862 9.66573 42.5881 9.7863 42.5262C9.86945 42.4835 9.92305 42.4139 9.94709 42.3175C9.96697 42.2232 9.96892 42.1144 9.95295 41.9913C9.93068 41.8661 9.9042 41.7378 9.87351 41.6065C9.81033 41.3709 9.76928 41.1529 9.75038 40.9524C9.73148 40.752 9.75669 40.5709 9.826 40.4091C9.89532 40.2474 10.0349 40.11 10.2448 39.9969C10.4361 39.8987 10.6322 39.8663 10.8333 39.8996C11.028 39.9309 11.2119 40.0178 11.3849 40.1602C11.5557 40.2984 11.7009 40.4839 11.8205 40.7167Z" fill="#FFFDF2"/>
<path d="M9.5199 39.364L6.30548 40.6184L6.03313 39.867L9.3049 38.7707L9.5199 39.364ZM10.8314 38.5381C10.8792 38.67 10.8751 38.7957 10.819 38.9155C10.7586 39.0368 10.6647 39.1206 10.5372 39.1668C10.4098 39.213 10.2862 39.208 10.1665 39.152C10.0423 39.0976 9.95637 39.0044 9.90859 38.8726C9.86081 38.7408 9.86713 38.6142 9.92756 38.4928C9.9836 38.3731 10.0753 38.2901 10.2028 38.2439C10.3302 38.1978 10.456 38.2019 10.5801 38.2563C10.6999 38.3124 10.7836 38.4063 10.8314 38.5381Z" fill="#FFFDF2"/>
</svg>
