<svg width="225" height="225" viewBox="0 0 225 225" fill="none" xmlns="http://www.w3.org/2000/svg">
<g filter="url(#filter0_d_160_563)">
<path d="M169.836 108.5C169.836 140.256 144.093 166 112.336 166C80.5798 166 54.8362 140.256 54.8362 108.5C54.8362 76.7436 80.5798 51 112.336 51C144.093 51 169.836 76.7436 169.836 108.5Z" fill="#595880"/>
<path d="M76.7473 100.215C76.6845 100.839 76.5196 101.398 76.2525 101.893C75.9746 102.387 75.615 102.775 75.1737 103.056C74.7324 103.338 74.2347 103.478 73.6806 103.477L73.8543 101.75C74.2492 101.713 74.5866 101.546 74.8665 101.248C75.1464 100.951 75.3107 100.56 75.3594 100.075C75.4027 99.6451 75.3464 99.2862 75.1906 98.9989C75.024 98.7104 74.7847 98.5505 74.4727 98.5191C74.2037 98.4921 73.9847 98.5624 73.8157 98.7302C73.6478 98.8872 73.5067 99.1012 73.3925 99.3723C73.2794 99.6326 73.1743 99.9209 73.0773 100.237C72.9092 100.72 72.7168 101.174 72.5003 101.597C72.2849 102.01 72.0131 102.336 71.6848 102.575C71.3565 102.814 70.9395 102.907 70.4338 102.857C69.9389 102.807 69.5269 102.635 69.1979 102.341C68.8591 102.035 68.6162 101.641 68.4691 101.159C68.322 100.677 68.2776 100.146 68.336 99.5646C68.4237 98.6932 68.7173 97.9891 69.2168 97.4525C69.7056 96.9148 70.3729 96.6559 71.2185 96.6758L71.053 98.3219C70.6721 98.327 70.3654 98.4592 70.1328 98.7184C69.9013 98.9668 69.764 99.3061 69.7207 99.7365C69.6806 100.135 69.7289 100.465 69.8653 100.729C69.9911 100.992 70.2099 101.139 70.5219 101.17C70.7371 101.192 70.9287 101.124 71.0966 100.967C71.2538 100.809 71.3943 100.6 71.5182 100.341C71.6324 100.07 71.7423 99.7877 71.8479 99.494C72.0215 98.9572 72.2159 98.4823 72.4314 98.0693C72.6468 97.6562 72.9235 97.3363 73.2615 97.1095C73.5994 96.8827 74.0433 96.7915 74.5931 96.8359C75.088 96.8857 75.5097 97.0694 75.8581 97.387C76.1968 97.6927 76.4446 98.0926 76.6014 98.5865C76.7593 99.0697 76.8079 99.6125 76.7473 100.215Z" fill="#CBCBE7"/>
<path d="M77.9438 94.0856C77.778 94.5774 77.5389 94.9989 77.2266 95.35C76.904 95.6977 76.5271 95.9358 76.0958 96.0643C75.6645 96.1928 75.203 96.1741 74.7111 96.0083C74.1271 95.8115 73.7092 95.5108 73.4575 95.1065C73.1991 94.6885 73.0708 94.2059 73.0726 93.6588C73.0677 93.098 73.1654 92.5205 73.3657 91.9262L74.0185 89.9896C73.5779 89.8411 73.2002 89.7936 72.8855 89.8473C72.5604 89.8975 72.295 90.0248 72.0892 90.2293C71.8731 90.4303 71.7097 90.6947 71.5992 91.0226C71.4542 91.453 71.4288 91.8666 71.5232 92.2636C71.6108 92.6469 71.856 92.952 72.2587 93.1791L71.7044 94.8236C71.1683 94.5859 70.7591 94.2426 70.4769 93.7937C70.198 93.3345 70.0408 92.8194 70.0051 92.2482C69.9694 91.6771 70.0465 91.1097 70.2365 90.5461C70.4852 89.8084 70.829 89.2454 71.268 88.857C71.7002 88.455 72.1968 88.2173 72.7578 88.144C73.3223 88.0604 73.912 88.1222 74.5268 88.3295L76.863 89.117C77.1636 89.2069 77.4046 89.2197 77.586 89.1553C77.7607 89.0773 77.9101 88.888 78.0342 88.5875L79.4328 89.059C79.2947 89.4688 79.1277 89.8119 78.9318 90.0882C78.7394 90.3543 78.5182 90.5536 78.2682 90.6861C78.0078 90.8152 77.7101 90.886 77.375 90.8985C77.7019 91.2826 77.9294 91.7586 78.0575 92.3267C78.1855 92.8947 78.1476 93.481 77.9438 94.0856ZM76.7362 93.2506C76.8778 92.8305 76.8997 92.4271 76.8018 92.0404C76.6937 91.6502 76.4999 91.311 76.2205 91.0228C75.9309 90.7312 75.5862 90.518 75.1866 90.3833L75.1559 90.373L74.5445 92.1866C74.4443 92.4838 74.3852 92.7776 74.3671 93.0682C74.3525 93.3485 74.4047 93.6 74.5236 93.8227C74.6357 94.0317 74.8404 94.1862 75.1375 94.2864C75.5269 94.4176 75.8604 94.376 76.1381 94.1615C76.4056 93.9436 76.6049 93.64 76.7362 93.2506Z" fill="#CBCBE7"/>
<path d="M80.0551 88.2892L74.3105 85.0369L73.7831 85.9684L72.5269 85.2572L73.0543 84.3257L72.3204 83.9101C71.5582 83.4786 71.1217 82.9767 71.0107 82.4045C70.8904 81.8269 71.0247 81.1947 71.4136 80.5078L71.7812 79.8585L73.0515 80.5777L72.8197 80.987C72.6279 81.3258 72.5627 81.6057 72.6239 81.8267C72.6757 82.0425 72.8616 82.2409 73.1815 82.422L73.9014 82.8295L74.7484 81.3334L76.0046 82.0446L75.1575 83.5407L80.9021 86.7931L80.0551 88.2892Z" fill="#CBCBE7"/>
<path d="M84.573 81.9369C84.0612 82.5379 83.4732 82.9532 82.8089 83.1828C82.1446 83.4125 81.4575 83.4522 80.7474 83.302C80.0444 83.1436 79.38 82.798 78.7544 82.2652C78.104 81.7113 77.6488 81.1035 77.3887 80.4417C77.1285 79.7798 77.063 79.1062 77.1922 78.4209C77.3201 77.7203 77.6435 77.0654 78.1623 76.4562C78.6671 75.8635 79.2405 75.457 79.8825 75.2368C80.5163 75.0096 81.1606 74.9618 81.8154 75.0934C82.4773 75.2168 83.0923 75.5204 83.6603 76.0041C83.7755 76.1023 83.8708 76.1905 83.9461 76.2688C84.0285 76.339 84.1202 76.4313 84.2215 76.5459L80.2148 81.2507C80.5816 81.5204 80.964 81.6969 81.3618 81.7801C81.7514 81.8562 82.1331 81.8333 82.5069 81.7113C82.8724 81.5823 83.1954 81.3532 83.4758 81.0239C83.7772 80.6699 83.9549 80.3028 84.0088 79.9226C84.0615 79.5272 83.9923 79.1416 83.8011 78.7657L84.9578 77.4074C85.2372 77.8299 85.4204 78.2984 85.5077 78.813C85.602 79.3194 85.5784 79.839 85.437 80.3719C85.2957 80.9049 85.0076 81.4265 84.573 81.9369ZM79.2992 80.4496L82.1912 77.0538C81.6997 76.6637 81.1814 76.5134 80.6363 76.6031C80.083 76.6858 79.61 76.9577 79.2174 77.4187C78.8669 77.8303 78.6755 78.3135 78.6433 78.8684C78.611 79.4232 78.8297 79.9503 79.2992 80.4496Z" fill="#CBCBE7"/>
<path d="M93.0367 74.5534C92.3569 74.9755 91.7306 75.1352 91.1578 75.0327C90.585 74.9301 90.0648 74.5022 89.5971 73.7489L87.4325 70.2627L86.399 70.9044L85.6376 69.678L86.671 69.0364L85.6444 67.3828L87.105 66.4759L88.1317 68.1295L89.8679 67.0514L90.6293 68.2778L88.8931 69.3558L91.0577 72.842C91.2744 73.1911 91.498 73.3769 91.7283 73.3993C91.9586 73.4218 92.2391 73.3303 92.5698 73.125L93.3415 72.6459L94.1115 73.886L93.0367 74.5534Z" fill="#CBCBE7"/>
<path d="M95.3498 73.2297L92.327 65.7744L93.8602 65.1528L94.4172 66.3971C94.4849 65.8446 94.6834 65.3557 95.0127 64.9305C95.348 64.4912 95.8112 64.1517 96.4025 63.912L97.0789 65.5804L96.643 65.7571C95.9316 66.0456 95.4756 66.4463 95.2752 66.9593C95.0708 67.4622 95.1209 68.0895 95.4256 68.841L96.9431 72.5837L95.3498 73.2297Z" fill="#CBCBE7"/>
<path d="M103.175 70.8067C102.665 70.8981 102.18 70.8914 101.722 70.7866C101.262 70.6711 100.872 70.4553 100.552 70.1391C100.231 69.8229 100.026 69.4094 99.9342 68.8984C99.8256 68.2917 99.888 67.7808 100.121 67.3656C100.363 66.9378 100.725 66.5931 101.205 66.3314C101.694 66.0571 102.248 65.8648 102.865 65.7544L104.877 65.3945C104.795 64.9368 104.655 64.583 104.456 64.3329C104.256 64.0721 104.016 63.9007 103.738 63.8187C103.458 63.726 103.147 63.7102 102.807 63.7711C102.36 63.851 101.985 64.0279 101.682 64.3017C101.389 64.563 101.239 64.9248 101.234 65.3871L99.5255 65.6926C99.4759 65.1083 99.5799 64.5844 99.8375 64.1209C100.106 63.6555 100.482 63.2698 100.965 62.9636C101.449 62.6574 101.983 62.452 102.568 62.3472C103.335 62.2102 103.994 62.2406 104.546 62.4385C105.106 62.6238 105.553 62.9448 105.888 63.4012C106.233 63.8558 106.462 64.4024 106.576 65.0411L107.01 67.4679C107.076 67.7747 107.181 67.9921 107.325 68.1202C107.477 68.2357 107.715 68.2756 108.038 68.2397L108.298 69.6926C107.872 69.7688 107.491 69.7875 107.155 69.7489C106.829 69.7083 106.548 69.6103 106.311 69.4549C106.073 69.2888 105.868 69.0619 105.695 68.7742C105.516 69.2456 105.208 69.6741 104.772 70.0598C104.336 70.4454 103.803 70.6943 103.175 70.8067ZM103.326 69.3462C103.763 69.2682 104.127 69.0932 104.419 68.8213C104.709 68.5387 104.913 68.2057 105.031 67.822C105.147 67.4278 105.168 67.0231 105.094 66.608L105.088 66.576L103.204 66.913C102.895 66.9682 102.609 67.0579 102.346 67.1819C102.093 67.304 101.898 67.4707 101.76 67.6821C101.631 67.881 101.594 68.1348 101.649 68.4435C101.721 68.8479 101.918 69.1203 102.24 69.2604C102.56 69.39 102.922 69.4186 103.326 69.3462Z" fill="#CBCBE7"/>
<path d="M111.112 69.8778L108.644 61.6419L110.457 61.7679L112.242 68.363L114.939 62.0796L116.718 62.2034L113.134 70.0184L111.112 69.8778Z" fill="#CBCBE7"/>
<path d="M120.475 71.6918C119.723 71.451 119.114 71.0683 118.646 70.5438C118.178 70.0192 117.877 69.4004 117.742 68.6872C117.617 67.9774 117.68 67.2312 117.931 66.4486C118.192 65.6351 118.577 64.9809 119.088 64.4859C119.598 63.9909 120.195 63.671 120.877 63.5263C121.573 63.3745 122.302 63.4207 123.064 63.6648C123.805 63.9023 124.401 64.2749 124.852 64.7826C125.305 65.28 125.598 65.8562 125.728 66.5112C125.869 67.1695 125.826 67.8539 125.599 68.5645C125.552 68.7086 125.508 68.8306 125.464 68.9302C125.431 69.0332 125.381 69.1535 125.315 69.291L119.43 67.4056C119.322 67.848 119.306 68.2688 119.383 68.668C119.463 69.0569 119.631 69.4003 119.887 69.6983C120.147 69.9859 120.483 70.1957 120.895 70.3276C121.338 70.4695 121.745 70.4921 122.117 70.3954C122.502 70.2917 122.831 70.0793 123.104 69.758L124.803 70.3024C124.521 70.7229 124.159 71.0725 123.718 71.3512C123.287 71.6333 122.798 71.8117 122.252 71.8865C121.706 71.9613 121.113 71.8964 120.475 71.6918ZM119.816 66.2521L124.064 67.613C124.235 67.0091 124.174 66.473 123.881 66.0045C123.592 65.5257 123.159 65.194 122.582 65.0092C122.067 64.8443 121.547 64.8538 121.023 65.0377C120.498 65.2217 120.096 65.6265 119.816 66.2521Z" fill="#CBCBE7"/>
<path d="M124.977 73.2747L130.239 63.2141L131.762 64.011L126.5 74.0715L124.977 73.2747Z" fill="#CBCBE7"/>
<path d="M130.325 76.7825C129.822 76.408 129.427 75.9791 129.139 75.4957C128.859 75.0037 128.711 74.496 128.696 73.9727C128.681 73.4494 128.817 72.9504 129.102 72.4758L130.495 73.512C130.323 73.8694 130.293 74.2448 130.405 74.6379C130.516 75.0311 130.767 75.373 131.158 75.6635C131.505 75.9218 131.841 76.0579 132.168 76.0718C132.501 76.0771 132.761 75.9539 132.949 75.7024C133.11 75.4855 133.162 75.2615 133.105 75.0303C133.057 74.8056 132.945 74.5746 132.772 74.3373C132.606 74.1065 132.413 73.8683 132.192 73.6226C131.864 73.2302 131.573 72.8322 131.321 72.4287C131.077 72.0317 130.938 71.631 130.901 71.2268C130.865 70.8225 130.999 70.4165 131.303 70.0088C131.599 69.6098 131.959 69.3447 132.38 69.2134C132.816 69.0799 133.279 69.0739 133.768 69.1953C134.257 69.3168 134.736 69.5519 135.205 69.9005C135.907 70.4234 136.36 71.0371 136.564 71.7413C136.774 72.4369 136.653 73.1424 136.202 73.8577L134.875 72.8699C135.066 72.5405 135.11 72.2094 135.007 71.8768C134.913 71.5506 134.693 71.2583 134.346 71.0001C134.025 70.7612 133.716 70.6326 133.42 70.6142C133.13 70.5871 132.891 70.6994 132.704 70.9509C132.575 71.1244 132.535 71.3235 132.583 71.5483C132.638 71.7643 132.745 71.9921 132.903 72.2316C133.077 72.4688 133.263 72.7082 133.461 72.9497C133.832 73.3743 134.14 73.7852 134.383 74.1822C134.627 74.5793 134.759 74.981 134.78 75.3875C134.801 75.794 134.651 76.2217 134.331 76.6705C134.034 77.0695 133.66 77.3369 133.208 77.4726C132.772 77.6061 132.301 77.6133 131.797 77.494C131.301 77.3812 130.811 77.144 130.325 76.7825Z" fill="#CBCBE7"/>
<path d="M136.293 77.1913L141.943 71.5528L143.217 72.8931L137.298 78.2494L136.293 77.1913ZM134.278 80.1574C134.055 79.9222 133.947 79.6518 133.955 79.346C133.97 79.0329 134.092 78.7682 134.319 78.5522C134.546 78.3362 134.813 78.2321 135.119 78.2399C135.432 78.2402 135.701 78.3579 135.924 78.5931C136.148 78.8282 136.252 79.1024 136.236 79.4155C136.228 79.7213 136.111 79.9822 135.883 80.1982C135.656 80.4142 135.386 80.5221 135.072 80.5217C134.766 80.5139 134.502 80.3925 134.278 80.1574Z" fill="#CBCBE7"/>
<path d="M149.161 117.57C149.224 116.946 149.389 116.386 149.656 115.891C149.934 115.398 150.294 115.01 150.735 114.728C151.176 114.447 151.674 114.307 152.228 114.308L152.054 116.035C151.659 116.071 151.322 116.238 151.042 116.536C150.762 116.834 150.598 117.225 150.549 117.709C150.506 118.14 150.562 118.498 150.718 118.786C150.885 119.074 151.124 119.234 151.436 119.266C151.705 119.293 151.924 119.222 152.093 119.054C152.261 118.898 152.402 118.683 152.516 118.412C152.629 118.152 152.734 117.864 152.831 117.548C153 117.065 153.192 116.611 153.408 116.187C153.624 115.774 153.896 115.448 154.224 115.21C154.552 114.971 154.969 114.877 155.475 114.928C155.97 114.978 156.382 115.15 156.711 115.444C157.05 115.749 157.292 116.143 157.44 116.625C157.587 117.108 157.631 117.639 157.573 118.22C157.485 119.092 157.191 119.796 156.692 120.332C156.203 120.87 155.536 121.129 154.69 121.109L154.856 119.463C155.237 119.458 155.543 119.325 155.776 119.066C156.007 118.818 156.145 118.479 156.188 118.048C156.228 117.65 156.18 117.319 156.043 117.056C155.918 116.793 155.699 116.646 155.387 116.615C155.172 116.593 154.98 116.661 154.812 116.818C154.655 116.976 154.514 117.184 154.39 117.444C154.276 117.715 154.166 117.997 154.061 118.291C153.887 118.827 153.693 119.302 153.477 119.715C153.262 120.128 152.985 120.448 152.647 120.675C152.309 120.902 151.865 120.993 151.316 120.949C150.821 120.899 150.399 120.715 150.051 120.398C149.712 120.092 149.464 119.692 149.307 119.198C149.149 118.715 149.101 118.172 149.161 117.57Z" fill="#CBCBE7"/>
<path d="M147.965 123.7C148.131 123.208 148.37 122.786 148.682 122.435C149.005 122.087 149.382 121.849 149.813 121.721C150.244 121.592 150.706 121.611 151.198 121.777C151.782 121.974 152.199 122.274 152.451 122.679C152.71 123.097 152.838 123.579 152.836 124.126C152.841 124.687 152.743 125.265 152.543 125.859L151.89 127.796C152.331 127.944 152.708 127.992 153.023 127.938C153.348 127.888 153.614 127.76 153.82 127.556C154.036 127.355 154.199 127.09 154.309 126.763C154.455 126.332 154.48 125.919 154.385 125.522C154.298 125.138 154.053 124.833 153.65 124.606L154.204 122.962C154.74 123.199 155.15 123.543 155.432 123.991C155.711 124.451 155.868 124.966 155.904 125.537C155.939 126.108 155.862 126.675 155.672 127.239C155.424 127.977 155.08 128.54 154.641 128.928C154.208 129.33 153.712 129.568 153.151 129.641C152.586 129.725 151.997 129.663 151.382 129.456L149.046 128.668C148.745 128.578 148.504 128.565 148.323 128.63C148.148 128.708 147.999 128.897 147.875 129.198L146.476 128.726C146.614 128.316 146.781 127.973 146.977 127.697C147.169 127.431 147.39 127.232 147.641 127.099C147.901 126.97 148.199 126.899 148.534 126.887C148.207 126.503 147.979 126.027 147.851 125.458C147.723 124.89 147.761 124.304 147.965 123.7ZM149.173 124.535C149.031 124.955 149.009 125.358 149.107 125.745C149.215 126.135 149.409 126.474 149.688 126.762C149.978 127.054 150.322 127.267 150.722 127.402L150.753 127.412L151.364 125.599C151.464 125.301 151.523 125.008 151.542 124.717C151.556 124.437 151.504 124.185 151.385 123.962C151.273 123.753 151.068 123.599 150.771 123.499C150.382 123.368 150.048 123.409 149.771 123.624C149.503 123.842 149.304 124.145 149.173 124.535Z" fill="#CBCBE7"/>
<path d="M145.854 129.495L151.598 132.748L152.126 131.816L153.382 132.527L152.855 133.459L153.589 133.875C154.351 134.306 154.787 134.808 154.898 135.38C155.019 135.958 154.884 136.59 154.495 137.277L154.128 137.926L152.857 137.207L153.089 136.798C153.281 136.459 153.346 136.179 153.285 135.958C153.233 135.742 153.047 135.544 152.727 135.363L152.008 134.955L151.161 136.451L149.904 135.74L150.751 134.244L145.007 130.992L145.854 129.495Z" fill="#CBCBE7"/>
<path d="M141.336 135.848C141.848 135.247 142.436 134.832 143.1 134.602C143.764 134.373 144.451 134.333 145.161 134.483C145.864 134.642 146.529 134.987 147.154 135.52C147.805 136.074 148.26 136.682 148.52 137.343C148.78 138.005 148.846 138.679 148.716 139.364C148.589 140.065 148.265 140.72 147.746 141.329C147.242 141.922 146.668 142.328 146.026 142.548C145.392 142.776 144.748 142.823 144.093 142.692C143.431 142.568 142.816 142.265 142.248 141.781C142.133 141.683 142.038 141.595 141.963 141.516C141.88 141.446 141.788 141.354 141.687 141.239L145.694 136.534C145.327 136.265 144.945 136.088 144.547 136.005C144.157 135.929 143.776 135.952 143.402 136.074C143.036 136.203 142.713 136.432 142.433 136.761C142.131 137.115 141.954 137.482 141.9 137.863C141.847 138.258 141.916 138.644 142.108 139.019L140.951 140.378C140.672 139.955 140.488 139.487 140.401 138.972C140.307 138.466 140.33 137.946 140.472 137.413C140.613 136.88 140.901 136.359 141.336 135.848ZM146.609 137.336L143.718 140.731C144.209 141.122 144.727 141.272 145.272 141.182C145.826 141.099 146.299 140.827 146.691 140.366C147.042 139.955 147.233 139.472 147.265 138.917C147.298 138.362 147.079 137.835 146.609 137.336Z" fill="#CBCBE7"/>
<path d="M132.872 143.231C133.552 142.809 134.178 142.649 134.751 142.752C135.324 142.855 135.844 143.282 136.312 144.036L138.476 147.522L139.51 146.88L140.271 148.107L139.238 148.748L140.265 150.402L138.804 151.309L137.777 149.655L136.041 150.733L135.28 149.507L137.016 148.429L134.851 144.943C134.635 144.594 134.411 144.408 134.181 144.385C133.95 144.363 133.67 144.454 133.339 144.66L132.567 145.139L131.797 143.899L132.872 143.231Z" fill="#CBCBE7"/>
<path d="M130.559 144.555L133.582 152.011L132.049 152.632L131.491 151.388C131.424 151.941 131.225 152.429 130.896 152.855C130.561 153.294 130.097 153.633 129.506 153.873L128.83 152.205L129.266 152.028C129.977 151.74 130.433 151.339 130.633 150.826C130.838 150.323 130.788 149.696 130.483 148.944L128.966 145.201L130.559 144.555Z" fill="#CBCBE7"/>
<path d="M122.733 146.978C123.244 146.887 123.729 146.894 124.187 146.999C124.647 147.114 125.037 147.33 125.357 147.646C125.677 147.962 125.883 148.376 125.975 148.887C126.083 149.493 126.021 150.004 125.787 150.42C125.545 150.847 125.184 151.192 124.704 151.454C124.214 151.728 123.661 151.92 123.044 152.031L121.032 152.391C121.114 152.848 121.254 153.202 121.453 153.452C121.653 153.713 121.892 153.884 122.171 153.966C122.451 154.059 122.761 154.075 123.102 154.014C123.549 153.934 123.924 153.757 124.226 153.483C124.52 153.222 124.67 152.86 124.675 152.398L126.383 152.093C126.433 152.677 126.329 153.201 126.071 153.664C125.803 154.13 125.427 154.515 124.944 154.822C124.46 155.128 123.926 155.333 123.34 155.438C122.574 155.575 121.915 155.545 121.363 155.347C120.803 155.161 120.355 154.84 120.021 154.384C119.676 153.929 119.447 153.383 119.332 152.744L118.898 150.317C118.832 150.01 118.728 149.793 118.584 149.665C118.431 149.549 118.194 149.51 117.87 149.545L117.611 148.093C118.036 148.016 118.417 147.998 118.754 148.036C119.08 148.077 119.361 148.175 119.597 148.33C119.836 148.496 120.041 148.723 120.213 149.011C120.393 148.54 120.7 148.111 121.137 147.725C121.573 147.34 122.105 147.091 122.733 146.978ZM122.583 148.439C122.146 148.517 121.782 148.692 121.49 148.964C121.2 149.246 120.996 149.579 120.878 149.963C120.762 150.357 120.741 150.762 120.815 151.177L120.821 151.209L122.705 150.872C123.013 150.817 123.299 150.727 123.563 150.603C123.816 150.481 124.011 150.314 124.149 150.103C124.278 149.904 124.315 149.65 124.26 149.342C124.188 148.937 123.991 148.665 123.669 148.525C123.349 148.395 122.987 148.367 122.583 148.439Z" fill="#CBCBE7"/>
<path d="M114.797 147.907L117.265 156.143L115.452 156.017L113.667 149.422L110.97 155.706L109.191 155.582L112.774 147.767L114.797 147.907Z" fill="#CBCBE7"/>
<path d="M105.434 146.093C106.186 146.334 106.795 146.717 107.263 147.241C107.731 147.766 108.032 148.385 108.167 149.098C108.292 149.808 108.229 150.554 107.978 151.337C107.717 152.15 107.332 152.804 106.821 153.299C106.311 153.794 105.714 154.114 105.032 154.259C104.336 154.411 103.607 154.364 102.845 154.12C102.104 153.883 101.508 153.51 101.057 153.003C100.604 152.505 100.311 151.929 100.181 151.274C100.039 150.616 100.083 149.931 100.31 149.221C100.357 149.077 100.401 148.955 100.445 148.855C100.478 148.752 100.527 148.632 100.594 148.494L106.479 150.38C106.587 149.937 106.603 149.516 106.526 149.117C106.446 148.728 106.278 148.385 106.022 148.087C105.762 147.799 105.426 147.589 105.014 147.458C104.571 147.316 104.164 147.293 103.792 147.39C103.407 147.493 103.078 147.706 102.805 148.027L101.106 147.483C101.388 147.062 101.75 146.713 102.191 146.434C102.622 146.152 103.111 145.973 103.657 145.899C104.203 145.824 104.796 145.889 105.434 146.093ZM106.093 151.533L101.845 150.172C101.674 150.776 101.735 151.312 102.028 151.781C102.317 152.259 102.75 152.591 103.327 152.776C103.842 152.941 104.362 152.931 104.886 152.747C105.411 152.563 105.813 152.159 106.093 151.533Z" fill="#CBCBE7"/>
<path d="M100.932 144.51L95.6702 154.571L94.1468 153.774L99.409 143.713L100.932 144.51Z" fill="#CBCBE7"/>
<path d="M95.5839 141.002C96.087 141.377 96.4822 141.806 96.7694 142.289C97.0502 142.781 97.198 143.289 97.2129 143.812C97.2278 144.335 97.0923 144.834 96.8064 145.309L95.4142 144.273C95.5859 143.915 95.6159 143.54 95.5042 143.147C95.3924 142.754 95.1414 142.412 94.7511 142.121C94.4041 141.863 94.0673 141.727 93.7407 141.713C93.4077 141.708 93.1475 141.831 92.9603 142.082C92.7989 142.299 92.7467 142.523 92.8038 142.754C92.8522 142.979 92.9633 143.21 93.1372 143.447C93.3024 143.678 93.4957 143.916 93.7172 144.162C94.0452 144.555 94.3354 144.952 94.5877 145.356C94.8314 145.753 94.9713 146.154 95.0073 146.558C95.0434 146.962 94.9097 147.368 94.6063 147.776C94.3093 148.175 93.9502 148.44 93.529 148.571C93.0926 148.705 92.6298 148.711 92.1407 148.589C91.6515 148.468 91.1727 148.233 90.7043 147.884C90.0017 147.361 89.5485 146.748 89.3448 146.043C89.1347 145.348 89.2554 144.642 89.7069 143.927L91.034 144.915C90.8428 145.244 90.7985 145.575 90.9014 145.908C90.9956 146.234 91.2162 146.526 91.5631 146.785C91.8841 147.023 92.1927 147.152 92.4891 147.17C92.7789 147.198 93.0175 147.085 93.2047 146.834C93.3338 146.66 93.3742 146.461 93.3258 146.236C93.271 146.02 93.1642 145.793 93.0054 145.553C92.8315 145.316 92.6458 145.076 92.4481 144.835C92.0767 144.41 91.7692 143.999 91.5255 143.602C91.2819 143.205 91.1496 142.804 91.1286 142.397C91.1077 141.991 91.2575 141.563 91.5781 141.114C91.8751 140.715 92.2493 140.448 92.7008 140.312C93.1371 140.179 93.6075 140.171 94.1118 140.291C94.6075 140.403 95.0982 140.641 95.5839 141.002Z" fill="#CBCBE7"/>
<path d="M89.6162 140.593L83.9659 146.232L82.6921 144.892L88.6105 139.535L89.6162 140.593ZM91.6305 137.627C91.854 137.862 91.9618 138.133 91.954 138.439C91.9384 138.752 91.817 139.016 91.5897 139.232C91.3624 139.448 91.0958 139.553 90.7901 139.545C90.4765 139.544 90.208 139.427 89.9845 139.192C89.7611 138.956 89.6571 138.682 89.6727 138.369C89.6805 138.063 89.7981 137.803 90.0254 137.586C90.2527 137.37 90.5231 137.263 90.8367 137.263C91.1424 137.271 91.407 137.392 91.6305 137.627Z" fill="#CBCBE7"/>
<path d="M98.9511 124.148L99.3113 112.138L92.9945 101.917L98.543 100.473L105.045 105.887L113.057 103.74L101.152 87.9025L107.808 86.0349L125.026 100.491L134.767 97.8808C135.971 97.5581 137.138 97.7226 138.266 98.3743C139.395 99.026 140.121 99.9541 140.444 101.159C140.766 102.363 140.607 103.521 139.965 104.634C139.323 105.746 138.399 106.463 137.195 106.786L127.376 109.417L119.721 130.495L113.044 132.284L115.386 112.587L107.374 114.734L104.528 122.653L98.9511 124.148Z" fill="#CBCBE7"/>
</g>
<defs>
<filter id="filter0_d_160_563" x="0.43618" y="0.599998" width="223.8" height="223.8" filterUnits="userSpaceOnUse" color-interpolation-filters="sRGB">
<feFlood flood-opacity="0" result="BackgroundImageFix"/>
<feColorMatrix in="SourceAlpha" type="matrix" values="0 0 0 0 0 0 0 0 0 0 0 0 0 0 0 0 0 0 127 0" result="hardAlpha"/>
<feOffset dy="4"/>
<feGaussianBlur stdDeviation="27.2"/>
<feComposite in2="hardAlpha" operator="out"/>
<feColorMatrix type="matrix" values="0 0 0 0 0.67451 0 0 0 0 0.745098 0 0 0 0 0.435294 0 0 0 0.1 0"/>
<feBlend mode="normal" in2="BackgroundImageFix" result="effect1_dropShadow_160_563"/>
<feBlend mode="normal" in="SourceGraphic" in2="effect1_dropShadow_160_563" result="shape"/>
</filter>
</defs>
</svg>
