<svg width="116" height="115" viewBox="0 0 116 115" fill="none" xmlns="http://www.w3.org/2000/svg">
<g clip-path="url(#clip0_173_1081)">
<g filter="url(#filter0_d_173_1081)">
<path d="M115.836 57.5C115.836 89.2564 90.0926 115 58.3362 115C26.5798 115 0.836182 89.2564 0.836182 57.5C0.836182 25.7436 26.5798 0 58.3362 0C90.0926 0 115.836 25.7436 115.836 57.5Z" fill="#595880"/>
<path d="M22.7473 49.215C22.6845 49.839 22.5196 50.3984 22.2525 50.8932C21.9746 51.3869 21.615 51.7746 21.1737 52.0562C20.7324 52.3378 20.2347 52.478 19.6806 52.4766L19.8543 50.7498C20.2492 50.7134 20.5866 50.5463 20.8665 50.2485C21.1464 49.9506 21.3107 49.5596 21.3594 49.0754C21.4027 48.6451 21.3464 48.2862 21.1906 47.9989C21.024 47.7104 20.7847 47.5505 20.4727 47.5191C20.2037 47.4921 19.9847 47.5624 19.8157 47.7302C19.6478 47.8872 19.5067 48.1012 19.3925 48.3723C19.2794 48.6326 19.1743 48.9209 19.0773 49.2371C18.9092 49.7201 18.7168 50.1735 18.5003 50.5973C18.2849 51.0103 18.0131 51.3362 17.6848 51.5749C17.3565 51.8135 16.9395 51.9074 16.4338 51.8566C15.9389 51.8068 15.5269 51.6349 15.1979 51.341C14.8591 51.0353 14.6162 50.6413 14.4691 50.1592C14.322 49.6771 14.2776 49.1456 14.336 48.5646C14.4237 47.6932 14.7173 46.9891 15.2168 46.4525C15.7056 45.9148 16.3729 45.6559 17.2185 45.6758L17.053 47.3219C16.6721 47.327 16.3654 47.4592 16.1328 47.7184C15.9013 47.9668 15.764 48.3061 15.7207 48.7365C15.6806 49.1346 15.7289 49.4654 15.8653 49.7291C15.9911 49.9917 16.2099 50.1387 16.5219 50.1701C16.7371 50.1917 16.9287 50.1241 17.0966 49.9671C17.2538 49.809 17.3943 49.6004 17.5182 49.3411C17.6324 49.0701 17.7423 48.7877 17.8479 48.494C18.0215 47.9572 18.2159 47.4823 18.4314 47.0693C18.6468 46.6562 18.9235 46.3363 19.2615 46.1095C19.5994 45.8827 20.0433 45.7915 20.5931 45.8359C21.088 45.8857 21.5097 46.0694 21.8581 46.387C22.1968 46.6927 22.4446 47.0926 22.6014 47.5865C22.7593 48.0697 22.8079 48.6125 22.7473 49.215Z" fill="#CBCBE7"/>
<path d="M23.9438 43.0856C23.778 43.5774 23.5389 43.9989 23.2266 44.35C22.904 44.6977 22.5271 44.9358 22.0958 45.0643C21.6645 45.1928 21.203 45.1741 20.7111 45.0083C20.1271 44.8115 19.7092 44.5108 19.4575 44.1065C19.1991 43.6885 19.0708 43.2059 19.0726 42.6588C19.0677 42.098 19.1654 41.5205 19.3657 40.9262L20.0185 38.9896C19.5779 38.8411 19.2002 38.7936 18.8855 38.8473C18.5604 38.8975 18.295 39.0248 18.0892 39.2293C17.8731 39.4303 17.7097 39.6947 17.5992 40.0226C17.4542 40.453 17.4288 40.8666 17.5232 41.2636C17.6108 41.6469 17.856 41.952 18.2587 42.1791L17.7044 43.8236C17.1683 43.5859 16.7591 43.2426 16.4769 42.7937C16.198 42.3345 16.0408 41.8194 16.0051 41.2482C15.9694 40.6771 16.0465 40.1097 16.2365 39.5461C16.4852 38.8084 16.829 38.2454 17.268 37.857C17.7002 37.455 18.1968 37.2173 18.7578 37.144C19.3223 37.0604 19.912 37.1222 20.5268 37.3295L22.863 38.117C23.1636 38.2069 23.4046 38.2197 23.586 38.1553C23.7607 38.0773 23.9101 37.888 24.0342 37.5875L25.4328 38.059C25.2947 38.4688 25.1277 38.8119 24.9318 39.0882C24.7394 39.3543 24.5182 39.5536 24.2682 39.6861C24.0078 39.8152 23.7101 39.886 23.375 39.8985C23.7019 40.2826 23.9294 40.7586 24.0575 41.3267C24.1855 41.8947 24.1476 42.481 23.9438 43.0856ZM22.7362 42.2506C22.8778 41.8305 22.8997 41.4271 22.8018 41.0404C22.6937 40.6502 22.4999 40.311 22.2205 40.0228C21.9309 39.7312 21.5862 39.518 21.1866 39.3833L21.1559 39.373L20.5445 41.1866C20.4443 41.4838 20.3852 41.7776 20.3671 42.0682C20.3525 42.3485 20.4047 42.6 20.5236 42.8227C20.6357 43.0317 20.8404 43.1862 21.1375 43.2864C21.5269 43.4176 21.8604 43.376 22.1381 43.1615C22.4056 42.9436 22.6049 42.64 22.7362 42.2506Z" fill="#CBCBE7"/>
<path d="M26.0551 37.2892L20.3105 34.0369L19.7831 34.9684L18.5269 34.2572L19.0543 33.3257L18.3204 32.9101C17.5582 32.4786 17.1217 31.9767 17.0107 31.4045C16.8904 30.8269 17.0247 30.1947 17.4136 29.5078L17.7812 28.8585L19.0515 29.5777L18.8197 29.987C18.6279 30.3258 18.5627 30.6057 18.6239 30.8267C18.6757 31.0425 18.8616 31.2409 19.1815 31.422L19.9014 31.8295L20.7484 30.3334L22.0046 31.0446L21.1575 32.5407L26.9021 35.7931L26.0551 37.2892Z" fill="#CBCBE7"/>
<path d="M30.573 30.9369C30.0612 31.5379 29.4732 31.9532 28.8089 32.1828C28.1446 32.4125 27.4575 32.4522 26.7474 32.302C26.0444 32.1436 25.38 31.798 24.7544 31.2652C24.104 30.7113 23.6488 30.1035 23.3887 29.4417C23.1285 28.7798 23.063 28.1062 23.1922 27.4209C23.3201 26.7203 23.6435 26.0654 24.1623 25.4562C24.6671 24.8635 25.2405 24.457 25.8825 24.2368C26.5163 24.0096 27.1606 23.9618 27.8154 24.0934C28.4773 24.2168 29.0923 24.5204 29.6603 25.0041C29.7755 25.1023 29.8708 25.1905 29.9461 25.2688C30.0285 25.339 30.1202 25.4313 30.2215 25.5459L26.2148 30.2507C26.5816 30.5204 26.964 30.6969 27.3618 30.7801C27.7514 30.8562 28.1331 30.8333 28.5069 30.7113C28.8724 30.5823 29.1954 30.3532 29.4758 30.0239C29.7772 29.6699 29.9549 29.3028 30.0088 28.9226C30.0615 28.5272 29.9923 28.1416 29.8011 27.7657L30.9578 26.4074C31.2372 26.8299 31.4204 27.2984 31.5077 27.813C31.602 28.3194 31.5784 28.839 31.437 29.3719C31.2957 29.9049 31.0076 30.4265 30.573 30.9369ZM25.2992 29.4496L28.1912 26.0538C27.6997 25.6637 27.1814 25.5134 26.6363 25.6031C26.083 25.6858 25.61 25.9577 25.2174 26.4187C24.8669 26.8303 24.6755 27.3135 24.6433 27.8684C24.611 28.4232 24.8297 28.9503 25.2992 29.4496Z" fill="#CBCBE7"/>
<path d="M39.0367 23.5534C38.3569 23.9755 37.7306 24.1352 37.1578 24.0327C36.585 23.9301 36.0648 23.5022 35.5971 22.7489L33.4325 19.2627L32.399 19.9044L31.6376 18.678L32.671 18.0364L31.6444 16.3828L33.105 15.4759L34.1317 17.1295L35.8679 16.0514L36.6293 17.2778L34.8931 18.3558L37.0577 21.842C37.2744 22.1911 37.498 22.3769 37.7283 22.3993C37.9586 22.4218 38.2391 22.3303 38.5698 22.125L39.3415 21.6459L40.1115 22.886L39.0367 23.5534Z" fill="#CBCBE7"/>
<path d="M41.3498 22.2297L38.327 14.7744L39.8602 14.1528L40.4172 15.3971C40.4849 14.8446 40.6834 14.3557 41.0127 13.9305C41.348 13.4912 41.8112 13.1517 42.4025 12.912L43.0789 14.5804L42.643 14.7571C41.9316 15.0456 41.4756 15.4463 41.2752 15.9593C41.0708 16.4622 41.1209 17.0895 41.4256 17.841L42.9431 21.5837L41.3498 22.2297Z" fill="#CBCBE7"/>
<path d="M49.1754 19.8067C48.6645 19.8981 48.18 19.8914 47.7219 19.7866C47.2618 19.6711 46.8717 19.4553 46.5515 19.1391C46.2313 18.8229 46.0255 18.4094 45.9342 17.8984C45.8256 17.2917 45.888 16.7808 46.1213 16.3656C46.3634 15.9378 46.7246 15.5931 47.2051 15.3314C47.6943 15.0571 48.2475 14.8648 48.8649 14.7544L50.8766 14.3945C50.7947 13.9368 50.6545 13.583 50.456 13.3329C50.2556 13.0721 50.0162 12.9007 49.7379 12.8187C49.4577 12.726 49.1473 12.7102 48.8067 12.7711C48.3597 12.851 47.9849 13.0279 47.6823 13.3017C47.3885 13.563 47.2391 13.9248 47.2339 14.3871L45.5255 14.6926C45.4759 14.1083 45.5799 13.5844 45.8375 13.1209C46.1058 12.6555 46.4817 12.2698 46.9651 11.9636C47.4486 11.6574 47.9831 11.452 48.5685 11.3472C49.3349 11.2102 49.9939 11.2406 50.5456 11.4385C51.106 11.6238 51.5533 11.9448 51.8876 12.4012C52.2326 12.8558 52.4622 13.4024 52.5764 14.0411L53.0105 16.4679C53.0764 16.7747 53.1812 16.9921 53.3249 17.1202C53.4774 17.2357 53.7152 17.2756 54.0383 17.2397L54.2982 18.6926C53.8724 18.7688 53.4913 18.7875 53.1549 18.7489C52.8291 18.7083 52.5479 18.6103 52.3114 18.4549C52.073 18.2888 51.8676 18.0619 51.6953 17.7742C51.516 18.2456 51.2082 18.6741 50.7719 19.0598C50.3356 19.4454 49.8034 19.6943 49.1754 19.8067ZM49.3261 18.3462C49.7625 18.2682 50.1267 18.0932 50.4186 17.8213C50.7085 17.5387 50.9126 17.2057 51.0307 16.822C51.1469 16.4278 51.1679 16.0231 51.0936 15.608L51.0879 15.576L49.2039 15.913C48.8953 15.9682 48.6092 16.0579 48.3458 16.1819C48.093 16.304 47.8977 16.4707 47.7597 16.6821C47.6305 16.881 47.5935 17.1348 47.6488 17.4435C47.7211 17.8479 47.9181 18.1203 48.2398 18.2604C48.5595 18.39 48.9216 18.4186 49.3261 18.3462Z" fill="#CBCBE7"/>
<path d="M57.1119 18.8778L54.6444 10.6419L56.4566 10.7679L58.2416 17.363L60.9386 11.0796L62.7184 11.2034L59.1345 19.0184L57.1119 18.8778Z" fill="#CBCBE7"/>
<path d="M66.475 20.6918C65.7233 20.451 65.1135 20.0683 64.6457 19.5438C64.1779 19.0192 63.8766 18.4004 63.7417 17.6872C63.6172 16.9774 63.6802 16.2312 63.931 15.4486C64.1916 14.6351 64.5772 13.9809 65.0877 13.4859C65.5983 12.9909 66.1947 12.671 66.8769 12.5263C67.5727 12.3745 68.3017 12.4207 69.0637 12.6648C69.8051 12.9023 70.401 13.2749 70.8515 13.7826C71.3053 14.28 71.5976 14.8562 71.7284 15.5112C71.8695 16.1695 71.8262 16.8539 71.5985 17.5645C71.5524 17.7086 71.5076 17.8306 71.4643 17.9302C71.4313 18.0332 71.3814 18.1535 71.3147 18.291L65.4297 16.4056C65.322 16.848 65.3064 17.2688 65.3829 17.668C65.4627 18.0569 65.6309 18.4003 65.8874 18.6983C66.1472 18.9859 66.4831 19.1957 66.895 19.3276C67.3378 19.4695 67.745 19.4921 68.1166 19.3954C68.5018 19.2917 68.831 19.0793 69.1042 18.758L70.8033 19.3024C70.521 19.7229 70.1592 20.0725 69.7179 20.3512C69.2869 20.6333 68.7983 20.8117 68.252 20.8865C67.7058 20.9613 67.1134 20.8964 66.475 20.6918ZM65.8163 15.2521L70.064 16.613C70.2347 16.0091 70.1737 15.473 69.881 15.0045C69.5916 14.5257 69.1585 14.194 68.5819 14.0092C68.067 13.8443 67.5473 13.8538 67.0229 14.0377C66.4984 14.2217 66.0962 14.6265 65.8163 15.2521Z" fill="#CBCBE7"/>
<path d="M70.9765 22.2747L76.2387 12.2141L77.7622 13.011L72.5 23.0715L70.9765 22.2747Z" fill="#CBCBE7"/>
<path d="M76.3249 25.7825C75.8218 25.408 75.4266 24.9791 75.1394 24.4957C74.8586 24.0037 74.7108 23.496 74.6959 22.9727C74.681 22.4494 74.8165 21.9504 75.1024 21.4758L76.4946 22.512C76.3229 22.8694 76.2929 23.2448 76.4047 23.6379C76.5164 24.0311 76.7674 24.373 77.1577 24.6635C77.5047 24.9218 77.8415 25.0579 78.1681 25.0718C78.5012 25.0771 78.7613 24.9539 78.9485 24.7024C79.1099 24.4855 79.1621 24.2615 79.105 24.0303C79.0566 23.8056 78.9455 23.5746 78.7716 23.3373C78.6064 23.1065 78.4131 22.8683 78.1916 22.6226C77.8636 22.2302 77.5734 21.8322 77.3211 21.4287C77.0774 21.0317 76.9376 20.631 76.9015 20.2268C76.8654 19.8225 76.9991 19.4165 77.3025 19.0088C77.5995 18.6098 77.9586 18.3447 78.3798 18.2134C78.8162 18.0799 79.279 18.0739 79.7682 18.1953C80.2574 18.3168 80.7362 18.5519 81.2046 18.9005C81.9072 19.4234 82.3603 20.0371 82.564 20.7413C82.7741 21.4369 82.6535 22.1424 82.2019 22.8577L80.8748 21.8699C81.0661 21.5405 81.1103 21.2094 81.0074 20.8768C80.9132 20.5506 80.6927 20.2583 80.3457 20.0001C80.0248 19.7612 79.7161 19.6326 79.4198 19.6142C79.1299 19.5871 78.8913 19.6994 78.7041 19.9509C78.575 20.1244 78.5346 20.3235 78.583 20.5483C78.6379 20.7643 78.7447 20.9921 78.9034 21.2316C79.0773 21.4688 79.2631 21.7082 79.4607 21.9497C79.8321 22.3743 80.1396 22.7852 80.3833 23.1822C80.6269 23.5793 80.7592 23.981 80.7802 24.3875C80.8011 24.794 80.6513 25.2217 80.3307 25.6705C80.0338 26.0695 79.6595 26.3369 79.208 26.4726C78.7717 26.6061 78.3013 26.6133 77.797 26.494C77.3014 26.3812 76.8107 26.144 76.3249 25.7825Z" fill="#CBCBE7"/>
<path d="M82.2927 26.1913L87.9429 20.5528L89.2167 21.8931L83.2983 27.2494L82.2927 26.1913ZM80.2783 29.1574C80.0549 28.9222 79.947 28.6518 79.9548 28.346C79.9704 28.0329 80.0919 27.7682 80.3192 27.5522C80.5465 27.3362 80.813 27.2321 81.1187 27.2399C81.4323 27.2402 81.7008 27.3579 81.9243 27.5931C82.1478 27.8282 82.2517 28.1024 82.2361 28.4155C82.2283 28.7213 82.1108 28.9822 81.8835 29.1982C81.6562 29.4142 81.3857 29.5221 81.0721 29.5217C80.7664 29.5139 80.5018 29.3925 80.2783 29.1574Z" fill="#CBCBE7"/>
<path d="M95.1614 66.5696C95.2241 65.9456 95.3891 65.3862 95.6562 64.8915C95.9341 64.3978 96.2937 64.0101 96.735 63.7285C97.1763 63.4468 97.674 63.3067 98.2281 63.3081L98.0544 65.0349C97.6595 65.0712 97.3221 65.2383 97.0422 65.5362C96.7623 65.8341 96.598 66.2251 96.5493 66.7092C96.506 67.1396 96.5622 67.4984 96.7181 67.7858C96.8847 68.0742 97.124 68.2342 97.436 68.2655C97.705 68.2926 97.924 68.2222 98.093 68.0545C98.2609 67.8975 98.402 67.6835 98.5162 67.4124C98.6293 67.1521 98.7344 66.8638 98.8314 66.5475C98.9995 66.0645 99.1918 65.6112 99.4083 65.1874C99.6238 64.7743 99.8956 64.4485 100.224 64.2098C100.552 63.9711 100.969 63.8772 101.475 63.9281C101.97 63.9779 102.382 64.1497 102.711 64.4436C103.05 64.7494 103.292 65.1433 103.44 65.6254C103.587 66.1075 103.631 66.6391 103.573 67.2201C103.485 68.0915 103.191 68.7955 102.692 69.3321C102.203 69.8698 101.536 70.1287 100.69 70.1089L100.856 68.4628C101.237 68.4576 101.543 68.3255 101.776 68.0663C102.007 67.8179 102.145 67.4785 102.188 67.0482C102.228 66.6501 102.18 66.3192 102.043 66.0555C101.918 65.7929 101.699 65.646 101.387 65.6146C101.172 65.5929 100.98 65.6606 100.812 65.8176C100.655 65.9757 100.514 66.1843 100.39 66.4435C100.276 66.7146 100.166 66.997 100.061 67.2906C99.8872 67.8274 99.6927 68.3023 99.4773 68.7154C99.2619 69.1284 98.9852 69.4483 98.6472 69.6752C98.3092 69.902 97.8654 69.9932 97.3156 69.9488C96.8207 69.899 96.399 69.7153 96.0506 69.3977C95.7119 69.0919 95.4641 68.6921 95.3073 68.1981C95.1494 67.715 95.1008 67.1721 95.1614 66.5696Z" fill="#CBCBE7"/>
<path d="M93.9649 72.6996C94.1307 72.2077 94.3697 71.7863 94.6821 71.4351C95.0047 71.0874 95.3816 70.8493 95.8129 70.7209C96.2442 70.5924 96.7057 70.611 97.1976 70.7768C97.7816 70.9737 98.1995 71.2743 98.4511 71.6786C98.7096 72.0967 98.8379 72.5792 98.8361 73.1263C98.841 73.6871 98.7433 74.2647 98.543 74.859L97.8902 76.7956C98.3308 76.9441 98.7085 76.9915 99.0232 76.9379C99.3482 76.8877 99.6137 76.7604 99.8195 76.5559C100.036 76.3549 100.199 76.0904 100.309 75.7625C100.455 75.3322 100.48 74.9185 100.385 74.5216C100.298 74.1383 100.053 73.8331 99.65 73.6061L100.204 71.9615C100.74 72.1993 101.15 72.5426 101.432 72.9915C101.711 73.4506 101.868 73.9658 101.904 74.5369C101.939 75.1081 101.862 75.6755 101.672 76.239C101.424 76.9768 101.08 77.5398 100.641 77.9281C100.208 78.3302 99.7119 78.5678 99.1508 78.6412C98.5864 78.7247 97.9967 78.6629 97.3819 78.4557L95.0457 77.6682C94.7451 77.5783 94.5041 77.5655 94.3227 77.6298C94.148 77.7079 93.9986 77.8972 93.8745 78.1976L92.4759 77.7262C92.614 77.3163 92.781 76.9732 92.9769 76.6969C93.1692 76.4309 93.3905 76.2316 93.6405 76.0991C93.9008 75.97 94.1986 75.8992 94.5337 75.8867C94.2067 75.5026 93.9793 75.0265 93.8512 74.4585C93.7232 73.8904 93.7611 73.3041 93.9649 72.6996ZM95.1725 73.5346C95.0309 73.9547 95.009 74.3581 95.1069 74.7448C95.215 75.135 95.4088 75.4741 95.6882 75.7623C95.9778 76.0539 96.3225 76.2671 96.7221 76.4018L96.7528 76.4122L97.3642 74.5985C97.4643 74.3014 97.5235 74.0075 97.5415 73.7169C97.5562 73.4366 97.504 73.1851 97.3851 72.9624C97.273 72.7535 97.0683 72.5989 96.7712 72.4988C96.3818 72.3675 96.0483 72.4091 95.7706 72.6236C95.5031 72.8415 95.3038 73.1452 95.1725 73.5346Z" fill="#CBCBE7"/>
<path d="M91.8539 78.4955L97.5984 81.7478L98.1258 80.8162L99.382 81.5274L98.8546 82.459L99.5886 82.8745C100.351 83.306 100.787 83.8079 100.898 84.3802C101.019 84.9577 100.884 85.59 100.495 86.2769L100.128 86.9261L98.8575 86.207L99.0892 85.7976C99.281 85.4589 99.3463 85.179 99.285 84.9579C99.2332 84.7422 99.0473 84.5438 98.7274 84.3627L98.0076 83.9551L97.1605 85.4512L95.9043 84.74L96.7514 83.2439L91.0068 79.9916L91.8539 78.4955Z" fill="#CBCBE7"/>
<path d="M87.3357 84.8482C87.8475 84.2473 88.4355 83.832 89.0998 83.6023C89.7641 83.3727 90.4512 83.3329 91.1613 83.4831C91.8643 83.6416 92.5287 83.9872 93.1543 84.52C93.8047 85.0738 94.2599 85.6817 94.52 86.3435C94.7802 87.0053 94.8457 87.6789 94.7165 88.3643C94.5886 89.0649 94.2652 89.7197 93.7464 90.3289C93.2416 90.9217 92.6682 91.3281 92.0262 91.5483C91.3924 91.7755 90.7481 91.8233 90.0932 91.6917C89.4314 91.5683 88.8164 91.2648 88.2484 90.781C88.1331 90.6829 88.0379 90.5946 87.9625 90.5163C87.8802 90.4462 87.7885 90.3538 87.6872 90.2392L91.6938 85.5345C91.3271 85.2647 90.9447 85.0883 90.5469 85.0051C90.1573 84.9289 89.7756 84.9518 89.4018 85.0738C89.0363 85.2028 88.7133 85.432 88.4329 85.7613C88.1314 86.1153 87.9538 86.4824 87.8999 86.8625C87.8472 87.2579 87.9164 87.6436 88.1076 88.0195L86.9509 89.3778C86.6715 88.9553 86.4883 88.4867 86.401 87.9721C86.3067 87.4658 86.3303 86.9461 86.4717 86.4132C86.613 85.8803 86.9011 85.3586 87.3357 84.8482ZM92.6095 86.3355L89.7175 89.7313C90.209 90.1215 90.7273 90.2717 91.2724 90.182C91.8257 90.0993 92.2987 89.8275 92.6913 89.3665C93.0418 88.9549 93.2332 88.4716 93.2654 87.9168C93.2977 87.3619 93.079 86.8348 92.6095 86.3355Z" fill="#CBCBE7"/>
<path d="M78.8723 92.2313C79.5521 91.8092 80.1783 91.6495 80.7511 91.752C81.3239 91.8546 81.8442 92.2825 82.3119 93.0358L84.4764 96.5219L85.5099 95.8803L86.2714 97.1066L85.2379 97.7483L86.2646 99.4018L84.804 100.309L83.7773 98.6552L82.0411 99.7332L81.2796 98.5069L83.0158 97.4288L80.8513 93.9426C80.6345 93.5936 80.411 93.4078 80.1807 93.3853C79.9503 93.3629 79.6698 93.4543 79.3391 93.6597L78.5675 94.1388L77.7975 92.8986L78.8723 92.2313Z" fill="#CBCBE7"/>
<path d="M76.5589 93.5554L79.5817 101.011L78.0485 101.632L77.4915 100.388C77.4238 100.941 77.2253 101.429 76.896 101.855C76.5607 102.294 76.0975 102.633 75.5062 102.873L74.8298 101.205L75.2657 101.028C75.9771 100.74 76.4331 100.339 76.6335 99.8259C76.8379 99.3229 76.7878 98.6957 76.4831 97.9441L74.9656 94.2014L76.5589 93.5554Z" fill="#CBCBE7"/>
<path d="M68.7333 95.9785C69.2442 95.8871 69.7287 95.8938 70.1868 95.9986C70.6469 96.114 71.037 96.3298 71.3572 96.646C71.6774 96.9622 71.8832 97.3758 71.9745 97.8867C72.0831 98.4934 72.0207 99.0044 71.7874 99.4196C71.5453 99.8474 71.1841 100.192 70.7036 100.454C70.2144 100.728 69.6612 100.92 69.0438 101.031L67.0321 101.391C67.114 101.848 67.2542 102.202 67.4527 102.452C67.6531 102.713 67.8925 102.884 68.1708 102.966C68.451 103.059 68.7614 103.075 69.102 103.014C69.549 102.934 69.9238 102.757 70.2264 102.483C70.5202 102.222 70.6696 101.86 70.6748 101.398L72.3832 101.093C72.4328 101.677 72.3288 102.201 72.0712 102.664C71.8029 103.13 71.427 103.515 70.9435 103.822C70.4601 104.128 69.9256 104.333 69.3402 104.438C68.5738 104.575 67.9148 104.545 67.3631 104.347C66.8027 104.161 66.3554 103.84 66.0211 103.384C65.6761 102.929 65.4465 102.383 65.3323 101.744L64.8982 99.3172C64.8323 99.0105 64.7275 98.793 64.5838 98.665C64.4313 98.5494 64.1935 98.5096 63.8704 98.5454L63.6105 97.0925C64.0363 97.0164 64.4174 96.9976 64.7538 97.0363C65.0796 97.0769 65.3608 97.1749 65.5973 97.3303C65.8357 97.4964 66.0411 97.7233 66.2134 98.011C66.3927 97.5395 66.7005 97.111 67.1368 96.7254C67.5731 96.3398 68.1053 96.0908 68.7333 95.9785ZM68.5826 97.4389C68.1462 97.517 67.782 97.692 67.4901 97.9639C67.2002 98.2464 66.9961 98.5795 66.878 98.9631C66.7618 99.3574 66.7408 99.7621 66.815 100.177L66.8208 100.209L68.7048 99.8721C69.0134 99.8169 69.2995 99.7273 69.5629 99.6033C69.8157 99.4812 70.011 99.3144 70.149 99.103C70.2782 98.9042 70.3152 98.6504 70.2599 98.3417C70.1876 97.9372 69.9906 97.6649 69.6689 97.5247C69.3492 97.3952 68.9871 97.3666 68.5826 97.4389Z" fill="#CBCBE7"/>
<path d="M60.797 96.9074L63.2645 105.143L61.4523 105.017L59.6673 98.4222L56.9704 104.706L55.1905 104.582L58.7744 96.7667L60.797 96.9074Z" fill="#CBCBE7"/>
<path d="M51.434 95.0933C52.1857 95.3341 52.7954 95.7168 53.2632 96.2414C53.731 96.766 54.0323 97.3848 54.1672 98.0979C54.2918 98.8077 54.2287 99.554 53.978 100.337C53.7174 101.15 53.3318 101.804 52.8212 102.299C52.3106 102.794 51.7142 103.114 51.032 103.259C50.3362 103.411 49.6073 103.364 48.8453 103.12C48.1039 102.883 47.5079 102.51 47.0574 102.003C46.6036 101.505 46.3113 100.929 46.1806 100.274C46.0395 99.6156 46.0828 98.9312 46.3104 98.2207C46.3566 98.0765 46.4013 97.9546 46.4446 97.8549C46.4776 97.752 46.5275 97.6317 46.5943 97.4941L52.4792 99.3795C52.5869 98.9371 52.6025 98.5163 52.526 98.1171C52.4462 97.7282 52.2781 97.3848 52.0215 97.0869C51.7617 96.7993 51.4258 96.5895 51.0139 96.4575C50.5711 96.3157 50.1639 96.2931 49.7923 96.3898C49.4071 96.4934 49.0779 96.7059 48.8047 97.0271L47.1056 96.4828C47.388 96.0623 47.7498 95.7127 48.191 95.4339C48.622 95.1519 49.1107 94.9735 49.6569 94.8987C50.2032 94.8239 50.7955 94.8888 51.434 95.0933ZM52.0927 100.533L47.845 99.1722C47.6742 99.776 47.7352 100.312 48.0279 100.781C48.3174 101.259 48.7504 101.591 49.3271 101.776C49.8419 101.941 50.3616 101.931 50.8861 101.747C51.4105 101.563 51.8127 101.159 52.0927 100.533Z" fill="#CBCBE7"/>
<path d="M46.9324 93.51L41.6702 103.571L40.1468 102.774L45.409 92.7132L46.9324 93.51Z" fill="#CBCBE7"/>
<path d="M41.5839 90.0022C42.087 90.3767 42.4822 90.8056 42.7694 91.2889C43.0502 91.781 43.198 92.2887 43.2129 92.812C43.2278 93.3353 43.0923 93.8342 42.8064 94.3089L41.4142 93.2727C41.5859 92.9152 41.6159 92.5399 41.5042 92.1467C41.3924 91.7535 41.1414 91.4117 40.7511 91.1212C40.4041 90.8629 40.0673 90.7268 39.7407 90.7129C39.4077 90.7076 39.1475 90.8307 38.9603 91.0823C38.7989 91.2991 38.7467 91.5232 38.8038 91.7543C38.8522 91.9791 38.9633 92.2101 39.1372 92.4473C39.3024 92.6781 39.4957 92.9164 39.7172 93.1621C40.0452 93.5545 40.3354 93.9525 40.5877 94.3559C40.8314 94.753 40.9713 95.1536 41.0073 95.5579C41.0434 95.9622 40.9097 96.3682 40.6063 96.7758C40.3093 97.1748 39.9502 97.44 39.529 97.5713C39.0926 97.7048 38.6298 97.7108 38.1407 97.5893C37.6515 97.4679 37.1727 97.2328 36.7043 96.8842C36.0017 96.3612 35.5485 95.7476 35.3448 95.0433C35.1347 94.3478 35.2554 93.6423 35.7069 92.927L37.034 93.9148C36.8428 94.2442 36.7985 94.5752 36.9014 94.9079C36.9956 95.2341 37.2162 95.5263 37.5631 95.7846C37.8841 96.0235 38.1927 96.1521 38.4891 96.1705C38.7789 96.1975 39.0175 96.0853 39.2047 95.8337C39.3338 95.6602 39.3742 95.4611 39.3258 95.2364C39.271 95.0203 39.1642 94.7926 39.0054 94.5531C38.8315 94.3159 38.6458 94.0765 38.4481 93.835C38.0767 93.4103 37.7692 92.9995 37.5255 92.6024C37.2819 92.2054 37.1496 91.8036 37.1286 91.3972C37.1077 90.9907 37.2575 90.563 37.5781 90.1142C37.8751 89.7152 38.2493 89.4478 38.7008 89.3121C39.1371 89.1785 39.6075 89.1714 40.1118 89.2907C40.6075 89.4035 41.0982 89.6407 41.5839 90.0022Z" fill="#CBCBE7"/>
<path d="M35.6162 89.5934L29.9659 95.2318L28.6921 93.8915L34.6105 88.5353L35.6162 89.5934ZM37.6305 86.6273C37.854 86.8625 37.9618 87.1329 37.954 87.4386C37.9384 87.7518 37.817 88.0164 37.5897 88.2324C37.3624 88.4485 37.0958 88.5526 36.7901 88.5448C36.4765 88.5445 36.208 88.4267 35.9845 88.1916C35.7611 87.9565 35.6571 87.6823 35.6727 87.3691C35.6805 87.0634 35.7981 86.8025 36.0254 86.5865C36.2527 86.3705 36.5231 86.2626 36.8367 86.2629C37.1424 86.2707 37.407 86.3922 37.6305 86.6273Z" fill="#CBCBE7"/>
<path d="M44.9511 73.1475L45.3113 61.1379L38.9945 50.9173L44.543 49.4727L51.0452 54.8868L59.0575 52.7399L47.1524 36.9025L53.8083 35.0349L71.0261 49.4908L80.7666 46.8808C81.971 46.5581 83.1377 46.7226 84.2665 47.3743C85.3953 48.026 86.121 48.9541 86.4438 50.1586C86.7665 51.363 86.6068 52.5214 85.9647 53.6336C85.3225 54.7458 84.3992 55.4632 83.1948 55.786L73.3758 58.417L65.7214 79.4953L59.0445 81.2844L61.3861 61.5875L53.3738 63.7344L50.5283 71.6531L44.9511 73.1475Z" fill="#CBCBE7"/>
</g>
</g>
<defs>
<filter id="filter0_d_173_1081" x="-53.5638" y="-50.4" width="223.8" height="223.8" filterUnits="userSpaceOnUse" color-interpolation-filters="sRGB">
<feFlood flood-opacity="0" result="BackgroundImageFix"/>
<feColorMatrix in="SourceAlpha" type="matrix" values="0 0 0 0 0 0 0 0 0 0 0 0 0 0 0 0 0 0 127 0" result="hardAlpha"/>
<feOffset dy="4"/>
<feGaussianBlur stdDeviation="27.2"/>
<feComposite in2="hardAlpha" operator="out"/>
<feColorMatrix type="matrix" values="0 0 0 0 0.67451 0 0 0 0 0.745098 0 0 0 0 0.435294 0 0 0 0.1 0"/>
<feBlend mode="normal" in2="BackgroundImageFix" result="effect1_dropShadow_173_1081"/>
<feBlend mode="normal" in="SourceGraphic" in2="effect1_dropShadow_173_1081" result="shape"/>
</filter>
<clipPath id="clip0_173_1081">
<rect width="115" height="115" fill="white" transform="translate(0.836182)"/>
</clipPath>
</defs>
</svg>
